<svg width="20" height="10" viewBox="0 0 20 10" fill="none" xmlns="http://www.w3.org/2000/svg">
<path d="M15 4C15.5523 4 16 4.44772 16 5C16 5.55228 15.5523 6 15 6V4ZM1 6C0.447715 6 0 5.55228 0 5C0 4.44772 0.447715 4 1 4V6ZM15 6H1V4H15V6Z" fill="var(--theme-governance-buttonBorder)"/>
<path d="M19.7152 4.79657L14.265 0.903565C13.7355 0.525354 13 0.903853 13 1.55455V8.44545C13 9.09615 13.7355 9.47465 14.265 9.09644L19.7152 5.20343C19.8548 5.10373 19.8548 4.89627 19.7152 4.79657Z" fill="var(--theme-governance-buttonBorder)"/>
</svg>
