<svg width="17" height="16" viewBox="0 0 17 16" fill="none" xmlns="http://www.w3.org/2000/svg">
<g clip-path="url(#clip0_4255_1853)">
<path d="M14.9583 7.40595V8.00012C14.9575 9.39281 14.5065 10.7479 13.6727 11.8634C12.8388 12.9788 11.6667 13.7948 10.3311 14.1897C8.99559 14.5846 7.56819 14.5372 6.2618 14.0545C4.95542 13.5719 3.84005 12.6799 3.08204 11.5116C2.32403 10.3432 1.96399 8.96116 2.05563 7.57149C2.14726 6.18182 2.68566 4.85899 3.59051 3.80031C4.49537 2.74162 5.71822 2.0038 7.07666 1.69688C8.43511 1.38995 9.85638 1.53038 11.1285 2.0972" stroke="white" stroke-width="1.66076" stroke-linecap="round" stroke-linejoin="round"/>
<path d="M14.9583 2.83325L8.5 9.29804L6.5625 7.36054" stroke="white" stroke-width="1.66076" stroke-linecap="round" stroke-linejoin="round"/>
</g>
<defs>
<clipPath id="clip0_4255_1853">
<rect width="15.5" height="15.5" fill="white" transform="translate(0.75 0.25)"/>
</clipPath>
</defs>
</svg>
