<svg width="53" height="53" viewBox="0 0 45 45" fill="none" xmlns="http://www.w3.org/2000/svg">
<path d="M0 2.33766C0 1.0466 1.04661 0 2.33766 0H42.6623C43.9534 0 45 1.04661 45 2.33766V42.6623C45 43.9534 43.9534 45 42.6623 45H2.33766C1.0466 45 0 43.9534 0 42.6623V2.33766Z" fill="#FF5A5A"/>
<path fill-rule="evenodd" clip-rule="evenodd" d="M35 22.5C35 29.4036 29.4036 35 22.5 35C15.5964 35 10 29.4036 10 22.5C10 15.5964 15.5964 10 22.5 10C29.4036 10 35 15.5964 35 22.5ZM15.9624 29.0376C15.42 28.4953 15.42 27.6159 15.9624 27.0735L20.5358 22.5L15.9623 17.9265C15.4199 17.3841 15.4199 16.5047 15.9623 15.9623C16.5047 15.42 17.3841 15.42 17.9265 15.9623L22.5 20.5358L27.0735 15.9623C27.6159 15.42 28.4953 15.42 29.0377 15.9623C29.5801 16.5047 29.5801 17.3841 29.0377 17.9265L24.4642 22.5L29.0376 27.0735C29.58 27.6159 29.58 28.4953 29.0376 29.0376C28.4952 29.58 27.6158 29.58 27.0735 29.0376L22.5 24.4642L17.9265 29.0376C17.3842 29.58 16.5048 29.58 15.9624 29.0376Z" fill="white"/>
</svg>
