<svg width="82" height="81" viewBox="0 0 82 81" fill="none" xmlns="http://www.w3.org/2000/svg">
<path d="M18.6887 54.4076L23.0929 50.0034M23.0929 50.0034L27.4971 54.4076M23.0929 50.0034L23.0929 56.4366C23.0929 58.9645 25.1422 61.0139 27.6702 61.0139L54.4727 61.0139" stroke="black" stroke-width="2.28865" stroke-linecap="round" stroke-linejoin="round"/>
<circle cx="23.6444" cy="23.579" r="23.122" fill="#6202EF"/>
<path d="M26.6851 22.6818H25.4006V17.5436H27.9697C28.3104 17.5436 28.6371 17.679 28.878 17.9199C29.1189 18.1608 29.2542 18.4875 29.2542 18.8282C29.2542 19.1689 29.3896 19.4956 29.6305 19.7365C29.8714 19.9774 30.1981 20.1127 30.5388 20.1127C30.8795 20.1127 31.2062 19.9774 31.4471 19.7365C31.688 19.4956 31.8233 19.1689 31.8233 18.8282C31.8233 17.8061 31.4173 16.8259 30.6946 16.1032C29.9719 15.3805 28.9917 14.9745 27.9697 14.9745H25.4006V12.4054C25.4006 12.0647 25.2652 11.738 25.0243 11.4971C24.7834 11.2562 24.4567 11.1208 24.116 11.1208C23.7753 11.1208 23.4486 11.2562 23.2077 11.4971C22.9668 11.738 22.8315 12.0647 22.8315 12.4054V14.9745H21.5469C20.1842 14.9745 18.8772 15.5159 17.9136 16.4795C16.95 17.4431 16.4087 18.75 16.4087 20.1127C16.4087 21.4755 16.95 22.7824 17.9136 23.746C18.8772 24.7096 20.1842 25.2509 21.5469 25.2509H22.8315V30.3891H20.2624C19.9217 30.3891 19.5949 30.2538 19.354 30.0129C19.1131 29.772 18.9778 29.4453 18.9778 29.1046C18.9778 28.7639 18.8425 28.4372 18.6016 28.1963C18.3607 27.9554 18.0339 27.82 17.6932 27.82C17.3526 27.82 17.0258 27.9554 16.7849 28.1963C16.544 28.4372 16.4087 28.7639 16.4087 29.1046C16.4087 30.1266 16.8147 31.1068 17.5374 31.8295C18.2601 32.5522 19.2403 32.9583 20.2624 32.9583H22.8315V35.5274C22.8315 35.868 22.9668 36.1948 23.2077 36.4357C23.4486 36.6766 23.7753 36.8119 24.116 36.8119C24.4567 36.8119 24.7834 36.6766 25.0243 36.4357C25.2652 36.1948 25.4006 35.868 25.4006 35.5274V32.9583H26.6851C28.0479 32.9583 29.3548 32.4169 30.3184 31.4533C31.282 30.4897 31.8233 29.1828 31.8233 27.82C31.8233 26.4573 31.282 25.1504 30.3184 24.1868C29.3548 23.2232 28.0479 22.6818 26.6851 22.6818ZM22.8315 22.6818H21.5469C20.8655 22.6818 20.2121 22.4112 19.7303 21.9294C19.2485 21.4476 18.9778 20.7941 18.9778 20.1127C18.9778 19.4314 19.2485 18.7779 19.7303 18.2961C20.2121 17.8143 20.8655 17.5436 21.5469 17.5436H22.8315V22.6818ZM26.6851 30.3891H25.4006V25.2509H26.6851C27.3665 25.2509 28.0199 25.5216 28.5017 26.0034C28.9836 26.4852 29.2542 27.1387 29.2542 27.82C29.2542 28.5014 28.9836 29.1549 28.5017 29.6367C28.0199 30.1185 27.3665 30.3891 26.6851 30.3891Z" fill="white"/>
<path fill-rule="evenodd" clip-rule="evenodd" d="M81.9979 43.7392C80.8574 43.5192 79.6796 43.4041 78.4748 43.4041C68.2591 43.4041 59.9775 51.6856 59.9775 61.9013C59.9775 72.1171 68.2591 80.3986 78.4748 80.3986C79.6796 80.3986 80.8574 80.2834 81.9979 80.0635V43.7392Z" fill="#F4F4F4"/>
<path fill-rule="evenodd" clip-rule="evenodd" d="M82.0002 54.7407C81.8551 54.7198 81.708 54.7091 81.5597 54.7091H79.5044V52.6538C79.5044 52.3813 79.3962 52.1199 79.2034 51.9272C79.0107 51.7345 78.7493 51.6262 78.4768 51.6262C78.2043 51.6262 77.9429 51.7345 77.7502 51.9272C77.5574 52.1199 77.4492 52.3813 77.4492 52.6538V54.7091H76.4215C75.3314 54.7091 74.2858 55.1422 73.515 55.913C72.7441 56.6839 72.311 57.7294 72.311 58.8196C72.311 59.9098 72.7441 60.9553 73.515 61.7262C74.2858 62.497 75.3314 62.9301 76.4215 62.9301H77.4492V67.0406H75.3939C75.1214 67.0406 74.86 66.9324 74.6673 66.7396C74.4746 66.5469 74.3663 66.2855 74.3663 66.013C74.3663 65.7405 74.258 65.4791 74.0653 65.2864C73.8726 65.0936 73.6112 64.9854 73.3387 64.9854C73.0661 64.9854 72.8047 65.0936 72.612 65.2864C72.4193 65.4791 72.311 65.7405 72.311 66.013C72.311 66.8306 72.6358 67.6148 73.214 68.1929C73.7921 68.7711 74.5763 69.0959 75.3939 69.0959H77.4492V71.1511C77.4492 71.4237 77.5574 71.6851 77.7502 71.8778C77.9429 72.0705 78.2043 72.1788 78.4768 72.1788C78.7493 72.1788 79.0107 72.0705 79.2034 71.8778C79.3962 71.6851 79.5044 71.4237 79.5044 71.1511V69.0959H80.532C81.0388 69.0959 81.5358 69.0023 82.0002 68.8248V66.4237C81.9953 66.4287 81.9903 66.4337 81.9853 66.4387C81.5999 66.8241 81.0771 67.0406 80.532 67.0406H79.5044V62.9301H80.532C81.0771 62.9301 81.5999 63.1467 81.9853 63.5321C81.9903 63.5371 81.9953 63.5421 82.0002 63.5471V61.146C81.5358 60.9684 81.0388 60.8749 80.532 60.8749H79.5044V56.7644H81.5597C81.7135 56.7644 81.8638 56.7989 82.0002 56.8636V54.7407ZM76.4215 60.8749H77.4492V56.7644H76.4215C75.8765 56.7644 75.3537 56.9809 74.9683 57.3663C74.5828 57.7518 74.3663 58.2745 74.3663 58.8196C74.3663 59.3647 74.5828 59.8875 74.9683 60.2729C75.3537 60.6583 75.8765 60.8749 76.4215 60.8749Z" fill="#DBDEE2"/>
</svg>
