<svg width="78" height="81" viewBox="0 0 78 81" fill="none" xmlns="http://www.w3.org/2000/svg">
<path d="M17.7974 55.7211L21.9853 51.5332M21.9853 51.5332L26.1732 55.7211M21.9853 51.5332L21.9853 57.6504C21.9853 60.0543 23.934 62.003 26.3378 62.003L51.8241 62.003" stroke="white" stroke-width="2.17626" stroke-linecap="round" stroke-linejoin="round"/>
<circle cx="22.5095" cy="26.4064" r="21.9865" fill="#AF78FF"/>
<path d="M25.4007 25.5536H24.1792V20.6677H26.6222C26.9461 20.6677 27.2568 20.7964 27.4859 21.0254C27.7149 21.2545 27.8436 21.5652 27.8436 21.8891C27.8436 22.2131 27.9723 22.5238 28.2014 22.7529C28.4305 22.9819 28.7412 23.1106 29.0651 23.1106C29.3891 23.1106 29.6998 22.9819 29.9288 22.7529C30.1579 22.5238 30.2866 22.2131 30.2866 21.8891C30.2866 20.9173 29.9005 19.9852 29.2133 19.298C28.5261 18.6108 27.594 18.2247 26.6222 18.2247H24.1792V15.7818C24.1792 15.4578 24.0505 15.1471 23.8215 14.9181C23.5924 14.689 23.2817 14.5603 22.9577 14.5603C22.6338 14.5603 22.3231 14.689 22.094 14.9181C21.865 15.1471 21.7363 15.4578 21.7363 15.7818V18.2247H20.5148C19.219 18.2247 17.9762 18.7395 17.06 19.6558C16.1437 20.572 15.6289 21.8148 15.6289 23.1106C15.6289 24.4064 16.1437 25.6492 17.06 26.5655C17.9762 27.4817 19.219 27.9965 20.5148 27.9965H21.7363V32.8824H19.2933C18.9694 32.8824 18.6587 32.7537 18.4296 32.5246C18.2005 32.2956 18.0719 31.9849 18.0719 31.6609C18.0719 31.337 17.9432 31.0263 17.7141 30.7972C17.485 30.5681 17.1743 30.4395 16.8504 30.4395C16.5264 30.4395 16.2157 30.5681 15.9867 30.7972C15.7576 31.0263 15.6289 31.337 15.6289 31.6609C15.6289 32.6328 16.015 33.5648 16.7022 34.2521C17.3894 34.9393 18.3215 35.3253 19.2933 35.3253H21.7363V37.7683C21.7363 38.0922 21.865 38.4029 22.094 38.632C22.3231 38.8611 22.6338 38.9898 22.9577 38.9898C23.2817 38.9898 23.5924 38.8611 23.8215 38.632C24.0505 38.4029 24.1792 38.0922 24.1792 37.7683V35.3253H25.4007C26.6965 35.3253 27.9393 34.8106 28.8555 33.8943C29.7718 32.978 30.2866 31.7353 30.2866 30.4395C30.2866 29.1436 29.7718 27.9009 28.8555 26.9846C27.9393 26.0683 26.6965 25.5536 25.4007 25.5536ZM21.7363 25.5536H20.5148C19.8669 25.5536 19.2455 25.2962 18.7874 24.838C18.3292 24.3799 18.0719 23.7585 18.0719 23.1106C18.0719 22.4627 18.3292 21.8413 18.7874 21.3832C19.2455 20.925 19.8669 20.6677 20.5148 20.6677H21.7363V25.5536ZM25.4007 32.8824H24.1792V27.9965H25.4007C26.0486 27.9965 26.67 28.2539 27.1281 28.712C27.5863 29.1702 27.8436 29.7915 27.8436 30.4395C27.8436 31.0874 27.5863 31.7087 27.1281 32.1669C26.67 32.625 26.0486 32.8824 25.4007 32.8824Z" fill="black"/>
<path fill-rule="evenodd" clip-rule="evenodd" d="M77.9976 45.5765C76.9131 45.3673 75.7931 45.2578 74.6475 45.2578C64.9334 45.2578 57.0586 53.1326 57.0586 62.8468C57.0586 72.5609 64.9334 80.4357 74.6475 80.4357C75.7931 80.4357 76.9131 80.3262 77.9976 80.1171V45.5765Z" fill="#3C3957"/>
<path fill-rule="evenodd" clip-rule="evenodd" d="M77.9995 56.0377C77.8616 56.0178 77.7216 56.0077 77.5806 56.0077H75.6263V54.0533C75.6263 53.7942 75.5233 53.5456 75.3401 53.3624C75.1568 53.1791 74.9083 53.0762 74.6491 53.0762C74.39 53.0762 74.1414 53.1791 73.9582 53.3624C73.7749 53.5456 73.6719 53.7942 73.6719 54.0533V56.0077H72.6948C71.6581 56.0077 70.664 56.4195 69.931 57.1525C69.1979 57.8855 68.7861 58.8797 68.7861 59.9163C68.7861 60.953 69.1979 61.9471 69.931 62.6802C70.664 63.4132 71.6581 63.825 72.6948 63.825H73.6719V67.7336H71.7176C71.4585 67.7336 71.2099 67.6307 71.0267 67.4474C70.8434 67.2642 70.7405 67.0156 70.7405 66.7565C70.7405 66.4973 70.6375 66.2488 70.4543 66.0655C70.271 65.8822 70.0225 65.7793 69.7633 65.7793C69.5041 65.7793 69.2556 65.8822 69.0723 66.0655C68.8891 66.2488 68.7861 66.4973 68.7861 66.7565C68.7861 67.5339 69.095 68.2796 69.6447 68.8293C70.1945 69.3791 70.9401 69.688 71.7176 69.688H73.6719V71.6423C73.6719 71.9014 73.7749 72.15 73.9582 72.3332C74.1414 72.5165 74.39 72.6194 74.6491 72.6194C74.9083 72.6194 75.1568 72.5165 75.3401 72.3332C75.5233 72.15 75.6263 71.9014 75.6263 71.6423V69.688H76.6034C77.0853 69.688 77.558 69.599 77.9995 69.4301V67.1469C77.9948 67.1517 77.9901 67.1565 77.9854 67.1612C77.6188 67.5277 77.1218 67.7336 76.6034 67.7336H75.6263V63.825H76.6034C77.1218 63.825 77.6188 64.0309 77.9854 64.3974C77.9901 64.4021 77.9948 64.4069 77.9995 64.4117V62.1285C77.558 61.9596 77.0853 61.8706 76.6034 61.8706H75.6263V57.962H77.5806C77.7269 57.962 77.8698 57.9948 77.9995 58.0563V56.0377ZM72.6948 61.8706H73.6719V57.962H72.6948C72.1765 57.962 71.6794 58.1679 71.3129 58.5344C70.9464 58.9009 70.7405 59.398 70.7405 59.9163C70.7405 60.4346 70.9464 60.9317 71.3129 61.2982C71.6794 61.6647 72.1765 61.8706 72.6948 61.8706Z" fill="#9897A7"/>
<path d="M37.3628 20.3659C37.4447 14.9369 41.8304 10.5512 47.2595 10.4693V10.4669C41.8304 10.3851 37.4447 5.99936 37.3628 0.570312H37.3605C37.2786 5.99936 32.8929 10.3851 27.4639 10.4669V10.4693C32.8929 10.5512 37.2786 14.9369 37.3605 20.3659H37.3628Z" fill="#DFC9FF"/>
</svg>
