<svg width="22" height="22" viewBox="0 0 22 22" fill="none" xmlns="http://www.w3.org/2000/svg">
<g opacity="0.4">
<path d="M11 2.2C6.13989 2.2 2.2 6.13989 2.2 11C2.2 15.8601 6.13989 19.8 11 19.8C15.8601 19.8 19.8 15.8601 19.8 11C19.8 6.13989 15.8601 2.2 11 2.2ZM0 11C0 4.92487 4.92487 0 11 0C17.0751 0 22 4.92487 22 11C22 17.0751 17.0751 22 11 22C4.92487 22 0 17.0751 0 11Z" fill=var(--theme-governance-infoIconColor)/>
<path d="M11 8.48571C11.6075 8.48571 12.1 8.9782 12.1 9.58571V16.1857C12.1 16.7932 11.6075 17.2857 11 17.2857C10.3925 17.2857 9.9 16.7932 9.9 16.1857V9.58571C9.9 8.9782 10.3925 8.48571 11 8.48571Z" fill=var(--theme-governance-infoIconColor)/>
<path d="M12.1 6.07705C12.1 6.72795 11.5723 7.25562 10.9214 7.25562C10.2705 7.25562 9.74286 6.72795 9.74286 6.07705C9.74286 5.42614 10.2705 4.89847 10.9214 4.89847C11.5723 4.89847 12.1 5.42614 12.1 6.07705Z" fill=var(--theme-governance-infoIconColor)/>
</g>
</svg>
