<svg width="87" height="36" viewBox="0 0 87 36" fill="none" xmlns="http://www.w3.org/2000/svg">
<g clip-path="url(#clip0_514_1121)">
<path d="M17.9263 10.6526C17.9263 11.76 17.6624 12.7981 17.1345 13.7671C16.6263 14.736 15.8149 15.5171 14.7006 16.1103C13.6058 16.7035 12.2178 17.0002 10.5365 17.0002H7.10547V24.9493H3V4.24585H10.5365C12.12 4.24585 13.4689 4.52268 14.5833 5.07636C15.6976 5.63003 16.5285 6.39134 17.0759 7.36027C17.6428 8.3292 17.9263 9.42666 17.9263 10.6526ZM10.3605 13.6484C11.4944 13.6484 12.3351 13.3914 12.8825 12.8772C13.4298 12.3433 13.7035 11.6018 13.7035 10.6526C13.7035 8.63569 12.5892 7.62722 10.3605 7.62722H7.10547V13.6484H10.3605Z" fill="#6202EF"/>
<path d="M22.2255 3V24.9492H18.1201V3H22.2255Z" fill="#6202EF"/>
<path d="M38.6628 16.3772C38.6628 16.9704 38.6237 17.5043 38.5455 17.9789H26.669C26.7667 19.1653 27.1773 20.0947 27.9006 20.767C28.624 21.4393 29.5135 21.7755 30.5692 21.7755C32.0941 21.7755 33.1791 21.1131 33.8242 19.7882H38.2523C37.7831 21.3701 36.8838 22.6752 35.5544 23.7035C34.225 24.712 32.5926 25.2162 30.6572 25.2162C29.0932 25.2162 27.6856 24.8701 26.4344 24.1781C25.2028 23.4662 24.235 22.4676 23.5312 21.1823C22.847 19.897 22.5049 18.4139 22.5049 16.7331C22.5049 15.0325 22.847 13.5396 23.5312 12.2543C24.2155 10.9689 25.1734 9.98023 26.4051 9.28814C27.6367 8.59605 29.0541 8.25 30.6572 8.25C32.2016 8.25 33.5799 8.58616 34.792 9.25848C36.0236 9.9308 36.9718 10.8898 37.6365 12.1356C38.3207 13.3616 38.6628 14.7755 38.6628 16.3772ZM34.4107 15.1907C34.3912 14.1229 34.01 13.2726 33.2671 12.6398C32.5242 11.9873 31.6151 11.661 30.5399 11.661C29.5233 11.661 28.6631 11.9774 27.9593 12.6102C27.275 13.2232 26.8547 14.0834 26.6983 15.1907H34.4107Z" fill="#6202EF"/>
<path d="M47.9412 8.27979C49.8766 8.27979 51.4406 8.90268 52.6332 10.1484C53.8257 11.3744 54.422 13.0948 54.422 15.3095V24.9493H50.3165V15.873C50.3165 14.5679 49.9939 13.5694 49.3488 12.8773C48.7036 12.1654 47.8239 11.8095 46.7095 11.8095C45.5757 11.8095 44.6764 12.1654 44.0117 12.8773C43.3665 13.5694 43.0439 14.5679 43.0439 15.873V24.9493H38.9385V8.51708H43.0439V10.5637C43.5913 9.85183 44.2854 9.29816 45.126 8.90268C45.9862 8.48742 46.9246 8.27979 47.9412 8.27979Z" fill="#6202EF"/>
<path d="M60.3851 11.928V19.8772C60.3851 20.4309 60.5122 20.8362 60.7663 21.0933C61.04 21.3306 61.4897 21.4492 62.1153 21.4492H64.0214V24.9492H61.4408C57.9805 24.9492 56.2503 23.2487 56.2503 19.8475V11.928H54.3149V8.51695H56.2503V4.45337H60.3851V8.51695H64.0214V11.928H60.3851Z" fill="#6202EF"/>
<path d="M79.7949 8.51709L69.7365 32.7206H65.3671L68.8861 24.5341L62.376 8.51709H66.98L71.1734 19.9959L75.4255 8.51709H79.7949Z" fill="#6202EF"/>
<path d="M83.5979 23.1495C83.5979 24.5406 82.4703 25.6682 81.0792 25.6682C79.6882 25.6682 78.5605 24.5406 78.5605 23.1495C78.5605 21.7585 79.6882 20.6309 81.0792 20.6309C82.4703 20.6309 83.5979 21.7585 83.5979 23.1495Z" fill="#6202EF"/>
<path d="M43.2728 30.6928C43.5262 30.7401 43.7346 30.8668 43.8979 31.073C44.0611 31.2793 44.1428 31.5156 44.1428 31.7819C44.1428 32.0225 44.0826 32.2352 43.9623 32.42C43.8463 32.6004 43.6766 32.7422 43.4532 32.8453C43.2298 32.9484 42.9656 33 42.6605 33H40.7207V28.5017H42.5767C42.8818 28.5017 43.1439 28.5511 43.363 28.6499C43.5864 28.7487 43.7539 28.8862 43.8657 29.0623C43.9817 29.2385 44.0397 29.4383 44.0397 29.6617C44.0397 29.9238 43.9688 30.1429 43.827 30.319C43.6895 30.4952 43.5048 30.6198 43.2728 30.6928ZM41.6229 30.3577H42.4478C42.6627 30.3577 42.8281 30.3104 42.9441 30.2159C43.0601 30.1171 43.1181 29.9775 43.1181 29.797C43.1181 29.6166 43.0601 29.4769 42.9441 29.3781C42.8281 29.2793 42.6627 29.2299 42.4478 29.2299H41.6229V30.3577ZM42.5316 32.2653C42.7507 32.2653 42.9204 32.2137 43.0407 32.1106C43.1653 32.0075 43.2276 31.8614 43.2276 31.6724C43.2276 31.4791 43.1632 31.3287 43.0343 31.2213C42.9054 31.1096 42.7314 31.0537 42.5123 31.0537H41.6229V32.2653H42.5316Z" fill="#4E5D78"/>
<path d="M47.1337 29.2298V30.3576H48.6481V31.0729H47.1337V32.2652H48.8415V32.9999H46.2314V28.4951H48.8415V29.2298H47.1337Z" fill="#4E5D78"/>
<path d="M54.0916 28.5017V29.2299H52.8929V33H51.9906V29.2299H50.792V28.5017H54.0916Z" fill="#4E5D78"/>
<path d="M58.8777 32.1427H57.0861L56.7897 32.9999H55.8423L57.4599 28.4951H58.5104L60.128 32.9999H59.1742L58.8777 32.1427ZM58.6328 31.4209L57.9819 29.5391L57.331 31.4209H58.6328Z" fill="#4E5D78"/>
</g>
<defs>
<clipPath id="clip0_514_1121">
<rect width="81" height="30" fill="white" transform="translate(3 3)"/>
</clipPath>
</defs>
</svg>