<svg width="81" height="30" viewBox="0 0 81 30" fill="none" xmlns="http://www.w3.org/2000/svg">
    <path d="M14.9263 7.65257C14.9263 8.75992 14.6624 9.79806 14.1345 10.767C13.6263 11.7359 12.8149 12.517 11.7006 13.1102C10.6058 13.7034 9.21776 14.0001 7.53647 14.0001H4.10547V21.9492H0V1.24577H7.53647C9.12001 1.24577 10.4689 1.5226 11.5833 2.07628C12.6976 2.62995 13.5285 3.39126 14.0759 4.36019C14.6428 5.32912 14.9263 6.42658 14.9263 7.65257ZM7.36052 10.6483C8.49441 10.6483 9.33506 10.3913 9.88245 9.87716C10.4298 9.34326 10.7035 8.60173 10.7035 7.65257C10.7035 5.63561 9.58921 4.62714 7.36052 4.62714H4.10547V10.6483H7.36052Z" fill="white"/>
    <path d="M19.2255 0V21.9492H15.1201V0H19.2255Z" fill="white"/>
    <path d="M35.6629 13.3772C35.6629 13.9704 35.6238 14.5043 35.5456 14.9789H23.6691C23.7668 16.1653 24.1774 17.0947 24.9007 17.767C25.6241 18.4393 26.5136 18.7755 27.5693 18.7755C29.0942 18.7755 30.1792 18.1131 30.8243 16.7882H35.2524C34.7832 18.3701 33.8839 19.6752 32.5545 20.7035C31.2251 21.712 29.5927 22.2162 27.6573 22.2162C26.0933 22.2162 24.6857 21.8701 23.4345 21.1781C22.2029 20.4662 21.2351 19.4676 20.5313 18.1823C19.8471 16.897 19.505 15.4139 19.505 13.7331C19.505 12.0325 19.8471 10.5396 20.5313 9.25428C21.2156 7.96896 22.1735 6.98025 23.4052 6.28816C24.6368 5.59607 26.0542 5.25002 27.6573 5.25002C29.2017 5.25002 30.58 5.58618 31.7921 6.2585C33.0237 6.93082 33.9719 7.88986 34.6366 9.13563C35.3208 10.3616 35.6629 11.7755 35.6629 13.3772ZM31.4108 12.1907C31.3913 11.1229 31.0101 10.2726 30.2672 9.63987C29.5243 8.98733 28.6152 8.66105 27.54 8.66105C26.5234 8.66105 25.6632 8.97744 24.9594 9.61021C24.2751 10.2232 23.8548 11.0834 23.6984 12.1907H31.4108Z" fill="white"/>
    <path d="M44.9412 5.27968C46.8766 5.27968 48.4406 5.90257 49.6332 7.14833C50.8257 8.37433 51.422 10.0947 51.422 12.3094V21.9492H47.3165V12.8729C47.3165 11.5678 46.9939 10.5693 46.3488 9.87716C45.7036 9.16529 44.8239 8.80936 43.7095 8.80936C42.5757 8.80936 41.6764 9.16529 41.0117 9.87716C40.3665 10.5693 40.0439 11.5678 40.0439 12.8729V21.9492H35.9385V5.51697H40.0439V7.56359C40.5913 6.85172 41.2854 6.29805 42.126 5.90257C42.9862 5.48731 43.9246 5.27968 44.9412 5.27968Z" fill="white"/>
    <path d="M57.3849 8.928V16.8772C57.3849 17.4309 57.512 17.8362 57.7661 18.0933C58.0398 18.3306 58.4895 18.4492 59.1151 18.4492H61.0212V21.9492H58.4406C54.9803 21.9492 53.2501 20.2487 53.2501 16.8475V8.928H51.3147V5.51697H53.2501V1.45339H57.3849V5.51697H61.0212V8.928H57.3849Z" fill="white"/>
    <path d="M76.7951 5.51697L66.7367 29.7205H62.3673L65.8863 21.534L59.3762 5.51697H63.9802L68.1736 16.9958L72.4257 5.51697H76.7951Z" fill="white"/>
    <path d="M80.5979 20.1495C80.5979 21.5406 79.4703 22.6682 78.0792 22.6682C76.6882 22.6682 75.5605 21.5406 75.5605 20.1495C75.5605 18.7585 76.6882 17.6309 78.0792 17.6309C79.4703 17.6309 80.5979 18.7585 80.5979 20.1495Z" fill="white"/>
    <path d="M40.2728 27.6927C40.5262 27.74 40.7346 27.8667 40.8979 28.0729C41.0611 28.2792 41.1428 28.5155 41.1428 28.7818C41.1428 29.0224 41.0826 29.2351 40.9623 29.4199C40.8463 29.6003 40.6766 29.7421 40.4532 29.8452C40.2298 29.9483 39.9656 29.9999 39.6605 29.9999H37.7207V25.5016H39.5767C39.8818 25.5016 40.1439 25.551 40.363 25.6498C40.5864 25.7486 40.7539 25.8861 40.8657 26.0622C40.9817 26.2384 41.0397 26.4382 41.0397 26.6616C41.0397 26.9237 40.9688 27.1428 40.827 27.3189C40.6895 27.4951 40.5048 27.6197 40.2728 27.6927ZM38.6229 27.3576H39.4478C39.6627 27.3576 39.8281 27.3103 39.9441 27.2158C40.0601 27.117 40.1181 26.9774 40.1181 26.7969C40.1181 26.6165 40.0601 26.4768 39.9441 26.378C39.8281 26.2792 39.6627 26.2298 39.4478 26.2298H38.6229V27.3576ZM39.5316 29.2652C39.7507 29.2652 39.9204 29.2136 40.0407 29.1105C40.1653 29.0074 40.2276 28.8613 40.2276 28.6723C40.2276 28.479 40.1632 28.3286 40.0343 28.2212C39.9054 28.1095 39.7314 28.0536 39.5123 28.0536H38.6229V29.2652H39.5316Z" fill="white"/>
    <path d="M44.1335 26.2298V27.3576H45.6479V28.0729H44.1335V29.2652H45.8413V29.9999H43.2312V25.4951H45.8413V26.2298H44.1335Z" fill="white"/>
    <path d="M51.0918 25.5016V26.2298H49.8931V29.9999H48.9908V26.2298H47.7922V25.5016H51.0918Z" fill="white"/>
    <path d="M55.8777 29.1427H54.0861L53.7897 29.9999H52.8423L54.4599 25.4951H55.5104L57.128 29.9999H56.1742L55.8777 29.1427ZM55.6328 28.4209L54.9819 26.5391L54.331 28.4209H55.6328Z" fill="white"/>
</svg>
