<svg width="80" height="30" viewBox="0 0 80 30" fill="none" xmlns="http://www.w3.org/2000/svg">
    <g id="Group 1000001814">
        <g id="Overview">
            <path d="M14.8156 7.58903C14.8156 8.68719 14.5536 9.71671 14.0297 10.6776C13.5252 11.6385 12.7199 12.4131 11.6138 13.0014C10.5271 13.5897 9.14938 13.8838 7.48057 13.8838H4.07502V21.767H0V1.23542H7.48057C9.05236 1.23542 10.3913 1.50996 11.4974 2.05904C12.6034 2.60812 13.4282 3.3631 13.9715 4.32398C14.5342 5.28487 14.8156 6.37322 14.8156 7.58903ZM7.30592 10.5599C8.4314 10.5599 9.26581 10.305 9.80915 9.79515C10.3525 9.26568 10.6242 8.53031 10.6242 7.58903C10.6242 5.58882 9.51807 4.58872 7.30592 4.58872H4.07502V10.5599H7.30592Z"
                  fill="url(#paint0_linear)"/>
            <path d="M14.8156 7.58903C14.8156 8.68719 14.5536 9.71671 14.0297 10.6776C13.5252 11.6385 12.7199 12.4131 11.6138 13.0014C10.5271 13.5897 9.14938 13.8838 7.48057 13.8838H4.07502V21.767H0V1.23542H7.48057C9.05236 1.23542 10.3913 1.50996 11.4974 2.05904C12.6034 2.60812 13.4282 3.3631 13.9715 4.32398C14.5342 5.28487 14.8156 6.37322 14.8156 7.58903ZM7.30592 10.5599C8.4314 10.5599 9.26581 10.305 9.80915 9.79515C10.3525 9.26568 10.6242 8.53031 10.6242 7.58903C10.6242 5.58882 9.51807 4.58872 7.30592 4.58872H4.07502V10.5599H7.30592Z"
                  />
            <path d="M19.0829 0V21.767H15.0079V0H19.0829Z" fill="url(#paint1_linear)"/>
            <path d="M19.0829 0V21.767H15.0079V0H19.0829Z"/>
            <path d="M35.3984 13.2661C35.3984 13.8544 35.3596 14.3839 35.282 14.8545H23.4935C23.5905 16.0311 23.998 16.9528 24.716 17.6195C25.434 18.2862 26.3169 18.6196 27.3648 18.6196C28.8784 18.6196 29.9553 17.9627 30.5957 16.6488H34.9909C34.5252 18.2176 33.6326 19.5119 32.313 20.5316C30.9935 21.5317 29.3732 22.0317 27.4521 22.0317C25.8997 22.0317 24.5026 21.6886 23.2607 21.0022C22.0382 20.2962 21.0776 19.306 20.379 18.0313C19.6999 16.7567 19.3603 15.2859 19.3603 13.6191C19.3603 11.9326 19.6999 10.4521 20.379 9.17744C21.0582 7.90279 22.0091 6.9223 23.2316 6.23595C24.4541 5.5496 25.8609 5.20643 27.4521 5.20643C28.9851 5.20643 30.3531 5.5398 31.5562 6.20653C32.7787 6.87327 33.7199 7.82435 34.3796 9.05978C35.0588 10.2756 35.3984 11.6777 35.3984 13.2661ZM31.1778 12.0895C31.1584 11.0306 30.78 10.1873 30.0427 9.55983C29.3053 8.9127 28.4029 8.58914 27.3357 8.58914C26.3266 8.58914 25.4728 8.9029 24.7742 9.53042C24.0951 10.1383 23.6779 10.9914 23.5226 12.0895H31.1778Z"
                  fill="url(#paint2_linear)"/>
            <path d="M35.3984 13.2661C35.3984 13.8544 35.3596 14.3839 35.282 14.8545H23.4935C23.5905 16.0311 23.998 16.9528 24.716 17.6195C25.434 18.2862 26.3169 18.6196 27.3648 18.6196C28.8784 18.6196 29.9553 17.9627 30.5957 16.6488H34.9909C34.5252 18.2176 33.6326 19.5119 32.313 20.5316C30.9935 21.5317 29.3732 22.0317 27.4521 22.0317C25.8997 22.0317 24.5026 21.6886 23.2607 21.0022C22.0382 20.2962 21.0776 19.306 20.379 18.0313C19.6999 16.7567 19.3603 15.2859 19.3603 13.6191C19.3603 11.9326 19.6999 10.4521 20.379 9.17744C21.0582 7.90279 22.0091 6.9223 23.2316 6.23595C24.4541 5.5496 25.8609 5.20643 27.4521 5.20643C28.9851 5.20643 30.3531 5.5398 31.5562 6.20653C32.7787 6.87327 33.7199 7.82435 34.3796 9.05978C35.0588 10.2756 35.3984 11.6777 35.3984 13.2661ZM31.1778 12.0895C31.1584 11.0306 30.78 10.1873 30.0427 9.55983C29.3053 8.9127 28.4029 8.58914 27.3357 8.58914C26.3266 8.58914 25.4728 8.9029 24.7742 9.53042C24.0951 10.1383 23.6779 10.9914 23.5226 12.0895H31.1778Z"
                  />
            <path d="M44.6078 5.23584C46.5289 5.23584 48.0813 5.85356 49.265 7.08898C50.4487 8.3048 51.0405 10.0109 51.0405 12.2072V21.767H46.9655V12.766C46.9655 11.4718 46.6453 10.4815 46.005 9.79515C45.3646 9.08919 44.4914 8.73621 43.3853 8.73621C42.2598 8.73621 41.3672 9.08919 40.7074 9.79515C40.0671 10.4815 39.7469 11.4718 39.7469 12.766V21.767H35.6719V5.47116H39.7469V7.50079C40.2902 6.79483 40.9791 6.24575 41.8135 5.85356C42.6673 5.44175 43.5988 5.23584 44.6078 5.23584Z"
                  fill="url(#paint3_linear)"/>
            <path d="M44.6078 5.23584C46.5289 5.23584 48.0813 5.85356 49.265 7.08898C50.4487 8.3048 51.0405 10.0109 51.0405 12.2072V21.767H46.9655V12.766C46.9655 11.4718 46.6453 10.4815 46.005 9.79515C45.3646 9.08919 44.4914 8.73621 43.3853 8.73621C42.2598 8.73621 41.3672 9.08919 40.7074 9.79515C40.0671 10.4815 39.7469 11.4718 39.7469 12.766V21.767H35.6719V5.47116H39.7469V7.50079C40.2902 6.79483 40.9791 6.24575 41.8135 5.85356C42.6673 5.44175 43.5988 5.23584 44.6078 5.23584Z"
                  />
            <path d="M56.9592 8.85387V16.7371C56.9592 17.2861 57.0854 17.6881 57.3376 17.9431C57.6093 18.1784 58.0556 18.296 58.6766 18.296H60.5685V21.767H58.0071C54.5724 21.767 52.8551 20.0805 52.8551 16.7076V8.85387H50.934V5.47116H52.8551V1.44133H56.9592V5.47116H60.5685V8.85387H56.9592Z"
                  fill="url(#paint4_linear)"/>
            <path d="M56.9592 8.85387V16.7371C56.9592 17.2861 57.0854 17.6881 57.3376 17.9431C57.6093 18.1784 58.0556 18.296 58.6766 18.296H60.5685V21.767H58.0071C54.5724 21.767 52.8551 20.0805 52.8551 16.7076V8.85387H50.934V5.47116H52.8551V1.44133H56.9592V5.47116H60.5685V8.85387H56.9592Z"
                  />
            <path d="M76.2254 5.47116L66.2417 29.4737H61.9047L65.3976 21.3552L58.9357 5.47116H63.5056L67.6679 16.8547L71.8885 5.47116H76.2254Z"
                  fill="url(#paint5_linear)"/>
            <path d="M76.2254 5.47116L66.2417 29.4737H61.9047L65.3976 21.3552L58.9357 5.47116H63.5056L67.6679 16.8547L71.8885 5.47116H76.2254Z"
                  />
        </g>
        <g id="Ellipse 30">
            <circle cx="77.366" cy="20.1824" r="2.63158" fill="url(#paint6_linear)"/>
            <circle cx="77.366" cy="20.1824" r="2.63158"/>
        </g>
    </g>
    <defs>
        <linearGradient id="paint0_linear" x1="-1.50872e-07" y1="14.7368" x2="114.372" y2="41.7406"
                        gradientUnits="userSpaceOnUse">
            <stop stop-color="#7028E4"/>
            <stop offset="1" stop-color="#E5B2CA"/>
        </linearGradient>
        <linearGradient id="paint1_linear" x1="-1.50872e-07" y1="14.7368" x2="114.372" y2="41.7406"
                        gradientUnits="userSpaceOnUse">
            <stop stop-color="#7028E4"/>
            <stop offset="1" stop-color="#E5B2CA"/>
        </linearGradient>
        <linearGradient id="paint2_linear" x1="-1.50872e-07" y1="14.7368" x2="114.372" y2="41.7406"
                        gradientUnits="userSpaceOnUse">
            <stop stop-color="#7028E4"/>
            <stop offset="1" stop-color="#E5B2CA"/>
        </linearGradient>
        <linearGradient id="paint3_linear" x1="-1.50872e-07" y1="14.7368" x2="114.372" y2="41.7406"
                        gradientUnits="userSpaceOnUse">
            <stop stop-color="#7028E4"/>
            <stop offset="1" stop-color="#E5B2CA"/>
        </linearGradient>
        <linearGradient id="paint4_linear" x1="-1.50872e-07" y1="14.7368" x2="114.372" y2="41.7406"
                        gradientUnits="userSpaceOnUse">
            <stop stop-color="#7028E4"/>
            <stop offset="1" stop-color="#E5B2CA"/>
        </linearGradient>
        <linearGradient id="paint5_linear" x1="-1.50872e-07" y1="14.7368" x2="114.372" y2="41.7406"
                        gradientUnits="userSpaceOnUse">
            <stop stop-color="#7028E4"/>
            <stop offset="1" stop-color="#E5B2CA"/>
        </linearGradient>
        <linearGradient id="paint6_linear" x1="74.7344" y1="20.1824" x2="82.6187" y2="20.8682"
                        gradientUnits="userSpaceOnUse">
            <stop stop-color="#7028E4"/>
            <stop offset="1" stop-color="#E5B2CA"/>
        </linearGradient>
    </defs>
</svg>
