<svg width="16" height="13" viewBox="0 0 16 13" fill="none" xmlns="http://www.w3.org/2000/svg">
<path d="M0.409634 7.35001H0.434091L2.32708 2.62976C2.32708 2.62976 2.32708 2.62736 2.32948 2.62736C2.34663 2.58828 2.36857 2.55159 2.39554 2.51731C2.40537 2.50268 2.41759 2.49045 2.42982 2.47571C2.44696 2.45617 2.46651 2.43903 2.48605 2.4244C2.51291 2.40234 2.53988 2.38531 2.57165 2.36817C2.58879 2.35834 2.60593 2.35103 2.62296 2.34371C2.64502 2.33389 2.66947 2.32657 2.69393 2.32166C2.71107 2.31674 2.73062 2.31674 2.74776 2.31434C2.76981 2.31194 2.78936 2.30452 2.8113 2.30452C2.82353 2.30452 2.83335 2.30692 2.84558 2.30692H7.17453C7.24298 2.11858 7.37018 1.95961 7.53405 1.84957L7.53394 0.707433C7.53394 0.418874 7.76868 0.186523 8.05485 0.186523C8.34341 0.186523 8.57576 0.421261 8.57576 0.707433V1.84957C8.73964 1.95962 8.86684 2.11859 8.93529 2.30692H12.9951C13.0024 2.30692 13.0097 2.30452 13.0171 2.30452C13.0294 2.30452 13.0392 2.30692 13.0514 2.30692H13.2837C13.3351 2.30692 13.384 2.31674 13.4329 2.33137C13.4378 2.33378 13.4402 2.33378 13.4451 2.33629C13.5405 2.36806 13.6236 2.42429 13.6873 2.50017C13.6897 2.50257 13.6922 2.50748 13.6971 2.50999C13.7289 2.54908 13.7533 2.59319 13.7729 2.63959V2.64199L15.6046 7.3547C15.7269 7.36452 15.8247 7.47217 15.8247 7.59686C15.8247 9.10092 14.6043 10.3214 13.1002 10.3214C11.5985 10.3214 10.3782 9.10095 10.3782 7.58716C10.3782 7.45756 10.4859 7.34991 10.6154 7.34991H10.6399L12.2442 3.34882L8.73224 3.34871C8.71019 3.34871 8.68824 3.3438 8.66619 3.3414C8.63682 3.36586 8.60745 3.3854 8.57567 3.40745V11.1651H10.004C10.4711 11.1651 10.8501 11.5465 10.8501 12.0137V12.5689C10.8501 12.701 10.7425 12.8061 10.6129 12.8061H5.49406C5.36446 12.8061 5.25681 12.701 5.25681 12.5689V12.0137C5.25681 11.5466 5.63828 11.1651 6.10546 11.1651H7.53378V3.40745C7.50441 3.38791 7.47264 3.36586 7.44578 3.34391C7.42373 3.34631 7.40418 3.35123 7.38224 3.35123H3.84094L5.40123 7.35483C5.52352 7.36466 5.62134 7.4722 5.62134 7.59699C5.62134 9.10106 4.40092 10.3215 2.89683 10.3215C1.39515 10.3215 0.174833 9.10108 0.174833 7.58729C0.172432 7.45748 0.280085 7.34994 0.409681 7.34994L0.409634 7.35001ZM2.93838 3.90905L1.55898 7.35001H4.27868L2.93838 3.90905ZM13.1442 3.90905L11.7648 7.35001H14.4843L13.1442 3.90905Z" fill="#201C41"/>
</svg>
