<svg width="15" height="16" viewBox="0 0 15 16" fill="none" xmlns="http://www.w3.org/2000/svg">
<path d="M12.4582 0.916504H2.5415C1.97792 0.916504 1.43742 1.14039 1.0389 1.5389C0.640387 1.93742 0.416504 2.47792 0.416504 3.0415V12.9582C0.416504 13.5218 0.640387 14.0623 1.0389 14.4608C1.43742 14.8593 1.97792 15.0832 2.5415 15.0832H12.4582C13.0218 15.0832 13.5623 14.8593 13.9608 14.4608C14.3593 14.0623 14.5832 13.5218 14.5832 12.9582V3.0415C14.5832 2.47792 14.3593 1.93742 13.9608 1.5389C13.5623 1.14039 13.0218 0.916504 12.4582 0.916504Z" fill="#CEAEFE"/>
<path fill-rule="evenodd" clip-rule="evenodd" d="M2.48866 6.48877L1.9126 9.88216H2.93453L3.17024 8.30831L3.7831 9.88216H4.24252L4.89303 8.29609L5.13057 9.88216H7.21801L7.40926 9.32541H8.46442L8.65567 9.88216H10.6957L11.3933 8.91259L11.9885 9.88216H13.2383L11.9783 8.07954L13.1036 6.48877H11.8411L11.3657 7.22464L10.9807 6.48877H9.71845L10.7785 8.07665L9.64768 9.6177L8.4567 6.48877H7.41699L6.14413 9.8328L5.57644 6.48877H4.60661L4.03438 8.02234L3.45834 6.48877H2.48866ZM2.85318 9.78769H2.02512L2.56912 6.58321H2.56843L2.02443 9.78771H2.85318L2.85318 9.78769ZM3.12992 7.94449L3.84768 9.78771H4.17918L4.17919 9.78769H3.84837L3.13012 7.94319L3.12992 7.94449ZM4.93586 7.94444L5.21193 9.78771H6.04068L6.04067 9.78769H5.21262L4.93637 7.94319L4.93586 7.94444ZM4.67286 6.58321H4.67218L4.03503 8.29078L4.03537 8.29169L4.67286 6.58321ZM7.1506 9.78769H6.26303L7.48278 6.58321H7.48209L6.26234 9.78771H7.15059L7.1506 9.78769ZM7.34253 9.23096H8.53184L8.72309 9.78771H9.61134L9.61133 9.78769H8.72378L8.53253 9.23094H7.34253L7.34253 9.23096ZM10.6473 9.78769L10.6473 9.78771H9.64006L10.8938 8.07921L9.89506 6.58321H9.89577L10.8945 8.07919L9.64075 9.78769H10.6473ZM11.3999 8.74272L12.0413 9.78771H13.0571L13.057 9.78769H12.042L11.4003 8.74219L11.3999 8.74272ZM11.8932 6.58321H11.8926L11.3575 7.41136L11.3578 7.41194L11.8932 6.58321ZM8.31083 8.59769L7.93718 7.53194L7.93753 7.53094L8.31153 8.59769H8.31083ZM7.69603 8.50327L7.93684 7.81642L8.17765 8.50327H7.69603Z" fill="#252246"/>
</svg>
