<svg width="1048" height="390" viewBox="0 0 1048 390" fill="none" xmlns="http://www.w3.org/2000/svg">
    <path d="M194.038 99.4813C194.038 113.877 190.607 127.372 183.745 139.968C177.137 152.564 166.59 162.718 152.104 170.429C137.872 178.141 119.828 181.997 97.972 181.997H53.37V285.334H0V16.1946H97.972C118.558 16.1946 136.093 19.7934 150.579 26.9911C165.066 34.1887 175.867 44.0854 182.983 56.6812C190.353 69.277 194.038 83.5437 194.038 99.4813ZM95.6847 138.426C110.425 138.426 121.353 135.084 128.469 128.4C135.585 121.46 139.143 111.82 139.143 99.4813C139.143 73.2614 124.657 60.1515 95.6847 60.1515H53.37V138.426H95.6847Z" fill="#5603AD"/>
    <path d="M249.927 0V285.334H196.557V0H249.927Z" fill="#5603AD"/>
    <path d="M463.608 173.9C463.608 181.611 463.1 188.552 462.083 194.721H307.692C308.962 210.145 314.299 222.226 323.703 230.966C333.106 239.706 344.669 244.076 358.393 244.076C378.216 244.076 392.321 235.465 400.708 218.242H458.271C452.172 238.807 440.481 255.772 423.199 269.139C405.918 282.249 384.697 288.804 359.537 288.804C339.205 288.804 320.907 284.306 304.642 275.309C288.631 266.055 276.051 253.073 266.902 236.365C258.007 219.656 253.559 200.376 253.559 178.527C253.559 156.42 258.007 137.012 266.902 120.303C275.797 103.594 288.25 90.7413 304.261 81.7443C320.272 72.7473 338.697 68.2488 359.537 68.2488C379.614 68.2488 397.531 72.6188 413.288 81.3587C429.299 90.0987 441.625 102.566 450.266 118.761C459.161 134.698 463.608 153.078 463.608 173.9ZM408.332 158.476C408.078 144.595 403.122 133.541 393.465 125.316C383.807 116.833 371.99 112.591 358.012 112.591C344.796 112.591 333.614 116.704 324.465 124.93C315.57 132.899 310.106 144.081 308.073 158.476H408.332Z" fill="#5603AD"/>
    <path d="M584.223 68.6344C609.383 68.6344 629.714 76.7317 645.217 92.9263C660.72 108.864 668.471 131.228 668.471 160.018V285.334H615.101V167.345C615.101 150.379 610.908 137.397 602.521 128.4C594.134 119.146 582.698 114.519 568.212 114.519C553.471 114.519 541.781 119.146 533.14 128.4C524.753 137.397 520.56 150.379 520.56 167.345V285.334H467.19V71.7191H520.56V98.3245C527.676 89.0705 536.698 81.8729 547.626 76.7317C558.808 71.3335 571.007 68.6344 584.223 68.6344Z" fill="#5603AD"/>
    <path d="M745.988 116.062V219.399C745.988 226.596 747.64 231.866 750.943 235.208C754.501 238.292 760.347 239.835 768.479 239.835H793.258V285.334H759.711C714.728 285.334 692.236 263.227 692.236 219.013V116.062H667.076V71.7191H692.236V18.8937H745.988V71.7191H793.258V116.062H745.988Z" fill="#5603AD"/>
    <path d="M998.315 71.7191L867.558 386.358H810.757L856.503 279.936L771.874 71.7191H831.724L886.238 220.941L941.514 71.7191H998.315Z" fill="#5603AD"/>
    <path d="M1047.75 261.935C1047.75 280.018 1033.1 294.677 1015.01 294.677C996.93 294.677 982.271 280.018 982.271 261.935C982.271 243.852 996.93 229.192 1015.01 229.192C1033.1 229.192 1047.75 243.852 1047.75 261.935Z" fill="#5603AD"/>
    <path d="M523.547 360.008C526.842 360.622 529.551 362.27 531.673 364.95C533.796 367.631 534.857 370.703 534.857 374.166C534.857 377.294 534.075 380.058 532.511 382.46C531.003 384.806 528.797 386.649 525.893 387.989C522.988 389.33 519.554 390 515.588 390H490.371V331.523H514.499C518.464 331.523 521.871 332.166 524.72 333.45C527.624 334.735 529.802 336.522 531.255 338.812C532.763 341.102 533.517 343.699 533.517 346.603C533.517 350.01 532.595 352.859 530.752 355.148C528.965 357.438 526.563 359.058 523.547 360.008ZM502.1 355.651H512.823C515.616 355.651 517.766 355.037 519.274 353.808C520.782 352.523 521.536 350.708 521.536 348.363C521.536 346.017 520.782 344.202 519.274 342.917C517.766 341.632 515.616 340.99 512.823 340.99H502.1V355.651ZM513.913 380.449C516.761 380.449 518.967 379.779 520.531 378.439C522.151 377.098 522.961 375.199 522.961 372.742C522.961 370.228 522.123 368.274 520.447 366.877C518.772 365.425 516.51 364.699 513.661 364.699H502.1V380.449H513.913Z" fill="#4E5D78"/>
    <path d="M573.735 340.99V355.651H593.423V364.95H573.735V380.449H595.936V390H562.006V331.439H595.936V340.99H573.735Z" fill="#4E5D78"/>
    <path d="M664.191 331.523V340.99H648.609V390H636.88V340.99H621.297V331.523H664.191Z" fill="#4E5D78"/>
    <path d="M726.407 378.858H703.117L699.264 390H686.948L707.976 331.439H721.632L742.66 390H730.261L726.407 378.858ZM723.224 369.474L714.762 345.011L706.301 369.474H723.224Z" fill="#4E5D78"/>
</svg>
