<svg width="81" height="30" viewBox="0 0 81 30" fill="none" xmlns="http://www.w3.org/2000/svg">
<g clip-path="url(#clip0_514_1136)">
<path d="M14.9263 7.65265C14.9263 8.76 14.6624 9.79814 14.1345 10.7671C13.6263 11.736 12.8149 12.5171 11.7006 13.1103C10.6058 13.7035 9.21776 14.0002 7.53647 14.0002H4.10547V21.9493H0V1.24585H7.53647C9.12001 1.24585 10.4689 1.52268 11.5833 2.07636C12.6976 2.63003 13.5285 3.39134 14.0759 4.36027C14.6428 5.3292 14.9263 6.42666 14.9263 7.65265ZM7.36052 10.6484C8.49441 10.6484 9.33506 10.3914 9.88245 9.87724C10.4298 9.34334 10.7035 8.60181 10.7035 7.65265C10.7035 5.63569 9.58921 4.62722 7.36052 4.62722H4.10547V10.6484H7.36052Z" fill="#6202EF"/>
<path d="M19.2255 0V21.9492H15.1201V0H19.2255Z" fill="#6202EF"/>
<path d="M35.6628 13.3772C35.6628 13.9704 35.6237 14.5043 35.5455 14.9789H23.669C23.7667 16.1653 24.1773 17.0947 24.9006 17.767C25.624 18.4393 26.5135 18.7755 27.5692 18.7755C29.0941 18.7755 30.1791 18.1131 30.8242 16.7882H35.2523C34.7831 18.3701 33.8838 19.6752 32.5544 20.7035C31.225 21.712 29.5926 22.2162 27.6572 22.2162C26.0932 22.2162 24.6856 21.8701 23.4344 21.1781C22.2028 20.4662 21.235 19.4676 20.5312 18.1823C19.847 16.897 19.5049 15.4139 19.5049 13.7331C19.5049 12.0325 19.847 10.5396 20.5312 9.25426C21.2155 7.96894 22.1734 6.98023 23.4051 6.28814C24.6367 5.59605 26.0541 5.25 27.6572 5.25C29.2016 5.25 30.5799 5.58616 31.792 6.25848C33.0236 6.9308 33.9718 7.88984 34.6365 9.13561C35.3207 10.3616 35.6628 11.7755 35.6628 13.3772ZM31.4107 12.1907C31.3912 11.1229 31.01 10.2726 30.2671 9.63985C29.5242 8.98731 28.6151 8.66103 27.5399 8.66103C26.5233 8.66103 25.6631 8.97742 24.9593 9.61019C24.275 10.2232 23.8547 11.0834 23.6983 12.1907H31.4107Z" fill="#6202EF"/>
<path d="M44.9412 5.27979C46.8766 5.27979 48.4406 5.90268 49.6332 7.14844C50.8257 8.37444 51.422 10.0948 51.422 12.3095V21.9493H47.3165V12.873C47.3165 11.5679 46.9939 10.5694 46.3488 9.87727C45.7036 9.1654 44.8239 8.80946 43.7095 8.80946C42.5757 8.80946 41.6764 9.1654 41.0117 9.87727C40.3665 10.5694 40.0439 11.5679 40.0439 12.873V21.9493H35.9385V5.51708H40.0439V7.5637C40.5913 6.85183 41.2854 6.29816 42.126 5.90268C42.9862 5.48742 43.9246 5.27979 44.9412 5.27979Z" fill="#6202EF"/>
<path d="M57.3851 8.92798V16.8772C57.3851 17.4309 57.5122 17.8362 57.7663 18.0933C58.04 18.3306 58.4897 18.4492 59.1153 18.4492H61.0214V21.9492H58.4408C54.9805 21.9492 53.2503 20.2487 53.2503 16.8475V8.92798H51.3149V5.51695H53.2503V1.45337H57.3851V5.51695H61.0214V8.92798H57.3851Z" fill="#6202EF"/>
<path d="M76.7949 5.51709L66.7365 29.7206H62.3671L65.8861 21.5341L59.376 5.51709H63.98L68.1734 16.9959L72.4255 5.51709H76.7949Z" fill="#6202EF"/>
<path d="M80.5979 20.1495C80.5979 21.5406 79.4703 22.6682 78.0792 22.6682C76.6882 22.6682 75.5605 21.5406 75.5605 20.1495C75.5605 18.7585 76.6882 17.6309 78.0792 17.6309C79.4703 17.6309 80.5979 18.7585 80.5979 20.1495Z" fill="#6202EF"/>
<path d="M40.2728 27.6928C40.5262 27.7401 40.7346 27.8668 40.8979 28.073C41.0611 28.2793 41.1428 28.5156 41.1428 28.7819C41.1428 29.0225 41.0826 29.2352 40.9623 29.42C40.8463 29.6004 40.6766 29.7422 40.4532 29.8453C40.2298 29.9484 39.9656 30 39.6605 30H37.7207V25.5017H39.5767C39.8818 25.5017 40.1439 25.5511 40.363 25.6499C40.5864 25.7487 40.7539 25.8862 40.8657 26.0623C40.9817 26.2385 41.0397 26.4383 41.0397 26.6617C41.0397 26.9238 40.9688 27.1429 40.827 27.319C40.6895 27.4952 40.5048 27.6198 40.2728 27.6928ZM38.6229 27.3577H39.4478C39.6627 27.3577 39.8281 27.3104 39.9441 27.2159C40.0601 27.1171 40.1181 26.9775 40.1181 26.797C40.1181 26.6166 40.0601 26.4769 39.9441 26.3781C39.8281 26.2793 39.6627 26.2299 39.4478 26.2299H38.6229V27.3577ZM39.5316 29.2653C39.7507 29.2653 39.9204 29.2137 40.0407 29.1106C40.1653 29.0075 40.2276 28.8614 40.2276 28.6724C40.2276 28.4791 40.1632 28.3287 40.0343 28.2213C39.9054 28.1096 39.7314 28.0537 39.5123 28.0537H38.6229V29.2653H39.5316Z" fill="#4E5D78"/>
<path d="M44.1337 26.2298V27.3576H45.6481V28.0729H44.1337V29.2652H45.8415V29.9999H43.2314V25.4951H45.8415V26.2298H44.1337Z" fill="#4E5D78"/>
<path d="M51.0916 25.5017V26.2299H49.8929V30H48.9906V26.2299H47.792V25.5017H51.0916Z" fill="#4E5D78"/>
<path d="M55.8777 29.1427H54.0861L53.7897 29.9999H52.8423L54.4599 25.4951H55.5104L57.128 29.9999H56.1742L55.8777 29.1427ZM55.6328 28.4209L54.9819 26.5391L54.331 28.4209H55.6328Z" fill="#4E5D78"/>
</g>
<defs>
<clipPath id="clip0_514_1136">
<rect width="81" height="30" fill="white"/>
</clipPath>
</defs>
</svg>
