<svg width="44" height="44" viewBox="0 0 44 44" fill="none" xmlns="http://www.w3.org/2000/svg">
<path d="M35.75 44H8.25C3.69325 44 0 40.3068 0 35.75V8.25C0 3.69325 3.69325 0 8.25 0H35.75C40.3068 0 44 3.69325 44 8.25V35.75C44 40.3068 40.3068 44 35.75 44Z" fill="#8A959E" fill-opacity="0.12"/>
<path d="M31.2441 15.046L33 13.3671V13H26.9184L22.5844 23.7869L17.655 13H11.2777V13.3685L13.3293 15.8366C13.5286 16.0181 13.6345 16.2863 13.607 16.5544V26.255C13.6702 26.6042 13.5561 26.9631 13.3114 27.2175L11 30.017V30.38H17.5491V30.0115L15.2391 27.2161C14.9889 26.9618 14.8706 26.6084 14.9215 26.2536V17.8634L20.6704 30.3841H21.3386L26.2818 17.8634V27.8376C26.2818 28.1016 26.2818 28.1552 26.1085 28.3271L24.3293 30.0473V30.4158H32.9574V30.0473L31.2428 28.3684C31.0929 28.2556 31.0145 28.0645 31.0461 27.8789V15.5355C31.0173 15.3499 31.0942 15.1587 31.2441 15.046Z" fill="#4E5D78"/>
</svg>
