<svg width="165" height="61" viewBox="0 0 165 61" fill="none" xmlns="http://www.w3.org/2000/svg">
<rect y="16.1428" width="53.1429" height="25.7143" rx="12.8571" fill="white"/>
<circle cx="12.8569" cy="28.9999" r="7.71429" fill="#A3A3A3"/>
<circle cx="12.8573" cy="29.0001" r="3.42857" fill="#666666"/>
<rect x="24" y="25.1428" width="22.2857" height="7.71429" fill="#B0B7C3"/>
<rect x="0.428571" y="16.5714" width="52.2857" height="24.8571" rx="12.4286" stroke="#B0B7C3" stroke-opacity="0.4" stroke-width="0.857143"/>
<path d="M61.0713 32L64.0713 29L61.0713 26" stroke="white" stroke-width="1.2" stroke-linecap="round" stroke-linejoin="round"/>
<rect x="72" y="11" width="92.5714" height="36" rx="18" fill="#B0B7C3" fill-opacity="0.1"/>
<rect x="72.4286" y="11.4286" width="91.7143" height="35.1429" rx="17.5714" stroke="#B0B7C3" stroke-opacity="0.2" stroke-width="0.857143"/>
<g filter="url(#filter0_d_3007_19142)">
<circle cx="90.0007" cy="29" r="12.8571" fill="#FDFCFF"/>
<circle cx="90.0007" cy="29" r="12.6" stroke="#6202EF" stroke-opacity="0.4" stroke-width="0.514286"/>
<path d="M83.4951 29.7285H83.5161L85.1386 25.6826C85.1386 25.6826 85.1386 25.6805 85.1407 25.6805C85.1554 25.647 85.1742 25.6156 85.1973 25.5862C85.2057 25.5737 85.2162 25.5632 85.2267 25.5505C85.2414 25.5338 85.2581 25.5191 85.2749 25.5066C85.2979 25.4877 85.321 25.4731 85.3482 25.4584C85.3629 25.4499 85.3776 25.4437 85.3922 25.4374C85.4111 25.429 85.4321 25.4227 85.4531 25.4185C85.4677 25.4143 85.4845 25.4143 85.4992 25.4122C85.5181 25.4102 85.5348 25.4038 85.5537 25.4038C85.5641 25.4038 85.5726 25.4059 85.583 25.4059H89.2936C89.3522 25.2444 89.4613 25.1082 89.6017 25.0138L89.6016 24.0349C89.6016 23.7875 89.8028 23.5884 90.0481 23.5884C90.2955 23.5884 90.4946 23.7896 90.4946 24.0349V25.0138C90.6351 25.1082 90.7441 25.2444 90.8028 25.4059H94.2826C94.2889 25.4059 94.2951 25.4038 94.3015 25.4038C94.312 25.4038 94.3204 25.4059 94.3309 25.4059H94.53C94.574 25.4059 94.6159 25.4143 94.6579 25.4268C94.6621 25.4289 94.6641 25.4289 94.6684 25.431C94.7501 25.4583 94.8214 25.5065 94.8759 25.5715C94.878 25.5736 94.8801 25.5778 94.8843 25.5799C94.9116 25.6134 94.9325 25.6512 94.9493 25.691V25.6931L96.5193 29.7325C96.6242 29.7409 96.708 29.8332 96.708 29.9401C96.708 31.2293 95.6619 32.2754 94.3727 32.2754C93.0856 32.2754 92.0396 31.2293 92.0396 29.9318C92.0396 29.8207 92.1318 29.7284 92.2429 29.7284H92.2639L93.639 26.2989L90.6288 26.2988C90.6098 26.2988 90.591 26.2946 90.5721 26.2926C90.547 26.3135 90.5218 26.3303 90.4946 26.3492V32.9986H91.7188C92.1192 32.9986 92.4441 33.3255 92.4441 33.726V34.2018C92.4441 34.3151 92.3518 34.4052 92.2407 34.4052H87.8532C87.7421 34.4052 87.6498 34.3151 87.6498 34.2018V33.726C87.6498 33.3256 87.9768 32.9986 88.3772 32.9986H89.6015V26.3492C89.5763 26.3324 89.5491 26.3135 89.5261 26.2947C89.5072 26.2968 89.4904 26.301 89.4716 26.301H86.4362L87.7736 29.7326C87.8784 29.7411 87.9623 29.8332 87.9623 29.9402C87.9623 31.2294 86.9162 32.2755 85.627 32.2755C84.3398 32.2755 83.2938 31.2294 83.2938 29.9319C83.2918 29.8206 83.384 29.7284 83.4951 29.7284L83.4951 29.7285ZM85.6626 26.7791L84.4802 29.7285H86.8114L85.6626 26.7791ZM94.4104 26.7791L93.228 29.7285H95.5591L94.4104 26.7791Z" fill="#6202EF"/>
</g>
<rect x="106.286" y="16.1428" width="53.1429" height="25.7143" rx="12.8571" fill="white"/>
<circle cx="119.143" cy="28.9999" r="7.71429" fill="#A3A3A3"/>
<circle cx="119.142" cy="29.0001" r="3.42857" fill="#666666"/>
<rect x="130.286" y="25.1428" width="22.2857" height="7.71429" fill="#B0B7C3"/>
<rect x="106.715" y="16.5714" width="52.2857" height="24.8571" rx="12.4286" stroke="#B0B7C3" stroke-opacity="0.4" stroke-width="0.857143"/>
<defs>
<filter id="filter0_d_3007_19142" x="60.0007" y="0.714251" width="59.9996" height="60.0001" filterUnits="userSpaceOnUse" color-interpolation-filters="sRGB">
<feFlood flood-opacity="0" result="BackgroundImageFix"/>
<feColorMatrix in="SourceAlpha" type="matrix" values="0 0 0 0 0 0 0 0 0 0 0 0 0 0 0 0 0 0 127 0" result="hardAlpha"/>
<feOffset dy="1.71429"/>
<feGaussianBlur stdDeviation="8.57143"/>
<feComposite in2="hardAlpha" operator="out"/>
<feColorMatrix type="matrix" values="0 0 0 0 0.0637681 0 0 0 0 0 0 0 0 0 0.133333 0 0 0 0.17 0"/>
<feBlend mode="normal" in2="BackgroundImageFix" result="effect1_dropShadow_3007_19142"/>
<feBlend mode="normal" in="SourceGraphic" in2="effect1_dropShadow_3007_19142" result="shape"/>
</filter>
</defs>
</svg>
