<svg width="165" height="61" viewBox="0 0 165 61" fill="none" xmlns="http://www.w3.org/2000/svg">
<rect y="16.1431" width="53.1429" height="25.7143" rx="12.8571" fill="white"/>
<circle cx="12.8574" cy="29.0004" r="7.71429" fill="#A3A3A3" fill-opacity="0.5"/>
<circle cx="12.8574" cy="29.0003" r="3.42857" fill="#666666"/>
<rect x="24" y="25.1431" width="22.2857" height="7.71429" fill="#B0B7C3"/>
<rect x="0.428571" y="16.5716" width="52.2857" height="24.8571" rx="12.4286" stroke="#B0B7C3" stroke-opacity="0.4" stroke-width="0.857143"/>
<path d="M61.0714 32L64.0714 29L61.0714 26" stroke="#0D0831" stroke-width="1.2" stroke-linecap="round" stroke-linejoin="round"/>
<rect x="72" y="11" width="92.5714" height="36" rx="18" fill="#B0B7C3" fill-opacity="0.1"/>
<rect x="72.4286" y="11.4286" width="91.7143" height="35.1429" rx="17.5714" stroke="#B0B7C3" stroke-opacity="0.2" stroke-width="0.857143"/>
<g filter="url(#filter0_d_3644_22309)">
<circle cx="90.0003" cy="29.0002" r="12.8571" fill="#FDFCFF"/>
<circle cx="90.0003" cy="29.0002" r="12.6" stroke="#6202EF" stroke-opacity="0.4" stroke-width="0.514286"/>
<path d="M83.4947 29.729H83.5157L85.1382 25.6831C85.1382 25.6831 85.1382 25.681 85.1403 25.681C85.155 25.6475 85.1738 25.6161 85.1969 25.5867C85.2053 25.5741 85.2158 25.5637 85.2263 25.551C85.241 25.5343 85.2578 25.5196 85.2745 25.507C85.2975 25.4881 85.3206 25.4735 85.3479 25.4588C85.3626 25.4504 85.3773 25.4442 85.3919 25.4379C85.4108 25.4295 85.4317 25.4232 85.4527 25.419C85.4674 25.4148 85.4841 25.4148 85.4988 25.4127C85.5177 25.4107 85.5345 25.4043 85.5533 25.4043C85.5638 25.4043 85.5722 25.4063 85.5827 25.4063H89.2932C89.3519 25.2449 89.4609 25.1087 89.6014 25.0143L89.6013 24.0354C89.6013 23.788 89.8025 23.5889 90.0478 23.5889C90.2951 23.5889 90.4943 23.7901 90.4943 24.0354V25.0143C90.6347 25.1087 90.7438 25.2449 90.8024 25.4063H94.2822C94.2885 25.4063 94.2948 25.4043 94.3011 25.4043C94.3116 25.4043 94.32 25.4063 94.3305 25.4063H94.5297C94.5737 25.4063 94.6156 25.4148 94.6575 25.4273C94.6617 25.4294 94.6638 25.4294 94.668 25.4315C94.7498 25.4588 94.821 25.5069 94.8756 25.572C94.8776 25.5741 94.8798 25.5783 94.884 25.5804C94.9112 25.6139 94.9322 25.6517 94.9489 25.6915V25.6936L96.519 29.733C96.6238 29.7414 96.7076 29.8337 96.7076 29.9406C96.7076 31.2298 95.6616 32.2759 94.3723 32.2759C93.0852 32.2759 92.0392 31.2298 92.0392 29.9323C92.0392 29.8212 92.1315 29.7289 92.2426 29.7289H92.2635L93.6386 26.2994L90.6284 26.2993C90.6095 26.2993 90.5907 26.2951 90.5718 26.293C90.5466 26.314 90.5214 26.3308 90.4942 26.3497V32.999H91.7185C92.1188 32.999 92.4437 33.326 92.4437 33.7265V34.2023C92.4437 34.3156 92.3514 34.4057 92.2404 34.4057H87.8528C87.7417 34.4057 87.6494 34.3156 87.6494 34.2023V33.7265C87.6494 33.3261 87.9764 32.999 88.3769 32.999H89.6011V26.3497C89.576 26.3329 89.5487 26.314 89.5257 26.2952C89.5068 26.2973 89.4901 26.3015 89.4712 26.3015H86.4358L87.7732 29.7331C87.878 29.7416 87.9619 29.8337 87.9619 29.9407C87.9619 31.2299 86.9158 32.276 85.6266 32.276C84.3394 32.276 83.2935 31.2299 83.2935 29.9324C83.2914 29.8211 83.3837 29.7289 83.4948 29.7289L83.4947 29.729ZM85.6622 26.7796L84.4799 29.729H86.8111L85.6622 26.7796ZM94.41 26.7796L93.2277 29.729H95.5588L94.41 26.7796Z" fill="#6202EF"/>
</g>
<rect x="106.286" y="16.1431" width="53.1429" height="25.7143" rx="12.8571" fill="white"/>
<circle cx="119.143" cy="29.0004" r="7.71429" fill="#A3A3A3" fill-opacity="0.5"/>
<circle cx="119.143" cy="29.0003" r="3.42857" fill="#666666"/>
<rect x="130.286" y="25.1431" width="22.2857" height="7.71429" fill="#B0B7C3"/>
<rect x="106.714" y="16.5716" width="52.2857" height="24.8571" rx="12.4286" stroke="#B0B7C3" stroke-opacity="0.4" stroke-width="0.857143"/>
<defs>
<filter id="filter0_d_3644_22309" x="60.0003" y="0.714496" width="59.9999" height="60.0001" filterUnits="userSpaceOnUse" color-interpolation-filters="sRGB">
<feFlood flood-opacity="0" result="BackgroundImageFix"/>
<feColorMatrix in="SourceAlpha" type="matrix" values="0 0 0 0 0 0 0 0 0 0 0 0 0 0 0 0 0 0 127 0" result="hardAlpha"/>
<feOffset dy="1.71429"/>
<feGaussianBlur stdDeviation="8.57143"/>
<feComposite in2="hardAlpha" operator="out"/>
<feColorMatrix type="matrix" values="0 0 0 0 0.0637681 0 0 0 0 0 0 0 0 0 0.133333 0 0 0 0.17 0"/>
<feBlend mode="normal" in2="BackgroundImageFix" result="effect1_dropShadow_3644_22309"/>
<feBlend mode="normal" in="SourceGraphic" in2="effect1_dropShadow_3644_22309" result="shape"/>
</filter>
</defs>
</svg>
