<svg width="105" height="61" viewBox="0 0 105 61" fill="none" xmlns="http://www.w3.org/2000/svg">
<rect x="12" y="11" width="92.5714" height="36" rx="18" fill="#B0B7C3" fill-opacity="0.1"/>
<rect x="12.4286" y="11.4286" width="91.7143" height="35.1429" rx="17.5714" stroke="#B0B7C3" stroke-opacity="0.2" stroke-width="0.857143"/>
<g filter="url(#filter0_d_3007_19149)">
<circle cx="30.0007" cy="29" r="12.8571" fill="#FDFCFF"/>
<circle cx="30.0007" cy="29" r="12.6" stroke="#6202EF" stroke-opacity="0.4" stroke-width="0.514286"/>
<path d="M23.4951 29.7285H23.5161L25.1386 25.6826C25.1386 25.6826 25.1386 25.6805 25.1407 25.6805C25.1554 25.647 25.1742 25.6156 25.1973 25.5862C25.2057 25.5737 25.2162 25.5632 25.2267 25.5505C25.2414 25.5338 25.2581 25.5191 25.2749 25.5066C25.2979 25.4877 25.321 25.4731 25.3482 25.4584C25.3629 25.4499 25.3776 25.4437 25.3922 25.4374C25.4111 25.429 25.4321 25.4227 25.4531 25.4185C25.4677 25.4143 25.4845 25.4143 25.4992 25.4122C25.5181 25.4102 25.5349 25.4038 25.5537 25.4038C25.5641 25.4038 25.5726 25.4059 25.583 25.4059H29.2936C29.3522 25.2444 29.4613 25.1082 29.6017 25.0138L29.6016 24.0349C29.6016 23.7875 29.8028 23.5884 30.0481 23.5884C30.2955 23.5884 30.4946 23.7896 30.4946 24.0349V25.0138C30.6351 25.1082 30.7441 25.2444 30.8028 25.4059H34.2826C34.2889 25.4059 34.2951 25.4038 34.3015 25.4038C34.312 25.4038 34.3204 25.4059 34.3309 25.4059H34.53C34.574 25.4059 34.6159 25.4143 34.6579 25.4268C34.6621 25.4289 34.6641 25.4289 34.6684 25.431C34.7501 25.4583 34.8214 25.5065 34.8759 25.5715C34.878 25.5736 34.8801 25.5778 34.8843 25.5799C34.9116 25.6134 34.9325 25.6512 34.9493 25.691V25.6931L36.5193 29.7325C36.6242 29.7409 36.708 29.8332 36.708 29.9401C36.708 31.2293 35.6619 32.2754 34.3727 32.2754C33.0856 32.2754 32.0396 31.2293 32.0396 29.9318C32.0396 29.8207 32.1318 29.7284 32.2429 29.7284H32.2639L33.639 26.2989L30.6288 26.2988C30.6098 26.2988 30.591 26.2946 30.5721 26.2926C30.547 26.3135 30.5218 26.3303 30.4946 26.3492V32.9986H31.7188C32.1192 32.9986 32.4441 33.3255 32.4441 33.726V34.2018C32.4441 34.3151 32.3518 34.4052 32.2407 34.4052H27.8532C27.7421 34.4052 27.6498 34.3151 27.6498 34.2018V33.726C27.6498 33.3256 27.9768 32.9986 28.3772 32.9986H29.6015V26.3492C29.5763 26.3324 29.5491 26.3135 29.5261 26.2947C29.5072 26.2968 29.4904 26.301 29.4716 26.301H26.4362L27.7736 29.7326C27.8784 29.7411 27.9623 29.8332 27.9623 29.9402C27.9623 31.2294 26.9162 32.2755 25.627 32.2755C24.3398 32.2755 23.2938 31.2294 23.2938 29.9319C23.2918 29.8206 23.384 29.7284 23.4951 29.7284L23.4951 29.7285ZM25.6626 26.7791L24.4802 29.7285H26.8114L25.6626 26.7791ZM34.4104 26.7791L33.228 29.7285H35.5591L34.4104 26.7791Z" fill="#6202EF"/>
</g>
<rect x="46.2861" y="16.1428" width="53.1429" height="25.7143" rx="12.8571" fill="white"/>
<circle cx="59.143" cy="28.9999" r="7.71429" fill="#A3A3A3"/>
<circle cx="59.1424" cy="29.0001" r="3.42857" fill="#666666"/>
<rect x="70.2861" y="25.1428" width="22.2857" height="7.71429" fill="#B0B7C3"/>
<rect x="46.7147" y="16.5714" width="52.2857" height="24.8571" rx="12.4286" stroke="#B0B7C3" stroke-opacity="0.4" stroke-width="0.857143"/>
<defs>
<filter id="filter0_d_3007_19149" x="0.00069809" y="0.714251" width="59.9996" height="60.0001" filterUnits="userSpaceOnUse" color-interpolation-filters="sRGB">
<feFlood flood-opacity="0" result="BackgroundImageFix"/>
<feColorMatrix in="SourceAlpha" type="matrix" values="0 0 0 0 0 0 0 0 0 0 0 0 0 0 0 0 0 0 127 0" result="hardAlpha"/>
<feOffset dy="1.71429"/>
<feGaussianBlur stdDeviation="8.57143"/>
<feComposite in2="hardAlpha" operator="out"/>
<feColorMatrix type="matrix" values="0 0 0 0 0.0637681 0 0 0 0 0 0 0 0 0 0.133333 0 0 0 0.17 0"/>
<feBlend mode="normal" in2="BackgroundImageFix" result="effect1_dropShadow_3007_19149"/>
<feBlend mode="normal" in="SourceGraphic" in2="effect1_dropShadow_3007_19149" result="shape"/>
</filter>
</defs>
</svg>
