<svg width="16" height="14" viewBox="0 0 16 14" fill="none" xmlns="http://www.w3.org/2000/svg">
<path d="M0.409634 7.85001H0.434091L2.32708 3.12976C2.32708 3.12976 2.32708 3.12736 2.32948 3.12736C2.34663 3.08828 2.36857 3.05159 2.39554 3.01731C2.40537 3.00268 2.41759 2.99045 2.42982 2.97571C2.44696 2.95617 2.46651 2.93903 2.48605 2.9244C2.51291 2.90234 2.53988 2.88531 2.57165 2.86817C2.58879 2.85834 2.60593 2.85103 2.62296 2.84371C2.64502 2.83389 2.66947 2.82657 2.69393 2.82166C2.71107 2.81674 2.73062 2.81674 2.74776 2.81434C2.76981 2.81194 2.78936 2.80452 2.8113 2.80452C2.82353 2.80452 2.83335 2.80692 2.84558 2.80692H7.17453C7.24298 2.61858 7.37018 2.45961 7.53405 2.34957L7.53394 1.20743C7.53394 0.918874 7.76868 0.686523 8.05485 0.686523C8.34341 0.686523 8.57576 0.921261 8.57576 1.20743V2.34957C8.73964 2.45962 8.86684 2.61859 8.93529 2.80692H12.9951C13.0024 2.80692 13.0097 2.80452 13.0171 2.80452C13.0294 2.80452 13.0392 2.80692 13.0514 2.80692H13.2837C13.3351 2.80692 13.384 2.81674 13.4329 2.83137C13.4378 2.83378 13.4402 2.83378 13.4451 2.83629C13.5405 2.86806 13.6236 2.92429 13.6873 3.00017C13.6897 3.00257 13.6922 3.00748 13.6971 3.00999C13.7289 3.04908 13.7533 3.09319 13.7729 3.13959V3.14199L15.6046 7.8547C15.7269 7.86452 15.8247 7.97217 15.8247 8.09686C15.8247 9.60092 14.6043 10.8214 13.1002 10.8214C11.5985 10.8214 10.3782 9.60095 10.3782 8.08716C10.3782 7.95756 10.4859 7.84991 10.6154 7.84991H10.6399L12.2442 3.84882L8.73224 3.84871C8.71019 3.84871 8.68824 3.8438 8.66619 3.8414C8.63682 3.86586 8.60745 3.8854 8.57567 3.90745V11.6651H10.004C10.4711 11.6651 10.8501 12.0465 10.8501 12.5137V13.0689C10.8501 13.201 10.7425 13.3061 10.6129 13.3061H5.49406C5.36446 13.3061 5.25681 13.201 5.25681 13.0689V12.5137C5.25681 12.0466 5.63828 11.6651 6.10546 11.6651H7.53378V3.90745C7.50441 3.88791 7.47264 3.86586 7.44578 3.84391C7.42373 3.84631 7.40418 3.85123 7.38224 3.85123H3.84094L5.40123 7.85483C5.52352 7.86466 5.62134 7.9722 5.62134 8.09699C5.62134 9.60106 4.40092 10.8215 2.89683 10.8215C1.39515 10.8215 0.174833 9.60108 0.174833 8.08729C0.172432 7.95748 0.280085 7.84994 0.409681 7.84994L0.409634 7.85001ZM2.93838 4.40905L1.55898 7.85001H4.27868L2.93838 4.40905ZM13.1442 4.40905L11.7648 7.85001H14.4843L13.1442 4.40905Z" fill="white"/>
</svg>
