<svg width="10" height="8" viewBox="0 0 10 8" fill="none" xmlns="http://www.w3.org/2000/svg">
<path d="M0.781774 4.47239H0.795361L1.84702 1.85003C1.84702 1.85003 1.84702 1.8487 1.84836 1.8487C1.85788 1.82698 1.87007 1.8066 1.88505 1.78756C1.89051 1.77943 1.89731 1.77263 1.9041 1.76445C1.91362 1.75359 1.92448 1.74407 1.93534 1.73594C1.95026 1.72369 1.96524 1.71422 1.98289 1.7047C1.99242 1.69924 2.00194 1.69518 2.0114 1.69111C2.02365 1.68565 2.03724 1.68159 2.05083 1.67886C2.06035 1.67613 2.07121 1.67613 2.08073 1.6748C2.09298 1.67346 2.10384 1.66934 2.11603 1.66934C2.12283 1.66934 2.12828 1.67067 2.13508 1.67067H4.54005C4.57808 1.56604 4.64874 1.47772 4.73978 1.41659L4.73972 0.78207C4.73972 0.62176 4.87013 0.492676 5.02912 0.492676C5.18943 0.492676 5.31851 0.623086 5.31851 0.78207V1.41659C5.40956 1.47773 5.48022 1.56605 5.51825 1.67067H7.77368C7.77775 1.67067 7.78181 1.66934 7.78594 1.66934C7.79273 1.66934 7.79819 1.67067 7.80498 1.67067H7.93406C7.96257 1.67067 7.98974 1.67613 8.01691 1.68426C8.01964 1.68559 8.02098 1.68559 8.02371 1.68699C8.07672 1.70464 8.12288 1.73588 8.15824 1.77803C8.15958 1.77937 8.16097 1.7821 8.1637 1.78349C8.18135 1.80521 8.19494 1.82971 8.2058 1.85549V1.85683L9.22342 4.47499C9.29136 4.48045 9.3457 4.54026 9.3457 4.60953C9.3457 5.44512 8.66769 6.12315 7.83209 6.12315C6.99781 6.12315 6.31986 5.44514 6.31986 4.60414C6.31986 4.53214 6.37967 4.47234 6.45167 4.47234H6.46526L7.35653 2.24951L5.40544 2.24945C5.39319 2.24945 5.381 2.24672 5.36875 2.24538C5.35243 2.25897 5.33611 2.26983 5.31846 2.28208V6.59186H6.11197C6.37146 6.59186 6.58205 6.80379 6.58205 7.06334V7.37177C6.58205 7.44517 6.52224 7.50358 6.45024 7.50358H3.60645C3.53446 7.50358 3.47465 7.44517 3.47465 7.37177V7.06334C3.47465 6.80385 3.68657 6.59186 3.94612 6.59186H4.73963V2.28208C4.72332 2.27122 4.70567 2.25897 4.69075 2.24678C4.67849 2.24812 4.66763 2.25084 4.65544 2.25084H2.68805L3.55488 4.47507C3.62282 4.48053 3.67717 4.54027 3.67717 4.6096C3.67717 5.44519 2.99916 6.12322 2.16355 6.12322C1.32928 6.12322 0.651329 5.44521 0.651329 4.60422C0.649995 4.5321 0.709802 4.47235 0.7818 4.47235L0.781774 4.47239ZM2.18663 2.56075L1.4203 4.47239H2.93125L2.18663 2.56075ZM7.85651 2.56075L7.09017 4.47239H8.60106L7.85651 2.56075Z" fill="var(--theme-plenty-badge-text)"/>
</svg>
