<svg width="53" height="53" viewBox="0 0 53 53" fill="none" xmlns="http://www.w3.org/2000/svg">
<path d="M0 2.75325C0 1.23267 1.23267 0 2.75325 0H50.2468C51.7673 0 53 1.23267 53 2.75325V50.2468C53 51.7673 51.7673 53 50.2468 53H2.75325C1.23267 53 0 51.7673 0 50.2468V2.75325Z" fill="#44CD41"/>
<path fill-rule="evenodd" clip-rule="evenodd" d="M26.5005 41.2222C34.6314 41.2222 41.2228 34.6308 41.2228 26.4999C41.2228 18.3691 34.6314 11.7777 26.5005 11.7777C18.3697 11.7777 11.7783 18.3691 11.7783 26.4999C11.7783 34.6308 18.3697 41.2222 26.5005 41.2222ZM34.2126 22.5665C34.7504 21.921 34.6632 20.9618 34.0178 20.4239C33.3723 19.886 32.4131 19.9732 31.8752 20.6187L24.7626 29.1537L21.0332 25.4243C20.4391 24.8302 19.4758 24.8302 18.8817 25.4243C18.2876 26.0184 18.2876 26.9816 18.8817 27.5757L22.8772 31.5711C23.9995 32.6934 25.8431 32.6098 26.8592 31.3905L34.2126 22.5665Z" fill="white"/>
</svg>
