<svg width="49" height="49" viewBox="0 0 49 49" fill="none" xmlns="http://www.w3.org/2000/svg">
    <rect width="48.4141" height="48.4141" rx="24.207" fill="url(#paint0_linear)"/>
    <path d="M36.0718 20.0783C36.0718 21.2605 35.7917 22.3688 35.2316 23.4032C34.6921 24.4377 33.8311 25.2716 32.6486 25.9049C31.4867 26.5382 30.0137 26.8549 28.2294 26.8549H24.5883V35.5632H20.2314V13.2383H28.2294C29.9099 13.2383 31.3415 13.5338 32.5241 14.1249C33.7067 14.7161 34.5884 15.5288 35.1693 16.5633C35.771 17.5977 36.0718 18.7694 36.0718 20.0783ZM28.0427 23.2766C29.246 23.2766 30.1382 23.0021 30.7191 22.4533C31.3 21.8833 31.5905 21.0916 31.5905 20.0783C31.5905 17.9249 30.4079 16.8483 28.0427 16.8483H24.5883V23.2766H28.0427Z"
          fill="white"/>
    <path d="M29.1737 35.5632C28.3853 35.5632 27.7318 35.3204 27.2131 34.8349C26.7152 34.3282 26.4662 33.7054 26.4662 32.9666C26.4662 32.2277 26.7152 31.6154 27.2131 31.1299C27.7318 30.6232 28.3853 30.3699 29.1737 30.3699C29.9413 30.3699 30.5741 30.6232 31.072 31.1299C31.57 31.6154 31.8189 32.2277 31.8189 32.9666C31.8189 33.7054 31.57 34.3282 31.072 34.8349C30.5741 35.3204 29.9413 35.5632 29.1737 35.5632Z"
          fill="white"/>
    <rect x="11.2998" y="23.1553" width="11.3558" height="3.64243" fill="white"/>
    <path fill-rule="evenodd" clip-rule="evenodd" d="M15.2636 31.8328H11.2998V29.0474H18.049V35.5823H15.2636V31.8328Z"
          fill="white"/>
    <defs>
        <linearGradient id="paint0_linear" x1="0" y1="0" x2="57.6537" y2="10.6205" gradientUnits="userSpaceOnUse">
            <stop stop-color="#F8B67F"/>
            <stop offset="0.322917" stop-color="#FF5451"/>
            <stop offset="0.644578" stop-color="#EE1EC0"/>
            <stop offset="1" stop-color="#A02CFC"/>
        </linearGradient>
    </defs>
</svg>
