<svg width="80" height="80" viewBox="0 0 80 80" fill="none" xmlns="http://www.w3.org/2000/svg">
<g clip-path="url(#clip0_4504_53621)">
<path d="M39.7636 79.4509C61.5717 79.4509 79.2507 61.7719 79.2507 39.9635C79.2507 18.1553 61.5717 0.476318 39.7636 0.476318C17.9554 0.476318 0.276367 18.1553 0.276367 39.9635C0.276367 61.7719 17.9554 79.4509 39.7636 79.4509Z" fill="url(#paint0_linear_4504_53621)" stroke="black" stroke-width="0.962465"/>
<path d="M13.1101 32.883L39.764 6.39917L66.4175 32.883L53.3391 45.8783L40.0202 32.6445L39.7809 32.4067L39.5409 32.6445L26.214 45.8863L13.1101 32.883Z" fill="#FFF6F0" stroke="black" stroke-width="1.92493"/>
<path d="M19.0012 50.0461H29.4729V53.0314H22.1285V56.8216H29.1886V59.8068H22.1285V63.6452H29.7572V66.6304H19.0012V50.0461ZM44.7848 50.0461V60.897C44.7848 62.7919 44.2793 64.277 43.2685 65.3509C42.2735 66.4247 40.7888 66.9616 38.8145 66.9616C36.8402 66.9616 35.3477 66.4247 34.3368 65.3509C33.3418 64.277 32.8442 62.7919 32.8442 60.897V50.0461H35.9715V60.897C35.9715 61.876 36.2006 62.6421 36.6586 63.195C37.1166 63.7478 37.8353 64.0242 38.8145 64.0242C39.7937 64.0242 40.5124 63.7478 40.9705 63.195C41.4285 62.6421 41.6575 61.876 41.6575 60.897V50.0461H44.7848ZM58.9359 66.6304H55.8087V61.655C55.8087 61.276 55.7056 60.9678 55.5005 60.7309C55.3108 60.4939 54.9872 60.3755 54.5292 60.3755H50.928V66.6304H47.8008V50.0461H54.1502C55.0031 50.0461 55.7533 50.1646 56.401 50.4015C57.0482 50.6384 57.5851 50.9701 58.0118 51.3965C58.4538 51.8073 58.7856 52.2888 59.0067 52.8416C59.2436 53.3945 59.362 53.9868 59.362 54.6186V55.1873C59.362 55.8662 59.1805 56.5057 58.8174 57.1062C58.4538 57.6904 57.8933 58.1406 57.1354 58.4565V58.8832C57.6882 58.9462 58.1226 59.1596 58.4385 59.5227C58.7697 59.8857 58.9359 60.3442 58.9359 60.897V66.6304ZM50.928 57.3904H53.9133C54.6713 57.3904 55.2477 57.2165 55.6426 56.8693C56.0374 56.5057 56.2349 56.0006 56.2349 55.3529V55.0688C56.2349 54.516 56.0374 54.0421 55.6426 53.6473C55.2477 53.2365 54.6713 53.0314 53.9133 53.0314H50.928V57.3904Z" fill="#2A363A"/>
</g>
<defs>
<linearGradient id="paint0_linear_4504_53621" x1="39.7636" y1="0.476318" x2="39.7636" y2="79.4509" gradientUnits="userSpaceOnUse">
<stop stop-color="#99B998"/>
<stop offset="1" stop-color="#FDCEAA"/>
</linearGradient>
<clipPath id="clip0_4504_53621">
<rect width="80" height="80" fill="white"/>
</clipPath>
</defs>
</svg>
