<svg width="80" height="80" viewBox="0 0 80 80" fill="none" xmlns="http://www.w3.org/2000/svg">
<mask id="mask0_681_99931" style="mask-type:alpha" maskUnits="userSpaceOnUse" x="0" y="0" width="80" height="80">
<path d="M40 80C62.0914 80 80 62.0914 80 40C80 17.9086 62.0914 0 40 0C17.9086 0 0 17.9086 0 40C0 62.0914 17.9086 80 40 80Z" fill="white"/>
</mask>
<g mask="url(#mask0_681_99931)">
<path d="M40 80C62.0914 80 80 62.0914 80 40C80 17.9086 62.0914 0 40 0C17.9086 0 0 17.9086 0 40C0 62.0914 17.9086 80 40 80Z" fill="#0054FF"/>
<path fill-rule="evenodd" clip-rule="evenodd" d="M61.826 63.2378C63.0948 61.9691 65.1518 61.9691 66.4205 63.2378L74.3757 71.193C75.6444 72.4617 75.6444 74.5187 74.3757 75.7875C73.1069 77.0562 71.0499 77.0562 69.7811 75.7875L61.826 67.8323C60.5573 66.5636 60.5573 64.5066 61.826 63.2378ZM49.584 51.808C51.8043 49.5877 55.392 49.5756 57.5973 51.7809C59.8026 53.9862 59.7905 57.5739 57.5702 59.7942C55.3499 62.0145 51.7622 62.0266 49.5569 59.8213C47.3516 57.616 47.3637 54.0283 49.584 51.808ZM40.7141 63.2939C41.9743 62.0337 44.0174 62.0337 45.2776 63.2939C46.5378 64.554 46.5378 66.5972 45.2776 67.8574L37.2062 75.9288C35.946 77.189 33.9029 77.189 32.6427 75.9288C31.3825 74.6686 31.3825 72.6255 32.6427 71.3653L40.7141 63.2939ZM32.784 34.1958C34.0527 32.9271 36.1098 32.9271 37.3785 34.1958L45.3337 42.1509C46.6024 43.4197 46.6024 45.4767 45.3337 46.7455C44.0649 48.0142 42.0079 48.0142 40.7391 46.7455L32.784 38.7903C31.5153 37.5216 31.5153 35.4645 32.784 34.1958ZM20.542 22.766C22.7623 20.5457 26.35 20.5336 28.5553 22.7389C30.7606 24.9442 30.7484 28.5319 28.5281 30.7522C26.3079 32.9725 22.7202 32.9846 20.5149 30.7793C18.3096 28.574 18.3217 24.9863 20.542 22.766ZM40.9115 5.01247C42.1716 3.75229 44.2148 3.75229 45.475 5.01247C46.7352 6.27265 46.7352 8.3158 45.475 9.57598L37.4035 17.6474C36.1434 18.9076 34.1002 18.9076 32.84 17.6474C31.5799 16.3872 31.5799 14.3441 32.84 13.0839L40.9115 5.01247ZM3.74198 5.15378C5.01073 3.88504 7.06776 3.88504 8.33651 5.15379L16.2916 13.1089C17.5604 14.3777 17.5604 16.4347 16.2916 17.7034C15.0229 18.9722 12.9659 18.9722 11.6971 17.7034L3.74198 9.74831C2.47324 8.47957 2.47324 6.42253 3.74198 5.15378Z" fill="white"/>
</g>
</svg>
