<svg width="20" height="20" viewBox="0 0 20 20" fill="none" xmlns="http://www.w3.org/2000/svg">
<rect width="20" height="20" rx="10" fill="#F0B90B"/>
<path fill-rule="evenodd" clip-rule="evenodd" d="M11.6296 4.98242L9.97033 3.2832L5.79227 7.50125L7.4515 9.16048L11.6296 4.98242ZM14.1484 7.50125L12.4892 5.80204L5.79227 12.5389L7.4515 14.1981L14.1484 7.50125ZM4.93267 8.32087L6.5919 10.0201L4.93267 11.6793L3.27344 10.0201L4.93267 8.32087ZM16.6672 10.0201L15.008 8.32087L8.3111 15.0577L9.97033 16.717L16.6672 10.0201Z" fill="white"/>
<path d="M9.97033 3.2832L10.3281 2.93388L9.97288 2.57013L9.6151 2.93134L9.97033 3.2832ZM11.6296 4.98242L11.9831 5.33597L12.3325 4.9866L11.9873 4.6331L11.6296 4.98242ZM5.79227 7.50125L5.43704 7.14938L5.08684 7.50293L5.43872 7.8548L5.79227 7.50125ZM7.4515 9.16048L7.09795 9.51403L7.4515 9.86758L7.80505 9.51403L7.4515 9.16048ZM12.4892 5.80204L12.8469 5.45272L12.4923 5.08962L12.1346 5.44954L12.4892 5.80204ZM14.1484 7.50125L14.502 7.8548L14.8513 7.50543L14.5061 7.15193L14.1484 7.50125ZM5.79227 12.5389L5.43767 12.1864L5.08621 12.54L5.43872 12.8925L5.79227 12.5389ZM7.4515 14.1981L7.09795 14.5517L7.4515 14.9053L7.80505 14.5517L7.4515 14.1981ZM6.5919 10.0201L6.94545 10.3736L7.29482 10.0243L6.94964 9.67076L6.5919 10.0201ZM4.93267 8.32087L5.29041 7.97155L4.93267 7.60519L4.57493 7.97155L4.93267 8.32087ZM4.93267 11.6793L4.57912 12.0329L4.93267 12.3864L5.28622 12.0329L4.93267 11.6793ZM3.27344 10.0201L2.9157 9.67076L2.57051 10.0243L2.91988 10.3736L3.27344 10.0201ZM15.008 8.32087L15.3657 7.97155L15.0112 7.60845L14.6534 7.96837L15.008 8.32087ZM16.6672 10.0201L17.0208 10.3736L17.3701 10.0243L17.025 9.67076L16.6672 10.0201ZM8.3111 15.0577L7.9565 14.7052L7.60504 15.0588L7.95755 15.4113L8.3111 15.0577ZM9.97033 16.717L9.61678 17.0705L9.97033 17.4241L10.3239 17.0705L9.97033 16.717ZM9.6126 3.63252L11.2718 5.33173L11.9873 4.6331L10.3281 2.93388L9.6126 3.63252ZM6.1475 7.85311L10.3256 3.63507L9.6151 2.93134L5.43704 7.14938L6.1475 7.85311ZM7.80505 8.80692L6.14582 7.14769L5.43872 7.8548L7.09795 9.51403L7.80505 8.80692ZM11.276 4.62886L7.09795 8.80692L7.80505 9.51403L11.9831 5.33597L11.276 4.62886ZM12.1314 6.15136L13.7907 7.85057L14.5061 7.15193L12.8469 5.45272L12.1314 6.15136ZM6.14687 12.8914L12.8438 6.15454L12.1346 5.44954L5.43767 12.1864L6.14687 12.8914ZM7.80505 13.8446L6.14582 12.1854L5.43872 12.8925L7.09795 14.5517L7.80505 13.8446ZM13.7948 7.14769L7.09795 13.8446L7.80505 14.5517L14.502 7.8548L13.7948 7.14769ZM6.94964 9.67076L5.29041 7.97155L4.57493 8.67019L6.23416 10.3694L6.94964 9.67076ZM5.28622 12.0329L6.94545 10.3736L6.23835 9.66653L4.57912 11.3258L5.28622 12.0329ZM2.91988 10.3736L4.57912 12.0329L5.28622 11.3258L3.62699 9.66653L2.91988 10.3736ZM4.57493 7.97155L2.9157 9.67076L3.63117 10.3694L5.29041 8.67019L4.57493 7.97155ZM14.6503 8.67019L16.3095 10.3694L17.025 9.67076L15.3657 7.97155L14.6503 8.67019ZM8.6657 15.4102L15.3626 8.67337L14.6534 7.96837L7.9565 14.7052L8.6657 15.4102ZM10.3239 16.3634L8.66465 14.7042L7.95755 15.4113L9.61678 17.0705L10.3239 16.3634ZM16.3137 9.66653L9.61678 16.3634L10.3239 17.0705L17.0208 10.3736L16.3137 9.66653Z" fill="#F0B90B"/>
</svg>
