<svg width="26" height="26" viewBox="0 0 26 26" fill="none" xmlns="http://www.w3.org/2000/svg">
<path d="M13 0C20.1804 0 26 5.82081 26 13C26 20.1804 20.1804 26 13 26C5.82081 26 0 20.1798 0 13C0 5.82081 5.82081 0 13 0Z" fill="#F5AC37"/>
<path d="M13.4787 13.9175H18.4185C18.5238 13.9175 18.5735 13.9175 18.5811 13.7794C18.6215 13.2769 18.6215 12.7715 18.5811 12.2684C18.5811 12.1707 18.5326 12.1303 18.4267 12.1303H8.59568C8.474 12.1303 8.44124 12.1707 8.44124 12.2847V13.7309C8.44124 13.9175 8.44124 13.9175 8.63604 13.9175H13.4787ZM18.0295 10.4402C18.0435 10.4034 18.0435 10.363 18.0295 10.3267C17.947 10.1471 17.8493 9.97572 17.7358 9.81485C17.565 9.53989 17.3637 9.28659 17.1344 9.05902C17.0262 8.92154 16.901 8.79811 16.7606 8.69339C16.0574 8.09493 15.2215 7.67139 14.3229 7.45844C13.8695 7.35665 13.4062 7.3081 12.9417 7.31219H8.57871C8.45703 7.31219 8.44065 7.36075 8.44065 7.46663V10.3507C8.44065 10.4724 8.44065 10.5052 8.59509 10.5052H17.971C17.971 10.5052 18.0523 10.4888 18.0687 10.4402H18.0289H18.0295ZM18.0295 15.6076C17.8914 15.5924 17.7522 15.5924 17.6141 15.6076H8.60387C8.48219 15.6076 8.44124 15.6076 8.44124 15.7702V18.5899C8.44124 18.7198 8.44124 18.7526 8.60387 18.7526H12.7638C12.9627 18.7678 13.1616 18.7537 13.3565 18.7122C13.9602 18.6689 14.554 18.5379 15.1202 18.322C15.3262 18.2506 15.5251 18.1576 15.7129 18.0459H15.7696C16.7448 17.5387 17.5369 16.7419 18.0365 15.7638C18.0365 15.7638 18.0932 15.6409 18.0295 15.6087V15.6076ZM6.80848 20.2145V20.1659V18.2729V17.6311V15.7217C6.80848 15.6158 6.80848 15.6 6.67861 15.6H4.91541C4.81771 15.6 4.77734 15.6 4.77734 15.4701V13.9263H6.66223C6.76753 13.9263 6.80848 13.9263 6.80848 13.7882V12.2608C6.80848 12.1631 6.80848 12.1391 6.67861 12.1391H4.91541C4.81771 12.1391 4.77734 12.1391 4.77734 12.0092V10.5795C4.77734 10.4899 4.77734 10.466 4.90722 10.466H6.65404C6.77572 10.466 6.80848 10.466 6.80848 10.3115V5.93216C6.80848 5.80229 6.80848 5.76953 6.97112 5.76953H13.0645C13.5068 5.78708 13.9461 5.83564 14.3808 5.91578C15.2764 6.08134 16.137 6.40134 16.9238 6.85823C17.4456 7.16536 17.9259 7.53625 18.3536 7.9633C18.6753 8.29734 18.9655 8.65888 19.2229 9.04381C19.4785 9.43401 19.6909 9.85112 19.8576 10.2869C19.8781 10.4004 19.9869 10.4771 20.1004 10.4578H21.5547C21.7413 10.4578 21.7413 10.4578 21.7495 10.6368V11.9694C21.7495 12.0993 21.701 12.1321 21.5705 12.1321H20.4491C20.3356 12.1321 20.3028 12.1321 20.311 12.2783C20.3555 12.7732 20.3555 13.2699 20.311 13.7648C20.311 13.9029 20.311 13.9192 20.466 13.9192H21.7489C21.8057 13.9924 21.7489 14.0655 21.7489 14.1392C21.7571 14.2334 21.7571 14.3288 21.7489 14.4229V15.4063C21.7489 15.5444 21.7086 15.5853 21.5863 15.5853H20.0507C19.9436 15.5649 19.8395 15.6333 19.8149 15.7398C19.4493 16.6904 18.8643 17.5428 18.1085 18.2261C17.8323 18.4747 17.5422 18.7087 17.2391 18.9246C16.9139 19.1118 16.5974 19.3066 16.2639 19.461C15.6503 19.7371 15.0068 19.9407 14.3463 20.07C13.7192 20.1823 13.0833 20.2332 12.445 20.2244H6.80614V20.2163L6.80848 20.2145Z" fill="#FEFEFD"/>
</svg>
