<svg width="20" height="20" viewBox="0 0 20 20" fill="none" xmlns="http://www.w3.org/2000/svg">
<path d="M10 0C15.5234 0 20 4.47754 20 10C20 15.5234 15.5234 20 10 20C4.47754 20 0 15.5229 0 10C0 4.47754 4.47754 0 10 0Z" fill="#F4B731"/>
<path d="M10.3499 10.6253H13.7141C13.7858 10.6253 13.8197 10.6253 13.8249 10.5313C13.8524 10.1891 13.8524 9.84482 13.8249 9.50218C13.8249 9.43565 13.7918 9.40816 13.7197 9.40816H7.02429C6.94142 9.40816 6.91911 9.43565 6.91911 9.51334V10.4982C6.91911 10.6253 6.91911 10.6253 7.05178 10.6253H10.3499ZM13.4492 8.25713C13.4587 8.23203 13.4587 8.20454 13.4492 8.17984C13.393 8.05752 13.3264 7.94079 13.2492 7.83122C13.1328 7.64397 12.9958 7.47145 12.8396 7.31647C12.7659 7.22284 12.6806 7.13877 12.585 7.06746C12.1061 6.65988 11.5368 6.37142 10.9248 6.2264C10.616 6.15708 10.3005 6.12401 9.98413 6.1268H7.01274C6.92987 6.1268 6.91871 6.15987 6.91871 6.23198V8.19617C6.91871 8.27904 6.91871 8.30135 7.0239 8.30135H13.4093C13.4093 8.30135 13.4647 8.2902 13.4759 8.25713H13.4488H13.4492ZM13.4492 11.7763C13.3551 11.766 13.2603 11.766 13.1663 11.7763H7.02987C6.947 11.7763 6.91911 11.7763 6.91911 11.8871V13.8075C6.91911 13.8959 6.91911 13.9182 7.02987 13.9182H9.86301C9.99847 13.9286 10.1339 13.919 10.2666 13.8907C10.6778 13.8613 11.0822 13.772 11.4678 13.625C11.6081 13.5764 11.7435 13.513 11.8714 13.4369H11.9101C12.5742 13.0915 13.1137 12.5489 13.4539 11.8827C13.4539 11.8827 13.4926 11.7991 13.4492 11.7771V11.7763ZM5.80713 14.9139V14.8808V13.5915V13.1545V11.854C5.80713 11.7819 5.80713 11.7712 5.71868 11.7712H4.51785C4.45132 11.7712 4.42383 11.7712 4.42383 11.6827V10.6313H5.70753C5.77924 10.6313 5.80713 10.6313 5.80713 10.5373V9.497C5.80713 9.43047 5.80713 9.41413 5.71868 9.41413H4.51785C4.45132 9.41413 4.42383 9.41413 4.42383 9.32568V8.35195C4.42383 8.291 4.42383 8.27466 4.51228 8.27466H5.70195C5.78482 8.27466 5.80713 8.27466 5.80713 8.16948V5.18693C5.80713 5.09848 5.80713 5.07617 5.91789 5.07617H10.0678C10.369 5.08812 10.6682 5.12119 10.9642 5.17578C11.5742 5.28853 12.1603 5.50646 12.6962 5.81763C13.0515 6.02679 13.3786 6.27939 13.6699 6.57023C13.889 6.79773 14.0866 7.04395 14.2619 7.30611C14.436 7.57185 14.5807 7.85592 14.6942 8.15275C14.7082 8.23004 14.7823 8.28223 14.8596 8.26908H15.85C15.9771 8.26908 15.9771 8.26908 15.9827 8.391V9.29859C15.9827 9.38704 15.9496 9.40935 15.8608 9.40935H15.097C15.0197 9.40935 14.9974 9.40935 15.003 9.50896C15.0333 9.84602 15.0333 10.1843 15.003 10.5213C15.003 10.6154 15.003 10.6265 15.1086 10.6265H15.9823C16.0209 10.6763 15.9823 10.7261 15.9823 10.7763C15.9879 10.8405 15.9879 10.9054 15.9823 10.9696V11.6393C15.9823 11.7333 15.9548 11.7612 15.8715 11.7612H14.8257C14.7528 11.7473 14.6819 11.7939 14.6651 11.8664C14.4161 12.5138 14.0177 13.0943 13.5029 13.5597C13.3149 13.729 13.1173 13.8883 12.9109 14.0354C12.6894 14.1629 12.4738 14.2955 12.2467 14.4007C11.8288 14.5888 11.3905 14.7274 10.9407 14.8155C10.5136 14.892 10.0805 14.9266 9.64588 14.9206H5.80554V14.9151L5.80713 14.9139Z" fill="#FEFEFD"/>
</svg>
