<svg width="24" height="24" viewBox="0 0 24 24" fill="none" xmlns="http://www.w3.org/2000/svg">
<circle cx="12" cy="12" r="12" fill="#D0D0D0"/>
<path d="M13.4594 18.6166C12.4877 18.6166 11.7785 18.3826 11.3318 17.9145C10.9179 17.5183 10.6777 16.9743 10.6637 16.4015C10.6587 16.2275 10.699 16.0552 10.7808 15.9015C10.857 15.7687 10.9671 15.6585 11.0999 15.5821C11.4127 15.4261 11.7806 15.4261 12.0934 15.5821C12.226 15.6582 12.3356 15.7685 12.4107 15.9015C12.4948 16.0544 12.5367 16.227 12.5319 16.4015C12.5406 16.6099 12.4809 16.8154 12.3618 16.9866C12.2625 17.1264 12.1206 17.2302 11.9574 17.2825C12.117 17.4858 12.3429 17.6266 12.5956 17.6804C12.8784 17.7626 13.1713 17.8048 13.4658 17.8059C13.8557 17.8093 14.2375 17.6951 14.5615 17.4783C14.8977 17.2408 15.1483 16.9014 15.2764 16.5103C15.4387 16.0448 15.5179 15.5543 15.5104 15.0614C15.5235 14.5475 15.4368 14.0359 15.2551 13.555C15.1184 13.1704 14.859 12.8414 14.5168 12.6189C14.1988 12.4176 13.8296 12.312 13.4532 12.3147C13.1253 12.3425 12.809 12.4498 12.5319 12.6274L11.8488 12.9699V12.6274L14.9189 8.50886H10.6637V12.7827C10.6517 13.0912 10.7333 13.396 10.8978 13.6572C11.0596 13.8887 11.3308 14.0186 11.6126 13.9997C11.8686 13.9945 12.1162 13.9073 12.3189 13.7508C12.5487 13.5824 12.7486 13.3767 12.9104 13.1423C12.925 13.1012 12.9519 13.0655 12.9874 13.0402C13.0159 13.0156 13.0523 13.002 13.0899 13.0019C13.1639 13.0087 13.2338 13.0384 13.29 13.087C13.3611 13.1664 13.3998 13.2697 13.3984 13.3763C13.3902 13.448 13.3774 13.519 13.3601 13.5891C13.209 13.9549 12.9556 14.2695 12.6303 14.4951C12.3282 14.6995 11.9714 14.8079 11.6066 14.8061C10.6854 14.8061 10.0471 14.6245 9.69195 14.2614C9.32315 13.856 9.13298 13.3192 9.16429 12.7721V8.50886H7V7.71477H9.17438V5.90418L8.67656 5.40602V5H10.1211L10.6637 5.28088V7.71477L16.2848 7.69768L16.8444 8.25935L13.3977 11.7228C13.6059 11.6391 13.8252 11.586 14.0487 11.5654C14.491 11.5847 14.9225 11.7079 15.3084 11.925C15.7553 12.1374 16.1319 12.4734 16.3936 12.8934C16.628 13.2488 16.794 13.645 16.8829 14.0614C16.956 14.3899 16.9952 14.725 17 15.0615C17.0022 15.7037 16.8566 16.3377 16.5744 16.9146C16.3068 17.4731 15.8564 17.9236 15.2978 18.1912C14.726 18.4729 14.0968 18.6185 13.4594 18.6166Z" fill="white"/>
</svg>
