<svg width="26" height="26" viewBox="0 0 26 26" fill="none" xmlns="http://www.w3.org/2000/svg">
<path d="M10.0869 11.66L13.0001 18.012L17.327 15.5525H17.3353V10.6309L10.0869 11.66Z" fill="#2BBDF7"/>
<path d="M22.9234 6.9401L20.2232 5.94137L17.335 5.70898V10.6307V21.0439L21.6674 23.5062L25.1228 16.5732L22.9317 9.90307L22.9234 6.9401Z" fill="#2891F9"/>
<path d="M22.6722 5.70898L21.668 8.17121V23.4674L26.0004 21.0052V5.70898H22.6722Z" fill="#2BBDF7"/>
<path d="M21.6674 3.25L17.335 5.70946L21.6674 8.17169L25.9998 5.70946L21.6674 3.25Z" fill="#2B6DEF"/>
<path d="M13 13.0901L8.66759 8.30954L0 5.70898V21.0052L4.33241 23.4674L5.57459 15.0018L8.66759 15.5524L13 18.0118V13.0901Z" fill="#2891F9"/>
<path d="M4.33241 3.25L0 5.70946L13 13.0906L14.9643 11.9785L17.3352 10.6311L4.33241 3.25Z" fill="#2B6DEF"/>
<path d="M4.33203 13.0908V23.4681L8.66721 21.0059V15.553L4.33203 13.0908Z" fill="#2BBDF7"/>
</svg>
