<svg width="80" height="80" viewBox="0 0 80 80" fill="none" xmlns="http://www.w3.org/2000/svg">
<path d="M40 80C62.0914 80 80 62.0914 80 40C80 17.9086 62.0914 0 40 0C17.9086 0 0 17.9086 0 40C0 62.0914 17.9086 80 40 80Z" fill="#7B3FE4"/>
<path d="M66.6653 40.934V53.0014C66.661 53.754 66.4622 54.4925 66.0882 55.1448C65.7143 55.7971 65.1781 56.3408 64.532 56.7229L54.1153 62.7441C53.4702 63.13 52.7331 63.3337 51.982 63.3337C51.2309 63.3337 50.4938 63.13 49.8487 62.7441L39.432 56.7229C38.7859 56.3408 38.2497 55.7971 37.8758 55.1448C37.5019 54.4925 37.303 53.754 37.2987 53.0014V49.6145L42.632 46.5078V52.3951L51.9653 57.8309L61.2987 52.3951V41.5486L51.9653 36.1128L30.0987 48.8242C29.4475 49.1924 28.7127 49.3859 27.9653 49.3859C27.2179 49.3859 26.4832 49.1924 25.832 48.8242L15.4153 42.778C14.7792 42.3901 14.2533 41.8443 13.8884 41.1932C13.5235 40.5421 13.3319 39.8077 13.332 39.0607V26.9932C13.3363 26.2407 13.5352 25.5022 13.9091 24.8499C14.2831 24.1976 14.8193 23.6538 15.4653 23.2718L25.882 17.2506C26.5285 16.8685 27.2651 16.667 28.0153 16.667C28.7656 16.667 29.5022 16.8685 30.1487 17.2506L40.5653 23.2718C41.2114 23.6538 41.7476 24.1976 42.1215 24.8499C42.4955 25.5022 42.6943 26.2407 42.6987 26.9932V30.3801L37.332 33.466V27.6121L27.9987 22.1763L18.6653 27.6121V38.446L27.9987 43.8818L49.8653 31.1704C50.5165 30.8022 51.2513 30.6088 51.9987 30.6088C52.7461 30.6088 53.4808 30.8022 54.132 31.1704L64.5487 37.2167C65.191 37.6005 65.7235 38.1445 66.0944 38.7958C66.4653 39.4472 66.662 40.1838 66.6653 40.934Z" fill="white"/>
</svg>
