<svg width="20" height="20" viewBox="0 0 20 20" fill="none" xmlns="http://www.w3.org/2000/svg">
<path d="M10 20C15.5228 20 20 15.5228 20 10C20 4.47715 15.5228 0 10 0C4.47715 0 0 4.47715 0 10C0 15.5228 4.47715 20 10 20Z" fill="#7B3FE4"/>
<path d="M16.6673 10.2337V13.2506C16.6662 13.4387 16.6165 13.6234 16.523 13.7864C16.4296 13.9495 16.2955 14.0854 16.134 14.181L13.5298 15.6863C13.3685 15.7827 13.1843 15.8337 12.9965 15.8337C12.8087 15.8337 12.6244 15.7827 12.4632 15.6863L9.85898 14.181C9.69746 14.0854 9.56341 13.9495 9.46994 13.7864C9.37646 13.6234 9.32674 13.4387 9.32566 13.2506V12.4039L10.659 11.6272V13.099L12.9923 14.458L15.3257 13.099V10.3874L12.9923 9.02844L7.52566 12.2063C7.36286 12.2983 7.17916 12.3467 6.99231 12.3467C6.80546 12.3467 6.62178 12.2983 6.45898 12.2063L3.85481 10.6947C3.69578 10.5978 3.56431 10.4613 3.47308 10.2985C3.38186 10.1358 3.33396 9.95217 3.33398 9.76542V6.74854C3.33506 6.56042 3.38478 6.37579 3.47826 6.21272C3.57176 6.04964 3.70581 5.91369 3.86731 5.81819L6.47148 4.31289C6.63311 4.21737 6.81726 4.16699 7.00481 4.16699C7.19238 4.16699 7.37653 4.21737 7.53816 4.31289L10.1423 5.81819C10.3038 5.91369 10.4379 6.04964 10.5314 6.21272C10.6249 6.37579 10.6746 6.56042 10.6757 6.74854V7.59527L9.33399 8.36674V6.90327L7.00066 5.54432L4.66731 6.90327V9.61174L7.00066 10.9707L12.4673 7.79284C12.6301 7.70079 12.8138 7.65244 13.0007 7.65244C13.1875 7.65244 13.3712 7.70079 13.534 7.79284L16.1382 9.30442C16.2987 9.40037 16.4319 9.53637 16.5246 9.69919C16.6173 9.86204 16.6665 10.0462 16.6673 10.2337Z" fill="white"/>
</svg>
