<svg width="24" height="24" viewBox="0 0 24 24" fill="none" xmlns="http://www.w3.org/2000/svg">
<path d="M7.29991 4.60506C7.65592 4.19392 8.03233 3.80096 8.42771 3.42769C2.47126 3.24355 4.20334 7.54851 2.2624 11.9316C0.034649 16.9787 2.52695 18.9066 6.25008 19.5036C5.72938 18.8837 5.30504 18.1886 4.9914 17.4418C2.57707 14.398 3.54893 8.85423 7.29991 4.60785" fill="#F0E914"/>
<path d="M21.6327 9.98138C20.9282 11.8255 19.9097 13.5332 18.6225 15.0285C17.5921 16.285 16.3568 17.3575 14.969 18.2007C13.3583 19.2248 11.4853 19.7579 9.5778 19.7352C8.46422 19.7455 7.35155 19.6681 6.25009 19.5036C6.8614 20.2367 7.62061 20.832 8.47785 21.2502C13.8634 23.8588 14.2032 19.0182 19.8951 16.5546C23.0919 15.1736 23.1058 12.4729 21.6272 9.98138" fill="#EDE80A"/>
<path d="M14.969 4.93987C15.7503 5.07543 16.5033 5.34138 17.1967 5.72665C19.0133 6.74971 20.5452 8.2125 21.6522 9.9814C22.6213 7.24441 22.1702 5.09332 20.0483 4.70272C17.7147 4.27585 15.8907 4.14472 14.1391 2.91154C11.981 1.40216 10.0874 1.90157 8.44722 3.42769L8.80087 3.44164C11.0788 3.57835 13.2564 4.02196 14.9885 4.93987" fill="#EEE809"/>
<path d="M7.29992 4.60507C3.54894 8.85423 2.56594 14.398 4.99141 17.4391C4.43068 16.116 4.18554 14.6803 4.27545 13.2457C4.36536 11.8112 4.78785 10.4174 5.50936 9.17508C7.54219 5.79639 11.6357 4.32328 14.9773 4.93707C13.2425 4.01917 11.0787 3.57556 8.79252 3.43885L8.43608 3.4249C8.04069 3.79817 7.66428 4.19113 7.30827 4.60227" fill="#DFC31C"/>
<path d="M17.1911 5.72666C16.4977 5.34139 15.7447 5.07543 14.9634 4.93988C17.2468 6.14795 18.7673 8.17628 18.7478 11.4099C18.7377 12.7687 18.3863 14.103 17.7259 15.2899C17.0654 16.4767 16.1173 17.4778 14.9689 18.2007C16.3568 17.3576 17.5921 16.285 18.6225 15.0285C19.9105 13.5339 20.9292 11.826 21.6327 9.98141C20.5256 8.2125 18.9938 6.74972 17.1772 5.72666" fill="#E6CB23"/>
<path d="M14.969 4.93987C11.6273 4.32607 7.54218 5.79919 5.501 9.17788C4.77949 10.4202 4.357 11.814 4.26709 13.2485C4.17718 14.6831 4.42232 16.1188 4.98305 17.4418C5.29668 18.1887 5.72102 18.8838 6.24173 19.5037C7.34319 19.6681 8.45586 19.7456 9.56944 19.7352C11.4769 19.7579 13.3499 19.2248 14.9606 18.2007C16.1119 17.4792 17.0631 16.4784 17.726 15.2909C18.3889 14.1034 18.7423 12.7676 18.7534 11.4071C18.7729 8.17627 17.2524 6.14794 14.969 4.93987ZM14.593 16.6579C13.3545 17.455 11.8514 17.7284 10.4122 17.4184C8.97303 17.1084 7.71491 16.2401 6.91284 15.0034C5.24202 12.431 6.07743 9.1165 8.58366 7.33927C11.3684 5.35 14.9578 6.13399 16.2638 8.99095C17.5364 11.7809 17.1856 14.9978 14.593 16.6579" fill="#CDA727"/>
</svg>
