<svg width="26" height="26" viewBox="0 0 26 26" fill="none" xmlns="http://www.w3.org/2000/svg">
<mask id="mask0_2051_11914" style="mask-type:alpha" maskUnits="userSpaceOnUse" x="0" y="0" width="26" height="26">
<path d="M0 0H26V26H0V0Z" fill="white"/>
</mask>
<g mask="url(#mask0_2051_11914)">
<path fill-rule="evenodd" clip-rule="evenodd" d="M13 0C20.1798 0 26 5.82016 26 13C26 20.1792 20.1798 26 13 26C5.82016 26 0 20.1792 0 13C0 5.82016 5.82016 0 13 0Z" fill="#2775CA"/>
</g>
<path fill-rule="evenodd" clip-rule="evenodd" d="M10.5627 22.0383C10.5627 22.3441 10.3232 22.5178 10.0275 22.4255C6.09688 21.1716 3.24707 17.4859 3.24707 13.1371C3.24707 8.78849 6.09688 5.10269 10.0275 3.84878C10.3232 3.75705 10.5627 3.93018 10.5627 4.23598V4.99086C10.5627 5.19443 10.4049 5.43405 10.2109 5.50037C7.10113 6.64231 4.8734 9.62979 4.8734 13.132C4.8734 16.6341 7.10113 19.6222 10.2109 20.7636C10.4049 20.8351 10.5627 21.0693 10.5627 21.2737V22.0383Z" fill="white"/>
<path fill-rule="evenodd" clip-rule="evenodd" d="M13.8108 19.2294C13.8108 19.454 13.6274 19.6374 13.4031 19.6374H12.5924C12.3681 19.6374 12.1847 19.454 12.1847 19.2294V17.9449C10.4105 17.7055 9.54404 16.7111 9.30945 15.3603C9.26853 15.1306 9.452 14.9217 9.68659 14.9217H10.6145C10.8081 14.9217 10.9714 15.0595 11.0122 15.2529C11.1856 16.0585 11.6494 16.6754 13.0716 16.6754C14.1218 16.6754 14.8664 16.089 14.8664 15.2126C14.8664 14.3354 14.4278 14.0042 12.8881 13.749C10.6145 13.4432 9.53887 12.7548 9.53887 10.9706C9.53887 9.5942 10.579 8.52377 12.1898 8.2942V7.03498C12.1898 6.81058 12.3735 6.62695 12.5976 6.62695H13.4083C13.6325 6.62695 13.816 6.81058 13.816 7.03498V8.32995C15.1262 8.56484 15.9572 9.30865 16.2275 10.5423C16.2783 10.7772 16.0949 10.996 15.8554 10.996H14.9987C14.8152 10.996 14.6623 10.8735 14.6064 10.6952C14.3769 9.91049 13.816 9.57411 12.8422 9.57411C11.7666 9.57411 11.2108 10.094 11.2108 10.8229C11.2108 11.5927 11.5271 11.9799 13.179 12.2199C15.4116 12.5257 16.564 13.1629 16.564 15.0648C16.564 16.5074 15.4933 17.6749 13.816 17.9449V19.2294H13.8108Z" fill="white"/>
<path fill-rule="evenodd" clip-rule="evenodd" d="M15.9717 22.4262C15.6763 22.5185 15.4365 22.3448 15.4365 22.039V21.2847C15.4365 21.0603 15.5742 20.8514 15.7883 20.7746C18.8981 19.6326 21.1258 16.6451 21.1258 13.143C21.1258 9.6408 18.8981 6.65331 15.7883 5.51138C15.5946 5.43988 15.4365 5.20559 15.4365 5.00128V4.24698C15.4365 3.94119 15.6763 3.76288 15.9717 3.8592C19.9023 5.11385 22.7521 8.79949 22.7521 13.1481C22.7473 17.4864 19.9023 21.1671 15.9717 22.4262Z" fill="white"/>
</svg>
