<svg width="20" height="20" viewBox="0 0 20 20" fill="none" xmlns="http://www.w3.org/2000/svg">
<path d="M19.9825 9.99615C19.9825 15.4917 15.5278 19.9464 10.0323 19.9464C4.53696 19.9464 0.0820312 15.4917 0.0820312 9.99615C0.0820312 4.50072 4.53696 0.0458984 10.0323 0.0458984C15.5278 0.0458984 19.9825 4.50072 19.9825 9.99615Z" fill="#1BA27A"/>
<path d="M14.7031 5.06348H5.28125V7.3381H8.85488V10.6814H11.1295V7.3381H14.7031V5.06348Z" fill="white"/>
<path d="M10.0125 11.0377C7.05628 11.0377 4.65956 10.5699 4.65956 9.99267C4.65956 9.41555 7.05618 8.94759 10.0125 8.94759C12.9687 8.94759 15.3653 9.41555 15.3653 9.99267C15.3653 10.5699 12.9687 11.0377 10.0125 11.0377ZM16.0229 10.1669C16.0229 9.42262 13.332 8.81934 10.0125 8.81934C6.6931 8.81934 4.00195 9.42262 4.00195 10.1669C4.00195 10.8223 6.08862 11.3684 8.85369 11.4894V16.2888H11.1281V11.4913C13.9145 11.3741 16.0229 10.8257 16.0229 10.1669Z" fill="white"/>
</svg>
