<svg width="26" height="26" viewBox="0 0 26 26" fill="none" xmlns="http://www.w3.org/2000/svg">
<path d="M25.9771 12.9959C25.9771 20.1401 20.1859 25.9312 13.0418 25.9312C5.89785 25.9312 0.106445 20.1401 0.106445 12.9959C0.106445 5.85182 5.89785 0.0605469 13.0418 0.0605469C20.1859 0.0605469 25.9771 5.85182 25.9771 12.9959Z" fill="#1BA27A"/>
<path d="M19.1127 6.58301H6.86426V9.54002H11.51V13.8863H14.467V9.54002H19.1127V6.58301Z" fill="white"/>
<path d="M13.0168 14.3498C9.17375 14.3498 6.05802 13.7415 6.05802 12.9912C6.05802 12.2409 9.17362 11.6326 13.0168 11.6326C16.8599 11.6326 19.9755 12.2409 19.9755 12.9912C19.9755 13.7415 16.8599 14.3498 13.0168 14.3498ZM20.8304 13.2177C20.8304 12.2501 17.3322 11.4658 13.0168 11.4658C8.70161 11.4658 5.20312 12.2501 5.20312 13.2177C5.20312 14.0697 7.91579 14.7796 11.5104 14.9369V21.1761H14.4671V14.9393C18.0894 14.787 20.8304 14.0741 20.8304 13.2177Z" fill="white"/>
</svg>
