<svg width="20" height="20" viewBox="0 0 20 20" fill="none" xmlns="http://www.w3.org/2000/svg">
<circle cx="10" cy="10" r="9.5" fill="white"/>
<path d="M16.307 4.19738L15.7578 4.74653C17.0682 6.1795 17.7948 8.05097 17.7948 9.99273C17.7948 11.9345 17.0682 13.806 15.7578 15.2389L16.307 15.7881C17.7642 14.2074 18.5733 12.1362 18.5733 9.98633C18.5733 7.83642 17.7642 5.76524 16.307 4.18457V4.19738Z" fill="#5A5564"/>
<path d="M4.75923 4.24515C6.1922 2.93479 8.06367 2.20813 10.0054 2.20813C11.9472 2.20813 13.8187 2.93479 15.2516 4.24515L15.8008 3.696C14.2201 2.23874 12.1489 1.42969 9.99902 1.42969C7.84911 1.42969 5.77793 2.23874 4.19727 3.696L4.75923 4.24515Z" fill="#5A5564"/>
<path d="M4.24515 15.2441C2.93634 13.8114 2.21064 11.9411 2.21064 10.0006C2.21064 8.06013 2.93634 6.18981 4.24515 4.75716L3.696 4.20801C2.23874 5.78868 1.42969 7.85985 1.42969 10.0098C1.42969 12.1597 2.23874 14.2309 3.696 15.8115L4.24515 15.2441Z" fill="#5A5564"/>
<path d="M15.2447 15.751C13.8117 17.0613 11.9402 17.788 9.99847 17.788C8.05671 17.788 6.18524 17.0613 4.75227 15.751L4.20312 16.3001C5.78379 17.7574 7.85497 18.5664 10.0049 18.5664C12.1548 18.5664 14.226 17.7574 15.8066 16.3001L15.2447 15.751Z" fill="#5A5564"/>
<path d="M13.4661 8.16772C13.3563 7.02183 12.3678 6.63742 11.1176 6.52027V4.94238H10.1511V6.49098C9.89665 6.49098 9.63672 6.49098 9.37862 6.49098V4.94238H8.41944V6.53125H6.45898V7.56548C6.45898 7.56548 7.17288 7.55267 7.16189 7.56548C7.29062 7.55132 7.41981 7.58768 7.52225 7.6669C7.62468 7.74612 7.69237 7.86202 7.71104 7.99016V12.3394C7.70829 12.3846 7.69651 12.4288 7.67639 12.4694C7.65626 12.5099 7.62821 12.546 7.59389 12.5756C7.56021 12.6056 7.5208 12.6286 7.47802 12.6431C7.43524 12.6576 7.38997 12.6632 7.34494 12.6598C7.35776 12.6707 6.64203 12.6598 6.64203 12.6598L6.45898 13.8148H8.40114V15.4293H9.36764V13.8386H10.1401V15.422H11.1084V13.8258C12.7412 13.7269 13.8798 13.3242 14.0226 11.7958C14.1379 10.5657 13.5595 10.0165 12.6351 9.79503C13.197 9.51862 13.5448 9.00608 13.4661 8.16772ZM12.1116 11.6054C12.1116 12.8062 10.0541 12.6689 9.39876 12.6689V10.5382C10.0541 10.54 12.1116 10.3515 12.1116 11.6054ZM11.6631 8.60337C11.6631 9.70167 9.94608 9.56805 9.40059 9.56805V7.63138C9.94608 7.63138 11.6631 7.45931 11.6631 8.60337Z" fill="#F09242"/>
<path d="M9.99817 20C8.02051 19.9996 6.08737 19.4129 4.44316 18.3139C2.79895 17.215 1.51751 15.6532 0.760859 13.826C0.00420949 11.9988 -0.19367 9.98829 0.192241 8.04865C0.578151 6.10901 1.53052 4.32735 2.92894 2.92894C4.32735 1.53052 6.10901 0.578151 8.04865 0.192241C9.98829 -0.19367 11.9988 0.00420949 13.826 0.760859C15.6532 1.51751 17.215 2.79895 18.3139 4.44316C19.4129 6.08737 19.9996 8.02051 20 9.99817C20.0002 11.3117 19.7417 12.6124 19.2391 13.826C18.7366 15.0396 17.9999 16.1423 17.0711 17.0711C16.1423 17.9999 15.0396 18.7366 13.826 19.2391C12.6124 19.7417 11.3117 20.0002 9.99817 20V20ZM9.99817 0.779796C8.17614 0.781243 6.39544 1.32282 4.88113 2.33606C3.36682 3.3493 2.18688 4.78873 1.49046 6.47242C0.794033 8.1561 0.612381 10.0085 0.968463 11.7953C1.32454 13.5822 2.20237 15.2235 3.491 16.5116C4.77963 17.7997 6.4212 18.6769 8.20824 19.0323C9.99528 19.3876 11.8476 19.2052 13.531 18.5081C15.2144 17.8111 16.6533 16.6305 17.666 15.1158C18.6786 13.6011 19.2195 11.8202 19.2202 9.99817C19.2207 8.78715 18.9825 7.58792 18.5191 6.46904C18.0558 5.35015 17.3765 4.33358 16.52 3.47743C15.6635 2.62128 14.6466 1.94235 13.5276 1.47947C12.4085 1.01659 11.2092 0.778833 9.99817 0.779796V0.779796Z" fill="#282138"/>
</svg>
