<svg width="26" height="26" viewBox="0 0 26 26" fill="none" xmlns="http://www.w3.org/2000/svg">
<g clip-path="url(#clip0_2051_11911)">
<path d="M21.2002 5.45611L20.4863 6.17C22.1898 8.03287 23.1345 10.4658 23.1345 12.9901C23.1345 15.5144 22.1898 17.9473 20.4863 19.8101L21.2002 20.524C23.0947 18.4692 24.1464 15.7766 24.1464 12.9817C24.1464 10.1869 23.0947 7.49432 21.2002 5.43945V5.45611Z" fill="#5A5564"/>
<path d="M6.18661 5.5185C8.04947 3.81503 10.4824 2.87037 13.0067 2.87037C15.531 2.87037 17.9639 3.81503 19.8267 5.5185L20.5406 4.80461C18.4858 2.91017 15.7932 1.8584 12.9983 1.8584C10.2035 1.8584 7.51092 2.91017 5.45605 4.80461L6.18661 5.5185Z" fill="#5A5564"/>
<path d="M5.5185 19.8176C3.81705 17.9551 2.87363 15.5237 2.87363 13.0011C2.87363 10.4785 3.81705 8.04704 5.5185 6.1846L4.80461 5.4707C2.91017 7.52557 1.8584 10.2181 1.8584 13.013C1.8584 15.8079 2.91017 18.5004 4.80461 20.5553L5.5185 19.8176Z" fill="#5A5564"/>
<path d="M19.8179 20.4766C17.955 22.18 15.5221 23.1247 12.9978 23.1247C10.4735 23.1247 8.04062 22.18 6.17776 20.4766L5.46387 21.1905C7.51874 23.0849 10.2113 24.1367 13.0062 24.1367C15.801 24.1367 18.4936 23.0849 20.5484 21.1905L19.8179 20.4766Z" fill="#5A5564"/>
<path d="M17.5067 10.6177C17.364 9.12808 16.079 8.62836 14.4537 8.47606V6.4248H13.1972V8.43798C12.8664 8.43798 12.5285 8.43798 12.193 8.43798V6.4248H10.9461V8.49034H8.39746V9.83484C8.39746 9.83484 9.32552 9.81818 9.31124 9.83484C9.47858 9.81643 9.64653 9.8637 9.7797 9.96668C9.91287 10.0697 10.0009 10.2203 10.0251 10.3869V16.041C10.0216 16.0997 10.0062 16.1571 9.98008 16.2099C9.95392 16.2626 9.91746 16.3095 9.87284 16.3479C9.82906 16.387 9.77782 16.4169 9.72221 16.4357C9.66659 16.4545 9.60775 16.4619 9.54921 16.4574C9.56587 16.4717 8.63543 16.4574 8.63543 16.4574L8.39746 17.9589H10.9223V20.0578H12.1787V17.9899H13.1829V20.0483H14.4418V17.9732C16.5644 17.8447 18.0445 17.3212 18.2302 15.3342C18.3801 13.7351 17.6281 13.0212 16.4264 12.7332C17.1569 12.3739 17.6091 11.7076 17.5067 10.6177ZM15.7458 15.0867C15.7458 16.6478 13.0711 16.4693 12.2192 16.4693V13.6994C13.0711 13.7018 15.7458 13.4567 15.7458 15.0867ZM15.1628 11.1841C15.1628 12.6119 12.9307 12.4382 12.2215 12.4382V9.9205C12.9307 9.9205 15.1628 9.69682 15.1628 11.1841Z" fill="#F09242"/>
<path d="M12.9976 26C10.4267 25.9995 7.91358 25.2368 5.77611 23.8081C3.63863 22.3795 1.97276 20.3491 0.989117 17.9738C0.00547233 15.5984 -0.25177 12.9848 0.249913 10.4632C0.751597 7.94172 1.98968 5.62556 3.80762 3.80762C5.62556 1.98968 7.94172 0.751597 10.4632 0.249913C12.9848 -0.25177 15.5984 0.00547233 17.9738 0.989117C20.3491 1.97276 22.3795 3.63863 23.8081 5.77611C25.2368 7.91358 25.9995 10.4267 26 12.9976C26.0003 14.7052 25.6642 16.3961 25.0109 17.9738C24.3576 19.5515 23.3998 20.9849 22.1924 22.1924C20.9849 23.3998 19.5515 24.3576 17.9738 25.0109C16.3961 25.6642 14.7052 26.0003 12.9976 26ZM12.9976 1.01373C10.629 1.01562 8.31407 1.71966 6.34547 3.03688C4.37686 4.35409 2.84295 6.22536 1.9376 8.41414C1.03224 10.6029 0.796096 13.011 1.259 15.334C1.72191 17.6569 2.86309 19.7905 4.5383 21.4651C6.21352 23.1396 8.34756 24.2799 10.6707 24.7419C12.9939 25.2039 15.4018 24.9668 17.5903 24.0606C19.7787 23.1544 21.6493 21.6197 22.9658 19.6506C24.2822 17.6815 24.9853 15.3663 24.9863 12.9976C24.9869 11.4233 24.6772 9.86429 24.0749 8.40975C23.4726 6.9552 22.5894 5.63365 21.476 4.52066C20.3626 3.40766 19.0406 2.52506 17.5859 1.92331C16.1311 1.32157 14.5719 1.01248 12.9976 1.01373Z" fill="#282138"/>
</g>
<defs>
<clipPath id="clip0_2051_11911">
<rect width="26" height="26" fill="white"/>
</clipPath>
</defs>
</svg>
