<svg width="20" height="20" viewBox="0 0 20 20" fill="none" xmlns="http://www.w3.org/2000/svg">
<g clip-path="url(#clip0_3619_22053)">
<path d="M9.96823 19.9746C15.4735 19.9746 19.9365 15.5116 19.9365 10.0063C19.9365 4.50102 15.4735 0.0380859 9.96823 0.0380859C4.46293 0.0380859 0 4.50102 0 10.0063C0 15.5116 4.46293 19.9746 9.96823 19.9746Z" fill="#F0F0F0"/>
<path d="M10.0312 1.9567V1.96473C10.0393 2.00487 10.0393 2.05303 10.0393 2.1012V7.88919C10.0312 7.9213 10.0071 7.92933 9.98306 7.94538C9.81448 8.02566 9.65393 8.09791 9.48534 8.17016C9.25254 8.27452 9.01171 8.38691 8.77891 8.49127L7.93599 8.8766C7.70319 8.98096 7.47039 9.08532 7.24561 9.18968C6.97267 9.31812 6.6917 9.43854 6.41875 9.56698C6.18595 9.67134 5.95315 9.78373 5.71232 9.88809C5.51965 9.9764 5.32698 10.0567 5.14235 10.145C5.12629 10.153 5.11024 10.161 5.09418 10.161C5.08615 10.161 5.08615 10.161 5.07812 10.153L5.29487 9.79176C5.71232 9.10138 6.12173 8.41902 6.53917 7.72863C6.9807 6.99008 7.43025 6.25153 7.87177 5.51298C8.28119 4.83063 8.69863 4.14827 9.10804 3.46591C9.40507 2.96819 9.71012 2.47047 10.0071 1.97276C10.0152 1.9567 10.0232 1.94867 10.0232 1.93262H10.0312C10.0232 1.94064 10.0312 1.94867 10.0312 1.9567Z" fill="#8A92B2"/>
<path d="M14.992 10.3709L15 10.379L13.8199 11.0774L10.1111 13.2689C10.095 13.277 10.079 13.285 10.071 13.293C10.0469 13.293 10.0469 13.2689 10.0469 13.2609V13.1887V8.22754C10.0469 8.20345 10.0469 8.17134 10.0549 8.14726C10.0629 8.11515 10.087 8.12318 10.1111 8.1312C10.2155 8.17937 10.3278 8.22754 10.4322 8.2757C10.7453 8.4202 11.0584 8.5647 11.3714 8.70117C11.6444 8.82159 11.9093 8.95003 12.1823 9.07045C12.4552 9.19086 12.7281 9.31931 13.0011 9.43972C13.2339 9.54408 13.4747 9.65647 13.7075 9.76083C13.9403 9.86519 14.1812 9.97758 14.414 10.0819C14.5986 10.1622 14.7832 10.2505 14.9679 10.3308C14.9679 10.3549 14.9759 10.3629 14.992 10.3709Z" fill="#454A75"/>
<path d="M10.0312 18.2194C10.0312 18.2274 10.0232 18.2354 10.0232 18.2435H10.0152C10.0152 18.2274 9.99912 18.2194 9.99109 18.2033C9.49337 17.5049 8.99566 16.7985 8.49794 16.1001C7.99219 15.3856 7.47842 14.6631 6.97267 13.9486C6.48298 13.2582 5.98526 12.5598 5.49557 11.8694C5.36712 11.6848 5.23868 11.5082 5.11024 11.3236C5.10221 11.3075 5.09418 11.2995 5.07812 11.2754C5.10221 11.2754 5.11826 11.2914 5.12629 11.2995C5.8247 11.7089 6.51509 12.1183 7.2135 12.5277C8.01627 13.0014 8.81102 13.475 9.61379 13.9486L10.0232 14.1895C10.0393 14.2055 10.0393 14.2216 10.0393 14.2376V18.107C10.0393 18.1471 10.0393 18.1873 10.0312 18.2194Z" fill="#8A92B2"/>
<path d="M5.07031 10.3878V10.3798C5.3272 10.2674 5.57606 10.147 5.83295 10.0346C6.16208 9.8821 6.49122 9.7376 6.82036 9.58507C7.06922 9.47268 7.3261 9.35227 7.57496 9.23988C7.94424 9.07129 8.30549 8.91074 8.67476 8.74216C8.92362 8.62977 9.17248 8.51738 9.42937 8.39697C9.60598 8.31669 9.79061 8.23641 9.96722 8.15613C9.98328 8.14811 10.0074 8.14008 10.0154 8.12402C10.0234 8.12402 10.0234 8.13205 10.0154 8.14008V13.2377C10.0154 13.2618 10.0074 13.2858 10.0234 13.3019C10.0074 13.326 9.99131 13.3019 9.98328 13.2939C9.91103 13.2537 9.83878 13.2136 9.76653 13.1654C8.21718 12.2503 6.6598 11.3271 5.11045 10.4119C5.10242 10.4039 5.08637 10.3959 5.07031 10.3878Z" fill="#62688F"/>
<path d="M14.9776 11.2559H14.9857C14.9857 11.2719 14.9696 11.288 14.9616 11.304C13.4845 13.3832 12.0074 15.4704 10.5303 17.5496C10.3777 17.7663 10.2172 17.9831 10.0647 18.1998C10.0566 18.1918 10.0566 18.1838 10.0566 18.1758V18.1276V14.2341V14.1619C10.3938 13.9612 10.7229 13.7685 11.0601 13.5678C12.3606 12.7972 13.6611 12.0345 14.9535 11.2639C14.9616 11.2719 14.9696 11.2639 14.9776 11.2559Z" fill="#62688F"/>
<path d="M10.0551 7.92142V7.90536V7.85719V2.02907C10.0551 2.00498 10.0471 1.98893 10.0631 1.96484C11.6928 4.67019 13.3224 7.3675 14.944 10.0728C14.9601 10.0969 14.9841 10.129 14.9922 10.1612C14.8798 10.121 14.7754 10.0648 14.6711 10.0167C14.5426 9.96046 14.4061 9.89624 14.2777 9.84004C14.1974 9.7999 14.1091 9.76779 14.0288 9.72765C13.8924 9.66343 13.7559 9.60724 13.6194 9.54302C13.5392 9.51091 13.4589 9.47077 13.3786 9.43063L12.8488 9.1898C12.7605 9.14966 12.6722 9.10952 12.5758 9.06938L12.1905 8.9008C12.1102 8.86869 12.0299 8.82855 11.9497 8.78841L11.4198 8.54758C11.3315 8.50744 11.2432 8.4673 11.1469 8.42716L10.7616 8.25858C10.6733 8.21844 10.593 8.1783 10.5047 8.13816C10.3521 8.06591 10.1996 7.99367 10.0391 7.92944C10.0631 7.92142 10.0551 7.92142 10.0551 7.92142Z" fill="#62688F"/>
</g>
<defs>
<clipPath id="clip0_3619_22053">
<rect width="20" height="20" fill="white"/>
</clipPath>
</defs>
</svg>
