<svg width="80" height="80" viewBox="0 0 80 80" fill="none" xmlns="http://www.w3.org/2000/svg">
<g clip-path="url(#clip0_3583_22181)">
<path d="M39.8729 79.8963C61.8942 79.8963 79.7459 62.0445 79.7459 40.0233C79.7459 18.0021 61.8942 0.150391 39.8729 0.150391C17.8517 0.150391 0 18.0021 0 40.0233C0 62.0445 17.8517 79.8963 39.8729 79.8963Z" fill="#F0F0F0"/>
<path d="M40.123 7.82582V7.85794C40.1551 8.01849 40.1551 8.21116 40.1551 8.40382V31.5558C40.123 31.6842 40.0266 31.7163 39.9303 31.7806C39.256 32.1017 38.6138 32.3907 37.9394 32.6797C37.0082 33.0971 36.0449 33.5467 35.1137 33.9641L31.742 35.5054C30.8108 35.9229 29.8796 36.3403 28.9805 36.7577C27.8887 37.2715 26.7648 37.7532 25.6731 38.267C24.7418 38.6844 23.8106 39.134 22.8473 39.5514C22.0766 39.9046 21.306 40.2257 20.5674 40.5789C20.5032 40.6111 20.439 40.6432 20.3748 40.6432C20.3427 40.6432 20.3427 40.6432 20.3105 40.6111L21.1775 39.1661C22.8473 36.4045 24.485 33.6751 26.1547 30.9136C27.9208 27.9594 29.719 25.0052 31.4851 22.051C33.1228 19.3215 34.7926 16.5921 36.4302 13.8627C37.6183 11.8718 38.8385 9.88092 40.0266 7.89005C40.0587 7.82582 40.0909 7.79371 40.0909 7.72949H40.123C40.0909 7.7616 40.123 7.79371 40.123 7.82582Z" fill="#8A92B2"/>
<path d="M59.9678 41.4828L59.9999 41.5149L55.2796 44.3085L40.4444 53.0748C40.3802 53.1069 40.3159 53.139 40.2838 53.1711C40.1875 53.1711 40.1875 53.0748 40.1875 53.0427V52.7537V32.9092C40.1875 32.8128 40.1875 32.6844 40.2196 32.5881C40.2517 32.4596 40.3481 32.4917 40.4444 32.5238C40.8618 32.7165 41.3114 32.9092 41.7288 33.1018C42.9811 33.6798 44.2335 34.2578 45.4858 34.8037C46.5776 35.2854 47.6372 35.7991 48.729 36.2808C49.8208 36.7625 50.9125 37.2763 52.0043 37.7579C52.9355 38.1754 53.8989 38.6249 54.8301 39.0424C55.7613 39.4598 56.7246 39.9093 57.6558 40.3268C58.3944 40.6479 59.1329 41.0011 59.8715 41.3222C59.8715 41.4186 59.9036 41.4507 59.9678 41.4828Z" fill="#454A75"/>
<path d="M40.121 72.8755C40.121 72.9076 40.0889 72.9398 40.0889 72.9719H40.0568C40.0568 72.9076 39.9926 72.8755 39.9605 72.8113C37.9696 70.0177 35.9787 67.1919 33.9878 64.3983C31.9649 61.5404 29.9098 58.6504 27.8868 55.7925C25.928 53.031 23.9371 50.2374 21.9784 47.4758C21.4646 46.7373 20.9508 46.0308 20.437 45.2923C20.4049 45.2281 20.3728 45.1959 20.3086 45.0996C20.4049 45.0996 20.4691 45.1638 20.5013 45.1959C23.2949 46.8336 26.0564 48.4713 28.8501 50.1089C32.0612 52.0035 35.2402 53.898 38.4513 55.7925L40.0889 56.7559C40.1531 56.8201 40.1531 56.8843 40.1531 56.9485V72.426C40.1531 72.5865 40.1531 72.7471 40.121 72.8755Z" fill="#8A92B2"/>
<path d="M20.2773 41.5504V41.5183C21.3049 41.0687 22.3003 40.5871 23.3279 40.1375C24.6444 39.5274 25.961 38.9494 27.2775 38.3393C28.273 37.8897 29.3005 37.4081 30.2959 36.9585C31.773 36.2842 33.218 35.642 34.6951 34.9677C35.6906 34.5181 36.686 34.0686 37.7136 33.5869C38.42 33.2658 39.1585 32.9447 39.865 32.6236C39.9292 32.5914 40.0255 32.5593 40.0577 32.4951C40.0898 32.4951 40.0898 32.5272 40.0577 32.5593V52.9498C40.0577 53.0461 40.0255 53.1424 40.0898 53.2066C40.0255 53.303 39.9613 53.2066 39.9292 53.1745C39.6402 53.014 39.3512 52.8534 39.0622 52.6608C32.8648 49.0001 26.6353 45.3074 20.4379 41.6467C20.4058 41.6146 20.3416 41.5825 20.2773 41.5504Z" fill="#62688F"/>
<path d="M59.9027 45.0225H59.9348C59.9348 45.0867 59.8706 45.1509 59.8385 45.2151C53.9301 53.5319 48.0217 61.8807 42.1133 70.1974C41.5032 71.0644 40.861 71.9314 40.2509 72.7984C40.2188 72.7663 40.2188 72.7342 40.2188 72.7021V72.5094V56.9356V56.6466C41.5674 55.8438 42.884 55.0732 44.2326 54.2704C49.4346 51.1878 54.6365 48.1372 59.8064 45.0546C59.8385 45.0867 59.8706 45.0546 59.9027 45.0225Z" fill="#62688F"/>
<path d="M40.2205 31.6847V31.6205V31.4278V8.11529C40.2205 8.01895 40.1884 7.95473 40.2526 7.8584C46.7711 18.6798 53.2896 29.469 59.776 40.2904C59.8402 40.3867 59.9366 40.5152 59.9687 40.6436C59.5191 40.4831 59.1017 40.2583 58.6842 40.0656C58.1705 39.8409 57.6246 39.584 57.1108 39.3592C56.7897 39.1986 56.4365 39.0702 56.1154 38.9096C55.5695 38.6527 55.0236 38.428 54.4777 38.1711C54.1566 38.0426 53.8355 37.8821 53.5144 37.7215L51.3951 36.7582C51.0418 36.5977 50.6886 36.4371 50.3033 36.2765L48.762 35.6022C48.4409 35.4738 48.1198 35.3132 47.7986 35.1527L45.6793 34.1893C45.3261 34.0288 44.9729 33.8682 44.5876 33.7077L43.0462 33.0333C42.693 32.8728 42.3719 32.7122 42.0187 32.5517C41.4086 32.2627 40.7985 31.9737 40.1562 31.7168C40.2526 31.6847 40.2205 31.6847 40.2205 31.6847Z" fill="#62688F"/>
</g>
<defs>
<clipPath id="clip0_3583_22181">
<rect width="80" height="80" fill="white"/>
</clipPath>
</defs>
</svg>
