<svg width="80" height="80" viewBox="0 0 80 80" fill="none" xmlns="http://www.w3.org/2000/svg">
<g clip-path="url(#clip0_707_91770)">
<path d="M40 80C62.0914 80 80 62.0914 80 40C80 17.9086 62.0914 0 40 0C17.9086 0 0 17.9086 0 40C0 62.0914 17.9086 80 40 80Z" fill="white"/>
<g clip-path="url(#clip1_707_91770)">
<path d="M34.801 37.6091L39.9999 48.945L47.7217 44.5558H47.7365V35.7725L34.801 37.6091Z" fill="#2BBDF7"/>
<path d="M57.7099 29.1861L52.8912 27.4038L47.7367 26.9891V35.7724V54.3561L55.4684 58.7502L61.635 46.3775L57.7247 34.4739L57.7099 29.1861Z" fill="#2891F9"/>
<path d="M57.2606 26.9891L55.4684 31.3832V58.6811L63.2001 54.287V26.9891H57.2606Z" fill="#2BBDF7"/>
<path d="M55.4684 22.5999L47.7367 26.9891L55.4684 31.3832L63.2001 26.9891L55.4684 22.5999Z" fill="#2B6DEF"/>
<path d="M40.0001 40.1616L32.2684 31.6301L16.8 26.9891V54.287L24.5317 58.6811L26.7485 43.5732L32.2684 44.5557L40.0001 48.9449V40.1616Z" fill="#2891F9"/>
<path d="M24.5317 22.6L16.8 26.9892L40.0001 40.1617L43.5055 38.1769L47.7367 35.7725L24.5317 22.6Z" fill="#2B6DEF"/>
<path d="M24.5317 40.1616V58.6811L32.2684 54.287V44.5557L24.5317 40.1616Z" fill="#2BBDF7"/>
</g>
</g>
<defs>
<clipPath id="clip0_707_91770">
<rect width="80" height="80" fill="white"/>
</clipPath>
<clipPath id="clip1_707_91770">
<rect width="46.4" height="46.4" fill="white" transform="translate(16.8 16.8)"/>
</clipPath>
</defs>
</svg>
