<svg width="40" height="40" viewBox="0 0 40 40" fill="none" xmlns="http://www.w3.org/2000/svg">
<rect width="40" height="40" rx="2.33766" fill="#2C7DF7"/>
<path fill-rule="evenodd" clip-rule="evenodd" d="M31.1129 19.9993C31.1129 26.1358 26.1382 31.1104 20.0017 31.1104C13.8652 31.1104 8.89062 26.1358 8.89062 19.9993C8.89062 13.8628 13.8652 8.88818 20.0017 8.88818C26.1382 8.88818 31.1129 13.8628 31.1129 19.9993ZM21.238 15.0614C21.238 15.7433 20.6853 16.296 20.0035 16.296C19.3216 16.296 18.7689 15.7433 18.7689 15.0614C18.7689 14.3796 19.3216 13.8269 20.0035 13.8269C20.6853 13.8269 21.238 14.3796 21.238 15.0614ZM21.1803 26.1725V18.7651H18.8236V26.1725H21.1803Z" fill="white"/>
</svg>
