<svg width="54" height="54" viewBox="0 0 54 54" fill="none" xmlns="http://www.w3.org/2000/svg">
<path d="M0 2.8052C0 1.25593 1.25593 0 2.8052 0H51.1948C52.7441 0 54 1.25593 54 2.8052V51.1948C54 52.7441 52.7441 54 51.1948 54H2.8052C1.25593 54 0 52.7441 0 51.1948V2.8052Z" fill="#FF5A5A"/>
<path fill-rule="evenodd" clip-rule="evenodd" d="M42 27C42 35.2843 35.2843 42 27 42C18.7157 42 12 35.2843 12 27C12 18.7157 18.7157 12 27 12C35.2843 12 42 18.7157 42 27ZM19.1545 34.8452C18.5036 34.1943 18.5036 33.139 19.1545 32.4882L24.643 26.9997L19.1551 21.5118C18.5043 20.861 18.5043 19.8057 19.1551 19.1548C19.806 18.5039 20.8613 18.5039 21.5122 19.1548L27 24.6426L32.4878 19.1548C33.1387 18.5039 34.194 18.5039 34.8449 19.1548C35.4957 19.8057 35.4957 20.861 34.8449 21.5118L29.357 26.9997L34.8455 32.4882C35.4964 33.139 35.4964 34.1943 34.8455 34.8452C34.1946 35.496 33.1394 35.496 32.4885 34.8452L27 29.3567L21.5115 34.8452C20.8606 35.496 19.8054 35.496 19.1545 34.8452Z" fill="white"/>
</svg>
