<svg width="55" height="54" viewBox="0 0 55 54" fill="none" xmlns="http://www.w3.org/2000/svg">
<path d="M0.5 2.8052C0.5 1.25593 1.75593 0 3.3052 0H51.6948C53.2441 0 54.5 1.25593 54.5 2.8052V51.1948C54.5 52.7441 53.2441 54 51.6948 54H3.3052C1.75593 54 0.5 52.7441 0.5 51.1948V2.8052Z" fill="#6202EF"/>
<path fill-rule="evenodd" clip-rule="evenodd" d="M42.5 27C42.5 35.2843 35.7843 42 27.5 42C19.2157 42 12.5 35.2843 12.5 27C12.5 18.7157 19.2157 12 27.5 12C35.7843 12 42.5 18.7157 42.5 27ZM29.1663 20.3333C29.1663 21.2538 28.4201 22 27.4997 22C26.5792 22 25.833 21.2538 25.833 20.3333C25.833 19.4129 26.5792 18.6667 27.4997 18.6667C28.4201 18.6667 29.1663 19.4129 29.1663 20.3333ZM29.05 35.3333V25.3333H25.95V35.3333H29.05Z" fill="white"/>
</svg>
