<svg width="45" height="45" viewBox="0 0 45 45" fill="none" xmlns="http://www.w3.org/2000/svg">
<path d="M0 2.33766C0 1.0466 1.04661 0 2.33766 0H42.6623C43.9534 0 45 1.04661 45 2.33766V42.6623C45 43.9534 43.9534 45 42.6623 45H2.33766C1.0466 45 0 43.9534 0 42.6623V2.33766Z" fill="#6202EF"/>
<path fill-rule="evenodd" clip-rule="evenodd" d="M35 22.5C35 29.4036 29.4036 35 22.5 35C15.5964 35 10 29.4036 10 22.5C10 15.5964 15.5964 10 22.5 10C29.4036 10 35 15.5964 35 22.5ZM23.8889 16.9444C23.8889 17.7115 23.267 18.3333 22.5 18.3333C21.7329 18.3333 21.1111 17.7115 21.1111 16.9444C21.1111 16.1774 21.7329 15.5556 22.5 15.5556C23.267 15.5556 23.8889 16.1774 23.8889 16.9444ZM23.7917 29.4444V21.1111H21.2083V29.4444H23.7917Z" fill="white"/>
</svg>
