<svg width="55" height="54" viewBox="0 0 55 54" fill="none" xmlns="http://www.w3.org/2000/svg">
<path d="M0.5 2.8052C0.5 1.25593 1.75593 0 3.3052 0H51.6948C53.2441 0 54.5 1.25593 54.5 2.8052V51.1948C54.5 52.7441 53.2441 54 51.6948 54H3.3052C1.75593 54 0.5 52.7441 0.5 51.1948V2.8052Z" fill="#6202EF"/>
<path fill-rule="evenodd" clip-rule="evenodd" d="M27.5 42C35.7843 42 42.5 35.2843 42.5 27C42.5 18.7157 35.7843 12 27.5 12C19.2157 12 12.5 18.7157 12.5 27C12.5 35.2843 19.2157 42 27.5 42ZM24.731 26.6805L24.8291 30.7265H27.6L27.6736 28.7648C28.8015 28.7485 29.7906 28.5605 30.6407 28.2008C31.5071 27.8412 32.1855 27.2935 32.6759 26.5579C33.1827 25.8222 33.4361 24.8904 33.4361 23.7624C33.4361 22.6671 33.1909 21.7435 32.7005 20.9915C32.2264 20.2231 31.5643 19.6346 30.7142 19.2259C29.8805 18.8172 28.916 18.6129 27.8207 18.6129C26.6437 18.6129 25.6301 18.8336 24.78 19.275C23.9463 19.7164 23.3087 20.3212 22.8673 21.0896C22.426 21.8579 22.2134 22.7325 22.2298 23.7134H25.1969C25.1969 22.945 25.4258 22.3402 25.8835 21.8988C26.3412 21.4411 26.9788 21.2122 27.7962 21.2122C28.5809 21.2122 29.2102 21.4411 29.6843 21.8988C30.1584 22.3402 30.3954 22.9532 30.3954 23.7379C30.3954 24.5553 30.1911 25.1765 29.7824 25.6015C29.3737 26.0266 28.8261 26.3127 28.1395 26.4598C27.4529 26.6069 26.6927 26.6805 25.859 26.6805H24.731ZM24.8045 35.7044C25.1805 36.064 25.6546 36.2439 26.2268 36.2439C26.799 36.2439 27.2649 36.064 27.6245 35.7044C27.9842 35.3448 28.164 34.9115 28.164 34.4048C28.164 33.8816 27.9842 33.4402 27.6245 33.0806C27.2649 32.7209 26.799 32.5411 26.2268 32.5411C25.6546 32.5411 25.1805 32.7209 24.8045 33.0806C24.4449 33.4402 24.2651 33.8816 24.2651 34.4048C24.2651 34.9115 24.4449 35.3448 24.8045 35.7044Z" fill="white"/>
</svg>
