<svg width="45" height="45" viewBox="0 0 45 45" fill="none" xmlns="http://www.w3.org/2000/svg">
<path d="M0 2.33766C0 1.0466 1.04661 0 2.33766 0H42.6623C43.9534 0 45 1.04661 45 2.33766V42.6623C45 43.9534 43.9534 45 42.6623 45H2.33766C1.0466 45 0 43.9534 0 42.6623V2.33766Z" fill="#6202EF"/>
<path fill-rule="evenodd" clip-rule="evenodd" d="M22.5 35C29.4036 35 35 29.4036 35 22.5C35 15.5964 29.4036 10 22.5 10C15.5964 10 10 15.5964 10 22.5C10 29.4036 15.5964 35 22.5 35ZM20.1923 22.2337L20.2741 25.6054H22.5832L22.6445 23.9707C23.5845 23.9571 24.4087 23.8004 25.1171 23.5007C25.8391 23.201 26.4044 22.7446 26.8131 22.1316C27.2355 21.5185 27.4466 20.742 27.4466 19.802C27.4466 18.8893 27.2423 18.1196 26.8336 17.4929C26.4385 16.8526 25.8868 16.3622 25.1784 16.0216C24.4836 15.681 23.6798 15.5108 22.7671 15.5108C21.7862 15.5108 20.9416 15.6947 20.2332 16.0625C19.5384 16.4303 19.0071 16.9344 18.6393 17.5746C18.2715 18.2149 18.0944 18.9438 18.108 19.7611H20.5806C20.5806 19.1209 20.7713 18.6168 21.1528 18.249C21.5342 17.8675 22.0655 17.6768 22.7467 17.6768C23.4006 17.6768 23.9251 17.8675 24.3201 18.249C24.7152 18.6168 24.9127 19.1277 24.9127 19.7816C24.9127 20.4627 24.7424 20.9804 24.4019 21.3346C24.0613 21.6888 23.6049 21.9272 23.0327 22.0498C22.4606 22.1724 21.8271 22.2337 21.1323 22.2337H20.1923ZM20.2536 29.7537C20.567 30.0534 20.962 30.2032 21.4388 30.2032C21.9156 30.2032 22.3039 30.0534 22.6036 29.7537C22.9033 29.454 23.0532 29.0929 23.0532 28.6706C23.0532 28.2347 22.9033 27.8669 22.6036 27.5672C22.3039 27.2675 21.9156 27.1176 21.4388 27.1176C20.962 27.1176 20.567 27.2675 20.2536 27.5672C19.9539 27.8669 19.8041 28.2347 19.8041 28.6706C19.8041 29.0929 19.9539 29.454 20.2536 29.7537Z" fill="white"/>
</svg>
