<svg width="54" height="54" viewBox="0 0 54 54" fill="none" xmlns="http://www.w3.org/2000/svg">
<path d="M0 2.75325C0 1.23267 1.23267 0 2.75325 0H51.2468C52.7673 0 54 1.23267 54 2.75325V51.2468C54 52.7673 52.7673 54 51.2468 54H2.75325C1.23267 54 0 52.7673 0 51.2468V2.75325Z" fill="#44CD41"/>
<path fill-rule="evenodd" clip-rule="evenodd" d="M26.5001 41.2222C34.6309 41.2222 41.2223 34.6309 41.2223 26.5C41.2223 18.3691 34.6309 11.7778 26.5001 11.7778C18.3692 11.7778 11.7778 18.3691 11.7778 26.5C11.7778 34.6309 18.3692 41.2222 26.5001 41.2222ZM34.2121 22.5665C34.75 21.921 34.6628 20.9618 34.0174 20.4239C33.3719 19.886 32.4126 19.9732 31.8748 20.6187L24.7622 29.1537L21.0328 25.4243C20.4387 24.8302 19.4754 24.8302 18.8813 25.4243C18.2872 26.0184 18.2872 26.9816 18.8813 27.5757L22.8768 31.5711C23.999 32.6934 25.8427 32.6098 26.8588 31.3905L34.2121 22.5665Z" fill="white"/>
</svg>
