<svg width="45" height="45" viewBox="0 0 45 45" fill="none" xmlns="http://www.w3.org/2000/svg">
<path d="M0 2.33766C0 1.0466 1.04661 0 2.33766 0H42.6623C43.9534 0 45 1.04661 45 2.33766V42.6623C45 43.9534 43.9534 45 42.6623 45H2.33766C1.0466 45 0 43.9534 0 42.6623V2.33766Z" fill="#44CD41"/>
<path fill-rule="evenodd" clip-rule="evenodd" d="M22.5 35C29.4036 35 35 29.4036 35 22.5C35 15.5964 29.4036 10 22.5 10C15.5964 10 10 15.5964 10 22.5C10 29.4036 15.5964 35 22.5 35ZM29.0478 19.1602C29.5045 18.6122 29.4305 17.7977 28.8825 17.341C28.3344 16.8843 27.52 16.9584 27.0633 17.5064L21.0243 24.7532L17.8578 21.5866C17.3534 21.0822 16.5355 21.0822 16.0311 21.5866C15.5267 22.0911 15.5267 22.9089 16.0311 23.4133L19.4235 26.8057C20.3763 27.7586 21.9417 27.6876 22.8044 26.6523L29.0478 19.1602Z" fill="white"/>
</svg>
