<svg width="54" height="54" viewBox="0 0 54 54" fill="none" xmlns="http://www.w3.org/2000/svg">
<path d="M0 2.8052C0 1.25593 1.25593 0 2.8052 0H51.1948C52.7441 0 54 1.25593 54 2.8052V51.1948C54 52.7441 52.7441 54 51.1948 54H2.8052C1.25593 54 0 52.7441 0 51.1948V2.8052Z" fill="#FFCD4B"/>
<path d="M27.0005 42C18.7162 42 12.0005 35.2843 12.0005 27C12.0005 18.7157 18.7162 12 27.0005 12C35.2848 12 42.0005 18.7157 42.0005 27C41.9914 35.2805 35.281 41.9909 27.0005 42ZM27.0005 31.5C26.1721 31.5 25.5005 32.1716 25.5005 33C25.5005 33.8284 26.1721 34.5 27.0005 34.5C27.8289 34.5 28.5005 33.8284 28.5005 33C28.5005 32.1716 27.8289 31.5 27.0005 31.5ZM27.0005 19.5C26.1721 19.5 25.5005 20.1716 25.5005 21V27C25.5005 27.8284 26.1721 28.5 27.0005 28.5C27.8289 28.5 28.5005 27.8284 28.5005 27V21C28.5005 20.1716 27.8289 19.5 27.0005 19.5Z" fill="#746130"/>
</svg>
