<svg width="45" height="45" viewBox="0 0 45 45" fill="none" xmlns="http://www.w3.org/2000/svg">
<path d="M0 2.33766C0 1.0466 1.04661 0 2.33766 0H42.6623C43.9534 0 45 1.04661 45 2.33766V42.6623C45 43.9534 43.9534 45 42.6623 45H2.33766C1.0466 45 0 43.9534 0 42.6623V2.33766Z" fill="#FFCD4B"/>
<path d="M22.5 35C15.5964 35 10 29.4036 10 22.5C10 15.5964 15.5964 10 22.5 10C29.4036 10 35 15.5964 35 22.5C34.9924 29.4004 29.4004 34.9924 22.5 35ZM22.5 26.25C21.8097 26.25 21.25 26.8097 21.25 27.5C21.25 28.1904 21.8097 28.75 22.5 28.75C23.1904 28.75 23.75 28.1904 23.75 27.5C23.75 26.8097 23.1904 26.25 22.5 26.25ZM22.5 16.25C21.8097 16.25 21.25 16.8097 21.25 17.5V22.5C21.25 23.1904 21.8097 23.75 22.5 23.75C23.1904 23.75 23.75 23.1904 23.75 22.5V17.5C23.75 16.8097 23.1904 16.25 22.5 16.25Z" fill="#746130"/>
</svg>
