<svg width="28" height="29" viewBox="0 0 28 29" fill="none" xmlns="http://www.w3.org/2000/svg">
    <rect opacity="0.11" y="0.539062" width="28" height="28" rx="6" fill="url(#paint0_linear)"/>
    <path d="M17.2853 18.4194V13.8005C17.2853 13.3777 16.9232 13.0319 16.4807 13.0319C16.0382 13.0319 15.6761 13.3777 15.6761 13.8005V18.4194H14.2359C13.8738 18.4194 13.6968 18.8345 13.9543 19.0727L16.1991 21.2093C16.36 21.3553 16.6094 21.3553 16.7703 21.2093L19.0151 19.0727C19.2726 18.8345 19.0875 18.4194 18.7335 18.4194H17.2853V18.4194ZM11.3716 7.92104L9.1268 10.0653C8.86934 10.3035 9.04635 10.7186 9.40841 10.7186H10.8486V15.3376C10.8486 15.7603 11.2107 16.1061 11.6532 16.1061C12.0957 16.1061 12.4578 15.7603 12.4578 15.3376V10.7186H13.898C14.26 10.7186 14.4371 10.3035 14.1796 10.0653L11.9348 7.92104C11.7819 7.77502 11.5245 7.77502 11.3716 7.92104Z"
          fill="url(#paint1_linear)"/>
    <defs>
        <linearGradient id="paint0_linear" x1="-5.28053e-08" y1="14.5391" x2="41.9444" y2="18.1876"
                        gradientUnits="userSpaceOnUse">
            <stop stop-color="#7028E4"/>
            <stop offset="1" stop-color="#E5B2CA"/>
        </linearGradient>
        <linearGradient id="paint1_linear" x1="9.00488" y1="14.5652" x2="24.2305" y2="15.5585"
                        gradientUnits="userSpaceOnUse">
            <stop stop-color="#7028E4"/>
            <stop offset="1" stop-color="#E5B2CA"/>
        </linearGradient>
    </defs>
</svg>
