<svg width="28" height="28" viewBox="0 0 28 28" fill="none" xmlns="http://www.w3.org/2000/svg">
    <rect opacity="0.11" x="0.868164" y="0.887207" width="26.8113" height="26.8113" rx="6.46691"
          fill="url(#paint0_linear)"/>
    <path d="M19.3908 10.3775C18.927 9.90185 18.1625 9.90185 17.6987 10.3775L16.7745 11.3254C16.3895 11.7203 16.6693 12.3839 17.2208 12.3839C17.5651 12.3839 17.8442 12.663 17.8442 13.0073V17.4138C17.8442 18.2042 17.2137 18.8509 16.443 18.8509C15.6724 18.8509 15.0419 18.2042 15.0419 17.4138V12.3839C15.0419 10.796 13.7878 9.50977 12.2395 9.50977C10.6912 9.50977 9.4372 10.796 9.4372 12.3839V16.7904C9.4372 17.1347 9.15811 17.4138 8.81384 17.4138C8.26228 17.4138 7.98247 18.0774 8.36751 18.4723L9.29175 19.4202C9.7555 19.8959 10.5201 19.8959 10.9838 19.4202L11.908 18.4723C12.2931 18.0774 12.0133 17.4138 11.4617 17.4138C11.1174 17.4138 10.8384 17.1347 10.8384 16.7904V12.3839C10.8384 11.5935 11.4689 10.9469 12.2395 10.9469C13.0102 10.9469 13.6407 11.5935 13.6407 12.3839V17.4138C13.6407 19.0018 14.8947 20.288 16.443 20.288C17.9913 20.288 19.2453 19.0018 19.2453 17.4138V13.0073C19.2453 12.663 19.5244 12.3839 19.8687 12.3839C20.4203 12.3839 20.7001 11.7203 20.315 11.3254L19.3908 10.3775Z"
          fill="url(#paint1_linear)"/>
    <defs>
        <linearGradient id="paint0_linear" x1="0.868164" y1="14.2928" x2="41.0319" y2="17.7865"
                        gradientUnits="userSpaceOnUse">
            <stop stop-color="#7028E4"/>
            <stop offset="1" stop-color="#E5B2CA"/>
        </linearGradient>
        <linearGradient id="paint1_linear" x1="7.33545" y1="14.8989" x2="21.3471" y2="14.8989"
                        gradientUnits="userSpaceOnUse">
            <stop stop-color="#7028E4"/>
            <stop offset="1" stop-color="#E5B2CA"/>
        </linearGradient>
    </defs>
</svg>
