<svg width="25" height="25" viewBox="0 0 25 25" fill="none" xmlns="http://www.w3.org/2000/svg">
<rect opacity="0.11" width="24.8755" height="24.8755" rx="6" fill="url(#paint0_linear_515_1285)"/>
<path d="M17.1849 8.80507C16.7547 8.36378 16.0453 8.36378 15.6151 8.80507L14.7575 9.68457C14.4003 10.051 14.6599 10.6667 15.1716 10.6667V10.6667C15.4911 10.6667 15.75 10.9256 15.75 11.245V15.3333C15.75 16.0667 15.165 16.6667 14.45 16.6667C13.735 16.6667 13.15 16.0667 13.15 15.3333V10.6667C13.15 9.19333 11.9865 8 10.55 8C9.1135 8 7.95 9.19333 7.95 10.6667V14.755C7.95 15.0744 7.69106 15.3333 7.37165 15.3333V15.3333C6.85991 15.3333 6.60031 15.949 6.95755 16.3154L7.81506 17.1949C8.24532 17.6362 8.95468 17.6362 9.38494 17.1949L10.2425 16.3154C10.5997 15.949 10.3401 15.3333 9.82835 15.3333V15.3333C9.50894 15.3333 9.25 15.0744 9.25 14.755V10.6667C9.25 9.93333 9.835 9.33333 10.55 9.33333C11.265 9.33333 11.85 9.93333 11.85 10.6667V15.3333C11.85 16.8067 13.0135 18 14.45 18C15.8865 18 17.05 16.8067 17.05 15.3333V11.245C17.05 10.9256 17.3089 10.6667 17.6284 10.6667V10.6667C18.1401 10.6667 18.3997 10.051 18.0425 9.68457L17.1849 8.80507Z" fill="#CEAEFE"/>
<defs>
<linearGradient id="paint0_linear_515_1285" x1="-4.69128e-08" y1="12.4377" x2="37.2639" y2="15.6792" gradientUnits="userSpaceOnUse">
<stop stop-color="#7028E4"/>
<stop offset="1" stop-color="#E5B2CA"/>
</linearGradient>
</defs>
</svg>
