<svg width="44" height="44" viewBox="0 0 44 44" fill="none" xmlns="http://www.w3.org/2000/svg">
    <defs>
        <linearGradient id="discord-icon-bg-gradient">
            <stop offset="0" class="start-color"/>
            <stop offset="1" class="end-color"/>
        </linearGradient>
    </defs>
    <path d="M35.75 44H8.25C3.69325 44 0 40.3068 0 35.75V8.25C0 3.69325 3.69325 0 8.25 0H35.75C40.3068 0 44 3.69325 44 8.25V35.75C44 40.3068 40.3068 44 35.75 44Z"
          id="discord-icon-bg"/>
    <path d="M31.2824 13.4406C29.6753 12.6914 27.9353 12.1477 26.1228 11.8335C26.0865 11.8335 26.0624 11.8456 26.0382 11.8697C25.8207 12.2685 25.5669 12.7881 25.3978 13.1868C23.4524 12.8968 21.5069 12.8968 19.5978 13.1868C19.4286 12.776 19.1749 12.2685 18.9453 11.8697C18.9332 11.8456 18.8969 11.8335 18.8607 11.8335C17.0482 12.1477 15.3203 12.6914 13.7011 13.4406C13.689 13.4406 13.6769 13.4527 13.6649 13.4647C10.3782 18.3827 9.47195 23.1677 9.91903 27.9043C9.91903 27.9285 9.93111 27.9527 9.95528 27.9647C12.1303 29.5597 14.2207 30.5264 16.2869 31.1668C16.3232 31.1789 16.3594 31.1668 16.3715 31.1427C16.8549 30.4781 17.2899 29.7772 17.6644 29.0402C17.6886 28.9918 17.6644 28.9435 17.6161 28.9314C16.9274 28.6656 16.2749 28.3514 15.6344 27.9889C15.5861 27.9647 15.5861 27.8922 15.6224 27.856C15.7553 27.7593 15.8882 27.6506 16.0211 27.5539C16.0453 27.5297 16.0815 27.5297 16.1057 27.5418C20.2624 29.4389 24.7453 29.4389 28.8536 27.5418C28.8778 27.5297 28.914 27.5297 28.9382 27.5539C29.0711 27.6627 29.204 27.7593 29.3369 27.8681C29.3853 27.9043 29.3853 27.9768 29.3249 28.001C28.6965 28.3756 28.0319 28.6777 27.3432 28.9435C27.2949 28.9556 27.2828 29.016 27.2949 29.0522C27.6815 29.7893 28.1165 30.4902 28.5878 31.1547C28.624 31.1668 28.6603 31.1789 28.6965 31.1668C30.7749 30.5264 32.8653 29.5597 35.0403 27.9647C35.0644 27.9527 35.0765 27.9285 35.0765 27.9043C35.6082 22.4306 34.1944 17.6818 31.3307 13.4647C31.3186 13.4527 31.3065 13.4406 31.2824 13.4406ZM18.2928 25.0164C17.0482 25.0164 16.009 23.8685 16.009 22.4547C16.009 21.041 17.024 19.8931 18.2928 19.8931C19.5736 19.8931 20.5886 21.0531 20.5765 22.4547C20.5765 23.8685 19.5615 25.0164 18.2928 25.0164ZM26.7149 25.0164C25.4703 25.0164 24.4311 23.8685 24.4311 22.4547C24.4311 21.041 25.4461 19.8931 26.7149 19.8931C27.9957 19.8931 29.0107 21.0531 28.9986 22.4547C28.9986 23.8685 27.9957 25.0164 26.7149 25.0164Z"
          class="icon-fill-themed"/>
</svg>
