<svg width="25" height="25" viewBox="0 0 25 25" fill="none" xmlns="http://www.w3.org/2000/svg">
<rect opacity="0.11" width="25" height="25" rx="6" fill="url(#paint0_linear_515_1309)"/>
<path d="M12.7682 11.7056C11.2073 11.2794 10.7053 10.8389 10.7053 10.1528C10.7053 9.36556 11.3998 8.81667 12.5619 8.81667C13.7859 8.81667 14.2397 9.43056 14.2809 10.3333H15.8006C15.7525 9.09111 15.0305 7.95 13.5933 7.58167V6H11.5305V7.56C10.1965 7.86333 9.12377 8.77333 9.12377 10.1672C9.12377 11.8356 10.4371 12.6661 12.3556 13.15C14.0747 13.5833 14.4185 14.2189 14.4185 14.8906C14.4185 15.3889 14.0815 16.1833 12.5619 16.1833C11.1454 16.1833 10.5884 15.5189 10.5128 14.6667H9C9.08251 16.2483 10.2102 17.1367 11.5305 17.4328V19H13.5933V17.4472C14.9342 17.18 16 16.3639 16 14.8833C16 12.8322 14.3291 12.1317 12.7682 11.7056Z" fill="#CEAEFE"/>
<defs>
<linearGradient id="paint0_linear_515_1309" x1="-4.71476e-08" y1="12.5" x2="37.4504" y2="15.7576" gradientUnits="userSpaceOnUse">
<stop stop-color="#7028E4"/>
<stop offset="1" stop-color="#E5B2CA"/>
</linearGradient>
</defs>
</svg>
