<svg width="25" height="25" viewBox="0 0 25 25" fill="none" xmlns="http://www.w3.org/2000/svg">
<rect opacity="0.11" width="25" height="25" rx="6" fill="url(#paint0_linear_515_1318)"/>
<path d="M18.3687 13.3395C19.0679 13.3395 19.7069 13.55 20.2482 13.9108V10.3323C20.2482 9.50534 19.5716 8.82872 18.7446 8.82872H14.0158L13.2189 8.03182L14.0158 7.23492C14.1662 7.08456 14.1662 6.85151 14.0158 6.70115C13.8655 6.55079 13.6324 6.55079 13.482 6.70115L11.3545 8.82872C11.2041 8.97908 11.2041 9.21214 11.3545 9.3625C11.5048 9.51286 11.7379 9.51286 11.8882 9.3625L12.6851 8.5656L13.482 9.3625V11.0841C13.482 11.9111 12.8054 12.5877 11.9785 12.5877H11.5725C12.2867 13.3846 12.7303 14.4371 12.7303 15.5949C12.7303 15.8505 12.7002 16.0986 12.6626 16.3467H15.0232C15.2112 14.6626 16.6321 13.3395 18.3687 13.3395Z" fill="#CEAEFE"/>
<path d="M18.3686 14.0913C16.9176 14.0913 15.7373 15.2716 15.7373 16.7226C15.7373 18.1735 16.9176 19.3539 18.3686 19.3539C19.8195 19.3539 20.9999 18.1735 20.9999 16.7226C20.9999 15.2716 19.8195 14.0913 18.3686 14.0913ZM18.3686 17.8503C17.7446 17.8503 17.2409 17.3466 17.2409 16.7226C17.2409 16.0986 17.7446 15.5949 18.3686 15.5949C18.9926 15.5949 19.4963 16.0986 19.4963 16.7226C19.4963 17.3466 18.9926 17.8503 18.3686 17.8503Z" fill="#CEAEFE"/>
<path d="M6.71566 11.0842H10.4746C10.4746 10.2572 9.79801 9.58057 8.97104 9.58057H6.71566C6.30217 9.58057 5.96387 9.91887 5.96387 10.3324C5.96387 10.7534 6.30217 11.0842 6.71566 11.0842Z" fill="#CEAEFE"/>
<path d="M11.0988 14.7078L10.9635 14.3544L11.6626 14.0913C11.3168 13.2944 10.7003 12.6554 9.92599 12.2645L9.62527 12.9336L9.27945 12.7757L9.58016 12.0991C9.16668 11.9412 8.70056 11.8359 8.21942 11.8359C7.82097 11.8359 7.43755 11.9186 7.07669 12.0314L7.3323 12.7155L6.97896 12.8509L6.71583 12.1592C5.91893 12.505 5.2799 13.1215 4.88897 13.8959L5.55807 14.1966L5.40019 14.5424L4.72358 14.2417C4.55818 14.6552 4.46045 15.1138 4.46045 15.5949C4.46045 15.9934 4.54315 16.3768 4.65592 16.7376L5.34005 16.482L5.47537 16.8354L4.7762 17.0985C5.12203 17.8954 5.7385 18.5344 6.51285 18.9253L6.81356 18.2563L7.15939 18.4141L6.85867 19.0907C7.28719 19.2561 7.74579 19.3539 8.22693 19.3539C8.62539 19.3539 9.0088 19.2712 9.36966 19.1584L9.10653 18.4743L9.45988 18.339L9.723 19.0381C10.5199 18.6923 11.1589 18.0758 11.5499 17.3015L10.8808 17.0008L11.0386 16.6549L11.7153 16.9557C11.8807 16.5271 11.9784 16.0685 11.9784 15.5874C11.9784 15.1889 11.8957 14.8055 11.7829 14.4447L11.0988 14.7078ZM9.08398 17.6849C7.93374 18.1585 6.61058 17.6172 6.13695 16.467C5.66332 15.3167 6.20461 13.9936 7.35485 13.52C8.5051 13.0463 9.82826 13.5876 10.3019 14.7379C10.783 15.8881 10.2342 17.2037 9.08398 17.6849Z" fill="#CEAEFE"/>
<defs>
<linearGradient id="paint0_linear_515_1318" x1="-4.71476e-08" y1="12.5" x2="37.4504" y2="15.7576" gradientUnits="userSpaceOnUse">
<stop stop-color="#7028E4"/>
<stop offset="1" stop-color="#E5B2CA"/>
</linearGradient>
</defs>
</svg>
