<svg width="28" height="28" viewBox="0 0 28 28" fill="none" xmlns="http://www.w3.org/2000/svg">
    <rect opacity="0.11" x="0.467773" y="0.96582" width="26.8113" height="26.8113" rx="6.46691"
          fill="url(#paint0_linear)"/>
    <path d="M7.12664 12.2767H8.58484C9.94409 12.2767 10.8375 10.709 9.47825 10.709H7.12664C6.69551 10.709 6.34277 11.0617 6.34277 11.4929C6.34277 11.924 6.69551 12.2767 7.12664 12.2767Z"
          fill="url(#paint1_linear)"/>
    <path d="M22.02 18.1559C22.02 16.7971 21.2361 15.4817 21.2361 14.1229V11.4931C21.2361 10.6308 20.5306 9.92532 19.6684 9.92532H15.082C14.8617 9.92532 14.6503 9.83778 14.4945 9.68195L14.4596 9.64704C14.1544 9.34184 14.1544 8.847 14.4596 8.54179L14.7339 8.26744C14.8876 8.11375 14.8876 7.86458 14.7339 7.71089C14.5803 7.5572 14.3311 7.5572 14.1774 7.71089L11.9669 9.9214C11.8132 10.0751 11.8132 10.3243 11.9669 10.4779C12.1206 10.6316 12.3698 10.6316 12.5234 10.4779L12.7978 10.2036C13.103 9.89838 13.5978 9.89838 13.903 10.2036L13.938 10.2385C14.0938 10.3943 14.1813 10.6057 14.1813 10.826V12.2769C14.1813 13.1392 13.4758 13.8447 12.6136 13.8447H11.1624C11.0663 13.8447 10.973 13.8136 10.8933 13.7599C10.8672 13.7423 10.8409 13.725 10.8144 13.708C10.6348 13.5926 10.399 13.6736 10.3115 13.8683L10.242 14.023C10.1968 14.1235 10.0785 14.168 9.97835 14.1223C9.87928 14.077 9.83512 13.9605 9.87935 13.861L9.95253 13.6963C10.0402 13.4991 9.94672 13.2667 9.73913 13.2076C9.40873 13.1136 9.05555 13.0608 8.69424 13.0608C8.41544 13.0608 8.1437 13.0996 7.88138 13.1607C7.67361 13.2091 7.56555 13.4326 7.64021 13.6325L7.70072 13.7944C7.73867 13.896 7.68762 14.0092 7.58636 14.048C7.48408 14.0871 7.36947 14.0356 7.3309 13.9331L7.26668 13.7625C7.19041 13.5598 6.95889 13.4608 6.7704 13.5673C6.21761 13.8798 5.75437 14.3252 5.41412 14.8617C5.30034 15.0412 5.3836 15.2735 5.57738 15.3606L5.73714 15.4324C5.8376 15.4776 5.88213 15.5958 5.83639 15.696C5.79116 15.7951 5.67459 15.8393 5.57507 15.795L5.41042 15.7218C5.2132 15.6342 4.98082 15.7277 4.92176 15.9352C4.82776 16.2656 4.7749 16.6188 4.7749 16.9801C4.7749 17.2589 4.81373 17.5307 4.87482 17.793C4.9232 18.0008 5.14675 18.1088 5.34658 18.0342L5.50854 17.9736C5.61012 17.9357 5.7233 17.9867 5.76208 18.088C5.80125 18.1903 5.74972 18.3049 5.64722 18.3435L5.47659 18.4077C5.27393 18.484 5.17487 18.7155 5.28143 18.904C5.59393 19.4568 6.03933 19.92 6.57585 20.2603C6.75527 20.374 6.98762 20.2908 7.07471 20.097L7.14652 19.9372C7.19167 19.8368 7.30994 19.7922 7.41013 19.838C7.5092 19.8832 7.55337 19.9998 7.50914 20.0993L7.43596 20.264C7.3483 20.4612 7.44177 20.6936 7.64935 20.7526C7.97976 20.8466 8.33293 20.8995 8.69424 20.8995C8.97305 20.8995 9.24479 20.8606 9.5071 20.7996C9.71487 20.7512 9.82294 20.5276 9.74827 20.3278L9.68776 20.1658C9.64981 20.0643 9.70086 19.9511 9.80213 19.9123C9.9044 19.8731 10.019 19.9247 10.0576 20.0272L10.1218 20.1978C10.1981 20.4004 10.4296 20.4995 10.6181 20.3929C11.1709 20.0804 11.6341 19.635 11.9744 19.0985C12.0881 18.9191 12.0049 18.6868 11.8111 18.5997L11.6513 18.5279C11.5509 18.4827 11.5064 18.3644 11.5521 18.2642C11.5973 18.1652 11.7139 18.121 11.8134 18.1652L11.9928 18.2449C12.1812 18.3287 12.4016 18.2395 12.4572 18.0409C12.503 17.8773 12.6487 17.7562 12.8186 17.7562H16.1701C16.3841 17.7562 16.5329 17.942 16.5329 18.1559C16.5329 19.6688 17.7636 20.8995 19.2765 20.8995C20.7893 20.8995 22.02 19.6688 22.02 18.1559ZM8.69424 19.3317C7.39302 19.3317 6.34264 18.2814 6.34264 16.9801C6.34264 15.6789 7.39302 14.6285 8.69424 14.6285C9.99546 14.6285 11.0458 15.6789 11.0458 16.9801C11.0458 18.2814 9.99546 19.3317 8.69424 19.3317ZM12.6913 16.1963C12.5864 16.1963 12.4955 16.121 12.4709 16.019C12.4403 15.8926 12.3062 15.8274 12.1844 15.8729L11.8799 15.9866C11.7784 16.0246 11.6652 15.9735 11.6264 15.8722C11.5872 15.77 11.6388 15.6554 11.7413 15.6168L12.1727 15.4544C12.2465 15.4266 12.3248 15.4124 12.4037 15.4124H12.6136C14.3459 15.4124 15.7491 14.0093 15.7491 12.2769C15.7491 11.844 16.1 11.4931 16.5329 11.4931H17.8124C18.8374 11.4931 19.6684 12.324 19.6684 13.3491V15.0574C19.6684 15.2667 19.4858 15.4124 19.2765 15.4124C19.1134 15.4124 18.9536 15.4267 18.7985 15.4541C17.7636 15.637 16.7748 16.1963 15.7239 16.1963H12.6913ZM19.2765 19.3317C18.6258 19.3317 18.1007 18.8065 18.1007 18.1559C18.1007 17.5053 18.6258 16.9801 19.2765 16.9801C19.9271 16.9801 20.4523 17.5053 20.4523 18.1559C20.4523 18.8065 19.9271 19.3317 19.2765 19.3317Z"
          fill="url(#paint2_linear)"/>
    <defs>
        <linearGradient id="paint0_linear" x1="0.467773" y1="14.3715" x2="40.6315" y2="17.8651"
                        gradientUnits="userSpaceOnUse">
            <stop stop-color="#7028E4"/>
            <stop offset="1" stop-color="#E5B2CA"/>
        </linearGradient>
        <linearGradient id="paint1_linear" x1="6.34277" y1="11.4929" x2="11.046" y2="11.4929"
                        gradientUnits="userSpaceOnUse">
            <stop stop-color="#7028E4"/>
            <stop offset="1" stop-color="#E5B2CA"/>
        </linearGradient>
        <linearGradient id="paint2_linear" x1="4.7749" y1="14.166" x2="22.02" y2="14.166"
                        gradientUnits="userSpaceOnUse">
            <stop stop-color="#7028E4"/>
            <stop offset="1" stop-color="#E5B2CA"/>
        </linearGradient>
    </defs>
</svg>
