<svg width="25" height="25" viewBox="0 0 25 25" fill="none" xmlns="http://www.w3.org/2000/svg">
<rect opacity="0.11" width="24.8755" height="24.8755" rx="6" fill="url(#paint0_linear_515_1230)"/>
<path d="M6.18186 10.4946H7.53478C8.79589 10.4946 9.62479 9.04004 8.36368 9.04004V9.04004H6.18186C5.78186 9.04004 5.45459 9.36731 5.45459 9.76731C5.45459 10.1673 5.78186 10.4946 6.18186 10.4946Z" fill="#6202EF"/>
<path d="M20 15.9491C20 14.6884 19.2727 13.468 19.2727 12.2073V9.76727C19.2727 8.96727 18.6182 8.31273 17.8182 8.31273H13.563C13.3585 8.31273 13.1624 8.23151 13.0178 8.08693L12.9855 8.05455C12.7023 7.77137 12.7023 7.31226 12.9855 7.02909L13.24 6.77455C13.3826 6.63196 13.3826 6.40077 13.24 6.25818V6.25818C13.0974 6.11559 12.8662 6.11559 12.7236 6.25818L10.6727 8.30909C10.5301 8.45168 10.5301 8.68286 10.6727 8.82545V8.82545C10.8153 8.96804 11.0465 8.96804 11.1891 8.82545L11.4436 8.57091C11.7268 8.28774 12.1859 8.28774 12.4691 8.57091L12.5015 8.6033C12.6461 8.74787 12.7273 8.94395 12.7273 9.14841V10.4945C12.7273 11.2945 12.0727 11.9491 11.2727 11.9491H9.92633C9.83714 11.9491 9.75063 11.9202 9.67665 11.8704C9.65242 11.8541 9.62804 11.8381 9.60349 11.8223C9.43683 11.7152 9.21807 11.7903 9.13686 11.971L9.07234 12.1146C9.03045 12.2078 8.92072 12.2491 8.82776 12.2067V12.2067C8.73584 12.1647 8.69487 12.0565 8.7359 11.9642L8.8038 11.8115C8.88513 11.6285 8.79841 11.4129 8.60581 11.3581C8.29926 11.2709 7.97159 11.2218 7.63636 11.2218C7.37769 11.2218 7.12557 11.2578 6.88219 11.3145C6.68942 11.3594 6.58916 11.5668 6.65843 11.7522L6.71458 11.9025C6.74979 11.9967 6.70242 12.1017 6.60847 12.1377V12.1377C6.51358 12.1741 6.40724 12.1263 6.37145 12.0312L6.31187 11.8728C6.24111 11.6848 6.02631 11.5929 5.85142 11.6918C5.33854 11.9817 4.90875 12.395 4.59307 12.8927C4.4875 13.0592 4.56475 13.2748 4.74454 13.3556L4.89276 13.4222C4.98597 13.4641 5.02728 13.5738 4.98485 13.6668V13.6668C4.94289 13.7587 4.83473 13.7997 4.7424 13.7586L4.58963 13.6907C4.40665 13.6094 4.19105 13.6961 4.13625 13.8887C4.04904 14.1953 4 14.523 4 14.8582C4 15.1169 4.03603 15.369 4.0927 15.6124C4.13759 15.8051 4.345 15.9054 4.5304 15.8361L4.68067 15.78C4.77491 15.7448 4.87992 15.7921 4.91591 15.8861V15.8861C4.95225 15.981 4.90443 16.0873 4.80934 16.1231L4.65103 16.1827C4.463 16.2534 4.37109 16.4682 4.46996 16.6431C4.75989 17.156 5.17314 17.5858 5.67092 17.9015C5.83738 18.007 6.05296 17.9298 6.13377 17.75L6.20039 17.6018C6.24227 17.5086 6.35201 17.4673 6.44497 17.5097V17.5097C6.53688 17.5517 6.57786 17.6598 6.53682 17.7521L6.46893 17.9049C6.3876 18.0879 6.47432 18.3035 6.66692 18.3583C6.97346 18.4455 7.30114 18.4945 7.63636 18.4945C7.89504 18.4945 8.14716 18.4585 8.39054 18.4018C8.5833 18.357 8.68357 18.1495 8.6143 17.9641L8.55815 17.8139C8.52294 17.7196 8.57031 17.6146 8.66426 17.5786V17.5786C8.75915 17.5423 8.86549 17.5901 8.90128 17.6852L8.96086 17.8435C9.03162 18.0315 9.24642 18.1235 9.42131 18.0246C9.93418 17.7347 10.364 17.3214 10.6797 16.8236C10.7852 16.6572 10.708 16.4416 10.5282 16.3608L10.38 16.2942C10.2868 16.2523 10.2454 16.1425 10.2879 16.0496V16.0496C10.3298 15.9577 10.438 15.9167 10.5303 15.9577L10.6967 16.0317C10.8715 16.1094 11.076 16.0266 11.1276 15.8424V15.8424C11.1701 15.6906 11.3053 15.5782 11.463 15.5782H14.5725C14.771 15.5782 14.9091 15.7506 14.9091 15.9491V15.9491C14.9091 17.3527 16.0509 18.4945 17.4545 18.4945C18.8582 18.4945 20 17.3527 20 15.9491V15.9491ZM7.63636 17.04C6.42909 17.04 5.45455 16.0655 5.45455 14.8582C5.45455 13.6509 6.42909 12.6764 7.63636 12.6764C8.84364 12.6764 9.81818 13.6509 9.81818 14.8582C9.81818 16.0655 8.84364 17.04 7.63636 17.04ZM11.3449 14.1309C11.2475 14.1309 11.1632 14.0611 11.1403 13.9664V13.9664C11.112 13.8492 10.9875 13.7886 10.8745 13.8309L10.5921 13.9364C10.4978 13.9716 10.3928 13.9242 10.3568 13.8303V13.8303C10.3205 13.7354 10.3683 13.6291 10.4634 13.5933L10.8637 13.4426C10.9322 13.4168 11.0048 13.4036 11.078 13.4036H11.2727C12.88 13.4036 14.1818 12.1018 14.1818 10.4945V10.4945C14.1818 10.0929 14.5074 9.76727 14.9091 9.76727H16.0961C17.0472 9.76727 17.8182 10.5383 17.8182 11.4893V13.0743C17.8182 13.2685 17.6488 13.4036 17.4545 13.4036V13.4036C17.3032 13.4036 17.155 13.4169 17.0111 13.4423C16.0509 13.612 15.1335 14.1309 14.1585 14.1309H11.3449ZM17.4545 17.04C16.8509 17.04 16.3636 16.5527 16.3636 15.9491C16.3636 15.3455 16.8509 14.8582 17.4545 14.8582C18.0582 14.8582 18.5455 15.3455 18.5455 15.9491C18.5455 16.5527 18.0582 17.04 17.4545 17.04Z" fill="#6202EF"/>
<defs>
<linearGradient id="paint0_linear_515_1230" x1="-4.69128e-08" y1="12.4377" x2="37.2639" y2="15.6792" gradientUnits="userSpaceOnUse">
<stop stop-color="#7028E4"/>
<stop offset="1" stop-color="#E5B2CA"/>
</linearGradient>
</defs>
</svg>
