<svg width="25" height="25" viewBox="0 0 25 25" fill="none" xmlns="http://www.w3.org/2000/svg">
<rect opacity="0.11" width="25" height="25" rx="6" fill="url(#paint0_linear_4263_24556)"/>
<path d="M19.1841 14.9813H18.2436V10.7916C18.4426 11.1408 18.6841 11.4641 18.9624 11.7541C19.021 11.8142 19.1011 11.8483 19.185 11.8488C19.2688 11.8494 19.3494 11.8163 19.4087 11.757C19.4679 11.6978 19.5009 11.6172 19.5004 11.5334C19.4999 11.4495 19.4659 11.3693 19.4058 11.3109C18.791 10.696 18.2436 9.51975 18.2436 9.02438C18.2436 8.94124 18.2106 8.86147 18.1519 8.80268C18.0931 8.7439 18.0133 8.71083 17.9301 8.71094H17.3031C17.1573 8.71209 17.0321 8.81496 17.003 8.95783L16.997 8.95646C16.4587 11.3782 14.7332 12.9433 12.6004 12.9433C10.4676 12.9433 8.74201 11.3782 8.20376 8.95646L8.19903 8.96434V8.96423C8.17237 8.81843 8.04578 8.71209 7.89755 8.71094H7.27056C7.18732 8.71083 7.10754 8.7439 7.04876 8.80268C6.98998 8.86147 6.95701 8.94124 6.95701 9.02438C6.95701 9.51975 6.40959 10.696 5.79478 11.3109C5.73474 11.3693 5.70073 11.4495 5.7002 11.5334C5.69968 11.6172 5.73274 11.6978 5.79195 11.757C5.85125 11.8163 5.93187 11.8494 6.01564 11.8488C6.09951 11.8483 6.1796 11.8142 6.23818 11.7541C6.51655 11.4641 6.758 11.1408 6.95701 10.7916V14.9813H6.01648C5.93334 14.9813 5.85356 15.0142 5.79478 15.073C5.73589 15.1318 5.70293 15.2116 5.70293 15.2948V15.9218C5.70293 16.0049 5.73589 16.0847 5.79478 16.1435C5.85356 16.2024 5.93334 16.2353 6.01648 16.2353H6.95701V17.1759C6.95701 17.259 6.98998 17.3388 7.04876 17.3976C7.10754 17.4564 7.18732 17.4894 7.27056 17.4893H7.89755C7.98069 17.4894 8.06047 17.4564 8.11925 17.3976C8.17814 17.3388 8.2111 17.259 8.2111 17.1759V16.2353H16.9893V17.1759C16.9893 17.259 17.0222 17.3388 17.0811 17.3976C17.1399 17.4564 17.2197 17.4894 17.3028 17.4893H17.9298C18.013 17.4894 18.0928 17.4564 18.1516 17.3976C18.2104 17.3388 18.2434 17.259 18.2434 17.1759V16.2353H19.1839C19.267 16.2353 19.3468 16.2024 19.4056 16.1435C19.4645 16.0847 19.4974 16.0049 19.4974 15.9218V15.2948C19.4974 15.2116 19.4645 15.1318 19.4056 15.073C19.3468 15.0142 19.267 14.9813 19.1839 14.9813L19.1841 14.9813ZM12.6004 13.5705C14.4818 13.5705 16.079 12.5211 16.9895 10.7935V14.9813H8.2113V10.7935C9.12171 12.5212 10.719 13.5705 12.6004 13.5705Z" fill="#CEAEFE"/>
<defs>
<linearGradient id="paint0_linear_4263_24556" x1="-4.71476e-08" y1="12.5" x2="37.4504" y2="15.7576" gradientUnits="userSpaceOnUse">
<stop stop-color="#7028E4"/>
<stop offset="1" stop-color="#E5B2CA"/>
</linearGradient>
</defs>
</svg>
