<svg width="25" height="25" viewBox="0 0 25 25" fill="none" xmlns="http://www.w3.org/2000/svg">
<rect width="25" height="25" rx="6" fill="#F5EEFB"/>
<path d="M12.9537 6.16359C12.6925 5.94547 12.3006 5.94547 12.0394 6.16359C8.68437 9.00585 7 11.4779 7 13.5799C7 16.8716 9.6125 19 12.5 19C15.3875 19 18 16.8716 18 13.5799C18 11.4779 16.3156 9.00585 12.9537 6.16359ZM9.63312 13.7121C9.8875 13.7121 10.0937 13.8839 10.1419 14.1219C10.4237 15.5893 11.7094 16.0916 12.6444 16.0189C12.94 16.0057 13.1875 16.2305 13.1875 16.5147C13.1875 16.7791 12.9675 16.9972 12.6925 17.0104C11.2281 17.0964 9.51625 16.2899 9.12438 14.2871C9.06938 13.9897 9.31687 13.7121 9.63312 13.7121Z" fill="#6202EF"/>
</svg>
