<svg width="28" height="28" viewBox="0 0 28 28" fill="none" xmlns="http://www.w3.org/2000/svg">
    <rect opacity="0.11" x="0.477051" y="0.887695" width="26.8113" height="26.8113" rx="6.46691"
          fill="url(#paint0_linear)"/>
    <g clip-path="url(#clip0)">
        <path d="M10.094 13.2827C10.094 12.8958 9.78036 12.5821 9.39344 12.5821C9.00652 12.5821 8.69286 12.8958 8.69286 13.2827V16.7856C8.69286 17.1725 9.00652 17.4862 9.39344 17.4862C9.78036 17.4862 10.094 17.1725 10.094 16.7856V13.2827ZM14.2975 13.2827C14.2975 12.8958 13.9839 12.5821 13.5969 12.5821C13.21 12.5821 12.8964 12.8958 12.8964 13.2827V16.7856C12.8964 17.1725 13.21 17.4862 13.5969 17.4862C13.9839 17.4862 14.2975 17.1725 14.2975 16.7856V13.2827ZM20.2525 19.5879C20.2525 19.201 19.9388 18.8873 19.5519 18.8873H7.64199C7.25507 18.8873 6.94141 19.201 6.94141 19.5879C6.94141 19.9748 7.25507 20.2885 7.64199 20.2885H19.5519C19.9388 20.2885 20.2525 19.9748 20.2525 19.5879ZM18.501 13.2827C18.501 12.8958 18.1873 12.5821 17.8004 12.5821C17.4135 12.5821 17.0998 12.8958 17.0998 13.2827V16.7856C17.0998 17.1725 17.4135 17.4862 17.8004 17.4862C18.1873 17.4862 18.501 17.1725 18.501 16.7856V13.2827ZM13.1774 8.0808C13.44 7.94268 13.7538 7.94268 14.0165 8.0808C14.8494 8.51883 14.538 9.77977 13.5969 9.77977C12.6559 9.77977 12.3445 8.51883 13.1774 8.0808ZM16.6967 7.90832C14.7564 6.88708 12.4375 6.88708 10.4971 7.90832L7.40818 9.5341C7.12113 9.68518 6.94141 9.98286 6.94141 10.3072C6.94141 10.7898 7.33257 11.1809 7.8151 11.1809H19.3788C19.8613 11.1809 20.2525 10.7898 20.2525 10.3072C20.2525 9.98286 20.0727 9.68518 19.7857 9.5341L16.6967 7.90832Z"
              fill="url(#paint1_linear)"/>
    </g>
    <defs>
        <linearGradient id="paint0_linear" x1="0.477051" y1="14.2933" x2="40.6407" y2="17.787"
                        gradientUnits="userSpaceOnUse">
            <stop stop-color="#7028E4"/>
            <stop offset="1" stop-color="#E5B2CA"/>
        </linearGradient>
        <linearGradient id="paint1_linear" x1="6.94141" y1="13.2827" x2="20.2525" y2="13.2827"
                        gradientUnits="userSpaceOnUse">
            <stop stop-color="#7028E4"/>
            <stop offset="1" stop-color="#E5B2CA"/>
        </linearGradient>
        <clipPath id="clip0">
            <rect x="6.94092" y="6.27686" width="14.0116" height="14.0116" fill="white"/>
        </clipPath>
    </defs>
</svg>
