<svg width="25" height="25" viewBox="0 0 25 25" fill="none" xmlns="http://www.w3.org/2000/svg">
<rect opacity="0.11" width="24.8755" height="24.8755" rx="6" fill="url(#paint0_linear_515_1302)"/>
<g clip-path="url(#clip0_515_1302)">
<path d="M8.925 11.5C8.925 11.141 8.63398 10.85 8.275 10.85V10.85C7.91602 10.85 7.625 11.141 7.625 11.5V14.75C7.625 15.109 7.91602 15.4 8.275 15.4V15.4C8.63398 15.4 8.925 15.109 8.925 14.75V11.5ZM12.825 11.5C12.825 11.141 12.534 10.85 12.175 10.85V10.85C11.816 10.85 11.525 11.141 11.525 11.5V14.75C11.525 15.109 11.816 15.4 12.175 15.4V15.4C12.534 15.4 12.825 15.109 12.825 14.75V11.5ZM18.35 17.35C18.35 16.991 18.059 16.7 17.7 16.7H6.65C6.29101 16.7 6 16.991 6 17.35V17.35C6 17.709 6.29101 18 6.65 18H17.7C18.059 18 18.35 17.709 18.35 17.35V17.35ZM16.725 11.5C16.725 11.141 16.434 10.85 16.075 10.85V10.85C15.716 10.85 15.425 11.141 15.425 11.5V14.75C15.425 15.109 15.716 15.4 16.075 15.4V15.4C16.434 15.4 16.725 15.109 16.725 14.75V11.5ZM11.7858 6.6737C12.0294 6.54555 12.3206 6.54555 12.5642 6.6737V6.6737C13.337 7.08011 13.0481 8.25 12.175 8.25V8.25C11.3019 8.25 11.013 7.08011 11.7858 6.6737V6.6737ZM15.051 6.51368C13.2507 5.56617 11.0993 5.56617 9.29902 6.51368L6.43307 8.02207C6.16674 8.16224 6 8.43843 6 8.73939V8.73939C6 9.18708 6.36292 9.55 6.81061 9.55H17.5394C17.9871 9.55 18.35 9.18708 18.35 8.73939V8.73939C18.35 8.43843 18.1833 8.16224 17.9169 8.02207L15.051 6.51368Z" fill="#CEAEFE"/>
</g>
<defs>
<linearGradient id="paint0_linear_515_1302" x1="-4.69128e-08" y1="12.4377" x2="37.2639" y2="15.6792" gradientUnits="userSpaceOnUse">
<stop stop-color="#7028E4"/>
<stop offset="1" stop-color="#E5B2CA"/>
</linearGradient>
<clipPath id="clip0_515_1302">
<rect x="6" y="5" width="13" height="13" fill="white"/>
</clipPath>
</defs>
</svg>
