<svg width="44" height="44" viewBox="0 0 44 44" fill="none" xmlns="http://www.w3.org/2000/svg">
    <defs>
        <linearGradient id="medium-icon-bg-gradient">
            <stop offset="0" class="start-color"/>
            <stop offset="1" class="end-color"/>
        </linearGradient>
    </defs>
    <path d="M35.75 44H8.25C3.69325 44 0 40.3068 0 35.75V8.25C0 3.69325 3.69325 0 8.25 0H35.75C40.3068 0 44 3.69325 44 8.25V35.75C44 40.3068 40.3068 44 35.75 44Z"
          id="medium-icon-bg"/>
    <path d="M31.2441 15.3385L33 13.6596V13.2925H26.9184L22.5844 24.0794L17.655 13.2925H11.2777V13.661L13.3293 16.1291C13.5286 16.3106 13.6345 16.5787 13.607 16.8469V26.5475C13.6702 26.8967 13.5561 27.2556 13.3114 27.51L11 30.3095V30.6725H17.5491V30.304L15.2391 27.5086C14.9889 27.2542 14.8706 26.9009 14.9215 26.5461V18.1559L20.6704 30.6766H21.3386L26.2818 18.1559V28.1301C26.2818 28.3941 26.2818 28.4477 26.1085 28.6196L24.3293 30.3397V30.7082H32.9574V30.3397L31.2428 28.6609C31.0929 28.5481 31.0145 28.357 31.0461 28.1714V15.828C31.0173 15.6424 31.0942 15.4512 31.2441 15.3385Z"
          class="icon-fill-themed"/>
</svg>
