<svg width="25" height="25" viewBox="0 0 25 25" fill="none" xmlns="http://www.w3.org/2000/svg">
<rect opacity="0.11" width="25" height="25" rx="6" fill="url(#paint0_linear_515_1330)"/>
<path fill-rule="evenodd" clip-rule="evenodd" d="M19.9186 11.3471C20.2707 10.6972 20.4466 10.0007 20.4466 9.25784C20.4466 8.43543 20.2576 7.69921 19.8796 7.04921C19.5145 6.39923 18.9605 5.88852 18.2174 5.5171C17.4743 5.14567 16.5749 4.95996 15.5188 4.95996H10.4934V11.1916H4.88086V13.4803H10.4934V18.9878H13.231V13.516H15.5188C16.6401 13.516 17.5656 13.317 18.2957 12.919C19.0388 12.5211 19.5797 11.9971 19.9186 11.3471ZM17.0833 10.7502C16.7182 11.0951 16.1577 11.2675 15.4015 11.2675H13.231V7.22829H15.4015C16.8877 7.22829 17.6308 7.90481 17.6308 9.25784C17.6308 9.89455 17.4482 10.392 17.0833 10.7502ZM16.1122 18.9878C15.6168 18.9878 15.2062 18.8353 14.8803 18.5301C14.5674 18.2118 14.4109 17.8205 14.4109 17.3562C14.4109 16.892 14.5674 16.5072 14.8803 16.2021C15.2062 15.8838 15.6168 15.7246 16.1122 15.7246C16.5945 15.7246 16.9921 15.8838 17.305 16.2021C17.6179 16.5072 17.7743 16.892 17.7743 17.3562C17.7743 17.8205 17.6179 18.2118 17.305 18.5301C16.9921 18.8353 16.5945 18.9878 16.1122 18.9878ZM4.88086 16.644H7.37153V19H9.12173V14.8938H4.88086V16.644Z" fill="#CEAEFE"/>
<defs>
<linearGradient id="paint0_linear_515_1330" x1="-4.71476e-08" y1="12.5" x2="37.4504" y2="15.7576" gradientUnits="userSpaceOnUse">
<stop stop-color="#7028E4"/>
<stop offset="1" stop-color="#E5B2CA"/>
</linearGradient>
</defs>
</svg>
