<svg width="156" height="157" viewBox="0 0 156 157" fill="none" xmlns="http://www.w3.org/2000/svg">
    <g opacity="0.11">
        <path d="M154.046 94.499C152.797 100.331 151.079 105.848 148.581 111.049C148.112 112.153 147.644 113.255 147.019 114.359C144.989 118.299 142.647 122.082 139.993 125.708C138.899 127.126 137.806 128.545 136.713 129.806C130.155 137.53 122.035 143.834 112.979 148.405C111.417 149.193 109.543 149.981 107.826 150.769C105.015 152.03 102.048 152.976 98.9251 153.922C87.2139 157.389 74.5659 158.02 61.9178 155.34C19.9136 146.513 -7.10047 105.059 1.64391 62.5014C10.3883 20.1013 51.4558 -7.1674 93.6162 1.6594C108.45 4.81183 122.035 12.22 132.81 22.9383C151.391 41.6952 159.355 68.6491 154.046 94.499Z"
              fill="url(#paint0_linear)"/>
        <path d="M77.8469 144.779C73.3186 144.779 68.9464 144.306 64.5742 143.361C29.1283 135.952 6.33068 100.803 13.6697 65.0225C17.2611 47.6842 27.2545 32.8676 41.9325 23.0951C56.6106 13.3226 74.0995 10.0126 91.2759 13.6378C103.768 16.3174 115.167 22.4645 124.38 31.6065C140.151 47.3687 146.865 69.909 142.18 91.9759C141.243 96.8622 139.682 101.591 137.652 106.004C137.34 106.792 136.871 107.895 136.403 108.841C134.685 112.151 132.655 115.461 130.469 118.298C129.532 119.402 128.752 120.663 127.815 121.766C122.193 128.386 115.479 133.588 107.828 137.528C106.422 138.159 105.017 138.947 103.612 139.577C100.801 140.838 98.4585 141.627 96.1163 142.257C90.0265 143.833 83.9367 144.779 77.8469 144.779ZM77.8469 18.0517C66.2918 18.0517 55.0492 21.3614 45.2118 27.9815C31.783 36.8083 22.7263 50.3641 19.4472 66.1262C12.7327 98.7538 33.5005 130.751 65.8235 137.528C75.1924 139.577 85.0298 139.104 94.2426 136.425C96.4287 135.794 98.615 135.164 101.113 134.06C102.363 133.43 103.768 132.8 105.017 132.169C112.044 128.544 118.134 123.815 123.287 117.826C124.067 116.88 125.004 115.777 125.785 114.673C127.815 111.994 129.689 108.999 131.094 106.004C131.562 105.216 131.875 104.428 132.187 103.482C134.061 99.3838 135.466 95.1285 136.403 90.5575C140.619 70.5396 134.529 50.0482 120.164 35.5471C111.888 27.1931 101.426 21.5189 90.0266 19.1546C85.9667 18.5241 81.9068 18.0517 77.8469 18.0517Z"
              fill="#F9B400"/>
        <path d="M146.528 115.132C144.654 118.757 142.468 122.382 140.125 125.692C139.032 127.111 137.939 128.529 136.846 129.79C130.288 137.514 122.168 143.819 113.112 148.39C111.55 149.178 109.676 149.966 107.959 150.754C105.148 152.015 102.181 152.961 99.0581 153.906L50.4956 104.886L65.9544 96.6898L67.8282 92.9069L68.2966 85.3411C68.2966 85.3411 67.6721 57.5998 67.0475 56.8116C66.8913 56.4964 71.732 38.8428 71.732 38.8428L77.1972 51.2949L84.0678 38.8428L150.587 105.989C150.431 107.408 146.996 114.028 146.528 115.132Z"
              fill="url(#paint1_linear)"/>
        <path d="M72.0476 117.969C69.5492 117.969 67.0508 117.969 64.5524 117.969C64.5524 113.871 64.5524 109.615 64.5524 105.517C59.8679 105.044 55.1834 105.202 50.3428 105.202C51.4358 99.3695 51.4358 98.8966 51.7481 97.1628C51.7481 96.6899 52.0604 96.5323 52.5289 96.5323C53.9342 96.5323 55.4957 96.5323 56.9011 96.5323C59.3995 96.5323 59.7118 95.9018 59.7118 94.0104C59.7118 83.765 59.7118 73.6773 59.7118 63.4319C59.7118 60.4371 57.838 59.3337 55.6519 59.3337C53.9342 59.3337 52.3727 59.3337 50.6551 59.3337C50.6551 56.8118 50.6551 54.4475 50.6551 51.9255C53.3096 51.9255 58.6187 51.9255 63.6155 51.9255C64.5524 51.9255 64.5524 51.9255 64.5524 51.1374C64.5524 48.4579 64.5524 41.8378 64.5524 39.1582C67.0508 39.1582 69.5492 39.1582 72.0476 39.1582C72.0476 43.2564 72.0476 47.5121 72.0476 51.6103C73.9214 51.6103 75.7952 51.6103 77.5128 51.6103C77.5128 47.3545 77.5128 43.2564 77.5128 39.1582C79.8551 39.1582 82.0412 39.1582 84.3834 39.1582C84.5396 40.4192 84.3834 50.6646 84.3834 51.2951C84.3834 51.7679 84.5396 51.9255 85.008 52.0832C93.5963 53.1865 100.623 55.8661 101.248 64.3776C101.404 67.3724 101.091 70.2096 99.3738 72.5739C98.1246 74.3078 96.5631 75.2535 95.47 75.8839C97.6561 76.672 103.121 78.0906 104.995 83.9226C105.776 86.287 105.776 88.6513 105.464 91.0156C105.151 93.5375 104.214 95.9019 102.809 98.1086C101.091 100.788 98.593 102.207 95.7823 103.31C92.347 104.571 88.7556 105.202 85.1642 105.359C84.5396 105.359 84.3834 105.517 84.3834 106.147C84.3834 109.773 84.3834 113.083 84.3834 117.969C82.0412 117.969 79.8551 117.969 77.5128 117.969C77.5128 113.871 77.5128 109.773 77.5128 105.674C75.639 105.674 73.7652 105.674 72.0476 105.674C72.0476 109.773 72.0476 113.871 72.0476 117.969ZM72.0476 81.4007C72.0476 86.6022 72.0476 91.6461 72.0476 97.0052C79.5428 96.69 83.6027 97.0052 87.8187 94.7985C90.0048 93.6951 91.254 91.9613 91.4101 89.597C91.5663 86.9174 90.4732 84.8684 88.2872 83.4498C84.2273 80.7702 76.5759 81.0855 72.2037 81.2431L72.0476 81.4007ZM72.0476 60.1218C72.0476 64.8505 72.0476 69.5791 72.0476 74.3077C74.8583 74.623 80.3235 74.1501 82.8219 73.5196C90.3171 71.4705 89.224 63.5895 84.6957 61.698C80.0112 59.4913 75.639 59.9642 72.0476 60.1218Z"
              fill="url(#paint2_linear)"/>
        <path d="M148.567 92.8762C147.443 98.1887 145.757 103.221 143.51 107.975C143.229 109.093 142.667 109.932 142.105 111.05C140.138 114.685 138.171 118.041 135.643 121.396C134.519 122.794 133.676 123.912 132.553 125.031C126.372 132.021 118.786 137.893 110.638 142.087C109.233 142.926 107.548 143.484 105.862 144.323C103.052 145.442 100.523 146.28 97.7139 147.119C86.7566 150.195 75.2374 150.754 63.1564 148.517C24.1037 140.409 -0.901179 102.383 6.96554 63.5177C15.1132 24.6527 53.3234 -0.232155 92.376 7.59678C106.143 10.3928 118.786 17.3829 128.9 27.1691C146.319 44.5046 153.624 69.1098 148.567 92.8762Z"
              fill="url(#paint3_linear)"/>
        <path d="M78.6109 138.454C74.3965 138.454 70.1825 137.895 66.2492 137.056C33.3775 130.346 12.0249 97.9109 19.0487 65.1971C22.4202 49.2597 31.6918 35.5585 45.1776 26.8907C58.6634 17.9434 74.9589 14.8688 90.9733 18.2241C102.492 20.7405 113.168 26.3324 121.597 34.7205C136.207 49.2599 142.388 69.9501 138.174 90.0817C137.331 94.5554 135.926 99.0293 133.959 102.944C133.678 103.783 133.116 104.621 132.835 105.46C131.149 108.536 129.464 111.332 127.216 114.128C126.373 115.246 125.531 116.365 124.688 117.204C119.35 123.355 113.168 128.108 106.145 131.743C104.74 132.302 103.616 133.141 102.211 133.7C99.6828 134.819 97.4352 135.657 95.1876 136.216C89.8494 137.614 84.2299 138.454 78.6109 138.454ZM78.6109 22.4182C67.9346 22.4182 57.5398 25.493 48.2684 31.3647C35.9064 39.4732 27.4778 51.7758 24.3873 66.3153C18.2063 96.233 37.5918 125.591 67.6539 131.743C76.3635 133.7 85.6347 133.141 94.0633 130.904C96.03 130.345 97.9968 129.786 100.525 128.668C101.649 128.109 103.054 127.549 104.178 126.99C110.64 123.635 116.259 119.161 121.035 113.848C121.878 113.009 122.721 111.891 123.283 111.052C125.25 108.536 126.936 106.02 128.34 103.224C128.621 102.385 129.183 101.825 129.464 100.986C131.15 97.0715 132.554 93.1579 133.397 89.2434C137.33 70.7895 131.711 52.056 118.226 38.9146C110.64 31.3652 100.807 26.053 90.1303 23.8162C86.1969 22.6978 82.2633 22.4182 78.6109 22.4182Z"
              fill="#F9B400"/>
    </g>
    <path d="M107.499 84.7245C107.013 86.9935 106.345 89.1399 105.373 91.1636C105.191 91.5929 105.009 92.0219 104.766 92.4512C103.976 93.9843 103.065 95.4562 102.032 96.8667C101.606 97.4186 101.181 97.9706 100.756 98.4612C98.2043 101.466 95.0452 103.919 91.5216 105.697C90.9141 106.004 90.1851 106.311 89.5168 106.617C88.4233 107.108 87.269 107.476 86.054 107.844C81.4976 109.193 76.5767 109.438 71.6558 108.396C55.3135 104.961 44.8034 88.8331 48.2055 72.2754C51.6076 55.7791 67.5854 45.1699 83.9885 48.6041C89.7599 49.8306 95.0452 52.7129 99.2371 56.8829C106.467 64.1805 109.565 74.6673 107.499 84.7245Z"
          fill="url(#paint4_linear)"/>
    <path d="M77.8413 104.286C76.0795 104.286 74.3785 104.103 72.6774 103.735C58.8867 100.852 50.017 87.1768 52.8724 73.2562C54.2697 66.5105 58.1577 60.7459 63.8684 56.9438C69.5791 53.1417 76.3833 51.8538 83.066 53.2643C87.9262 54.3068 92.361 56.6984 95.9454 60.2552C102.081 66.3877 104.694 75.1573 102.871 83.7427C102.507 85.6438 101.899 87.4834 101.109 89.2005C100.988 89.5072 100.806 89.9363 100.623 90.3043C99.955 91.5921 99.1652 92.8799 98.3147 93.9837C97.9502 94.413 97.6464 94.9037 97.2819 95.333C95.0948 97.9086 92.4825 99.9323 89.5056 101.465C88.9589 101.711 88.4121 102.017 87.8654 102.263C86.7718 102.753 85.8605 103.06 84.9493 103.305C82.5799 103.918 80.2106 104.286 77.8413 104.286ZM77.8413 54.9816C73.3457 54.9816 68.9716 56.2693 65.1442 58.8449C59.9196 62.2791 56.396 67.5531 55.1202 73.6855C52.5078 86.3797 60.5878 98.8285 73.1635 101.465C76.8086 102.263 80.6359 102.079 84.2203 101.036C85.0708 100.791 85.9214 100.545 86.8934 100.116C87.3794 99.8709 87.9262 99.6258 88.4122 99.3805C91.1461 97.97 93.5154 96.1302 95.5202 93.7999C95.8239 93.4319 96.1884 93.0027 96.4921 92.5734C97.2819 91.5309 98.011 90.3657 98.5578 89.2005C98.74 88.8939 98.8615 88.5872 98.983 88.2193C99.712 86.6248 100.259 84.9693 100.623 83.1908C102.264 75.4026 99.8943 67.4302 94.3051 61.7884C91.0853 58.5382 87.0149 56.3305 82.58 55.4107C81.0004 55.1654 79.4209 54.9816 77.8413 54.9816Z"
          fill="#F9B400"/>
    <path d="M104.569 92.7519C103.84 94.1624 102.989 95.5728 102.078 96.8606C101.653 97.4125 101.228 97.9645 100.802 98.4551C98.2508 101.46 95.0917 103.913 91.5681 105.691C90.9605 105.998 90.2315 106.305 89.5632 106.611C88.4697 107.102 87.3154 107.47 86.1004 107.838L67.2065 88.7658L73.221 85.5769L73.95 84.1051L74.1323 81.1615C74.1323 81.1615 73.8893 70.3684 73.6462 70.0618C73.5855 69.9392 75.4688 63.0708 75.4688 63.0708L77.5951 67.9155L80.2682 63.0708L106.149 89.1951C106.088 89.747 104.751 92.3226 104.569 92.7519Z"
          fill="url(#paint5_linear)"/>
    <path d="M75.5925 93.8556C74.6204 93.8556 73.6484 93.8556 72.6764 93.8556C72.6764 92.2612 72.6764 90.6054 72.6764 89.011C70.8538 88.827 69.0313 88.8883 67.1479 88.8883C67.5732 86.6193 67.5732 86.4353 67.6947 85.7608C67.6947 85.5768 67.8162 85.5155 67.9985 85.5155C68.5452 85.5155 69.1528 85.5155 69.6995 85.5155C70.6716 85.5155 70.7931 85.2702 70.7931 84.5343C70.7931 80.5482 70.7931 76.6234 70.7931 72.6373C70.7931 71.4722 70.064 71.0429 69.2135 71.0429C68.5452 71.0429 67.9377 71.0429 67.2695 71.0429C67.2695 70.0617 67.2695 69.1418 67.2695 68.1606C68.3022 68.1606 70.3678 68.1606 72.3119 68.1606C72.6764 68.1606 72.6764 68.1606 72.6764 67.854C72.6764 66.8115 72.6764 64.2359 72.6764 63.1934C73.6484 63.1934 74.6204 63.1934 75.5925 63.1934C75.5925 64.7878 75.5925 66.4436 75.5925 68.038C76.3215 68.038 77.0505 68.038 77.7188 68.038C77.7188 66.3822 77.7188 64.7878 77.7188 63.1934C78.6301 63.1934 79.4806 63.1934 80.3919 63.1934C80.4526 63.684 80.3919 67.6701 80.3919 67.9154C80.3919 68.0993 80.4526 68.1607 80.6349 68.222C83.9762 68.6512 86.7101 69.6938 86.9531 73.0053C87.0138 74.1704 86.8923 75.2743 86.2241 76.1942C85.7381 76.8687 85.1305 77.2367 84.7053 77.482C85.5558 77.7886 87.6821 78.3405 88.4111 80.6095C88.7149 81.5294 88.7149 82.4493 88.5934 83.3691C88.4719 84.3503 88.1074 85.2702 87.5606 86.1287C86.8923 87.1712 85.9203 87.7232 84.8268 88.1524C83.4902 88.643 82.0929 88.8883 80.6956 88.9497C80.4526 88.9497 80.3919 89.011 80.3919 89.2563C80.3919 90.6667 80.3919 91.9546 80.3919 93.8556C79.4806 93.8556 78.6301 93.8556 77.7188 93.8556C77.7188 92.2612 77.7188 90.6667 77.7188 89.0723C76.9898 89.0723 76.2607 89.0723 75.5925 89.0723C75.5925 90.6667 75.5925 92.2612 75.5925 93.8556ZM75.5925 79.6283C75.5925 81.652 75.5925 83.6144 75.5925 85.6995C78.5086 85.5768 80.0881 85.6994 81.7284 84.8409C82.5789 84.4116 83.065 83.7371 83.1257 82.8172C83.1865 81.7747 82.7612 80.9775 81.9107 80.4256C80.3311 79.383 77.3543 79.5057 75.6532 79.567L75.5925 79.6283ZM75.5925 71.3495C75.5925 73.1892 75.5925 75.029 75.5925 76.8687C76.686 76.9914 78.8123 76.8074 79.7844 76.5621C82.7005 75.7649 82.2752 72.6987 80.5134 71.9628C78.6908 71.1042 76.9898 71.2882 75.5925 71.3495Z"
          fill="url(#paint6_linear)"/>
    <path d="M105.357 84.0934C104.92 86.1603 104.264 88.1183 103.389 89.9676C103.28 90.4027 103.061 90.7292 102.843 91.1643C102.078 92.5785 101.312 93.8841 100.329 95.1895C99.8914 95.7335 99.5637 96.1684 99.1264 96.6035C96.7216 99.3231 93.7702 101.608 90.6003 103.239C90.0537 103.566 89.3979 103.783 88.7421 104.109C87.649 104.545 86.6651 104.871 85.572 105.197C81.3089 106.394 76.8272 106.612 72.127 105.741C56.9331 102.587 47.2046 87.792 50.2652 72.6711C53.4352 57.5502 68.3013 47.8684 83.4952 50.9144C88.8513 52.0022 93.7702 54.7218 97.7053 58.5292C104.482 65.2738 107.325 74.8468 105.357 84.0934Z"
          fill="url(#paint7_linear)"/>
    <path d="M78.1431 101.826C76.5035 101.826 74.8639 101.608 73.3336 101.282C60.5445 98.6712 52.237 86.0521 54.9697 73.3244C56.2814 67.1238 59.8886 61.7932 65.1355 58.4209C70.3823 54.9398 76.7222 53.7436 82.9528 55.049C87.4345 56.028 91.5881 58.2036 94.8674 61.4671C100.551 67.1239 102.956 75.1737 101.317 83.0061C100.989 84.7466 100.442 86.4873 99.6771 88.0102C99.5678 88.3366 99.349 88.6628 99.2397 88.9892C98.5839 90.1858 97.928 91.2737 97.0535 92.3616C96.7256 92.7967 96.3978 93.2319 96.0699 93.5583C93.993 95.9515 91.5881 97.8005 88.8554 99.2147C88.3088 99.4323 87.8717 99.7589 87.3252 99.9764C86.3414 100.412 85.4669 100.738 84.5925 100.955C82.5156 101.499 80.3293 101.826 78.1431 101.826ZM78.1431 56.6807C73.9894 56.6807 69.9451 57.877 66.338 60.1615C61.5284 63.3162 58.2491 68.1027 57.0467 73.7595C54.6419 85.3993 62.1841 96.8215 73.8802 99.2147C77.2687 99.9762 80.8758 99.7589 84.1551 98.8886C84.9202 98.671 85.6854 98.4537 86.6692 98.0185C87.1064 97.801 87.653 97.5833 88.0903 97.3657C90.6044 96.0603 92.7906 94.3196 94.6488 92.2527C94.9767 91.9263 95.3047 91.4912 95.5233 91.1648C96.2885 90.1858 96.9444 89.207 97.4909 88.1191C97.6002 87.7928 97.8188 87.5749 97.9281 87.2485C98.5839 85.7256 99.1304 84.2029 99.4583 82.6799C100.989 75.5002 98.8025 68.2117 93.5557 63.0989C90.6044 60.1617 86.7786 58.0949 82.6248 57.2247C81.0945 56.7895 79.5641 56.6807 78.1431 56.6807Z"
          fill="#F9B400"/>
    <path d="M102.941 90.827C102.285 92.1324 101.52 93.4378 100.645 94.6344C100.208 95.1783 99.8802 95.6134 99.443 96.0486C97.0382 98.7682 94.6334 101.27 91.3542 102.902C90.8076 103.228 90.1517 103.555 89.4959 103.772C88.4028 104.207 88.2935 104.534 87.2004 104.751L71.1343 90.109L74.5079 88.6801H72.3845C72.3845 88.6801 77.9955 90.6448 72.7417 87.5635C77.6785 90.4589 75.9566 81.3573 75.9566 81.3573L86.8515 77.2494L87.5659 69.748L104.471 87.5635C104.362 88.1074 103.159 90.5006 102.941 90.827Z"
          fill="url(#paint8_linear)"/>
    <path d="M89.3441 74.1139C89.3441 75.3623 89.022 76.5327 88.3778 77.6251C87.7574 78.7175 86.7672 79.5982 85.4071 80.267C84.0709 80.9358 82.3768 81.2702 80.3248 81.2702H76.1372V90.2324H71.1265V66.8906H80.3248C82.2575 66.8906 83.9039 67.2027 85.264 67.827C86.624 68.4512 87.6381 69.3095 88.3062 70.4019C88.9982 71.4943 89.3441 72.7316 89.3441 74.1139ZM80.11 77.4914C81.494 77.4914 82.52 77.2016 83.1881 76.6219C83.8562 76.02 84.1902 75.184 84.1902 74.1139C84.1902 71.8399 82.8302 70.7029 80.11 70.7029H76.1372V77.4914H80.11Z"
          fill="url(#paint9_linear)"/>
    <path d="M81.4107 90.4664C80.504 90.4664 79.7524 90.2101 79.1559 89.6973C78.5832 89.1622 78.2969 88.5046 78.2969 87.7243C78.2969 86.944 78.5832 86.2975 79.1559 85.7847C79.7524 85.2497 80.504 84.9821 81.4107 84.9821C82.2936 84.9821 83.0213 85.2497 83.594 85.7847C84.1667 86.2975 84.453 86.944 84.453 87.7243C84.453 88.5046 84.1667 89.1622 83.594 89.6973C83.0213 90.2101 82.2936 90.4664 81.4107 90.4664Z"
          fill="url(#paint10_linear)"/>
    <defs>
        <linearGradient id="paint0_linear" x1="0.187507" y1="78.4942" x2="155.687" y2="78.4942"
                        gradientUnits="userSpaceOnUse">
            <stop offset="0.00289017" stop-color="#FFD44F"/>
            <stop offset="1" stop-color="#FFA607"/>
        </linearGradient>
        <linearGradient id="paint1_linear" x1="74.6102" y1="79.2323" x2="110.718" y2="115.003"
                        gradientUnits="userSpaceOnUse">
            <stop stop-color="#FAA404"/>
            <stop offset="1" stop-color="#FF7904" stop-opacity="0"/>
        </linearGradient>
        <linearGradient id="paint2_linear" x1="103.072" y1="117.454" x2="53.8942" y2="56.2682"
                        gradientUnits="userSpaceOnUse">
            <stop stop-color="#FFE491"/>
            <stop offset="1" stop-color="white"/>
        </linearGradient>
        <linearGradient id="paint3_linear" x1="5.62904" y1="78.2989" x2="150.201" y2="78.2989"
                        gradientUnits="userSpaceOnUse">
            <stop offset="0.00289017" stop-color="#FFD44F"/>
            <stop offset="1" stop-color="#FFA607"/>
        </linearGradient>
        <linearGradient id="paint4_linear" x1="47.6389" y1="78.4976" x2="108.138" y2="78.4976"
                        gradientUnits="userSpaceOnUse">
            <stop offset="0.00289017" stop-color="#FFD44F"/>
            <stop offset="1" stop-color="#FFA607"/>
        </linearGradient>
        <linearGradient id="paint5_linear" x1="76.5886" y1="78.7848" x2="90.6367" y2="92.7018"
                        gradientUnits="userSpaceOnUse">
            <stop stop-color="#FAA404"/>
            <stop offset="1" stop-color="#FF7904" stop-opacity="0"/>
        </linearGradient>
        <linearGradient id="paint6_linear" x1="87.663" y1="93.6552" x2="68.5297" y2="69.8502"
                        gradientUnits="userSpaceOnUse">
            <stop stop-color="#FFE491"/>
            <stop offset="1" stop-color="white"/>
        </linearGradient>
        <linearGradient id="paint7_linear" x1="49.7452" y1="78.4219" x2="105.993" y2="78.4219"
                        gradientUnits="userSpaceOnUse">
            <stop offset="0.00289017" stop-color="#FFD44F"/>
            <stop offset="1" stop-color="#FFA607"/>
        </linearGradient>
        <linearGradient id="paint8_linear" x1="78.6517" y1="79.1276" x2="90.6953" y2="91.2293"
                        gradientUnits="userSpaceOnUse">
            <stop stop-color="#FAA404"/>
            <stop offset="1" stop-color="#FF7904" stop-opacity="0"/>
        </linearGradient>
        <linearGradient id="paint9_linear" x1="87.8872" y1="86.1961" x2="75.3858" y2="70.3888"
                        gradientUnits="userSpaceOnUse">
            <stop stop-color="#FFE491"/>
            <stop offset="1" stop-color="white"/>
        </linearGradient>
        <linearGradient id="paint10_linear" x1="87.8872" y1="86.1961" x2="75.3858" y2="70.3888"
                        gradientUnits="userSpaceOnUse">
            <stop stop-color="#FFE491"/>
            <stop offset="1" stop-color="white"/>
        </linearGradient>
    </defs>
</svg>
