<svg width="28" height="28" viewBox="0 0 28 28" fill="none" xmlns="http://www.w3.org/2000/svg">
    <rect opacity="0.11" x="0.973633" y="0.887695" width="26.8113" height="26.8113" rx="6.46691"
          fill="url(#paint0_linear)"/>
    <path d="M13.9063 12.1279C13.6511 12.1279 13.4443 12.3347 13.4443 12.5899V14.5774C13.4443 15.3518 13.8456 16.0709 14.5046 16.4775L15.9767 17.3858C16.1789 17.5106 16.4435 17.4528 16.5752 17.2552C16.7149 17.0456 16.6511 16.7619 16.4352 16.6324L15.2319 15.9104C14.6961 15.5889 14.3682 15.0098 14.3682 14.3849V12.5899C14.3682 12.3347 14.1614 12.1279 13.9063 12.1279Z"
          fill="url(#paint1_linear)"/>
    <path d="M18.9421 14.5912C18.6166 14.5912 18.3729 14.8817 18.3729 15.2071C18.3729 17.6091 16.4636 19.5184 14.0616 19.5184C11.6596 19.5184 9.75035 17.6091 9.75035 15.2071C9.75035 12.8051 11.6596 10.8959 14.0616 10.8959C14.214 10.8959 14.364 10.9035 14.5115 10.9187C14.9072 10.9592 15.2934 10.6737 15.2934 10.276C15.2934 10.0005 15.1041 9.75776 14.8314 9.7187C14.5805 9.68276 14.3234 9.66406 14.0616 9.66406C10.9821 9.66406 8.51855 12.1276 8.51855 15.2071C8.51855 18.2866 10.9821 20.7502 14.0616 20.7502C17.1411 20.7502 19.6047 18.2866 19.6047 15.2071C19.6047 15.1806 19.6045 15.1541 19.6041 15.1278C19.5995 14.8207 19.3368 14.5912 19.0297 14.5912H18.9421Z"
          fill="url(#paint2_linear)"/>
    <path d="M20.5287 10.2798C20.0185 10.2798 19.6049 9.8662 19.6049 9.35597V9.04802C19.6049 8.70787 19.3291 8.43213 18.989 8.43213C18.6488 8.43213 18.3731 8.70788 18.3731 9.04803V9.35597C18.3731 9.8662 17.9595 10.2798 17.4492 10.2798H17.1413C16.8011 10.2798 16.5254 10.5556 16.5254 10.8957C16.5254 11.2359 16.8011 11.5116 17.1413 11.5116H17.4492C17.9595 11.5116 18.3731 11.9252 18.3731 12.4355V12.7434C18.3731 13.0836 18.6488 13.3593 18.989 13.3593C19.3291 13.3593 19.6049 13.0836 19.6049 12.7434V12.4355C19.6049 11.9252 20.0185 11.5116 20.5287 11.5116H20.8367C21.1768 11.5116 21.4526 11.2359 21.4526 10.8957C21.4526 10.5556 21.1768 10.2798 20.8367 10.2798H20.5287Z"
          fill="url(#paint3_linear)"/>
    <defs>
        <linearGradient id="paint0_linear" x1="0.973633" y1="14.2933" x2="41.1373" y2="17.787"
                        gradientUnits="userSpaceOnUse">
            <stop stop-color="#7028E4"/>
            <stop offset="1" stop-color="#E5B2CA"/>
        </linearGradient>
        <linearGradient id="paint1_linear" x1="13.4443" y1="14.8687" x2="16.8318" y2="14.8687"
                        gradientUnits="userSpaceOnUse">
            <stop stop-color="#7028E4"/>
            <stop offset="1" stop-color="#E5B2CA"/>
        </linearGradient>
        <linearGradient id="paint2_linear" x1="8.51855" y1="15.2071" x2="19.6047" y2="15.2071"
                        gradientUnits="userSpaceOnUse">
            <stop stop-color="#7028E4"/>
            <stop offset="1" stop-color="#E5B2CA"/>
        </linearGradient>
        <linearGradient id="paint3_linear" x1="16.5254" y1="10.8957" x2="21.4526" y2="10.8957"
                        gradientUnits="userSpaceOnUse">
            <stop stop-color="#7028E4"/>
            <stop offset="1" stop-color="#E5B2CA"/>
        </linearGradient>
    </defs>
</svg>
