<svg width="165" height="163" viewBox="0 0 165 163" fill="none" xmlns="http://www.w3.org/2000/svg">
    <g opacity="0.11">
        <path d="M163.195 97.9506C161.871 103.996 160.052 109.714 157.405 115.105C156.909 116.249 156.412 117.392 155.751 118.536C153.6 122.62 151.119 126.542 148.307 130.299C147.149 131.77 145.991 133.24 144.833 134.547C137.885 142.553 129.283 149.088 119.688 153.826C118.034 154.643 116.049 155.459 114.229 156.276C111.252 157.583 108.109 158.564 104.8 159.544C92.3935 163.138 78.9943 163.792 65.5951 161.014C21.0962 151.865 -7.52216 108.897 1.74154 64.7843C11.0052 20.8355 54.5118 -7.42919 99.176 1.72001C114.891 4.98758 129.283 12.6664 140.697 23.7761C160.382 43.2182 168.819 71.1565 163.195 97.9506Z"
              fill="url(#paint0_linear)"/>
        <path d="M82.4714 150.068C77.6741 150.068 73.0423 149.578 68.4104 148.597C30.8594 140.919 6.70785 104.485 14.4827 67.3979C18.2875 49.4263 28.8743 34.0685 44.4241 23.9391C59.9739 13.8096 78.5014 10.3787 96.698 14.1364C109.932 16.9138 122.008 23.2854 131.768 32.7613C148.475 49.0992 155.588 72.4628 150.626 95.3358C149.633 100.401 147.979 105.302 145.829 109.876C145.498 110.693 145.001 111.837 144.505 112.817C142.685 116.248 140.535 119.679 138.219 122.62C137.226 123.763 136.399 125.07 135.407 126.214C129.452 133.076 122.338 138.468 114.233 142.552C112.744 143.206 111.255 144.022 109.766 144.676C106.789 145.983 104.307 146.8 101.826 147.453C95.3743 149.087 88.9229 150.068 82.4714 150.068ZM82.4714 18.7114C70.2301 18.7114 58.3198 22.1421 47.8981 29.004C33.6717 38.1532 24.0772 52.204 20.6033 68.5419C13.4901 102.361 35.4913 135.527 69.7339 142.552C79.6593 144.676 90.0809 144.185 99.8408 141.408C102.157 140.755 104.473 140.101 107.12 138.957C108.443 138.304 109.932 137.651 111.255 136.997C118.699 133.24 125.151 128.338 130.61 122.13C131.437 121.149 132.429 120.006 133.256 118.862C135.407 116.085 137.392 112.98 138.881 109.876C139.377 109.059 139.708 108.242 140.039 107.262C142.024 103.014 143.513 98.6035 144.505 93.8655C148.972 73.1165 142.52 51.8766 127.301 36.8458C118.534 28.1867 107.45 22.3053 95.3745 19.8546C91.0735 19.2011 86.7724 18.7114 82.4714 18.7114Z"
              fill="#F9B400"/>
        <path d="M155.229 119.337C153.244 123.095 150.928 126.852 148.447 130.283C147.289 131.754 146.131 133.224 144.973 134.531C138.025 142.537 129.423 149.072 119.829 153.81C118.175 154.627 116.19 155.444 114.37 156.26C111.392 157.567 108.249 158.548 104.941 159.528L53.4941 108.717L69.871 100.222L71.8561 96.3006L72.3524 88.4584C72.3524 88.4584 71.6907 59.7038 71.029 58.8869C70.8636 58.5602 75.9917 40.2617 75.9917 40.2617L81.7815 53.1687L89.0601 40.2617L159.53 109.861C159.365 111.331 155.726 118.193 155.229 119.337Z"
              fill="url(#paint1_linear)"/>
        <path d="M76.3259 122.278C73.6791 122.278 71.0323 122.278 68.3856 122.278C68.3856 118.03 68.3856 113.619 68.3856 109.371C63.4229 108.881 58.4602 109.044 53.332 109.044C54.49 102.999 54.49 102.509 54.8209 100.712C54.8209 100.222 55.1517 100.059 55.648 100.059C57.1368 100.059 58.791 100.059 60.2798 100.059C62.9266 100.059 63.2574 99.4051 63.2574 97.4445C63.2574 86.8249 63.2574 76.3687 63.2574 65.7491C63.2574 62.6449 61.2724 61.5013 58.9564 61.5013C57.1368 61.5013 55.4826 61.5013 53.6629 61.5013C53.6629 58.8872 53.6629 56.4366 53.6629 53.8225C56.4751 53.8225 62.0995 53.8225 67.393 53.8225C68.3856 53.8225 68.3856 53.8225 68.3856 53.0056C68.3856 50.2282 68.3856 43.3663 68.3856 40.5889C71.0323 40.5889 73.6791 40.5889 76.3259 40.5889C76.3259 44.8367 76.3259 49.2479 76.3259 53.4958C78.311 53.4958 80.2961 53.4958 82.1157 53.4958C82.1157 49.0845 82.1157 44.8367 82.1157 40.5889C84.5971 40.5889 86.913 40.5889 89.3943 40.5889C89.5598 41.8959 89.3943 52.5155 89.3943 53.169C89.3943 53.6592 89.5598 53.8225 90.056 53.9859C99.1543 55.1296 106.598 57.907 107.26 66.7294C107.425 69.8336 107.095 72.7744 105.275 75.2251C103.952 77.0223 102.297 78.0025 101.139 78.656C103.455 79.4729 109.245 80.9433 111.23 86.9883C112.057 89.439 112.057 91.8897 111.726 94.3404C111.396 96.9544 110.403 99.4051 108.914 101.692C107.095 104.47 104.448 105.94 101.47 107.084C97.8309 108.391 94.0262 109.044 90.2215 109.208C89.5598 109.208 89.3943 109.371 89.3943 110.025C89.3943 113.782 89.3943 117.213 89.3943 122.278C86.913 122.278 84.5971 122.278 82.1157 122.278C82.1157 118.03 82.1157 113.782 82.1157 109.535C80.1306 109.535 78.1456 109.535 76.3259 109.535C76.3259 113.782 76.3259 118.03 76.3259 122.278ZM76.3259 84.3743C76.3259 89.7658 76.3259 94.9939 76.3259 100.549C84.2662 100.222 88.5672 100.549 93.0336 98.2614C95.3496 97.1178 96.673 95.3206 96.8384 92.87C97.0038 90.0925 95.8458 87.9686 93.5299 86.4982C89.2289 83.7208 81.1232 84.0476 76.4913 84.2109C76.4913 84.2109 76.3259 84.3743 76.3259 84.3743ZM76.3259 62.3182C76.3259 67.2195 76.3259 72.1209 76.3259 77.0222C79.3035 77.349 85.0933 76.8589 87.7401 76.2054C95.6804 74.0814 94.5225 65.9125 89.7252 63.952C84.7625 61.6647 80.1306 62.1548 76.3259 62.3182Z"
              fill="url(#paint2_linear)"/>
        <path d="M157.391 96.2687C156.2 101.775 154.414 106.992 152.033 111.919C151.735 113.078 151.14 113.948 150.545 115.107C148.461 118.874 146.378 122.353 143.699 125.831C142.508 127.28 141.616 128.438 140.425 129.598C133.877 136.843 125.841 142.93 117.209 147.277C115.721 148.146 113.935 148.725 112.149 149.595C109.173 150.754 106.494 151.624 103.517 152.493C91.9094 155.681 79.7061 156.261 66.9075 153.942C25.5356 145.537 -0.954379 106.123 7.37954 65.8379C16.0111 25.5533 56.4906 -0.240449 97.8625 7.87444C112.447 10.7726 125.841 18.018 136.556 28.1616C155.009 46.1303 162.748 71.6342 157.391 96.2687Z"
              fill="url(#paint3_linear)"/>
        <path d="M83.2785 143.512C78.8139 143.512 74.3496 142.932 70.1826 142.062C35.3587 135.107 12.738 101.487 20.179 67.5788C23.7506 51.0593 33.5729 36.8576 47.8596 27.8733C62.1463 18.5992 79.4096 15.4123 96.3751 18.8901C108.578 21.4985 119.888 27.2945 128.818 35.989C144.295 51.0595 150.843 72.5055 146.379 93.3723C145.486 98.0094 143.998 102.647 141.914 106.704C141.616 107.574 141.021 108.443 140.723 109.312C138.937 112.5 137.151 115.399 134.77 118.297C133.877 119.456 132.985 120.616 132.092 121.485C126.437 127.861 119.888 132.787 112.447 136.555C110.959 137.134 109.769 138.004 108.281 138.584C105.602 139.743 103.221 140.613 100.84 141.192C95.1845 142.641 89.2313 143.512 83.2785 143.512ZM83.2785 23.2374C71.9682 23.2374 60.9561 26.4245 51.1339 32.5107C38.0378 40.9154 29.1086 53.6673 25.8346 68.7378C19.2865 99.7483 39.8233 130.179 71.6708 136.555C80.8976 138.584 90.7195 138.004 99.6487 135.686C101.732 135.106 103.816 134.527 106.495 133.368C107.685 132.788 109.173 132.208 110.364 131.629C117.21 128.151 123.163 123.513 128.222 118.007C129.115 117.137 130.008 115.978 130.604 115.109C132.687 112.5 134.473 109.892 135.961 106.994C136.259 106.125 136.854 105.544 137.152 104.675C138.937 100.617 140.425 96.5609 141.318 92.5034C145.485 73.3755 139.533 53.9577 125.246 40.3363C117.21 32.5112 106.792 27.005 95.482 24.6864C91.315 23.5272 87.1478 23.2374 83.2785 23.2374Z"
              fill="#F9B400"/>
    </g>
    <path d="M113.886 87.8198C113.371 90.1717 112.663 92.3965 111.633 94.4941C111.44 94.9391 111.247 95.3838 110.989 95.8287C110.153 97.4178 109.187 98.9435 108.093 100.405C107.643 100.978 107.192 101.55 106.742 102.058C104.038 105.173 100.692 107.715 96.9588 109.559C96.3152 109.877 95.5429 110.194 94.8349 110.512C93.6764 111.021 92.4536 111.402 91.1664 111.783C86.3394 113.182 81.1263 113.436 75.9131 112.355C58.6003 108.796 47.466 92.0785 51.0701 74.9161C54.6743 57.8172 71.6011 46.8205 88.9782 50.3801C95.0924 51.6514 100.692 54.6389 105.133 58.9613C112.791 66.5255 116.074 77.3953 113.886 87.8198Z"
          fill="url(#paint4_linear)"/>
    <path d="M82.4653 108.096C80.5989 108.096 78.7968 107.905 76.9947 107.524C62.385 104.537 52.9886 90.3616 56.0135 75.9325C57.4938 68.9404 61.6127 62.9653 67.6626 59.0243C73.7124 55.0833 80.9208 53.7484 88.0003 55.2104C93.1491 56.291 97.8474 58.7699 101.645 62.4567C108.145 68.8131 110.912 77.903 108.982 86.802C108.595 88.7725 107.952 90.6794 107.115 92.4592C106.986 92.777 106.793 93.2219 106.6 93.6032C105.892 94.9381 105.056 96.2729 104.155 97.4171C103.768 97.8621 103.447 98.3707 103.061 98.8156C100.744 101.485 97.976 103.583 94.8224 105.172C94.2432 105.426 93.664 105.744 93.0847 105.998C91.9262 106.507 90.9608 106.825 89.9954 107.079C87.4854 107.715 84.9754 108.096 82.4653 108.096ZM82.4653 56.9904C77.7027 56.9904 73.0688 58.3251 69.0142 60.9948C63.4792 64.5544 59.7463 70.0211 58.3948 76.3775C55.6273 89.5354 64.1871 102.439 77.5097 105.172C81.3712 105.998 85.4259 105.808 89.2231 104.727C90.1242 104.473 91.0253 104.219 92.0551 103.774C92.5699 103.519 93.1492 103.265 93.6641 103.011C96.5603 101.549 99.0703 99.642 101.194 97.2265C101.516 96.8452 101.902 96.4002 102.224 95.9553C103.06 94.8747 103.833 93.6669 104.412 92.4592C104.605 92.1414 104.734 91.8235 104.863 91.4421C105.635 89.7894 106.214 88.0734 106.6 86.23C108.338 78.1573 105.828 69.8937 99.9069 64.0458C96.4959 60.6769 92.1837 58.3886 87.4854 57.4352C85.8121 57.1809 84.1387 56.9904 82.4653 56.9904Z"
          fill="#F9B400"/>
    <path d="M110.781 96.1402C110.008 97.6022 109.107 99.0641 108.142 100.399C107.691 100.971 107.241 101.543 106.79 102.052C104.087 105.166 100.74 107.709 97.0076 109.552C96.364 109.87 95.5916 110.188 94.8837 110.506C93.7252 111.014 92.5024 111.396 91.2152 111.777L71.1992 92.0085L77.5708 88.7031L78.3432 87.1776L78.5362 84.1265C78.5362 84.1265 78.2788 72.9392 78.0214 72.6214C77.957 72.4942 79.9522 65.375 79.9522 65.375L82.2048 70.3966L85.0366 65.375L112.454 92.4534C112.39 93.0255 110.974 95.6952 110.781 96.1402Z"
          fill="url(#paint5_linear)"/>
    <path d="M80.0828 97.2842C79.053 97.2842 78.0232 97.2842 76.9935 97.2842C76.9935 95.6315 76.9935 93.9152 76.9935 92.2626C75.0627 92.0719 73.1319 92.1354 71.1367 92.1354C71.5872 89.7836 71.5872 89.5929 71.716 88.8936C71.716 88.703 71.8447 88.6394 72.0378 88.6394C72.617 88.6394 73.2606 88.6394 73.8398 88.6394C74.8696 88.6394 74.9983 88.3851 74.9983 87.6224C74.9983 83.4907 74.9983 79.4226 74.9983 75.2909C74.9983 74.0831 74.226 73.6382 73.325 73.6382C72.617 73.6382 71.9734 73.6382 71.2654 73.6382C71.2654 72.6212 71.2654 71.6677 71.2654 70.6507C72.3596 70.6507 74.5478 70.6507 76.6073 70.6507C76.9935 70.6507 76.9935 70.6507 76.9935 70.3329C76.9935 69.2523 76.9935 66.5825 76.9935 65.502C78.0232 65.502 79.053 65.502 80.0828 65.502C80.0828 67.1546 80.0828 68.8709 80.0828 70.5235C80.8551 70.5235 81.6274 70.5235 82.3354 70.5235C82.3354 68.8073 82.3354 67.1546 82.3354 65.502C83.3008 65.502 84.2018 65.502 85.1672 65.502C85.2316 66.0105 85.1672 70.1422 85.1672 70.3964C85.1672 70.5871 85.2316 70.6507 85.4246 70.7142C88.9644 71.1592 91.8606 72.2398 92.1181 75.6723C92.1824 76.88 92.0537 78.0241 91.3458 78.9776C90.8309 79.6768 90.1873 80.0582 89.7368 80.3125C90.6378 80.6303 92.8904 81.2024 93.6627 83.5542C93.9845 84.5077 93.9845 85.4612 93.8558 86.4146C93.7271 87.4317 93.3409 88.3851 92.7617 89.275C92.0537 90.3556 91.024 90.9277 89.8655 91.3727C88.4496 91.8812 86.9693 92.1354 85.489 92.199C85.2316 92.199 85.1672 92.2626 85.1672 92.5168C85.1672 93.9788 85.1672 95.3137 85.1672 97.2842C84.2018 97.2842 83.3008 97.2842 82.3354 97.2842C82.3354 95.6315 82.3354 93.9788 82.3354 92.3261C81.563 92.3261 80.7907 92.3261 80.0828 92.3261C80.0828 93.9788 80.0828 95.6315 80.0828 97.2842ZM80.0828 82.5372C80.0828 84.6348 80.0828 86.6689 80.0828 88.8301C83.172 88.703 84.8454 88.8301 86.5831 87.9402C87.4842 87.4952 87.999 86.796 88.0634 85.8426C88.1278 84.762 87.6772 83.9356 86.7762 83.3636C85.1028 82.283 81.9492 82.4101 80.1471 82.4737C80.1471 82.4737 80.0828 82.5372 80.0828 82.5372ZM80.0828 73.956C80.0828 75.8629 80.0828 77.7699 80.0828 79.6768C81.2412 79.8039 83.4938 79.6132 84.5236 79.359C87.6129 78.5326 87.1624 75.3544 85.2959 74.5917C83.3651 73.7018 81.563 73.8924 80.0828 73.956Z"
          fill="url(#paint6_linear)"/>
    <path d="M111.616 87.1646C111.153 89.307 110.458 91.3365 109.531 93.2534C109.416 93.7044 109.184 94.0428 108.952 94.4938C108.142 95.9596 107.331 97.3129 106.289 98.666C105.826 99.2298 105.479 99.6806 105.015 100.132C102.468 102.951 99.341 105.319 95.9828 107.01C95.4038 107.348 94.7091 107.573 94.0143 107.912C92.8562 108.363 91.8139 108.701 90.6559 109.039C86.1396 110.28 81.3918 110.505 76.4124 109.603C60.3161 106.333 50.0098 90.9983 53.2522 75.3251C56.6105 59.6519 72.3595 49.6165 88.4558 52.7737C94.13 53.9013 99.341 56.7202 103.51 60.6667C110.689 67.6576 113.7 77.5802 111.616 87.1646Z"
          fill="url(#paint7_linear)"/>
    <path d="M82.7846 105.546C81.0476 105.546 79.3107 105.321 77.6895 104.983C64.1409 102.277 55.34 89.1965 58.235 76.0039C59.6246 69.5768 63.4461 64.0515 69.0045 60.556C74.5629 56.9478 81.2794 55.7079 87.88 57.061C92.6279 58.0758 97.0282 60.3308 100.502 63.7135C106.524 69.5769 109.072 77.9207 107.335 86.0392C106.987 87.8433 106.408 89.6475 105.598 91.2261C105.482 91.5644 105.25 91.9025 105.134 92.2408C104.439 93.4811 103.745 94.6088 102.818 95.7364C102.471 96.1874 102.123 96.6386 101.776 96.9768C99.5759 99.4575 97.0282 101.374 94.1331 102.84C93.5541 103.065 93.0911 103.404 92.5121 103.629C91.4698 104.08 90.5434 104.419 89.617 104.644C87.4168 105.208 85.1006 105.546 82.7846 105.546ZM82.7846 58.7523C78.3842 58.7523 74.0998 59.9923 70.2784 62.3602C65.1832 65.6302 61.7092 70.5915 60.4354 76.4548C57.8878 88.5198 65.8779 100.359 78.2685 102.84C81.8583 103.629 85.6797 103.404 89.1537 102.502C89.9643 102.276 90.7749 102.051 91.8171 101.6C92.2803 101.374 92.8594 101.149 93.3226 100.923C95.986 99.5702 98.302 97.7659 100.271 95.6235C100.618 95.2853 100.965 94.8342 101.197 94.496C102.008 93.4811 102.703 92.4666 103.282 91.339C103.397 91.0007 103.629 90.7749 103.745 90.4366C104.439 88.858 105.018 87.2797 105.366 85.7011C106.987 78.2592 104.671 70.7044 99.1126 65.4049C95.986 62.3604 91.933 60.2182 87.5326 59.3161C85.9114 58.8651 84.29 58.7523 82.7846 58.7523Z"
          fill="#F9B400"/>
    <path d="M109.057 94.1447C108.362 95.4978 107.552 96.8509 106.625 98.0912C106.162 98.655 105.814 99.106 105.351 99.5571C102.804 102.376 100.256 104.969 96.7821 106.661C96.2031 106.999 95.5082 107.337 94.8134 107.563C93.6554 108.014 93.5396 108.352 92.3816 108.578L75.3613 93.4005L78.9353 91.9195H76.6858C76.6858 91.9195 82.63 93.9559 77.0642 90.762C82.2942 93.7632 80.4701 84.3292 80.4701 84.3292L92.012 80.0713L92.7688 72.2959L110.678 90.762C110.562 91.3258 109.289 93.8065 109.057 94.1447Z"
          fill="url(#paint8_linear)"/>
    <path d="M94.6512 76.821C94.6512 78.1151 94.3099 79.3283 93.6274 80.4606C92.9702 81.5929 91.9212 82.5057 90.4803 83.1989C89.0648 83.8922 87.2701 84.2388 85.0962 84.2388H80.6599V93.5283H75.3516V69.334H85.0962C87.1437 69.334 88.8878 69.6575 90.3287 70.3045C91.7695 70.9516 92.8438 71.8412 93.5516 72.9735C94.2847 74.1058 94.6512 75.3883 94.6512 76.821ZM84.8687 80.3219C86.3348 80.3219 87.4217 80.0215 88.1295 79.4207C88.8373 78.7968 89.1912 77.9302 89.1912 76.821C89.1912 74.464 87.7503 73.2855 84.8687 73.2855H80.6599V80.3219H84.8687Z"
          fill="url(#paint9_linear)"/>
    <path d="M86.2466 93.7709C85.2861 93.7709 84.4898 93.5052 83.8579 92.9737C83.2512 92.4191 82.9479 91.7374 82.9479 90.9286C82.9479 90.1198 83.2512 89.4497 83.8579 88.9182C84.4898 88.3636 85.2861 88.0863 86.2466 88.0863C87.1819 88.0863 87.9529 88.3636 88.5595 88.9182C89.1662 89.4497 89.4695 90.1198 89.4695 90.9286C89.4695 91.7374 89.1662 92.4191 88.5595 92.9737C87.9529 93.5052 87.1819 93.7709 86.2466 93.7709Z"
          fill="url(#paint10_linear)"/>
    <defs>
        <linearGradient id="paint0_linear" x1="0.198643" y1="81.3612" x2="164.933" y2="81.3612"
                        gradientUnits="userSpaceOnUse">
            <stop offset="0.00289017" stop-color="#FFD44F"/>
            <stop offset="1" stop-color="#FFA607"/>
        </linearGradient>
        <linearGradient id="paint1_linear" x1="79.0409" y1="82.1265" x2="116.466" y2="120.02"
                        gradientUnits="userSpaceOnUse">
            <stop stop-color="#FAA404"/>
            <stop offset="1" stop-color="#FF7904" stop-opacity="0"/>
        </linearGradient>
        <linearGradient id="paint2_linear" x1="109.193" y1="121.744" x2="58.4689" y2="57.2429"
                        gradientUnits="userSpaceOnUse">
            <stop stop-color="#FFE491"/>
            <stop offset="1" stop-color="white"/>
        </linearGradient>
        <linearGradient id="paint3_linear" x1="5.96367" y1="81.1589" x2="159.122" y2="81.1589"
                        gradientUnits="userSpaceOnUse">
            <stop offset="0.00289017" stop-color="#FFD44F"/>
            <stop offset="1" stop-color="#FFA607"/>
        </linearGradient>
        <linearGradient id="paint4_linear" x1="50.4699" y1="81.3655" x2="114.562" y2="81.3655"
                        gradientUnits="userSpaceOnUse">
            <stop offset="0.00289017" stop-color="#FFD44F"/>
            <stop offset="1" stop-color="#FFA607"/>
        </linearGradient>
        <linearGradient id="paint5_linear" x1="81.1385" y1="81.663" x2="95.6992" y2="96.406"
                        gradientUnits="userSpaceOnUse">
            <stop stop-color="#FAA404"/>
            <stop offset="1" stop-color="#FF7904" stop-opacity="0"/>
        </linearGradient>
        <linearGradient id="paint6_linear" x1="92.8701" y1="97.0764" x2="73.1353" y2="71.9814"
                        gradientUnits="userSpaceOnUse">
            <stop stop-color="#FFE491"/>
            <stop offset="1" stop-color="white"/>
        </linearGradient>
        <linearGradient id="paint7_linear" x1="52.7014" y1="81.2859" x2="112.289" y2="81.2859"
                        gradientUnits="userSpaceOnUse">
            <stop offset="0.00289017" stop-color="#FFD44F"/>
            <stop offset="1" stop-color="#FFA607"/>
        </linearGradient>
        <linearGradient id="paint8_linear" x1="83.3252" y1="82.0181" x2="95.8045" y2="94.834"
                        gradientUnits="userSpaceOnUse">
            <stop stop-color="#FAA404"/>
            <stop offset="1" stop-color="#FF7904" stop-opacity="0"/>
        </linearGradient>
        <linearGradient id="paint9_linear" x1="93.1077" y1="89.3446" x2="80.2176" y2="72.6862"
                        gradientUnits="userSpaceOnUse">
            <stop stop-color="#FFE491"/>
            <stop offset="1" stop-color="white"/>
        </linearGradient>
        <linearGradient id="paint10_linear" x1="93.1077" y1="89.3446" x2="80.2176" y2="72.6862"
                        gradientUnits="userSpaceOnUse">
            <stop stop-color="#FFE491"/>
            <stop offset="1" stop-color="white"/>
        </linearGradient>
    </defs>
</svg>
