<svg width="321" height="318" viewBox="0 0 321 318" fill="none" xmlns="http://www.w3.org/2000/svg">
    <path d="M59.7227 77.4799C62.3945 76.6058 63.8564 73.7171 62.988 71.0278C62.1196 68.3385 59.2497 66.8669 56.5779 67.741C53.9061 68.6151 52.4442 71.5038 53.3126 74.1932C54.181 76.8825 57.0509 78.354 59.7227 77.4799Z"
          fill="#EAEEF9"/>
    <path d="M25.8766 93.8417C28.5484 92.9676 30.0103 90.0789 29.1419 87.3896C28.2735 84.7003 25.4036 83.2288 22.7318 84.1029C20.06 84.977 18.598 87.8657 19.4665 90.555C20.3349 93.2443 23.2048 94.7158 25.8766 93.8417Z"
          fill="#EAEEF9"/>
    <path d="M298.649 56.0806C300.816 56.0806 302.573 54.2985 302.573 52.1001C302.573 49.9018 300.816 48.1196 298.649 48.1196C296.482 48.1196 294.725 49.9018 294.725 52.1001C294.725 54.2985 296.482 56.0806 298.649 56.0806Z"
          fill="url(#paint0_linear)"/>
    <path d="M36.5486 231.522C38.1485 230.039 38.2603 227.521 36.7982 225.898C35.3361 224.276 32.8538 224.162 31.2539 225.645C29.6539 227.128 29.5422 229.646 31.0043 231.269C32.4664 232.892 34.9486 233.005 36.5486 231.522Z"
          fill="#FFBE2C"/>
    <path d="M153.602 72.7814C155.202 71.2984 155.314 68.7806 153.852 67.1578C152.39 65.5349 149.908 65.4216 148.308 66.9046C146.708 68.3876 146.596 70.9054 148.058 72.5282C149.52 74.1511 152.002 74.2644 153.602 72.7814Z"
          fill="#32D697"/>
    <path d="M299.892 271.05C301.492 269.567 301.604 267.049 300.141 265.426C298.679 263.803 296.197 263.69 294.597 265.173C292.997 266.656 292.885 269.174 294.348 270.797C295.81 272.42 298.292 272.533 299.892 271.05Z"
          fill="#32D697"/>
    <path d="M160.094 36.6445V87.915C160.094 92.3733 157.5 96.8316 153.794 99.0608L114.511 121.724C112.288 123.21 109.323 123.953 106.729 123.953V60.0506L158.241 30.3286C159.723 32.1862 160.094 34.4154 160.094 36.6445Z"
          fill="#DBDFE6"/>
    <path d="M106.73 60.0506V123.953C104.136 123.953 101.542 123.21 98.9479 121.724L59.6653 99.0608C55.5888 96.8316 53.3652 92.7449 53.3652 87.915V36.6445C53.3652 34.4154 54.1064 32.1862 55.2182 30.3286L106.73 60.0506Z"
          fill="#EAEEF9"/>
    <path d="M158.243 30.327L106.731 60.0491L55.2188 29.9555C56.3305 28.0979 57.8129 26.2403 60.0364 25.1257L100.06 2.0911C103.766 -0.138048 108.584 -0.138048 112.66 1.71958L154.166 25.8687C154.166 25.8687 154.166 25.8687 154.537 25.8687C156.019 26.9833 157.502 28.4694 158.243 30.327Z"
          fill="#F3F6FA"/>
    <path d="M266.828 36.645V87.9155C266.828 92.3738 264.234 96.8321 260.528 99.0613L221.245 121.724C219.022 123.21 216.057 123.953 213.463 123.953V60.0511L264.975 30.3291C266.457 32.1867 266.828 34.4159 266.828 36.645Z"
          fill="#DBDFE6"/>
    <path d="M213.461 60.0511V123.953C210.867 123.953 208.273 123.21 205.679 121.724L166.767 99.0613C162.69 96.8321 160.467 92.7454 160.467 87.9155V36.645C160.467 34.4159 161.208 32.1867 162.32 30.3291L213.461 60.0511Z"
          fill="#EAEEF9"/>
    <path d="M265.345 30.3289L213.832 60.051L161.95 29.9574C163.061 28.0998 164.544 26.2421 166.767 25.1276L207.162 1.72148C210.868 -0.507677 215.685 -0.507677 219.762 1.34995L261.268 25.4991C261.268 25.4991 261.268 25.4991 261.639 25.4991C262.75 26.9852 264.233 28.4713 265.345 30.3289Z"
          fill="#F3F6FA"/>
    <path d="M160.467 230.583V281.854C160.467 286.312 157.872 290.77 154.167 292.999L114.884 315.662C112.66 317.148 109.696 317.891 107.102 317.891V253.989L158.614 224.267C159.725 226.125 160.467 228.354 160.467 230.583Z"
          fill="#DBDFE6"/>
    <path d="M107.103 253.989V317.891C104.509 317.891 101.915 317.148 99.3205 315.662L60.0378 292.999C55.9613 290.77 53.7378 286.683 53.7378 281.854V230.583C53.7378 228.354 54.479 226.125 55.5907 224.267L107.103 253.989Z"
          fill="#EAEEF9"/>
    <path d="M158.616 224.267L107.103 253.989L55.2207 223.895C56.3325 222.038 57.8148 220.18 60.0384 219.066L100.433 195.659C104.139 193.43 108.956 193.43 113.033 195.288L154.539 219.437C154.539 219.437 154.539 219.437 154.91 219.437C156.392 220.923 157.874 222.409 158.616 224.267Z"
          fill="#F3F6FA"/>
    <path d="M267.196 230.583V281.854C267.196 286.312 264.601 290.77 260.896 292.999L221.613 315.662C219.389 317.148 216.425 317.891 213.831 317.891V253.989L265.343 224.267C266.454 226.125 267.196 228.354 267.196 230.583Z"
          fill="#DBDFE6"/>
    <path d="M213.832 253.989V317.891C211.238 317.891 208.644 317.148 206.049 315.662L166.767 292.999C162.69 290.77 160.467 286.683 160.467 281.854V230.583C160.467 228.354 161.208 226.125 162.32 224.267L213.832 253.989Z"
          fill="#EAEEF9"/>
    <path d="M265.345 224.267L213.832 253.989L161.95 223.895C163.061 222.038 164.544 220.18 166.767 219.066L207.162 195.659C210.868 193.43 215.685 193.43 219.762 195.288L261.268 219.437C261.268 219.437 261.268 219.437 261.639 219.437C263.121 220.923 264.603 222.409 265.345 224.267Z"
          fill="#F3F6FA"/>
    <path d="M106.729 133.611V184.881C106.729 189.34 104.135 193.798 100.429 196.027L61.1462 218.69C58.9226 220.176 55.9579 220.919 53.3638 220.919V157.017L104.876 127.295C106.358 129.153 106.729 131.382 106.729 133.611Z"
          fill="#DBDFE6"/>
    <path d="M53.3651 157.017V220.919C50.7709 220.919 48.1768 220.176 45.5827 218.69L6.30004 196.027C2.22354 193.798 0 189.711 0 184.881V133.611C0 131.382 0.741181 129.153 1.85295 127.295L53.3651 157.017Z"
          fill="#EAEEF9"/>
    <path d="M105.248 127.295L53.7362 157.017L1.85352 126.923C2.96529 125.066 4.44765 123.208 6.6712 122.093L47.0656 98.6873C50.7715 96.4581 55.5892 96.4581 59.6657 98.3158L100.801 122.836C100.801 122.836 100.801 122.836 101.172 122.836C102.654 123.951 104.137 125.437 105.248 127.295Z"
          fill="#F3F6FA"/>
    <path d="M320.556 133.612V184.882C320.556 189.341 317.962 193.799 314.256 196.028L274.974 218.691C272.75 220.177 269.786 220.92 267.191 220.92V157.018L318.704 127.296C319.815 129.154 320.556 131.383 320.556 133.612Z"
          fill="#DBDFE6"/>
    <path d="M267.193 157.018V220.92C264.599 220.92 262.004 220.177 259.41 218.691L220.128 196.028C216.051 193.799 213.828 189.712 213.828 184.882V133.612C213.828 131.383 214.569 129.154 215.681 127.296L267.193 157.018Z"
          fill="#EAEEF9"/>
    <path d="M318.705 127.296L267.193 157.018L215.311 126.924C216.422 125.067 217.905 123.209 220.128 122.094L260.523 98.6883C264.229 96.4591 269.046 96.4591 273.123 98.3167L314.258 122.837C314.258 122.837 314.258 122.837 314.629 122.837C316.482 123.952 317.594 125.438 318.705 127.296Z"
          fill="#F3F6FA"/>
    <path d="M219.992 169.913C219.031 174.398 217.71 178.641 215.789 182.641C215.429 183.49 215.068 184.338 214.588 185.187C213.027 188.217 211.226 191.127 209.184 193.915C208.343 195.006 207.503 196.097 206.662 197.067C201.618 203.007 195.374 207.855 188.408 211.371C187.207 211.977 185.766 212.583 184.445 213.189C182.284 214.159 180.002 214.886 177.6 215.614C168.593 218.28 158.866 218.765 149.139 216.704C116.835 209.916 96.0588 178.035 102.784 145.305C109.509 112.696 141.093 91.7241 173.517 98.5125C184.926 100.937 195.374 106.634 203.66 114.878C217.951 129.303 224.075 150.033 219.992 169.913Z"
          fill="url(#paint1_linear)"/>
    <path d="M161.386 208.582C157.903 208.582 154.541 208.219 151.178 207.491C123.917 201.794 106.384 174.761 112.029 147.244C114.791 133.909 122.476 122.514 133.765 114.998C145.053 107.483 158.504 104.937 171.714 107.725C181.321 109.786 190.087 114.513 197.173 121.544C209.302 133.667 214.466 151.002 210.863 167.973C210.142 171.731 208.942 175.367 207.38 178.762C207.14 179.368 206.78 180.216 206.42 180.943C205.099 183.489 203.537 186.035 201.856 188.217C201.136 189.065 200.535 190.035 199.815 190.884C195.491 195.975 190.327 199.975 184.443 203.006C183.362 203.491 182.281 204.097 181.201 204.582C179.039 205.551 177.238 206.158 175.436 206.643C170.753 207.855 166.069 208.582 161.386 208.582ZM161.386 111.12C152.499 111.12 143.853 113.665 136.287 118.756C125.959 125.545 118.994 135.97 116.472 148.093C111.308 173.186 127.28 197.793 152.139 203.006C159.344 204.582 166.91 204.218 173.995 202.157C175.676 201.672 177.358 201.187 179.279 200.339C180.24 199.854 181.321 199.369 182.282 198.885C187.686 196.096 192.369 192.46 196.332 187.853C196.933 187.126 197.653 186.277 198.253 185.429C199.815 183.368 201.256 181.065 202.337 178.762C202.697 178.155 202.937 177.549 203.177 176.822C204.618 173.67 205.699 170.397 206.42 166.882C209.662 151.487 204.979 135.727 193.93 124.575C187.566 118.15 179.519 113.786 170.753 111.968C167.63 111.483 164.508 111.12 161.386 111.12Z"
          fill="#F9B400"/>
    <path d="M214.207 185.781C212.766 188.569 211.085 191.357 209.283 193.903C208.443 194.994 207.602 196.085 206.762 197.055C201.718 202.995 195.473 207.843 188.508 211.359C187.307 211.965 185.866 212.571 184.545 213.177C182.383 214.147 180.102 214.874 177.7 215.602L140.352 177.902L152.241 171.598L153.682 168.689L154.042 162.87C154.042 162.87 153.562 141.535 153.081 140.929C152.961 140.686 156.684 127.109 156.684 127.109L160.887 136.686L166.171 127.109L217.33 178.75C217.209 179.841 214.567 184.932 214.207 185.781Z"
          fill="url(#paint2_linear)"/>
    <path d="M156.929 187.963C155.007 187.963 153.086 187.963 151.165 187.963C151.165 184.811 151.165 181.538 151.165 178.387C147.562 178.023 143.959 178.144 140.236 178.144C141.077 173.659 141.077 173.295 141.317 171.962C141.317 171.598 141.557 171.477 141.918 171.477C142.998 171.477 144.199 171.477 145.28 171.477C147.202 171.477 147.442 170.992 147.442 169.537C147.442 161.658 147.442 153.9 147.442 146.02C147.442 143.717 146.001 142.868 144.319 142.868C142.998 142.868 141.798 142.868 140.477 142.868C140.477 140.929 140.477 139.111 140.477 137.171C142.518 137.171 146.601 137.171 150.444 137.171C151.165 137.171 151.165 137.171 151.165 136.565C151.165 134.504 151.165 129.413 151.165 127.352C153.086 127.352 155.007 127.352 156.929 127.352C156.929 130.504 156.929 133.777 156.929 136.929C158.37 136.929 159.811 136.929 161.132 136.929C161.132 133.656 161.132 130.504 161.132 127.352C162.933 127.352 164.615 127.352 166.416 127.352C166.536 128.322 166.416 136.201 166.416 136.686C166.416 137.05 166.536 137.171 166.896 137.292C173.501 138.141 178.905 140.202 179.386 146.748C179.506 149.051 179.266 151.233 177.945 153.051C176.984 154.385 175.783 155.112 174.943 155.597C176.624 156.203 180.827 157.294 182.268 161.779C182.868 163.598 182.868 165.416 182.628 167.234C182.388 169.174 181.668 170.992 180.587 172.689C179.266 174.75 177.344 175.841 175.183 176.69C172.541 177.659 169.779 178.144 167.017 178.265C166.536 178.265 166.416 178.387 166.416 178.872C166.416 181.66 166.416 184.205 166.416 187.963C164.615 187.963 162.933 187.963 161.132 187.963C161.132 184.811 161.132 181.66 161.132 178.508C159.691 178.508 158.25 178.508 156.929 178.508C156.929 181.66 156.929 184.811 156.929 187.963ZM156.929 159.84C156.929 163.84 156.929 167.719 156.929 171.841C162.693 171.598 165.816 171.841 169.058 170.144C170.739 169.295 171.7 167.962 171.82 166.143C171.94 164.082 171.1 162.507 169.418 161.416C166.296 159.355 160.412 159.597 157.049 159.718L156.929 159.84ZM156.929 143.475C156.929 147.111 156.929 150.748 156.929 154.385C159.091 154.627 163.294 154.263 165.215 153.779C170.98 152.203 170.139 146.141 166.656 144.687C163.054 142.99 159.691 143.353 156.929 143.475Z"
          fill="url(#paint3_linear)"/>
    <path d="M215.773 168.666C214.908 172.751 213.612 176.622 211.883 180.277C211.667 181.137 211.235 181.783 210.803 182.643C209.29 185.438 207.778 188.019 205.833 190.6C204.969 191.675 204.321 192.535 203.457 193.395C198.703 198.771 192.869 203.287 186.603 206.512C185.522 207.157 184.226 207.587 182.929 208.232C180.769 209.092 178.824 209.737 176.663 210.382C168.236 212.748 159.377 213.178 150.086 211.458C120.051 205.222 100.821 175.977 106.871 146.087C113.137 116.197 142.523 97.0584 172.558 103.079C183.145 105.23 192.869 110.606 200.647 118.132C214.044 131.464 219.662 150.387 215.773 168.666Z"
          fill="url(#paint4_linear)"/>
    <path d="M161.974 203.718C158.733 203.718 155.492 203.288 152.467 202.643C127.186 197.482 110.765 172.538 116.167 147.378C118.759 135.121 125.89 124.584 136.262 117.918C146.633 111.037 159.166 108.672 171.482 111.253C180.341 113.188 188.551 117.488 195.034 123.939C206.27 135.121 211.024 151.034 207.782 166.516C207.134 169.957 206.054 173.398 204.541 176.408C204.325 177.053 203.893 177.698 203.677 178.343C202.38 180.709 201.084 182.859 199.355 185.01C198.707 185.87 198.059 186.73 197.411 187.375C193.305 192.106 188.551 195.761 183.15 198.557C182.069 198.987 181.205 199.632 180.125 200.062C178.18 200.922 176.452 201.567 174.723 201.997C170.617 203.072 166.296 203.718 161.974 203.718ZM161.974 114.478C153.763 114.478 145.769 116.843 138.639 121.359C129.131 127.595 122.649 137.056 120.272 148.238C115.519 171.247 130.428 193.826 153.548 198.557C160.246 200.062 167.376 199.632 173.858 197.912C175.371 197.482 176.883 197.052 178.828 196.192C179.692 195.762 180.773 195.332 181.637 194.902C186.607 192.321 190.928 188.88 194.602 184.794C195.25 184.149 195.898 183.289 196.33 182.644C197.843 180.709 199.139 178.774 200.22 176.623C200.436 175.978 200.868 175.548 201.084 174.902C202.38 171.892 203.46 168.882 204.109 165.872C207.134 151.679 202.812 137.272 192.441 127.165C186.607 121.359 179.044 117.274 170.833 115.553C167.808 114.693 164.783 114.478 161.974 114.478Z"
          fill="#F9B400"/>
    <path d="M210.991 181.977C209.695 184.557 208.182 187.138 206.454 189.503C205.59 190.578 204.941 191.439 204.077 192.299C199.323 197.675 194.57 202.621 188.088 205.846C187.007 206.491 185.711 207.136 184.414 207.566C182.253 208.427 182.037 209.072 179.877 209.502L148.118 180.558L154.787 177.733H150.59C150.59 177.733 161.681 181.617 151.296 175.526C161.054 181.249 157.651 163.258 157.651 163.258L179.187 155.138L180.599 140.31L214.016 175.526C213.8 176.601 211.424 181.332 210.991 181.977Z"
          fill="url(#paint5_linear)"/>
    <path d="M184.128 148.939C184.128 151.407 183.491 153.721 182.217 155.88C180.991 158.039 179.034 159.78 176.345 161.102C173.704 162.424 170.355 163.085 166.299 163.085H158.021V180.801H148.116V134.661H166.299C170.119 134.661 173.374 135.278 176.062 136.512C178.751 137.745 180.755 139.442 182.076 141.602C183.444 143.761 184.128 146.207 184.128 148.939ZM165.874 155.616C168.61 155.616 170.638 155.043 171.959 153.897C173.279 152.707 173.94 151.054 173.94 148.939C173.94 144.444 171.251 142.196 165.874 142.196H158.021V155.616H165.874Z"
          fill="url(#paint6_linear)"/>
    <path d="M168.446 181.264C166.653 181.264 165.167 180.757 163.988 179.743C162.856 178.686 162.29 177.386 162.29 175.843C162.29 174.301 162.856 173.023 163.988 172.009C165.167 170.952 166.653 170.423 168.446 170.423C170.191 170.423 171.629 170.952 172.761 172.009C173.893 173.023 174.459 174.301 174.459 175.843C174.459 177.386 173.893 178.686 172.761 179.743C171.629 180.757 170.191 181.264 168.446 181.264Z"
          fill="url(#paint7_linear)"/>
    <defs>
        <linearGradient id="paint0_linear" x1="294.852" y1="52.0439" x2="302.465" y2="52.0439"
                        gradientUnits="userSpaceOnUse">
            <stop offset="0.00289017" stop-color="#FFD44F"/>
            <stop offset="1" stop-color="#FFA607"/>
        </linearGradient>
        <linearGradient id="paint1_linear" x1="101.664" y1="157.604" x2="221.254" y2="157.604"
                        gradientUnits="userSpaceOnUse">
            <stop offset="0.00289017" stop-color="#FFD44F"/>
            <stop offset="1" stop-color="#FFA607"/>
        </linearGradient>
        <linearGradient id="paint2_linear" x1="158.897" y1="158.172" x2="186.667" y2="185.682"
                        gradientUnits="userSpaceOnUse">
            <stop stop-color="#FAA404"/>
            <stop offset="1" stop-color="#FF7904" stop-opacity="0"/>
        </linearGradient>
        <linearGradient id="paint3_linear" x1="180.789" y1="187.567" x2="142.968" y2="140.511"
                        gradientUnits="userSpaceOnUse">
            <stop stop-color="#FFE491"/>
            <stop offset="1" stop-color="white"/>
        </linearGradient>
        <linearGradient id="paint4_linear" x1="105.843" y1="157.455" x2="217.029" y2="157.455"
                        gradientUnits="userSpaceOnUse">
            <stop offset="0.00289017" stop-color="#FFD44F"/>
            <stop offset="1" stop-color="#FFA607"/>
        </linearGradient>
        <linearGradient id="paint5_linear" x1="162.978" y1="158.851" x2="186.785" y2="182.772"
                        gradientUnits="userSpaceOnUse">
            <stop stop-color="#FAA404"/>
            <stop offset="1" stop-color="#FF7904" stop-opacity="0"/>
        </linearGradient>
        <linearGradient id="paint6_linear" x1="181.248" y1="172.823" x2="156.536" y2="141.576"
                        gradientUnits="userSpaceOnUse">
            <stop stop-color="#FFE491"/>
            <stop offset="1" stop-color="white"/>
        </linearGradient>
        <linearGradient id="paint7_linear" x1="181.248" y1="172.823" x2="156.536" y2="141.576"
                        gradientUnits="userSpaceOnUse">
            <stop stop-color="#FFE491"/>
            <stop offset="1" stop-color="white"/>
        </linearGradient>
    </defs>
</svg>
