<svg width="25" height="25" viewBox="0 0 25 25" fill="none" xmlns="http://www.w3.org/2000/svg">
<rect opacity="0.11" width="24.8755" height="24.8755" rx="6" fill="url(#paint0_linear_515_1276)"/>
<path d="M11.9989 10.4285C11.7622 10.4285 11.5703 10.6203 11.5703 10.857V12.7011C11.5703 13.4196 11.9426 14.0867 12.554 14.464L13.9199 15.3068C14.1074 15.4225 14.3529 15.3689 14.4751 15.1855V15.1855C14.6047 14.9911 14.5455 14.7279 14.3452 14.6077L13.2288 13.9379C12.7317 13.6396 12.4275 13.1023 12.4275 12.5225V10.857C12.4275 10.6203 12.2356 10.4285 11.9989 10.4285V10.4285Z" fill="#CEAEFE"/>
<path d="M16.6709 12.7143C16.369 12.7143 16.1429 12.9837 16.1429 13.2857V13.2857C16.1429 15.5143 14.3714 17.2857 12.1429 17.2857C9.91429 17.2857 8.14286 15.5143 8.14286 13.2857C8.14286 11.0571 9.91429 9.28568 12.1429 9.28568C12.2842 9.28568 12.4234 9.29282 12.5603 9.30684C12.9273 9.34445 13.2857 9.07956 13.2857 8.71055V8.71055C13.2857 8.45496 13.1101 8.22976 12.8571 8.19352C12.6242 8.16017 12.3857 8.14282 12.1429 8.14282C9.28571 8.14282 7 10.4285 7 13.2857C7 16.1428 9.28571 18.4285 12.1429 18.4285C15 18.4285 17.2857 16.1428 17.2857 13.2857C17.2857 13.261 17.2855 13.2365 17.2852 13.212C17.2809 12.9272 17.0372 12.7143 16.7523 12.7143H16.6709Z" fill="#CEAEFE"/>
<path d="M18.144 8.71429C17.6706 8.71429 17.2868 8.33053 17.2868 7.85714V7.57143C17.2868 7.25584 17.031 7 16.7154 7V7C16.3998 7 16.144 7.25584 16.144 7.57143V7.85714C16.144 8.33053 15.7602 8.71429 15.2868 8.71429H15.0011C14.6855 8.71429 14.4297 8.97012 14.4297 9.28571V9.28571C14.4297 9.60131 14.6855 9.85714 15.0011 9.85714H15.2868C15.7602 9.85714 16.144 10.2409 16.144 10.7143V11C16.144 11.3156 16.3998 11.5714 16.7154 11.5714V11.5714C17.031 11.5714 17.2868 11.3156 17.2868 11V10.7143C17.2868 10.2409 17.6706 9.85714 18.144 9.85714H18.4297C18.7453 9.85714 19.0011 9.60131 19.0011 9.28571V9.28571C19.0011 8.97012 18.7453 8.71429 18.4297 8.71429H18.144Z" fill="#CEAEFE"/>
<defs>
<linearGradient id="paint0_linear_515_1276" x1="-4.69128e-08" y1="12.4377" x2="37.2639" y2="15.6792" gradientUnits="userSpaceOnUse">
<stop stop-color="#7028E4"/>
<stop offset="1" stop-color="#E5B2CA"/>
</linearGradient>
</defs>
</svg>
