<svg width="28" height="28" viewBox="0 0 28 28" fill="none" xmlns="http://www.w3.org/2000/svg">
    <rect opacity="0.11" width="28" height="28" rx="2.85246" fill="url(#paint0_linear)"/>
    <path d="M10.9099 9.26897C11.3898 9.74889 11.3898 10.527 10.9099 11.0069L9.48568 12.4311C9.23572 12.6811 9.31691 13.1256 9.62384 13.301V13.301C9.94536 13.5008 10.1365 13.6138 10.6231 13.6138C11.1098 13.6138 11.3009 13.5008 11.6225 13.301C12.0222 13.0663 12.5609 12.7448 13.5255 12.7448C14.49 12.7448 15.0288 13.0663 15.4198 13.301C15.7414 13.4921 15.9412 13.6138 16.4191 13.6138C16.8971 13.6138 17.0969 13.5008 17.4185 13.301V13.301C17.594 13.1986 17.6294 12.956 17.4856 12.8125L12.196 7.53104C11.0895 6.4246 10.0535 5.95733 8.51455 5.83057C7.91882 5.7815 7.43404 6.27641 7.43404 6.87416V6.87416C7.43404 7.47593 7.92702 7.9451 8.5225 8.03187C9.48928 8.17275 10.1899 8.54897 10.9099 9.26897V9.26897ZM22.2065 17.5241H22.1891H22.2065ZM7.73818 16.6552C8.21611 16.6552 8.41598 16.7768 8.73749 16.968C9.12853 17.2026 9.66729 17.5241 10.6318 17.5241C11.5964 17.5241 12.1351 17.2026 12.5262 16.968C12.8477 16.7681 13.0389 16.6552 13.5255 16.6552C14.0034 16.6552 14.2033 16.7768 14.5248 16.968C14.9158 17.2026 15.4546 17.5241 16.4191 17.5241C17.3837 17.5241 17.9225 17.2026 18.3135 16.968C18.635 16.7681 18.8262 16.6552 19.3128 16.6552C19.7907 16.6552 19.9906 16.7768 20.3121 16.968C20.5653 17.1199 20.8768 17.3047 21.3245 17.4184C21.7905 17.5367 22.1891 17.132 22.1891 16.6512V16.6512C22.1891 16.1735 21.7788 15.8085 21.3624 15.5743C21.3074 15.5434 21.2508 15.5097 21.1898 15.4734C20.7987 15.2388 20.26 14.9172 19.2954 14.9172C18.3309 14.9172 17.7921 15.2388 17.4011 15.4734C17.0796 15.6732 16.8797 15.7862 16.4018 15.7862C15.9238 15.7862 15.724 15.6646 15.4025 15.4734C15.0114 15.2388 14.4727 14.9172 13.5081 14.9172C12.5436 14.9172 12.0048 15.2388 11.6138 15.4734C11.2923 15.6732 11.1011 15.7862 10.6145 15.7862C10.1365 15.7862 9.93667 15.6646 9.61515 15.4734C9.22411 15.2388 8.68536 14.9172 7.7208 14.9172C6.75625 14.9172 6.21749 15.2388 5.82646 15.4734C5.76657 15.5106 5.71121 15.5448 5.65762 15.5758C5.24229 15.8163 4.82715 16.1753 4.82715 16.6552V16.6552C4.82715 17.1351 5.22245 17.5402 5.68842 17.4254C6.14927 17.3118 6.47192 17.1214 6.73887 16.968C7.06039 16.7681 7.26025 16.6552 7.73818 16.6552ZM19.3128 18.8276C18.3483 18.8276 17.8095 19.1491 17.4185 19.3837C17.0969 19.5836 16.8971 19.6966 16.4191 19.6966C15.9412 19.6966 15.7414 19.5749 15.4198 19.3837C15.0288 19.1491 14.49 18.8276 13.5255 18.8276C12.5609 18.8276 12.0222 19.1491 11.6225 19.3837C11.3009 19.5836 11.1098 19.6966 10.6231 19.6966C10.1365 19.6966 9.94536 19.5836 9.62384 19.3837C9.2328 19.1491 8.69405 18.8276 7.72949 18.8276C6.76494 18.8276 6.22618 19.1491 5.82646 19.3837C5.76657 19.421 5.71121 19.4552 5.65762 19.4862C5.24229 19.7267 4.82715 20.0856 4.82715 20.5655V20.5655C4.82715 21.0454 5.22249 21.4507 5.68841 21.3357C6.14839 21.2221 6.46897 21.0317 6.73018 20.8783C7.0517 20.6785 7.25156 20.5655 7.72949 20.5655C8.20742 20.5655 8.40729 20.6785 8.7288 20.8783C9.11984 21.113 9.6586 21.4345 10.6231 21.4345C11.5877 21.4345 12.1265 21.113 12.5262 20.8783C12.8477 20.6785 13.0389 20.5655 13.5255 20.5655C14.0034 20.5655 14.2033 20.6872 14.5248 20.8783C14.9158 21.113 15.4546 21.4345 16.4191 21.4345C17.3837 21.4345 17.9138 21.113 18.3135 20.8783C18.635 20.6785 18.8262 20.5655 19.3128 20.5655C19.7907 20.5655 19.9906 20.6872 20.3121 20.8783C20.5676 21.0316 20.8861 21.222 21.3452 21.3356C21.8111 21.4508 22.2065 21.0454 22.2065 20.5655V20.5655C22.2065 20.0856 21.7913 19.7267 21.376 19.4862C21.3224 19.4552 21.267 19.421 21.2071 19.3837C20.8161 19.1491 20.2774 18.8276 19.3128 18.8276Z"
          fill="url(#paint1_linear)"/>
    <path d="M17.4273 10.1378C18.6271 10.1378 19.5997 9.16517 19.5997 7.96538C19.5997 6.76559 18.6271 5.79297 17.4273 5.79297C16.2275 5.79297 15.2549 6.76559 15.2549 7.96538C15.2549 9.16517 16.2275 10.1378 17.4273 10.1378Z"
          fill="url(#paint2_linear)"/>
    <defs>
        <linearGradient id="paint0_linear" x1="-5.28053e-08" y1="14" x2="41.9444" y2="17.6486"
                        gradientUnits="userSpaceOnUse">
            <stop stop-color="#7028E4"/>
            <stop offset="1" stop-color="#E5B2CA"/>
        </linearGradient>
        <linearGradient id="paint1_linear" x1="4.82715" y1="13.6137" x2="22.2065" y2="13.6137"
                        gradientUnits="userSpaceOnUse">
            <stop stop-color="#7028E4"/>
            <stop offset="1" stop-color="#E5B2CA"/>
        </linearGradient>
        <linearGradient id="paint2_linear" x1="15.2549" y1="7.96538" x2="19.5997" y2="7.96538"
                        gradientUnits="userSpaceOnUse">
            <stop stop-color="#7028E4"/>
            <stop offset="1" stop-color="#E5B2CA"/>
        </linearGradient>
    </defs>
</svg>
