<svg width="44" height="44" viewBox="0 0 44 44" fill="none" xmlns="http://www.w3.org/2000/svg">
    <defs>
        <linearGradient id="telegram-icon-bg-gradient">
            <stop offset="0" class="start-color"/>
            <stop offset="1" class="end-color"/>
        </linearGradient>
    </defs>
    <path id="telegram-icon-bg"
          d="M35.75 44H8.25C3.69325 44 0 40.3068 0 35.75V8.25C0 3.69325 3.69325 0 8.25 0H35.75C40.3068 0 44 3.69325 44 8.25V35.75C44 40.3068 40.3068 44 35.75 44Z"
          />
    <path id="Vector_2"
          d="M12.5746 20.7231L31.5535 13.4055C32.4343 13.0872 33.2036 13.6204 32.9182 14.9523L32.9199 14.9507L29.6884 30.1748C29.4489 31.2541 28.8075 31.5166 27.9102 31.0081L22.9892 27.3813L20.6156 29.6679C20.3531 29.9304 20.1317 30.1518 19.6232 30.1518L19.9726 25.1438L29.0929 16.9043C29.4899 16.555 29.0043 16.3581 28.4811 16.7059L17.2102 23.802L12.3515 22.2863C11.2968 21.9517 11.2738 21.2316 12.5746 20.7231Z"
          class="icon-fill-themed"/>
</svg>
