<svg width="28" height="28" viewBox="0 0 28 28" fill="none" xmlns="http://www.w3.org/2000/svg">
    <rect opacity="0.11" x="0.441406" y="0.810547" width="26.8113" height="26.8113" rx="6.46691"
          fill="url(#paint0_linear)"/>
    <path d="M18.9705 13.9037C17.8561 11.0076 13.8882 10.8514 14.8464 6.64218C14.9174 6.32986 14.5838 6.08852 14.3141 6.25178C11.7374 7.77081 9.88476 10.816 11.4393 14.8052C11.567 15.1317 11.1837 15.4369 10.9069 15.224C9.62212 14.2515 9.48725 12.8532 9.60083 11.8523C9.64341 11.4832 9.16073 11.3057 8.95488 11.611C8.4722 12.3492 7.98242 13.5417 7.98242 15.3375C8.25216 19.3126 11.6096 20.5335 12.8163 20.6896C14.5412 20.9097 16.4081 20.5903 17.7496 19.3623C19.2261 17.9923 19.7655 15.806 18.9705 13.9037ZM14.6811 18.1407C13.6902 18.3913 13.8556 16.8332 14.0727 15.8344C14.3053 14.8267 15.7313 14.2021 16.1693 15.1389C16.27 15.3543 16.33 15.5819 16.33 15.8273C16.364 16.9038 15.6788 17.8885 14.6811 18.1407Z"
          fill="url(#paint1_linear)"/>
    <defs>
        <linearGradient id="paint0_linear" x1="0.441406" y1="14.2162" x2="40.6051" y2="17.7098"
                        gradientUnits="userSpaceOnUse">
            <stop stop-color="#7028E4"/>
            <stop offset="1" stop-color="#E5B2CA"/>
        </linearGradient>
        <linearGradient id="paint1_linear" x1="7.98242" y1="13.4767" x2="19.337" y2="13.4767"
                        gradientUnits="userSpaceOnUse">
            <stop stop-color="#7028E4"/>
            <stop offset="1" stop-color="#E5B2CA"/>
        </linearGradient>
    </defs>
</svg>
