<svg width="25" height="25" viewBox="0 0 25 25" fill="none" xmlns="http://www.w3.org/2000/svg">
<rect opacity="0.11" width="24.8755" height="24.8755" rx="6" fill="url(#paint0_linear_515_1289)"/>
<path d="M17.1948 12.1482C16.1608 9.46123 12.4794 9.31634 13.3684 5.41098C13.4343 5.12121 13.1248 4.89729 12.8745 5.04877C10.4839 6.45812 8.76498 9.28341 10.2073 12.9846C10.3258 13.2876 9.97018 13.5707 9.71333 13.3732C8.52131 12.4709 8.39618 11.1735 8.50155 10.2449C8.54107 9.90247 8.09324 9.73783 7.90225 10.021C7.45442 10.7059 7 11.8123 7 13.4785C7.25026 17.1666 10.3653 18.2993 11.4849 18.4442C13.0852 18.6484 14.8173 18.352 16.062 17.2127C17.4318 15.9416 17.9324 13.9132 17.1948 12.1482ZM13.215 16.0794C12.2956 16.3118 12.4491 14.8662 12.6506 13.9395V13.9395V13.9395C12.8663 13.0046 14.1894 12.425 14.5958 13.2942C14.6892 13.494 14.7449 13.7053 14.7449 13.933C14.7764 14.9317 14.1407 15.8453 13.215 16.0794Z" fill="#CEAEFE"/>
<defs>
<linearGradient id="paint0_linear_515_1289" x1="-4.69128e-08" y1="12.4377" x2="37.2639" y2="15.6792" gradientUnits="userSpaceOnUse">
<stop stop-color="#7028E4"/>
<stop offset="1" stop-color="#E5B2CA"/>
</linearGradient>
</defs>
</svg>
