<svg width="25" height="25" viewBox="0 0 25 25" fill="none" xmlns="http://www.w3.org/2000/svg">
<rect opacity="0.11" width="25" height="25" rx="6" fill="url(#paint0_linear_515_1314)"/>
<path d="M15.3564 15.8851V11.7816C15.3564 11.406 15.0347 11.0988 14.6416 11.0988C14.2485 11.0988 13.9268 11.406 13.9268 11.7816V15.8851H12.6473C12.3256 15.8851 12.1684 16.2538 12.3971 16.4655L14.3914 18.3636C14.5344 18.4934 14.756 18.4934 14.8989 18.3636L16.8932 16.4655C17.1219 16.2538 16.9575 15.8851 16.643 15.8851H15.3564V15.8851ZM10.1026 6.55823L8.10832 8.46321C7.87958 8.67488 8.03684 9.04358 8.3585 9.04358H9.63799V13.1471C9.63799 13.5227 9.95965 13.8299 10.3528 13.8299C10.7459 13.8299 11.0676 13.5227 11.0676 13.1471V9.04358H12.3471C12.6687 9.04358 12.826 8.67488 12.5973 8.46321L10.603 6.55823C10.4672 6.42851 10.2384 6.42851 10.1026 6.55823Z" fill="#CEAEFE"/>
<defs>
<linearGradient id="paint0_linear_515_1314" x1="-4.71476e-08" y1="12.5" x2="37.4504" y2="15.7576" gradientUnits="userSpaceOnUse">
<stop stop-color="#7028E4"/>
<stop offset="1" stop-color="#E5B2CA"/>
</linearGradient>
</defs>
</svg>
