<svg width="44" height="44" viewBox="0 0 44 44" fill="none" xmlns="http://www.w3.org/2000/svg">
    <defs>
         <linearGradient id="twitter-icon-bg-gradient">
            <stop offset="0" class="start-color"/>
            <stop offset="1" class="end-color"/>
        </linearGradient>
        <clipPath id="clip0">
            <rect width="23.7368" height="23.7368" fill="white" transform="translate(10.4209 9.84229)"/>
        </clipPath>    </defs>

<path id="twitter-icon-bg" d="M35.75 44H8.25C3.69325 44 0 40.3068 0 35.75V8.25C0 3.69325 3.69325 0 8.25 0H35.75C40.3068 0 44 3.69325 44 8.25V35.75C44 40.3068 40.3068 44 35.75 44Z" fill="#6202EF"/>
   
    <path id="Path 219"
          d="M32.4199 14.8605C31.6709 15.2069 30.8765 15.4344 30.0632 15.5354C30.9205 14.9994 31.5621 14.1558 31.8685 13.1619C31.064 13.6624 30.1819 14.0132 29.2625 14.203C27.9928 12.7827 25.9681 12.4327 24.3285 13.3501C22.689 14.2674 21.8446 16.2228 22.2708 18.1151C18.9712 17.9422 15.8969 16.3129 13.8132 13.6327C13.4485 14.2876 13.2568 15.032 13.2578 15.7898C13.2578 17.2771 13.9819 18.5911 15.0828 19.3604C14.4313 19.3389 13.7942 19.155 13.2245 18.8239L13.2245 18.8772C13.2245 20.9186 14.6008 22.6781 16.5154 23.0836C15.9109 23.2548 15.2771 23.2802 14.6619 23.1576C15.1987 24.9056 16.7394 26.1033 18.4953 26.1374C16.7762 27.5488 14.591 28.1879 12.4209 27.9139C14.2966 29.175 16.4801 29.8445 18.7101 29.8423C26.2582 29.8423 30.386 23.3053 30.386 17.6361C30.386 17.4515 30.3811 17.2648 30.3732 17.0822C31.1767 16.4752 31.8701 15.7232 32.4209 14.8615L32.4199 14.8605Z"
          class="icon-fill-themed"/>

    <defs>
        <clipPath id="clip0">
            <rect width="23.7368" height="23.7368" fill="white" transform="translate(10.4209 9.84229)"/>
        </clipPath>
    </defs>
</svg>
