<svg width="38" height="38" viewBox="0 0 38 38" fill="none" xmlns="http://www.w3.org/2000/svg">
<path d="M12.7394 31.5232L11.6326 32.63L12.7394 33.7367L13.8462 32.63L12.7394 31.5232ZM15.8698 8.04493C16.7343 8.04493 17.435 7.34416 17.435 6.47971C17.435 5.61527 16.7343 4.9145 15.8698 4.9145L15.8698 8.04493ZM5.37174 26.3691L11.6326 32.63L13.8462 30.4164L7.58529 24.1555L5.37174 26.3691ZM13.8462 32.63L20.107 26.3691L17.8935 24.1555L11.6326 30.4164L13.8462 32.63ZM14.3046 31.5232L14.3046 9.61015L11.1742 9.61015L11.1742 31.5232L14.3046 31.5232ZM14.3046 9.61015C14.3046 8.7457 15.0054 8.04493 15.8698 8.04493L15.8698 4.9145C13.2765 4.9145 11.1742 7.01681 11.1742 9.61015L14.3046 9.61015Z" fill="#0D0831"/>
<path d="M25.2618 6.47955L24.1551 5.37278L25.2618 4.266L26.3686 5.37278L25.2618 6.47955ZM25.2618 29.9578L23.6966 29.9578L25.2618 29.9578ZM22.1314 34.6535C21.267 34.6535 20.5662 33.9527 20.5662 33.0882C20.5662 32.2238 21.267 31.523 22.1314 31.523L22.1314 34.6535ZM17.8942 11.6336L24.1551 5.37278L26.3686 7.58633L20.1078 13.8472L17.8942 11.6336ZM26.3686 5.37278L32.6295 11.6336L30.4159 13.8472L24.1551 7.58633L26.3686 5.37278ZM26.8271 6.47955L26.8271 29.9578L23.6966 29.9578L23.6966 6.47955L26.8271 6.47955ZM26.8271 29.9578C26.8271 32.5512 24.7247 34.6535 22.1314 34.6535L22.1314 31.523C22.9959 31.523 23.6966 30.8223 23.6966 29.9578L26.8271 29.9578Z" fill="#0D0831"/>
</svg>
