<svg width="26" height="26" viewBox="0 0 26 26" fill="none" xmlns="http://www.w3.org/2000/svg">
<path d="M13 26C20.1797 26 26 20.1797 26 13C26 5.8203 20.1797 0 13 0C5.8203 0 0 5.8203 0 13C0 20.1797 5.8203 26 13 26Z" fill="#F4B731"/>
<path fill-rule="evenodd" clip-rule="evenodd" d="M7.53756 6.5H12.8611C16.0989 6.5 18.5534 8.21925 19.4667 10.7201H21.125V12.2322H19.8161C19.8413 12.4711 19.8543 12.7148 19.8543 12.9618V12.9992C19.8543 13.2771 19.838 13.5517 19.8055 13.8198H21.125V15.3311H19.435C18.4982 17.7978 16.0631 19.5 12.8619 19.5H7.53756V15.3311H5.6875V13.8198H7.53756V12.2322H5.6875V10.7209H7.53756V6.5ZM9.02525 15.3311V18.1439H12.8602C15.2279 18.1439 16.9861 17.017 17.8043 15.3311H9.02525ZM18.2601 13.8198H9.02525V12.2322H18.2634C18.2967 12.4816 18.3146 12.7376 18.3146 12.9992V13.0358C18.3146 13.3031 18.2959 13.5639 18.2601 13.819V13.8198ZM12.8619 7.85281C15.2393 7.85281 17.0032 9.00981 17.8165 10.7193H9.02525V7.85363H12.8602L12.8619 7.85281Z" fill="white"/>
</svg>
