<svg width="24" height="24" viewBox="0 0 24 24" fill="none" xmlns="http://www.w3.org/2000/svg">
<path d="M12 24C18.6274 24 24 18.6274 24 12C24 5.37258 18.6274 0 12 0C5.37258 0 0 5.37258 0 12C0 18.6274 5.37258 24 12 24Z" fill="#008CE7"/>
<path d="M14.3467 6H8.88975L8.43825 8.52525L13.3597 8.53275C15.783 8.53275 16.5022 9.4125 16.479 10.8728C16.4685 11.6213 16.1422 12.8873 16.0042 13.2953C15.6315 14.3903 14.8635 15.6368 11.985 15.633L7.2015 15.63L6.75 18.1583H12.1928C14.112 18.1583 14.9295 17.934 15.7927 17.5358C17.7082 16.6523 18.849 14.76 19.3072 12.2903C19.9867 8.61525 19.1392 6 14.346 6H14.3467Z" fill="white"/>
<path d="M11.8523 11.535C12.03 10.7963 12.0863 10.5 12.0863 10.5H6.50175C5.07375 10.5 4.86975 11.43 4.734 11.9925C4.55625 12.7283 4.5 13.0282 4.5 13.0282H10.0853C11.5125 13.0282 11.7165 12.0983 11.8523 11.535Z" fill="white"/>
</svg>
