<svg width="12" height="12" viewBox="0 0 12 12" fill="none" xmlns="http://www.w3.org/2000/svg">
<g clip-path="url(#clip0)">
<path d="M11.542 0.839284L11.0216 0.318902C10.5965 -0.106301 9.90458 -0.106301 9.47944 0.318902L9.09941 0.698964C9.07808 0.698401 9.05687 0.697346 9.0354 0.697346H2.54854C1.22081 0.697346 0.140625 1.77756 0.140625 3.10526V9.59212C0.140625 10.9199 1.22083 12 2.54854 12H9.0354C10.3631 12 11.4433 10.9199 11.4433 9.59212V3.10526C11.4433 2.91284 11.42 2.72591 11.3771 2.54642L11.542 2.38152C11.9672 1.95629 11.9672 1.26449 11.542 0.839284ZM10.5898 9.59212C10.5898 10.4492 9.89248 11.1465 9.0354 11.1465H2.54854C1.69146 11.1465 0.994147 10.4492 0.994147 9.59212V3.10526C0.994147 2.24818 1.69146 1.55087 2.54854 1.55087H8.2475L3.86575 5.93262C3.8106 5.98777 3.77163 6.05688 3.75306 6.13261L3.27813 8.0666C3.24253 8.21156 3.28528 8.3646 3.39081 8.47014C3.47181 8.55117 3.58077 8.59516 3.69259 8.59516C3.72646 8.59516 3.76066 8.59113 3.79434 8.58283L5.72833 8.10789C5.80403 8.08931 5.87319 8.05033 5.92832 7.99521L10.5898 3.3338V9.59212ZM4.50953 6.63108L5.22983 7.35138L4.27504 7.58585L4.50953 6.63108ZM10.9384 1.77798L5.90097 6.81546L5.04548 5.95997L10.083 0.92244C10.1754 0.830026 10.3257 0.830026 10.4181 0.92244L10.9384 1.44282C11.0308 1.53524 11.0308 1.68556 10.9384 1.77798Z" fill="#4E5D78"/>
</g>
<defs>
<clipPath id="clip0">
<rect width="12" height="12" fill="white"/>
</clipPath>
</defs>
</svg>
