<svg width="69" height="69" viewBox="0 0 69 69" fill="none" xmlns="http://www.w3.org/2000/svg">
<path d="M9.25433 7.80652C9.25433 7.80652 9.27698 10.3576 9.25433 10.6195C9.70025 36.074 6.97717 35.1563 14.3909 44.4344C14.4362 44.4886 12.5417 42.4815 17.491 47.796C20.3169 51.1053 23.0658 53.966 23.8431 54.7663C23.9879 54.9154 24.1408 55.0551 24.296 55.1932C26.3367 57.0105 27.4078 59.1533 34.7723 59.4634C61.7862 59.9248 48.6198 59.6839 61.9675 59.985" fill="url(#paint0_linear_1075_1768)"/>
<path d="M9.25433 7.80652C9.25433 7.80652 9.27698 10.3576 9.25433 10.6195C9.70025 36.074 6.97717 35.1563 14.3909 44.4344C14.4362 44.4886 12.5417 42.4815 17.491 47.796C20.3169 51.1053 23.0658 53.966 23.8431 54.7663C23.9879 54.9154 24.1408 55.0551 24.296 55.1932C26.3367 57.0105 27.4078 59.1533 34.7723 59.4634C61.7862 59.9248 48.6198 59.6839 61.9675 59.985" stroke="#6202EF" stroke-width="1.73981"/>
<path opacity="0.5" d="M1 0V64.5204C1 66.4421 2.55788 68 4.47962 68H69" stroke="#6202EF" stroke-width="1.73981"/>
<defs>
<linearGradient id="paint0_linear_1075_1768" x1="16.1233" y1="68.6378" x2="45.8079" y2="39.0543" gradientUnits="userSpaceOnUse">
<stop stop-color="#6202EF"/>
<stop offset="1" stop-color="white" stop-opacity="0"/>
</linearGradient>
</defs>
</svg>
