<svg width="79" height="80" viewBox="0 0 79 80" fill="none" xmlns="http://www.w3.org/2000/svg">
<path opacity="0.4" d="M10.4683 9.06982C10.4683 9.06982 10.4943 12.0336 10.4683 12.3378C10.9798 41.91 7.85629 40.8438 16.3603 51.6228C16.4122 51.6858 14.2392 49.354 19.9162 55.5282C23.1589 59.3741 26.3131 62.6986 27.2035 63.6271C27.369 63.7996 27.5438 63.9614 27.7214 64.1215C30.0626 66.2329 31.2907 68.7226 39.739 69.083C70.7255 69.619 55.6228 69.3391 70.9335 69.6889" fill="url(#paint0_linear_1214_2488)"/>
<path fill-rule="evenodd" clip-rule="evenodd" d="M9.46833 9.07855C9.46833 9.07853 9.46833 9.07853 10.4683 9.06976L11.4683 9.06104L11.4719 9.53042C11.474 9.81362 11.4764 10.1947 11.478 10.5855C11.4809 11.2635 11.4824 12.0654 11.4688 12.3565C11.596 19.7501 11.4966 25.2319 11.4086 29.4568C11.4036 29.698 11.3986 29.9349 11.3937 30.1677C11.3124 34.0375 11.2553 36.7575 11.4145 38.9554C11.5806 41.2484 11.98 42.9202 12.8236 44.6592C13.6828 46.4301 15.0205 48.31 17.1431 51.0006C17.1448 51.0028 17.1467 51.0051 17.1486 51.0075C17.1538 51.0142 17.1697 51.0346 17.1883 51.0619C17.194 51.0705 17.2045 51.0872 17.2151 51.1047C17.7275 51.6667 18.7446 52.7765 20.6523 54.8512L20.6669 54.8671L20.6807 54.8835C23.9036 58.706 27.0412 62.0131 27.9252 62.9348C28.0648 63.0804 28.2179 63.2226 28.391 63.3788C28.7789 63.7286 29.1133 64.0594 29.4314 64.3741C30.189 65.1238 30.8542 65.7819 31.9303 66.3872C33.3985 67.2132 35.6424 67.9061 39.7689 68.0833C58.4258 68.406 60.3668 68.4329 62.3073 68.4796C63.5881 68.5105 64.8687 68.55 70.9563 68.6891L70.9106 70.6886C64.8242 70.5496 63.545 70.51 62.2655 70.4792C60.3268 70.4325 58.3876 70.4057 39.7216 70.0828L39.709 70.0825L39.6963 70.082C35.3826 69.898 32.7913 69.1664 30.9497 68.1304C29.6222 67.3836 28.6816 66.4533 27.863 65.6436C27.5817 65.3654 27.3149 65.1014 27.0516 64.864C26.8697 64.7 26.673 64.5186 26.4817 64.3192C25.5862 63.3854 22.4231 60.0516 19.1655 56.1891C16.3446 53.1212 15.4599 52.1512 15.2777 51.9439C15.2652 51.9297 15.2521 51.9146 15.2401 51.9004C15.2343 51.8936 15.2254 51.8829 15.2154 51.8703C15.2152 51.8701 15.1799 51.827 15.1448 51.7705C15.1346 51.754 15.1117 51.7162 15.088 51.6654L15.0871 51.6636C15.083 51.6552 15.0673 51.6229 15.05 51.5724C13.2039 49.2023 11.9055 47.3488 11.0242 45.5322C10.0458 43.5153 9.59965 41.5843 9.41969 39.0999C9.25345 36.8048 9.31268 33.9928 9.39288 30.1856C9.39819 29.9332 9.4036 29.6765 9.40904 29.4152C9.49697 25.1928 9.59599 19.7293 9.46844 12.355L9.46756 12.3037L9.47192 12.2526C9.47188 12.2532 9.47192 12.2522 9.47202 12.2494C9.4725 12.2373 9.47432 12.1907 9.47589 12.0938C9.47757 11.9896 9.47866 11.8536 9.47927 11.695C9.48047 11.3783 9.47967 10.9824 9.47805 10.5938C9.47643 10.2057 9.474 9.82679 9.47198 9.54478L9.46833 9.07855Z" fill="#CEAEFE"/>
<path opacity="0.5" fill-rule="evenodd" clip-rule="evenodd" d="M0 75V0H2V75C2 76.6569 3.34315 78 5 78H79V80H5C2.23858 80 0 77.7614 0 75Z" fill="#CEAEFE"/>
<defs>
<linearGradient id="paint0_linear_1214_2488" x1="28" y1="67.9995" x2="48.5714" y2="46.5877" gradientUnits="userSpaceOnUse">
<stop stop-color="#CEAEFE"/>
<stop offset="1" stop-color="white" stop-opacity="0"/>
</linearGradient>
</defs>
</svg>
