<svg width="69" height="69" viewBox="0 0 69 69" fill="none" xmlns="http://www.w3.org/2000/svg">
<path opacity="0.4" d="M9.14331 7.82288C9.14331 7.82288 9.16601 10.3791 9.14331 10.6415C9.59006 36.1475 6.86191 35.228 14.2894 44.5248C14.3348 44.5792 12.4368 42.568 17.3953 47.8932C20.2275 51.2103 22.9824 54.0777 23.7601 54.8785C23.9046 55.0273 24.0574 55.1668 24.2124 55.3049C26.2573 57.126 27.3299 59.2734 34.7088 59.5842C61.773 60.0466 48.582 59.8052 61.9546 60.1069" fill="url(#paint0_linear_1388_2939)"/>
<path fill-rule="evenodd" clip-rule="evenodd" d="M8.26978 7.83041C8.26978 7.8304 8.26978 7.83039 9.14316 7.82283L10.0165 7.81531L10.0197 8.22015C10.0215 8.46441 10.0237 8.79307 10.0251 9.13015C10.0276 9.71492 10.0289 10.4066 10.017 10.6577C10.1281 17.0346 10.0413 21.7627 9.96445 25.4067C9.96006 25.6147 9.95571 25.819 9.95144 26.0198C9.88043 29.3575 9.83051 31.7036 9.96956 33.5992C10.1146 35.5769 10.4635 37.0189 11.2004 38.5187C11.9507 40.0461 13.1191 41.6675 14.9731 43.9882C14.9746 43.99 14.9762 43.992 14.9778 43.9942C14.9824 43.9999 14.9963 44.0175 15.0125 44.0411C15.0175 44.0485 15.0267 44.0629 15.036 44.0779C15.4834 44.5627 16.3719 45.5199 18.0381 47.3094L18.0508 47.323L18.0629 47.3372C20.8778 50.6341 23.6183 53.4865 24.3903 54.2814C24.5123 54.407 24.646 54.5297 24.7972 54.6644C25.136 54.9661 25.428 55.2514 25.7058 55.5228C26.3676 56.1694 26.9486 56.7371 27.8884 57.2592C29.1708 57.9716 31.1306 58.5691 34.7349 58.722C51.0301 59.0004 52.7254 59.0235 54.4202 59.0638C55.5389 59.0905 56.6575 59.1246 61.9744 59.2445L61.9345 60.9691C56.6186 60.8492 55.5013 60.8151 54.3838 60.7885C52.6905 60.7482 50.9968 60.7251 34.6935 60.4465L34.6825 60.4464L34.6714 60.4459C30.9038 60.2872 28.6405 59.6562 27.032 58.7626C25.8725 58.1185 25.051 57.3161 24.336 56.6178C24.0903 56.3778 23.8572 56.1501 23.6273 55.9454C23.4685 55.8039 23.2967 55.6475 23.1296 55.4754C22.3474 54.67 19.5847 51.7947 16.7395 48.4633C14.2757 45.8172 13.5029 44.9806 13.3438 44.8018C13.3329 44.7896 13.3214 44.7765 13.3109 44.7643C13.3059 44.7584 13.2981 44.7491 13.2893 44.7383C13.2892 44.7382 13.2584 44.701 13.2277 44.6522C13.2188 44.638 13.1988 44.6054 13.1781 44.5616L13.1773 44.56C13.1737 44.5527 13.16 44.5249 13.1449 44.4814C11.5325 42.4372 10.3985 40.8385 9.62871 39.2716C8.77412 37.5321 8.38447 35.8667 8.22729 33.7239C8.08209 31.7443 8.13383 29.319 8.20387 26.0353C8.20851 25.8176 8.21324 25.5961 8.21799 25.3707C8.29479 21.729 8.38128 17.0167 8.26987 10.6564L8.2691 10.6121L8.27291 10.5681C8.27287 10.5685 8.27291 10.5676 8.273 10.5653C8.27341 10.5548 8.27501 10.5146 8.27637 10.4311C8.27784 10.3412 8.2788 10.2239 8.27932 10.0871C8.28037 9.81396 8.27968 9.47251 8.27826 9.13735C8.27685 8.80257 8.27473 8.47577 8.27296 8.23254L8.26978 7.83041Z" fill="#CEAEFE"/>
<path opacity="0.5" fill-rule="evenodd" clip-rule="evenodd" d="M0 64.6875V0H1.74684V64.6875C1.74684 66.1165 2.91996 67.275 4.36709 67.275H69V69H4.36709C1.95521 69 0 67.0692 0 64.6875Z" fill="#CEAEFE"/>
<defs>
<linearGradient id="paint0_linear_1388_2939" x1="24.4558" y1="58.6497" x2="42.1883" y2="39.9592" gradientUnits="userSpaceOnUse">
<stop stop-color="#CEAEFE"/>
<stop offset="1" stop-color="white" stop-opacity="0"/>
</linearGradient>
</defs>
</svg>