<svg width="64" height="28" viewBox="0 0 64 28" fill="none" xmlns="http://www.w3.org/2000/svg">
<path d="M1.088 19V7.8H3.52L7.088 14.904L10.608 7.8H13.04V19H10.992V11.272L7.872 17.4H6.256L3.136 11.272V19H1.088ZM17.901 19.192C17.2183 19.192 16.6583 19.0853 16.221 18.872C15.7837 18.648 15.4583 18.3547 15.245 17.992C15.0317 17.6293 14.925 17.2293 14.925 16.792C14.925 16.056 15.213 15.4587 15.789 15C16.365 14.5413 17.229 14.312 18.381 14.312H20.397V14.12C20.397 13.576 20.2423 13.176 19.933 12.92C19.6237 12.664 19.2397 12.536 18.781 12.536C18.365 12.536 18.0023 12.6373 17.693 12.84C17.3837 13.032 17.1917 13.32 17.117 13.704H15.117C15.1703 13.128 15.3623 12.6267 15.693 12.2C16.0343 11.7733 16.4717 11.448 17.005 11.224C17.5383 10.9893 18.1357 10.872 18.797 10.872C19.9277 10.872 20.8183 11.1547 21.469 11.72C22.1197 12.2853 22.445 13.0853 22.445 14.12V19H20.701L20.509 17.72C20.2743 18.1467 19.9437 18.4987 19.517 18.776C19.101 19.0533 18.5623 19.192 17.901 19.192ZM18.365 17.592C18.9517 17.592 19.405 17.4 19.725 17.016C20.0557 16.632 20.2637 16.1573 20.349 15.592H18.605C18.061 15.592 17.6717 15.6933 17.437 15.896C17.2023 16.088 17.085 16.328 17.085 16.616C17.085 16.9253 17.2023 17.1653 17.437 17.336C17.6717 17.5067 17.981 17.592 18.365 17.592ZM24.3994 19V11.064H26.2074L26.3674 12.408C26.6127 11.9387 26.9647 11.5653 27.4234 11.288C27.8927 11.0107 28.442 10.872 29.0714 10.872C30.0527 10.872 30.8154 11.1813 31.3594 11.8C31.9034 12.4187 32.1754 13.3253 32.1754 14.52V19H30.1274V14.712C30.1274 14.0293 29.9887 13.5067 29.7114 13.144C29.434 12.7813 29.002 12.6 28.4154 12.6C27.8394 12.6 27.3647 12.8027 26.9914 13.208C26.6287 13.6133 26.4474 14.1787 26.4474 14.904V19H24.3994ZM36.8698 19.192C36.1871 19.192 35.6271 19.0853 35.1898 18.872C34.7524 18.648 34.4271 18.3547 34.2138 17.992C34.0004 17.6293 33.8938 17.2293 33.8938 16.792C33.8938 16.056 34.1818 15.4587 34.7578 15C35.3338 14.5413 36.1978 14.312 37.3498 14.312H39.3658V14.12C39.3658 13.576 39.2111 13.176 38.9018 12.92C38.5924 12.664 38.2084 12.536 37.7498 12.536C37.3338 12.536 36.9711 12.6373 36.6618 12.84C36.3524 13.032 36.1604 13.32 36.0858 13.704H34.0858C34.1391 13.128 34.3311 12.6267 34.6618 12.2C35.0031 11.7733 35.4404 11.448 35.9738 11.224C36.5071 10.9893 37.1044 10.872 37.7658 10.872C38.8964 10.872 39.7871 11.1547 40.4378 11.72C41.0884 12.2853 41.4138 13.0853 41.4138 14.12V19H39.6698L39.4778 17.72C39.2431 18.1467 38.9124 18.4987 38.4858 18.776C38.0698 19.0533 37.5311 19.192 36.8698 19.192ZM37.3338 17.592C37.9204 17.592 38.3738 17.4 38.6938 17.016C39.0244 16.632 39.2324 16.1573 39.3178 15.592H37.5738C37.0298 15.592 36.6404 15.6933 36.4058 15.896C36.1711 16.088 36.0538 16.328 36.0538 16.616C36.0538 16.9253 36.1711 17.1653 36.4058 17.336C36.6404 17.5067 36.9498 17.592 37.3338 17.592ZM46.7281 16.632C46.3441 16.632 45.9868 16.5893 45.6561 16.504L45.0641 17.096C45.2455 17.192 45.4908 17.272 45.8001 17.336C46.1095 17.4 46.6108 17.464 47.3041 17.528C48.3601 17.624 49.1281 17.8747 49.6081 18.28C50.0881 18.6853 50.3281 19.2453 50.3281 19.96C50.3281 20.4293 50.2001 20.872 49.9441 21.288C49.6881 21.7147 49.2935 22.056 48.7601 22.312C48.2268 22.5787 47.5441 22.712 46.7121 22.712C45.5815 22.712 44.6695 22.4987 43.9761 22.072C43.2828 21.656 42.9361 21.0267 42.9361 20.184C42.9361 19.4693 43.2828 18.8507 43.9761 18.328C43.7628 18.232 43.5761 18.1307 43.4161 18.024C43.2668 17.9173 43.1335 17.8053 43.0161 17.688V17.32L44.4081 15.848C43.7895 15.304 43.4801 14.6053 43.4801 13.752C43.4801 13.2187 43.6081 12.7333 43.8641 12.296C44.1308 11.8587 44.5041 11.512 44.9841 11.256C45.4641 11 46.0455 10.872 46.7281 10.872C47.1761 10.872 47.5921 10.936 47.9761 11.064H50.9841V12.312L49.6241 12.408C49.8375 12.8133 49.9441 13.2613 49.9441 13.752C49.9441 14.2853 49.8161 14.7707 49.5601 15.208C49.3041 15.6453 48.9308 15.992 48.4401 16.248C47.9601 16.504 47.3895 16.632 46.7281 16.632ZM46.7281 15.064C47.1441 15.064 47.4855 14.952 47.7521 14.728C48.0295 14.504 48.1681 14.184 48.1681 13.768C48.1681 13.352 48.0295 13.032 47.7521 12.808C47.4855 12.584 47.1441 12.472 46.7281 12.472C46.2908 12.472 45.9388 12.584 45.6721 12.808C45.4055 13.032 45.2721 13.352 45.2721 13.768C45.2721 14.184 45.4055 14.504 45.6721 14.728C45.9388 14.952 46.2908 15.064 46.7281 15.064ZM44.8081 19.976C44.8081 20.3707 44.9895 20.664 45.3521 20.856C45.7255 21.0587 46.1788 21.16 46.7121 21.16C47.2241 21.16 47.6401 21.0533 47.9601 20.84C48.2801 20.6373 48.4401 20.36 48.4401 20.008C48.4401 19.72 48.3335 19.48 48.1201 19.288C47.9175 19.096 47.5068 18.9787 46.8881 18.936C46.4508 18.904 46.0455 18.856 45.6721 18.792C45.3628 18.9627 45.1388 19.1493 45.0001 19.352C44.8721 19.5547 44.8081 19.7627 44.8081 19.976ZM56.021 19.192C55.221 19.192 54.5117 19.0213 53.893 18.68C53.2743 18.3387 52.789 17.8587 52.437 17.24C52.085 16.6213 51.909 15.9067 51.909 15.096C51.909 14.2747 52.0797 13.544 52.421 12.904C52.773 12.264 53.253 11.768 53.861 11.416C54.4797 11.0533 55.205 10.872 56.037 10.872C56.8157 10.872 57.5037 11.0427 58.101 11.384C58.6983 11.7253 59.1623 12.1947 59.493 12.792C59.8343 13.3787 60.005 14.0347 60.005 14.76C60.005 14.8773 59.9997 15 59.989 15.128C59.989 15.256 59.9837 15.3893 59.973 15.528H53.941C53.9837 16.1467 54.197 16.632 54.581 16.984C54.9757 17.336 55.4503 17.512 56.005 17.512C56.421 17.512 56.7677 17.4213 57.045 17.24C57.333 17.048 57.5463 16.8027 57.685 16.504H59.765C59.6157 17.0053 59.365 17.464 59.013 17.88C58.6717 18.2853 58.245 18.6053 57.733 18.84C57.2317 19.0747 56.661 19.192 56.021 19.192ZM56.037 12.536C55.5357 12.536 55.093 12.68 54.709 12.968C54.325 13.2453 54.0797 13.672 53.973 14.248H57.925C57.893 13.7253 57.701 13.3093 57.349 13C56.997 12.6907 56.5597 12.536 56.037 12.536Z" fill="#4E5D78"/>
</svg>
