<svg width="15" height="16" viewBox="0 0 15 16" fill="none" xmlns="http://www.w3.org/2000/svg">
<path d="M12.4584 0.916748H2.54175C1.97816 0.916748 1.43766 1.14063 1.03915 1.53915C0.640631 1.93766 0.416748 2.47816 0.416748 3.04175V12.9584C0.416748 13.522 0.640631 14.0625 1.03915 14.461C1.43766 14.8595 1.97816 15.0834 2.54175 15.0834H12.4584C13.022 15.0834 13.5625 14.8595 13.961 14.461C14.3595 14.0625 14.5834 13.522 14.5834 12.9584V3.04175C14.5834 2.47816 14.3595 1.93766 13.961 1.53915C13.5625 1.14063 13.022 0.916748 12.4584 0.916748Z" fill="#6202EF"/>
<path fill-rule="evenodd" clip-rule="evenodd" d="M2.48891 6.48901L1.91284 9.8824H2.93477L3.17049 8.30856L3.78335 9.8824H4.24276L4.89327 8.29633L5.13082 9.8824H7.21825L7.4095 9.32565H8.46467L8.65592 9.8824H10.696L11.3936 8.91283L11.9887 9.8824H13.2386L11.9785 8.07978L13.1038 6.48901H11.8414L11.3659 7.22488L10.981 6.48901H9.7187L10.7788 8.0769L9.64792 9.61794L8.45694 6.48901H7.41723L6.14437 9.83304L5.57668 6.48901H4.60686L4.03463 8.02259L3.45858 6.48901H2.48891ZM2.85342 9.78794H2.02536L2.56936 6.58346H2.56867L2.02467 9.78796H2.85342L2.85342 9.78794ZM3.13017 7.94474L3.84792 9.78796H4.17942L4.17943 9.78794H3.84861L3.13036 7.94344L3.13017 7.94474ZM4.9361 7.94468L5.21217 9.78796H6.04092L6.04092 9.78794H5.21286L4.93661 7.94344L4.9361 7.94468ZM4.67311 6.58346H4.67242L4.03527 8.29102L4.03561 8.29193L4.67311 6.58346ZM7.15084 9.78794H6.26328L7.48302 6.58346H7.48233L6.26258 9.78796H7.15084L7.15084 9.78794ZM7.34277 9.23121H8.53208L8.72333 9.78796H9.61159L9.61158 9.78794H8.72403L8.53278 9.23119H7.34278L7.34277 9.23121ZM10.6476 9.78794L10.6476 9.78796H9.64031L10.8941 8.07946L9.89531 6.58346H9.89601L10.8947 8.07944L9.641 9.78794H10.6476ZM11.4001 8.74296L12.0416 9.78796H13.0573L13.0573 9.78794H12.0422L11.4005 8.74243L11.4001 8.74296ZM11.8935 6.58346H11.8928L11.3577 7.41161L11.358 7.41219L11.8935 6.58346ZM8.31108 8.59793L7.93743 7.53219L7.93778 7.53118L8.31178 8.59793H8.31108ZM7.69628 8.50351L7.93708 7.81667L8.17789 8.50351H7.69628Z" fill="white"/>
</svg>
