<svg width="28" height="26" viewBox="0 0 28 26" fill="none" xmlns="http://www.w3.org/2000/svg">
<g clip-path="url(#clip0)">
<path d="M13.8246 26C21.4597 26 27.6492 20.1797 27.6492 13C27.6492 5.8203 21.4597 0 13.8246 0C6.18948 0 0 5.8203 0 13C0 20.1797 6.18948 26 13.8246 26Z" fill="#1AAB9B"/>
<path d="M6.52976 17.2682V10.7316L11.8013 14.4626V17.2682H13.1474V14.2002C13.1473 14.0858 13.1189 13.9729 13.0645 13.8705C13.0101 13.7682 12.9311 13.6791 12.8338 13.6103L6.44077 9.08552C6.32421 9.00317 6.18558 8.95296 6.0404 8.9405C5.89521 8.92804 5.74921 8.95382 5.61872 9.01496C5.48824 9.0761 5.37842 9.17018 5.30157 9.28668C5.22473 9.40318 5.18387 9.53749 5.18359 9.67458V17.2682H6.52976ZM21.1095 17.2682V10.7316L15.838 14.4626V17.2682H14.4919V14.2002C14.4919 13.9678 14.6076 13.7493 14.8046 13.6103L21.1985 9.08552C21.3151 9.00313 21.4538 8.95291 21.5991 8.94048C21.7444 8.92805 21.8904 8.9539 22.0209 9.01514C22.1515 9.07638 22.2613 9.17058 22.338 9.2872C22.4148 9.40381 22.4556 9.53823 22.4557 9.67539V17.269H21.1095V17.2682Z" fill="white"/>
</g>
<defs>
<clipPath id="clip0">
<rect width="27.6492" height="26" fill="white"/>
</clipPath>
</defs>
</svg>
