<svg width="28" height="26" viewBox="0 0 28 26" fill="none" xmlns="http://www.w3.org/2000/svg">
<g clip-path="url(#clip0)">
<path d="M13.8246 26C21.4597 26 27.6492 20.1797 27.6492 13C27.6492 5.8203 21.4597 0 13.8246 0C6.18948 0 0 5.8203 0 13C0 20.1797 6.18948 26 13.8246 26Z" fill="#5F45BA"/>
<path d="M8.80944 7.03675C8.71359 7.18869 8.57196 7.31049 8.40247 7.38672C8.23299 7.46295 8.04327 7.49019 7.85732 7.46499C7.67136 7.4398 7.49754 7.3633 7.35783 7.24518C7.21813 7.12705 7.11883 6.97262 7.07249 6.8014C7.02616 6.63019 7.03487 6.44991 7.09754 6.28336C7.1602 6.1168 7.27399 5.97148 7.42452 5.86576C7.57504 5.76004 7.75554 5.69869 7.94315 5.68946C8.13077 5.68024 8.31708 5.72356 8.47851 5.81393C8.92867 6.06581 9.07729 6.61262 8.80944 7.03675ZM5.5693 6.64025C5.50157 6.74776 5.40144 6.83396 5.28158 6.88793C5.16171 6.94189 5.02752 6.96119 4.89598 6.94338C4.76445 6.92557 4.6415 6.87145 4.5427 6.78788C4.44389 6.70431 4.37369 6.59504 4.34097 6.47392C4.30826 6.35281 4.31451 6.22528 4.35892 6.10751C4.40334 5.98973 4.48392 5.88699 4.59048 5.81232C4.69703 5.73764 4.82475 5.69438 4.95747 5.68801C5.09019 5.68165 5.22193 5.71246 5.33601 5.77656C5.65397 5.95531 5.75939 6.34125 5.5693 6.64025ZM14.589 19.559C15.5567 19.4516 16.4923 19.1652 17.3418 18.7162C18.1913 18.2673 18.9379 17.6648 19.5387 16.9434C20.1395 16.2219 20.5825 15.3958 20.8423 14.5127C21.1021 13.6295 21.1735 12.7067 21.0524 11.7975C20.9313 10.8883 20.62 10.0106 20.1366 9.21499C19.6532 8.41938 19.0072 7.72156 18.2357 7.16175C17.4643 6.60194 16.5827 6.1912 15.6417 5.95318C14.7007 5.71517 13.7189 5.65459 12.7529 5.77493C12.1317 5.82956 11.523 5.97314 10.9479 6.20068C10.2783 6.50943 9.84628 7.02375 9.84628 7.71193C9.84628 8.60568 10.617 9.33206 11.5692 9.33206C11.7282 9.33206 12.2785 9.16793 12.4099 9.12568C13.0301 8.92218 13.6942 8.8662 14.343 8.96274C14.9918 9.05929 15.6051 9.30534 16.1282 9.67897C16.6513 10.0526 17.0679 10.5422 17.3409 11.104C17.6139 11.6659 17.7347 12.2825 17.6926 12.8989C17.6402 13.6826 17.3272 14.431 16.7977 15.0382C16.2682 15.6454 15.5491 16.0807 14.7421 16.2824C13.935 16.4842 13.081 16.4423 12.3007 16.1626C11.5205 15.8829 10.8535 15.3795 10.3941 14.7238V14.7246C9.59917 13.7456 9.78234 12.1807 9.78148 12.1604C9.76594 11.7729 9.6034 11.4035 9.32326 11.1191C9.04313 10.8346 8.66394 10.6539 8.25434 10.6096C7.84474 10.5653 7.43181 10.6604 7.09033 10.8776C6.74884 11.0949 6.50137 11.4199 6.39272 11.7939C6.35384 11.9296 6.33397 12.3269 6.34002 12.3797C6.29644 13.3838 6.48511 14.3848 6.89301 15.3136C7.30091 16.2424 7.91831 17.0769 8.70259 17.7595C9.48687 18.4421 10.4193 18.9565 11.4356 19.2671C12.4519 19.5778 13.5278 19.6774 14.589 19.559ZM7.82184 9.51487C7.69759 9.71159 7.51411 9.86925 7.29459 9.96792C7.07506 10.0666 6.82936 10.1018 6.58853 10.0692C6.34771 10.0366 6.12257 9.93757 5.94159 9.78464C5.76062 9.63171 5.63192 9.43176 5.57177 9.21006C5.51162 8.98836 5.52272 8.75487 5.60367 8.53911C5.68463 8.32334 5.83179 8.13499 6.02656 7.99786C6.22133 7.86074 6.45497 7.78099 6.69793 7.76871C6.94089 7.75643 7.18227 7.81217 7.39155 7.92887C7.97564 8.2555 8.16746 8.96562 7.82098 9.51487" fill="white"/>
</g>
<defs>
<clipPath id="clip0">
<rect width="27.6492" height="26" fill="white"/>
</clipPath>
</defs>
</svg>
