<svg width="124" height="29" viewBox="0 0 124 29" fill="none" xmlns="http://www.w3.org/2000/svg">
<path d="M5.87913 20.2154C4.95757 20.2154 4.14373 20.0598 3.43761 19.7487C2.73148 19.4255 2.17496 18.9707 1.76804 18.3843C1.36112 17.7859 1.15168 17.0618 1.13971 16.2121H3.56327C3.58721 16.7985 3.79665 17.2952 4.19161 17.7021C4.59853 18.0971 5.15505 18.2945 5.86117 18.2945C6.47155 18.2945 6.95627 18.1509 7.31531 17.8637C7.67436 17.5645 7.85388 17.1695 7.85388 16.6788C7.85388 16.1642 7.69231 15.7633 7.36917 15.476C7.05799 15.1888 6.63911 14.9554 6.11251 14.7759C5.5859 14.5963 5.0234 14.4049 4.42499 14.2014C3.45556 13.8663 2.71353 13.4354 2.1989 12.9088C1.69623 12.3822 1.4449 11.6821 1.4449 10.8084C1.43293 10.0664 1.60647 9.43206 1.96552 8.90546C2.33653 8.36689 2.8392 7.95399 3.47351 7.66675C4.10783 7.36754 4.83789 7.21794 5.6637 7.21794C6.50147 7.21794 7.23752 7.36754 7.87183 7.66675C8.51812 7.96595 9.02078 8.38484 9.37983 8.92341C9.75084 9.46198 9.94832 10.1023 9.97226 10.8443H7.51279C7.50082 10.4015 7.32728 10.0125 6.99217 9.67741C6.66903 9.33033 6.21424 9.15679 5.62779 9.15679C5.12513 9.14482 4.70026 9.27049 4.35318 9.53379C4.01807 9.78512 3.85051 10.1561 3.85051 10.6468C3.85051 11.0657 3.98216 11.4008 4.24546 11.6522C4.50876 11.8915 4.86781 12.095 5.3226 12.2625C5.7774 12.4301 6.29801 12.6096 6.88446 12.8011C7.5068 13.0165 8.07529 13.2679 8.58993 13.5551C9.10456 13.8424 9.51746 14.2253 9.82864 14.7041C10.1398 15.1708 10.2954 15.7752 10.2954 16.5172C10.2954 17.1755 10.1278 17.7859 9.79273 18.3484C9.45762 18.9109 8.96094 19.3657 8.30269 19.7128C7.64444 20.0479 6.83658 20.2154 5.87913 20.2154ZM16.573 20.2154C15.6753 20.2154 14.8795 20.0239 14.1853 19.641C13.4911 19.258 12.9466 18.7194 12.5516 18.0252C12.1567 17.3311 11.9592 16.5292 11.9592 15.6196C11.9592 14.6981 12.1507 13.8783 12.5337 13.1602C12.9286 12.4421 13.4672 11.8855 14.1494 11.4906C14.8436 11.0837 15.6574 10.8802 16.5909 10.8802C17.4646 10.8802 18.2365 11.0717 18.9068 11.4547C19.577 11.8377 20.0976 12.3643 20.4686 13.0345C20.8516 13.6927 21.0431 14.4288 21.0431 15.2426C21.0431 15.3743 21.0371 15.5119 21.0251 15.6555C21.0251 15.7992 21.0192 15.9488 21.0072 16.1043H14.2392C14.287 16.7985 14.5264 17.3431 14.9573 17.738C15.4001 18.133 15.9327 18.3304 16.555 18.3304C17.0218 18.3304 17.4107 18.2287 17.7219 18.0252C18.0451 17.8098 18.2844 17.5345 18.44 17.1994H20.7738C20.6063 17.7619 20.325 18.2766 19.93 18.7433C19.5471 19.1981 19.0683 19.5572 18.4939 19.8205C17.9314 20.0838 17.2911 20.2154 16.573 20.2154ZM16.5909 12.7473C16.0284 12.7473 15.5317 12.9088 15.1009 13.232C14.67 13.5431 14.3947 14.0219 14.2751 14.6682H18.7093C18.6734 14.0817 18.458 13.615 18.063 13.2679C17.6681 12.9208 17.1774 12.7473 16.5909 12.7473ZM22.9758 20V7.07432H25.2737V20H22.9758ZM31.9482 20.2154C31.0505 20.2154 30.2546 20.0239 29.5605 19.641C28.8663 19.258 28.3218 18.7194 27.9268 18.0252C27.5319 17.3311 27.3344 16.5292 27.3344 15.6196C27.3344 14.6981 27.5259 13.8783 27.9089 13.1602C28.3038 12.4421 28.8424 11.8855 29.5246 11.4906C30.2187 11.0837 31.0326 10.8802 31.9661 10.8802C32.8398 10.8802 33.6117 11.0717 34.282 11.4547C34.9522 11.8377 35.4728 12.3643 35.8438 13.0345C36.2268 13.6927 36.4183 14.4288 36.4183 15.2426C36.4183 15.3743 36.4123 15.5119 36.4003 15.6555C36.4003 15.7992 36.3943 15.9488 36.3824 16.1043H29.6143C29.6622 16.7985 29.9016 17.3431 30.3324 17.738C30.7753 18.133 31.3079 18.3304 31.9302 18.3304C32.397 18.3304 32.7859 18.2287 33.0971 18.0252C33.4202 17.8098 33.6596 17.5345 33.8152 17.1994H36.149C35.9814 17.7619 35.7002 18.2766 35.3052 18.7433C34.9223 19.1981 34.4435 19.5572 33.8691 19.8205C33.3065 20.0838 32.6662 20.2154 31.9482 20.2154ZM31.9661 12.7473C31.4036 12.7473 30.9069 12.9088 30.4761 13.232C30.0452 13.5431 29.7699 14.0219 29.6503 14.6682H34.0845C34.0486 14.0817 33.8331 13.615 33.4382 13.2679C33.0432 12.9208 32.5525 12.7473 31.9661 12.7473ZM42.7134 20.2154C41.8038 20.2154 41.0019 20.018 40.3078 19.623C39.6136 19.228 39.0631 18.6775 38.6562 17.9714C38.2612 17.2653 38.0637 16.4574 38.0637 15.5478C38.0637 14.6382 38.2612 13.8304 38.6562 13.1243C39.0631 12.4181 39.6136 11.8676 40.3078 11.4726C41.0019 11.0777 41.8038 10.8802 42.7134 10.8802C43.8504 10.8802 44.8078 11.1794 45.5857 11.7778C46.3637 12.3643 46.8604 13.1781 47.0758 14.2193H44.6522C44.5325 13.7885 44.2932 13.4534 43.9341 13.214C43.5871 12.9627 43.1742 12.837 42.6954 12.837C42.0611 12.837 41.5225 13.0764 41.0797 13.5551C40.6369 14.0338 40.4155 14.6981 40.4155 15.5478C40.4155 16.3976 40.6369 17.0618 41.0797 17.5405C41.5225 18.0193 42.0611 18.2586 42.6954 18.2586C43.1742 18.2586 43.5871 18.1389 43.9341 17.8996C44.2932 17.6602 44.5325 17.3191 44.6522 16.8763H47.0758C46.8604 17.8816 46.3637 18.6895 45.5857 19.2999C44.8078 19.9102 43.8504 20.2154 42.7134 20.2154ZM52.9601 20C52.0266 20 51.2786 19.7726 50.7161 19.3178C50.1535 18.863 49.8723 18.0552 49.8723 16.8942V13.0165H48.3463V11.0956H49.8723L50.1416 8.70798H52.1702V11.0956H54.5758V13.0165H52.1702V16.9122C52.1702 17.3431 52.26 17.6423 52.4395 17.8098C52.631 17.9654 52.9541 18.0432 53.4089 18.0432H54.5219V20H52.9601ZM63.8963 20.2154C63.1303 20.2154 62.502 20.0957 62.0113 19.8564C61.5206 19.605 61.1556 19.2759 60.9162 18.869C60.6768 18.4621 60.5572 18.0133 60.5572 17.5226C60.5572 16.6968 60.8803 16.0266 61.5266 15.5119C62.1729 14.9973 63.1423 14.74 64.4349 14.74H66.6969V14.5245C66.6969 13.9142 66.5233 13.4654 66.1762 13.1781C65.8292 12.8909 65.3983 12.7473 64.8837 12.7473C64.4169 12.7473 64.01 12.861 63.6629 13.0884C63.3158 13.3038 63.1004 13.6269 63.0166 14.0578H60.7726C60.8324 13.4115 61.0479 12.849 61.4189 12.3703C61.8018 11.8915 62.2925 11.5265 62.891 11.2752C63.4894 11.0119 64.1596 10.8802 64.9016 10.8802C66.1703 10.8802 67.1696 11.1974 67.8997 11.8317C68.6297 12.466 68.9948 13.3636 68.9948 14.5245V20H67.0379L66.8225 18.5638C66.5592 19.0425 66.1882 19.4375 65.7095 19.7487C65.2427 20.0598 64.6383 20.2154 63.8963 20.2154ZM64.4169 18.4202C65.0752 18.4202 65.5838 18.2048 65.9429 17.7739C66.3139 17.3431 66.5472 16.8105 66.643 16.1762H64.6862C64.0758 16.1762 63.639 16.2899 63.3757 16.5172C63.1124 16.7327 62.9807 17.002 62.9807 17.3251C62.9807 17.6722 63.1124 17.9415 63.3757 18.133C63.639 18.3244 63.9861 18.4202 64.4169 18.4202ZM79.4328 20C78.4992 20 77.7512 19.7726 77.1887 19.3178C76.6262 18.863 76.345 18.0552 76.345 16.8942V13.0165H74.819V11.0956H76.345L76.6143 8.70798H78.6429V11.0956H81.0485V13.0165H78.6429V16.9122C78.6429 17.3431 78.7326 17.6423 78.9121 17.8098C79.1036 17.9654 79.4268 18.0432 79.8816 18.0432H80.9946V20H79.4328ZM87.0662 20.2154C86.2044 20.2154 85.4265 20.018 84.7323 19.623C84.0502 19.228 83.5056 18.6835 83.0987 17.9893C82.7037 17.2832 82.5063 16.4694 82.5063 15.5478C82.5063 14.6263 82.7097 13.8184 83.1166 13.1243C83.5236 12.4181 84.0681 11.8676 84.7503 11.4726C85.4445 11.0777 86.2224 10.8802 87.0841 10.8802C87.9338 10.8802 88.6998 11.0777 89.382 11.4726C90.0762 11.8676 90.6207 12.4181 91.0157 13.1243C91.4226 13.8184 91.626 14.6263 91.626 15.5478C91.626 16.4694 91.4226 17.2832 91.0157 17.9893C90.6207 18.6835 90.0762 19.228 89.382 19.623C88.6878 20.018 87.9159 20.2154 87.0662 20.2154ZM87.0662 18.2227C87.6646 18.2227 88.1852 18.0013 88.628 17.5585C89.0708 17.1037 89.2922 16.4335 89.2922 15.5478C89.2922 14.6622 89.0708 13.9979 88.628 13.5551C88.1852 13.1003 87.6705 12.8729 87.0841 12.8729C86.4737 12.8729 85.9471 13.1003 85.5043 13.5551C85.0734 13.9979 84.858 14.6622 84.858 15.5478C84.858 16.4335 85.0734 17.1037 85.5043 17.5585C85.9471 18.0013 86.4677 18.2227 87.0662 18.2227ZM93.6806 20V7.07432H95.9785V14.7041L99.1381 11.0956H101.867L98.2225 15.1529L102.459 20H99.5869L95.9785 15.5299V20H93.6806ZM107.474 20.2154C106.577 20.2154 105.781 20.0239 105.087 19.641C104.392 19.258 103.848 18.7194 103.453 18.0252C103.058 17.3311 102.86 16.5292 102.86 15.6196C102.86 14.6981 103.052 13.8783 103.435 13.1602C103.83 12.4421 104.368 11.8855 105.051 11.4906C105.745 11.0837 106.559 10.8802 107.492 10.8802C108.366 10.8802 109.138 11.0717 109.808 11.4547C110.478 11.8377 110.999 12.3643 111.37 13.0345C111.753 13.6927 111.944 14.4288 111.944 15.2426C111.944 15.3743 111.938 15.5119 111.926 15.6555C111.926 15.7992 111.92 15.9488 111.908 16.1043H105.14C105.188 16.7985 105.428 17.3431 105.858 17.738C106.301 18.133 106.834 18.3304 107.456 18.3304C107.923 18.3304 108.312 18.2287 108.623 18.0252C108.946 17.8098 109.186 17.5345 109.341 17.1994H111.675C111.507 17.7619 111.226 18.2766 110.831 18.7433C110.448 19.1981 109.97 19.5572 109.395 19.8205C108.833 20.0838 108.192 20.2154 107.474 20.2154ZM107.492 12.7473C106.93 12.7473 106.433 12.9088 106.002 13.232C105.571 13.5431 105.296 14.0219 105.176 14.6682H109.61C109.575 14.0817 109.359 13.615 108.964 13.2679C108.569 12.9208 108.079 12.7473 107.492 12.7473ZM113.877 20V11.0956H115.906L116.085 12.6036C116.36 12.077 116.755 11.6582 117.27 11.347C117.797 11.0358 118.413 10.8802 119.119 10.8802C120.22 10.8802 121.076 11.2273 121.686 11.9215C122.297 12.6156 122.602 13.6329 122.602 14.9733V20H120.304V15.1888C120.304 14.4228 120.148 13.8364 119.837 13.4294C119.526 13.0225 119.041 12.8191 118.383 12.8191C117.737 12.8191 117.204 13.0465 116.785 13.5013C116.378 13.956 116.175 14.5904 116.175 15.4042V20H113.877Z" fill="#4E5D78"/>
</svg>
