<svg width="16" height="14" viewBox="0 0 16 14" fill="none" xmlns="http://www.w3.org/2000/svg">
<path d="M0.409145 7.85001H0.433602L2.32659 3.12976C2.32659 3.12976 2.32659 3.12736 2.32899 3.12736C2.34614 3.08828 2.36808 3.05159 2.39505 3.01731C2.40488 3.00268 2.4171 2.99045 2.42933 2.97571C2.44648 2.95617 2.46602 2.93903 2.48556 2.9244C2.51242 2.90234 2.53939 2.88531 2.57116 2.86817C2.5883 2.85834 2.60544 2.85103 2.62247 2.84371C2.64453 2.83389 2.66899 2.82657 2.69344 2.82166C2.71058 2.81674 2.73013 2.81674 2.74727 2.81434C2.76932 2.81194 2.78887 2.80452 2.81081 2.80452C2.82304 2.80452 2.83287 2.80692 2.84509 2.80692H7.17404C7.24249 2.61858 7.36969 2.45961 7.53356 2.34957L7.53345 1.20743C7.53345 0.918874 7.76819 0.686523 8.05436 0.686523C8.34292 0.686523 8.57527 0.921261 8.57527 1.20743V2.34957C8.73916 2.45962 8.86635 2.61859 8.9348 2.80692H12.9946C13.0019 2.80692 13.0092 2.80452 13.0166 2.80452C13.0289 2.80452 13.0387 2.80692 13.0509 2.80692H13.2833C13.3346 2.80692 13.3835 2.81674 13.4324 2.83137C13.4373 2.83378 13.4397 2.83378 13.4446 2.83629C13.5401 2.86806 13.6231 2.92429 13.6868 3.00017C13.6892 3.00257 13.6917 3.00748 13.6966 3.00999C13.7284 3.04908 13.7528 3.09319 13.7724 3.13959V3.14199L15.6041 7.8547C15.7264 7.86452 15.8242 7.97217 15.8242 8.09686C15.8242 9.60092 14.6038 10.8214 13.0997 10.8214C11.598 10.8214 10.3777 9.60095 10.3777 8.08716C10.3777 7.95756 10.4854 7.84991 10.615 7.84991H10.6394L12.2437 3.84882L8.73175 3.84871C8.7097 3.84871 8.68775 3.8438 8.6657 3.8414C8.63633 3.86586 8.60696 3.8854 8.57519 3.90745V11.6651H10.0035C10.4706 11.6651 10.8496 12.0465 10.8496 12.5137V13.0689C10.8496 13.201 10.742 13.3061 10.6124 13.3061H5.49357C5.36397 13.3061 5.25632 13.201 5.25632 13.0689V12.5137C5.25632 12.0466 5.63779 11.6651 6.10498 11.6651H7.53329V3.90745C7.50392 3.88791 7.47215 3.86586 7.44529 3.84391C7.42324 3.84631 7.4037 3.85123 7.38175 3.85123H3.84045L5.40075 7.85483C5.52303 7.86466 5.62085 7.9722 5.62085 8.09699C5.62085 9.60106 4.40043 10.8215 2.89634 10.8215C1.39466 10.8215 0.174345 9.60108 0.174345 8.08729C0.171944 7.95748 0.279596 7.84994 0.409193 7.84994L0.409145 7.85001ZM2.9379 4.40905L1.55849 7.85001H4.2782L2.9379 4.40905ZM13.1437 4.40905L11.7643 7.85001H14.4839L13.1437 4.40905Z" fill="#9763E4"/>
</svg>
