<svg width="22" height="22" viewBox="0 0 22 22" fill="none" xmlns="http://www.w3.org/2000/svg">
<path d="M20.2762 12.0347H20.2463L17.9326 6.26548C17.9326 6.26548 17.9326 6.26254 17.9297 6.26254C17.9088 6.21477 17.8819 6.16994 17.849 6.12803C17.837 6.11015 17.822 6.09521 17.8071 6.07719C17.7861 6.05331 17.7622 6.03235 17.7383 6.01447C17.7055 5.98752 17.6726 5.9667 17.6337 5.94575C17.6128 5.93374 17.5918 5.9248 17.571 5.91586C17.5441 5.90385 17.5142 5.89491 17.4843 5.8889C17.4633 5.8829 17.4394 5.8829 17.4185 5.87996C17.3915 5.87703 17.3676 5.86795 17.3408 5.86795C17.3259 5.86795 17.3139 5.87089 17.2989 5.87089H12.008C11.9243 5.6407 11.7689 5.4464 11.5686 5.31191L11.5687 3.91596C11.5687 3.56328 11.2818 3.2793 10.932 3.2793C10.5794 3.2793 10.2954 3.5662 10.2954 3.91596V5.31191C10.0951 5.44642 9.93961 5.64071 9.85595 5.87089H4.89399C4.88505 5.87089 4.87611 5.86795 4.86704 5.86795C4.85209 5.86795 4.84008 5.87089 4.82513 5.87089H4.54117C4.47845 5.87089 4.41867 5.8829 4.35888 5.90078C4.35288 5.90372 4.34994 5.90372 4.34394 5.90679C4.22731 5.94562 4.12576 6.01434 4.04796 6.10709C4.04502 6.11002 4.04195 6.11603 4.03595 6.11909C3.99712 6.16687 3.96723 6.22078 3.94334 6.27749V6.28043L1.70457 12.0404C1.55511 12.0524 1.43555 12.184 1.43555 12.3364C1.43555 14.1747 2.92717 15.6663 4.76551 15.6663C6.6009 15.6663 8.09239 14.1747 8.09239 12.3245C8.09239 12.1661 7.96082 12.0345 7.80242 12.0345H7.77253L5.81173 7.14433L10.1041 7.1442C10.1311 7.1442 10.1579 7.13819 10.1849 7.13526C10.2207 7.16515 10.2566 7.18903 10.2955 7.21599V16.6975H8.54976C7.97888 16.6975 7.51558 17.1637 7.51558 17.7348V18.4133C7.51558 18.5748 7.64716 18.7033 7.80556 18.7033H14.0619C14.2203 18.7033 14.3519 18.5748 14.3519 18.4133V17.7348C14.3519 17.1639 13.8856 16.6975 13.3146 16.6975H11.5689V7.21599C11.6048 7.1921 11.6436 7.16515 11.6765 7.13833C11.7034 7.14126 11.7273 7.14727 11.7541 7.14727H16.0824L14.1753 12.0406C14.0259 12.0526 13.9063 12.184 13.9063 12.3365C13.9063 14.1748 15.398 15.6665 17.2363 15.6665C19.0717 15.6665 20.5632 14.1749 20.5632 12.3247C20.5661 12.166 20.4345 12.0346 20.2761 12.0346L20.2762 12.0347ZM17.1855 7.82905L18.8714 12.0347H15.5474L17.1855 7.82905ZM4.71177 7.82905L6.39771 12.0347H3.07376L4.71177 7.82905Z" fill="#4E5D78"/>
</svg>