<svg width="20" height="16" viewBox="0 0 20 16" fill="none" xmlns="http://www.w3.org/2000/svg">
<path d="M19.2757 9.03473H19.2458L16.9322 3.26554C16.9322 3.26554 16.9322 3.26261 16.9292 3.26261C16.9083 3.21483 16.8814 3.17 16.8485 3.12809C16.8365 3.11021 16.8215 3.09527 16.8066 3.07725C16.7856 3.05337 16.7617 3.03242 16.7379 3.01454C16.705 2.98758 16.6721 2.96676 16.6332 2.94581C16.6123 2.9338 16.5913 2.92486 16.5705 2.91592C16.5436 2.90391 16.5137 2.89497 16.4838 2.88897C16.4628 2.88296 16.4389 2.88296 16.418 2.88002C16.391 2.87709 16.3672 2.86802 16.3403 2.86802C16.3254 2.86802 16.3134 2.87095 16.2984 2.87095H11.0075C10.9238 2.64076 10.7684 2.44646 10.5681 2.31197L10.5682 0.916026C10.5682 0.563342 10.2813 0.279358 9.93155 0.279358C9.57886 0.279358 9.29488 0.56626 9.29488 0.916026V2.31197C9.09458 2.44648 8.93912 2.64077 8.85546 2.87095H3.8935C3.88456 2.87095 3.87562 2.86802 3.86655 2.86802C3.8516 2.86802 3.83959 2.87095 3.82465 2.87095H3.54068C3.47796 2.87095 3.41818 2.88296 3.3584 2.90084C3.35239 2.90378 3.34946 2.90378 3.34345 2.90685C3.22682 2.94568 3.12527 3.0144 3.04747 3.10715C3.04454 3.11008 3.04147 3.11609 3.03546 3.11916C2.99663 3.16693 2.96674 3.22084 2.94285 3.27755V3.28049L0.70408 9.04046C0.554624 9.05247 0.435059 9.18404 0.435059 9.33644C0.435059 11.1747 1.92669 12.6664 3.76502 12.6664C5.60041 12.6664 7.0919 11.1748 7.0919 9.32458C7.0919 9.16619 6.96033 9.03461 6.80193 9.03461H6.77204L4.81124 4.14439L9.10363 4.14426C9.13058 4.14426 9.15741 4.13825 9.18436 4.13532C9.22026 4.16521 9.25616 4.18909 9.29499 4.21605V13.6976H7.54927C6.97839 13.6976 6.5151 14.1638 6.5151 14.7348V15.4134C6.5151 15.5748 6.64667 15.7033 6.80507 15.7033H13.0614C13.2198 15.7033 13.3514 15.5748 13.3514 15.4134V14.7348C13.3514 14.1639 12.8851 13.6976 12.3141 13.6976H10.5684V4.21605C10.6043 4.19216 10.6431 4.16521 10.676 4.13839C10.7029 4.14132 10.7268 4.14733 10.7536 4.14733H15.0819L13.1749 9.04062C13.0254 9.05263 12.9058 9.18407 12.9058 9.3366C12.9058 11.1749 14.3975 12.6666 16.2358 12.6666C18.0712 12.6666 19.5627 11.1749 19.5627 9.32474C19.5656 9.16608 19.434 9.03464 19.2756 9.03464L19.2757 9.03473ZM16.185 4.82911L17.8709 9.03473H14.5469L16.185 4.82911ZM3.71128 4.82911L5.39722 9.03473H2.07327L3.71128 4.82911Z" fill=var(--theme-primary-button-text)/>
</svg>
