<svg width="22" height="22" viewBox="0 0 22 22" fill="none" xmlns="http://www.w3.org/2000/svg">
<path d="M20.2757 12.0347H20.2458L17.9322 6.26548C17.9322 6.26548 17.9322 6.26254 17.9292 6.26254C17.9083 6.21477 17.8814 6.16994 17.8485 6.12803C17.8365 6.11015 17.8215 6.09521 17.8066 6.07719C17.7856 6.05331 17.7617 6.03235 17.7379 6.01447C17.705 5.98752 17.6721 5.9667 17.6332 5.94575C17.6123 5.93374 17.5913 5.9248 17.5705 5.91586C17.5436 5.90385 17.5137 5.89491 17.4838 5.8889C17.4628 5.8829 17.4389 5.8829 17.418 5.87996C17.391 5.87703 17.3672 5.86795 17.3403 5.86795C17.3254 5.86795 17.3134 5.87089 17.2984 5.87089H12.0075C11.9238 5.6407 11.7684 5.4464 11.5681 5.31191L11.5682 3.91596C11.5682 3.56328 11.2813 3.2793 10.9315 3.2793C10.5789 3.2793 10.2949 3.5662 10.2949 3.91596V5.31191C10.0946 5.44642 9.93912 5.64071 9.85546 5.87089H4.8935C4.88456 5.87089 4.87562 5.86795 4.86655 5.86795C4.8516 5.86795 4.83959 5.87089 4.82465 5.87089H4.54068C4.47796 5.87089 4.41818 5.8829 4.3584 5.90078C4.35239 5.90372 4.34946 5.90372 4.34345 5.90679C4.22682 5.94562 4.12527 6.01434 4.04747 6.10709C4.04454 6.11002 4.04147 6.11603 4.03546 6.11909C3.99663 6.16687 3.96674 6.22078 3.94285 6.27749V6.28043L1.70408 12.0404C1.55462 12.0524 1.43506 12.184 1.43506 12.3364C1.43506 14.1747 2.92669 15.6663 4.76502 15.6663C6.60041 15.6663 8.0919 14.1747 8.0919 12.3245C8.0919 12.1661 7.96033 12.0345 7.80193 12.0345H7.77204L5.81124 7.14433L10.1036 7.1442C10.1306 7.1442 10.1574 7.13819 10.1844 7.13526C10.2203 7.16515 10.2562 7.18903 10.295 7.21599V16.6975H8.54927C7.97839 16.6975 7.5151 17.1637 7.5151 17.7348V18.4133C7.5151 18.5748 7.64667 18.7033 7.80507 18.7033H14.0614C14.2198 18.7033 14.3514 18.5748 14.3514 18.4133V17.7348C14.3514 17.1639 13.8851 16.6975 13.3141 16.6975H11.5684V7.21599C11.6043 7.1921 11.6431 7.16515 11.676 7.13833C11.7029 7.14126 11.7268 7.14727 11.7536 7.14727H16.0819L14.1749 12.0406C14.0254 12.0526 13.9058 12.184 13.9058 12.3365C13.9058 14.1748 15.3975 15.6665 17.2358 15.6665C19.0712 15.6665 20.5627 14.1749 20.5627 12.3247C20.5656 12.166 20.434 12.0346 20.2756 12.0346L20.2757 12.0347ZM17.185 7.82905L18.8709 12.0347H15.5469L17.185 7.82905ZM4.71128 7.82905L6.39722 12.0347H3.07327L4.71128 7.82905Z" fill=var(--theme-swap-text)/>
</svg>