<svg width="20" height="16" viewBox="0 0 20 16" fill="none" xmlns="http://www.w3.org/2000/svg">
<path d="M19.2757 9.03467H19.2458L16.9322 3.26548C16.9322 3.26548 16.9322 3.26254 16.9292 3.26254C16.9083 3.21477 16.8814 3.16994 16.8485 3.12803C16.8365 3.11015 16.8215 3.09521 16.8066 3.07719C16.7856 3.05331 16.7617 3.03235 16.7379 3.01447C16.705 2.98752 16.6721 2.9667 16.6332 2.94575C16.6123 2.93374 16.5913 2.9248 16.5705 2.91586C16.5436 2.90385 16.5137 2.89491 16.4838 2.8889C16.4628 2.8829 16.4389 2.8829 16.418 2.87996C16.391 2.87703 16.3672 2.86795 16.3403 2.86795C16.3254 2.86795 16.3134 2.87089 16.2984 2.87089H11.0075C10.9238 2.6407 10.7684 2.4464 10.5681 2.31191L10.5682 0.915965C10.5682 0.563281 10.2813 0.279297 9.93155 0.279297C9.57886 0.279297 9.29488 0.566199 9.29488 0.915965V2.31191C9.09458 2.44642 8.93912 2.64071 8.85546 2.87089H3.8935C3.88456 2.87089 3.87562 2.86795 3.86655 2.86795C3.8516 2.86795 3.83959 2.87089 3.82465 2.87089H3.54068C3.47796 2.87089 3.41818 2.8829 3.3584 2.90078C3.35239 2.90372 3.34946 2.90372 3.34345 2.90679C3.22682 2.94562 3.12527 3.01434 3.04747 3.10709C3.04454 3.11002 3.04147 3.11603 3.03546 3.11909C2.99663 3.16687 2.96674 3.22078 2.94285 3.27749V3.28043L0.70408 9.0404C0.554624 9.05241 0.435059 9.18398 0.435059 9.33637C0.435059 11.1747 1.92669 12.6663 3.76502 12.6663C5.60041 12.6663 7.0919 11.1747 7.0919 9.32452C7.0919 9.16612 6.96033 9.03455 6.80193 9.03455H6.77204L4.81124 4.14433L9.10363 4.1442C9.13058 4.1442 9.15741 4.13819 9.18436 4.13526C9.22026 4.16515 9.25616 4.18903 9.29499 4.21599V13.6975H7.54927C6.97839 13.6975 6.5151 14.1637 6.5151 14.7348V15.4133C6.5151 15.5748 6.64667 15.7033 6.80507 15.7033H13.0614C13.2198 15.7033 13.3514 15.5748 13.3514 15.4133V14.7348C13.3514 14.1639 12.8851 13.6975 12.3141 13.6975H10.5684V4.21599C10.6043 4.1921 10.6431 4.16515 10.676 4.13833C10.7029 4.14126 10.7268 4.14727 10.7536 4.14727H15.0819L13.1749 9.04056C13.0254 9.05257 12.9058 9.18401 12.9058 9.33654C12.9058 11.1748 14.3975 12.6665 16.2358 12.6665C18.0712 12.6665 19.5627 11.1749 19.5627 9.32468C19.5656 9.16602 19.434 9.03458 19.2756 9.03458L19.2757 9.03467ZM16.185 4.82905L17.8709 9.03467H14.5469L16.185 4.82905ZM3.71128 4.82905L5.39722 9.03467H2.07327L3.71128 4.82905Z" fill=var(--theme-primary-button-bg)/>
</svg>
