<svg width="38" height="38" viewBox="0 0 38 38" fill="none" xmlns="http://www.w3.org/2000/svg">
<path d="M12.7394 31.5234L11.6326 32.6302L12.7394 33.737L13.8462 32.6302L12.7394 31.5234ZM15.8698 8.04518C16.7343 8.04518 17.435 7.34441 17.435 6.47996C17.435 5.61551 16.7343 4.91474 15.8698 4.91474L15.8698 8.04518ZM5.37174 26.3693L11.6326 32.6302L13.8462 30.4167L7.58529 24.1558L5.37174 26.3693ZM13.8462 32.6302L20.107 26.3693L17.8935 24.1558L11.6326 30.4167L13.8462 32.6302ZM14.3046 31.5234L14.3046 9.6104L11.1742 9.6104L11.1742 31.5234L14.3046 31.5234ZM14.3046 9.6104C14.3046 8.74595 15.0054 8.04518 15.8698 8.04518L15.8698 4.91474C13.2765 4.91474 11.1742 7.01706 11.1742 9.6104L14.3046 9.6104Z" fill="white"/>
<path d="M25.2618 6.47949L24.1551 5.37272L25.2618 4.26594L26.3686 5.37272L25.2618 6.47949ZM25.2618 29.9578L23.6966 29.9578L25.2618 29.9578ZM22.1314 34.6534C21.267 34.6534 20.5662 33.9526 20.5662 33.0882C20.5662 32.2237 21.267 31.523 22.1314 31.523L22.1314 34.6534ZM17.8942 11.6336L24.1551 5.37272L26.3686 7.58627L20.1078 13.8471L17.8942 11.6336ZM26.3686 5.37272L32.6295 11.6336L30.4159 13.8471L24.1551 7.58627L26.3686 5.37272ZM26.8271 6.47949L26.8271 29.9578L23.6966 29.9578L23.6966 6.47949L26.8271 6.47949ZM26.8271 29.9578C26.8271 32.5511 24.7247 34.6534 22.1314 34.6534L22.1314 31.523C22.9959 31.523 23.6966 30.8222 23.6966 29.9578L26.8271 29.9578Z" fill="white"/>
</svg>
