<svg width="38" height="38" viewBox="0 0 38 38" fill="none" xmlns="http://www.w3.org/2000/svg">
<path d="M12.9743 31.0586L11.9085 32.1244L12.9743 33.1902L14.0401 32.1244L12.9743 31.0586ZM15.9888 8.4499C16.8212 8.4499 17.496 7.77508 17.496 6.94265C17.496 6.11022 16.8212 5.43541 15.9888 5.43541L15.9888 8.4499ZM5.87953 26.0954L11.9085 32.1244L14.0401 29.9928L8.0111 23.9638L5.87953 26.0954ZM14.0401 32.1244L20.0691 26.0954L17.9375 23.9638L11.9085 29.9928L14.0401 32.1244ZM14.4815 31.0586L14.4815 9.95714L11.4671 9.95714L11.4671 31.0586L14.4815 31.0586ZM14.4815 9.95714C14.4815 9.12471 15.1564 8.4499 15.9888 8.4499L15.9888 5.43541C13.4915 5.43541 11.4671 7.45985 11.4671 9.95714L14.4815 9.95714Z" fill="#0D0831"/>
<path d="M25.0319 6.94336L23.9661 5.87757L25.0319 4.81179L26.0977 5.87757L25.0319 6.94336ZM25.0319 29.5521L23.5247 29.5521L25.0319 29.5521ZM22.0174 34.0738C21.185 34.0738 20.5102 33.399 20.5102 32.5665C20.5102 31.7341 21.185 31.0593 22.0174 31.0593L22.0174 34.0738ZM17.9371 11.9066L23.9661 5.87757L26.0977 8.00914L20.0687 14.0381L17.9371 11.9066ZM26.0977 5.87757L32.1267 11.9066L29.9951 14.0381L23.9661 8.00914L26.0977 5.87757ZM26.5392 6.94336L26.5392 29.5521L23.5247 29.5521L23.5247 6.94336L26.5392 6.94336ZM26.5392 29.5521C26.5392 32.0493 24.5147 34.0738 22.0174 34.0738L22.0174 31.0593C22.8499 31.0593 23.5247 30.3845 23.5247 29.5521L26.5392 29.5521Z" fill="#0D0831"/>
</svg>
