<svg width="31" height="32" viewBox="0 0 31 32" fill="none" xmlns="http://www.w3.org/2000/svg">
    <g opacity="0.11">
        <rect y="0.445312" width="30.5725" height="30.5725" rx="15.2863" fill="url(#paint0_linear)"/>
        <rect y="0.445312" width="30.5725" height="30.5725" rx="15.2863" fill="#0EB692"/>
    </g>
    <path d="M15.612 14.7596C13.7032 14.2385 13.0893 13.6997 13.0893 12.8607C13.0893 11.898 13.9386 11.2267 15.3597 11.2267C16.8565 11.2267 17.4115 11.9775 17.462 13.0815H19.3204C19.2615 11.5624 18.3786 10.1669 16.6211 9.71645V7.78223H14.0984V9.68995C12.4671 10.0609 11.1553 11.1737 11.1553 12.8783C11.1553 14.9185 12.7614 15.9342 15.1075 16.526C17.2097 17.0559 17.6302 17.8331 17.6302 18.6545C17.6302 19.2639 17.2181 20.2354 15.3597 20.2354C13.6275 20.2354 12.9464 19.4229 12.8539 18.3807H11.0039C11.1048 20.3149 12.4839 21.4013 14.0984 21.7634V23.6799H16.6211V21.781C18.2608 21.4543 19.5642 20.4562 19.5642 18.6457C19.5642 16.1374 17.5208 15.2806 15.612 14.7596Z"
          fill="url(#paint1_linear)"/>
    <path d="M15.612 14.7596C13.7032 14.2385 13.0893 13.6997 13.0893 12.8607C13.0893 11.898 13.9386 11.2267 15.3597 11.2267C16.8565 11.2267 17.4115 11.9775 17.462 13.0815H19.3204C19.2615 11.5624 18.3786 10.1669 16.6211 9.71645V7.78223H14.0984V9.68995C12.4671 10.0609 11.1553 11.1737 11.1553 12.8783C11.1553 14.9185 12.7614 15.9342 15.1075 16.526C17.2097 17.0559 17.6302 17.8331 17.6302 18.6545C17.6302 19.2639 17.2181 20.2354 15.3597 20.2354C13.6275 20.2354 12.9464 19.4229 12.8539 18.3807H11.0039C11.1048 20.3149 12.4839 21.4013 14.0984 21.7634V23.6799H16.6211V21.781C18.2608 21.4543 19.5642 20.4562 19.5642 18.6457C19.5642 16.1374 17.5208 15.2806 15.612 14.7596Z"
          fill="#0EB692"/>
    <defs>
        <linearGradient id="paint0_linear" x1="-5.76568e-08" y1="15.7316" x2="45.7981" y2="19.7154"
                        gradientUnits="userSpaceOnUse">
            <stop stop-color="#7028E4"/>
            <stop offset="1" stop-color="#E5B2CA"/>
        </linearGradient>
        <linearGradient id="paint1_linear" x1="7.94665" y1="11.4509" x2="20.1736" y2="14.8255"
                        gradientUnits="userSpaceOnUse">
            <stop stop-color="#7028E4"/>
            <stop offset="1" stop-color="#E5B2CA"/>
        </linearGradient>
    </defs>
</svg>
