<svg width="31" height="31" viewBox="0 0 31 31" fill="none" xmlns="http://www.w3.org/2000/svg">
    <g opacity="0.11">
        <rect width="30.4054" height="30.4054" rx="15.2027" fill="url(#paint0_linear)"/>
        <rect width="30.4054" height="30.4054" rx="15.2027" fill="#FD965D"/>
    </g>
    <path d="M21.8922 12.9852C21.8922 13.7581 21.6987 14.4826 21.3116 15.1589C20.9389 15.8351 20.3439 16.3803 19.5267 16.7943C18.7239 17.2083 17.706 17.4153 16.473 17.4153H13.957V22.9634H10.9463V8.51367H16.473C17.6343 8.51367 18.6235 8.70689 19.4407 9.09332C20.2579 9.47974 20.8672 10.0111 21.2686 10.6873C21.6844 11.3636 21.8922 12.1295 21.8922 12.9852ZM16.344 15.0761C17.1755 15.0761 17.792 14.8966 18.1934 14.5378C18.5948 14.1652 18.7955 13.6477 18.7955 12.9852C18.7955 11.5775 17.9784 10.8736 16.344 10.8736H13.957V15.0761H16.344Z"
          fill="#FD965D"/>
    <path d="M17.1255 23.1083C16.5807 23.1083 16.1291 22.9496 15.7707 22.6321C15.4266 22.3009 15.2546 21.8938 15.2546 21.4107C15.2546 20.9277 15.4266 20.5275 15.7707 20.21C16.1291 19.8788 16.5807 19.7132 17.1255 19.7132C17.656 19.7132 18.0932 19.8788 18.4373 20.21C18.7814 20.5275 18.9534 20.9277 18.9534 21.4107C18.9534 21.8938 18.7814 22.3009 18.4373 22.6321C18.0932 22.9496 17.656 23.1083 17.1255 23.1083Z"
          fill="#FD965D"/>
    <defs>
        <linearGradient id="paint0_linear" x1="-5.73416e-08" y1="15.2027" x2="45.5478" y2="19.1647"
                        gradientUnits="userSpaceOnUse">
            <stop stop-color="#7028E4"/>
            <stop offset="1" stop-color="#E5B2CA"/>
        </linearGradient>
    </defs>
</svg>
