<svg width="30" height="30" viewBox="0 0 30 30" fill="none" xmlns="http://www.w3.org/2000/svg">
<rect width="30" height="30" rx="15" fill="url(#paint0_linear)"/>
<path d="M22.3536 12.4415C22.3536 13.1741 22.1801 13.8609 21.833 14.5019C21.4987 15.1429 20.9652 15.6596 20.2324 16.0521C19.5125 16.4445 18.5997 16.6407 17.4941 16.6407H15.2378V22.0369H12.5381V8.20312H17.4941C18.5354 8.20312 19.4225 8.38627 20.1553 8.75255C20.8881 9.11883 21.4344 9.62247 21.7944 10.2635C22.1672 10.9045 22.3536 11.6305 22.3536 12.4415ZM17.3784 14.4234C18.124 14.4234 18.6768 14.2533 19.0368 13.9132C19.3968 13.56 19.5767 13.0695 19.5767 12.4415C19.5767 11.1072 18.844 10.4401 17.3784 10.4401H15.2378V14.4234H17.3784Z" fill="white"/>
<path d="M18.0792 22.0369C17.5907 22.0369 17.1857 21.8864 16.8643 21.5856C16.5558 21.2716 16.4015 20.8857 16.4015 20.4278C16.4015 19.97 16.5558 19.5906 16.8643 19.2897C17.1857 18.9758 17.5907 18.8188 18.0792 18.8188C18.5549 18.8188 18.947 18.9758 19.2555 19.2897C19.5641 19.5906 19.7183 19.97 19.7183 20.4278C19.7183 20.8857 19.5641 21.2716 19.2555 21.5856C18.947 21.8864 18.5549 22.0369 18.0792 22.0369Z" fill="white"/>
<rect x="7.00293" y="14.3486" width="7.03668" height="2.25705" fill="white"/>
<path fill-rule="evenodd" clip-rule="evenodd" d="M9.45913 19.7255H7.00293V17.9995H11.1851V22.0489H9.45913V19.7255Z" fill="white"/>
<defs>
<linearGradient id="paint0_linear" x1="0" y1="0" x2="35.7254" y2="6.58105" gradientUnits="userSpaceOnUse">
<stop stop-color="#F8B67F"/>
<stop offset="0.322917" stop-color="#FF5451"/>
<stop offset="0.644578" stop-color="#EE1EC0"/>
<stop offset="1" stop-color="#A02CFC"/>
</linearGradient>
</defs>
</svg>
