<svg xmlns="http://www.w3.org/2000/svg" xmlns:xlink="http://www.w3.org/1999/xlink" width="100pt" height="93pt" viewBox="0 0 100 93" version="1.1">
    <g id="surface1">
        <path style=" stroke:none;fill-rule:nonzero;fill:rgb(30.588235%,36.470588%,47.058824%);fill-opacity:1;" d="M 83.417969 0 L 11.195312 0 C 5.523438 0 0.878906 4.648438 0.878906 10.332031 L 0.878906 82.667969 C 0.878906 88.351562 5.523438 93 11.195312 93 L 83.417969 93 C 89.09375 93 93.734375 88.351562 93.734375 82.667969 L 93.734375 10.332031 C 93.734375 4.648438 89.09375 0 83.417969 0 Z M 83.417969 82.667969 L 11.195312 82.667969 L 11.195312 10.332031 L 83.417969 10.332031 Z M 83.417969 82.667969 "/>
        <path style=" stroke:none;fill-rule:nonzero;fill:rgb(30.588235%,36.470588%,47.058824%);fill-opacity:1;" d="M 43.4375 24.390625 L 17.644531 24.390625 L 17.644531 32.140625 L 43.4375 32.140625 Z M 43.4375 24.390625 "/>
        <path style=" stroke:none;fill-rule:nonzero;fill:rgb(30.588235%,36.470588%,47.058824%);fill-opacity:1;" d="M 78.257812 65.871094 L 52.464844 65.871094 L 52.464844 73.621094 L 78.257812 73.621094 Z M 78.257812 65.871094 "/>
        <path style=" stroke:none;fill-rule:nonzero;fill:rgb(30.588235%,36.470588%,47.058824%);fill-opacity:1;" d="M 78.257812 52.957031 L 52.464844 52.957031 L 52.464844 60.707031 L 78.257812 60.707031 Z M 78.257812 52.957031 "/>
        <path style=" stroke:none;fill-rule:nonzero;fill:rgb(30.588235%,36.470588%,47.058824%);fill-opacity:1;" d="M 26.671875 77.5 L 34.410156 77.5 L 34.410156 67.167969 L 44.730469 67.167969 L 44.730469 59.417969 L 34.410156 59.417969 L 34.410156 49.085938 L 26.671875 49.085938 L 26.671875 59.417969 L 16.355469 59.417969 L 16.355469 67.167969 L 26.671875 67.167969 Z M 26.671875 77.5 "/>
        <path style=" stroke:none;fill-rule:nonzero;fill:rgb(30.588235%,36.470588%,47.058824%);fill-opacity:1;" d="M 58.085938 41.078125 L 65.359375 33.792969 L 72.632812 41.078125 L 78.101562 35.601562 L 70.828125 28.265625 L 78.101562 20.980469 L 72.632812 15.503906 L 65.359375 22.789062 L 58.085938 15.503906 L 52.617188 20.980469 L 59.890625 28.265625 L 52.617188 35.601562 Z M 58.085938 41.078125 "/>
    </g>
</svg>