<svg width="14" height="13" viewBox="0 0 14 13" fill="none" xmlns="http://www.w3.org/2000/svg">
<path d="M11.6786 0H1.56749C0.773047 0 0.123047 0.65 0.123047 1.44444V11.5556C0.123047 12.35 0.773047 13 1.56749 13H11.6786C12.473 13 13.123 12.35 13.123 11.5556V1.44444C13.123 0.65 12.473 0 11.6786 0ZM11.6786 11.5556H1.56749V1.44444H11.6786V11.5556Z" fill="#4E5D78"/>
<path d="M6.08133 3.40918H2.47021V4.49251H6.08133V3.40918Z" fill="#4E5D78"/>
<path d="M10.9563 9.20801H7.34521V10.2913H10.9563V9.20801Z" fill="#4E5D78"/>
<path d="M10.9563 7.40234H7.34521V8.48568H10.9563V7.40234Z" fill="#4E5D78"/>
<path d="M3.734 10.8336H4.81733V9.38911H6.26178V8.30577H4.81733V6.86133H3.734V8.30577H2.28955V9.38911H3.734V10.8336Z" fill="#4E5D78"/>
<path d="M8.13225 5.74199L9.15058 4.72366L10.1689 5.74199L10.9344 4.97644L9.91614 3.95088L10.9344 2.93255L10.1689 2.16699L9.15058 3.18533L8.13225 2.16699L7.3667 2.93255L8.38503 3.95088L7.3667 4.97644L8.13225 5.74199Z" fill="#4E5D78"/>
</svg>