<svg width="26" height="26" viewBox="0 0 26 26" fill="none" xmlns="http://www.w3.org/2000/svg">
<path d="M25.0142 13.2415C25.0142 20.0195 19.5195 25.5142 12.7415 25.5142C5.96342 25.5142 0.46875 20.0195 0.46875 13.2415C0.46875 6.46342 5.96342 0.96875 12.7415 0.96875C19.5195 0.96875 25.0142 6.46342 25.0142 13.2415ZM11.3219 19.7398L20.4275 10.6342C20.7367 10.325 20.7367 9.82367 20.4275 9.51448L19.3077 8.39474C18.9985 8.0855 18.4972 8.0855 18.1879 8.39474L10.762 15.8206L7.29501 12.3536C6.98581 12.0444 6.48446 12.0444 6.17522 12.3536L5.05548 13.4734C4.74629 13.7826 4.74629 14.2839 5.05548 14.5931L10.2021 19.7397C10.5114 20.049 11.0127 20.049 11.3219 19.7398V19.7398Z" fill="#6202EF"/>
</svg>
