<svg width="100" height="100" viewBox="0 0 100 100" fill="none" xmlns="http://www.w3.org/2000/svg">
<path d="M100 50C100 77.6133 77.6133 100 50 100C22.3867 100 0 77.6133 0 50C0 22.3867 22.3867 0 50 0C77.6133 0 100 22.3867 100 50Z" fill="#6202ef"/>
<path d="M34.6914 43.8906C35.6406 44.8477 37.1719 44.8477 38.1172 43.8906L47.5703 34.3867V71.5508C47.5703 72.8984 48.6641 74 50.0039 74C51.3398 74 52.4336 72.8984 52.4336 71.5508V34.3594L61.8633 43.8672C62.8086 44.8203 64.3398 44.8203 65.2891 43.8672C66.2344 42.9102 66.2344 41.3672 65.2891 40.4102L51.7031 26.7187C50.7539 25.7617 49.2266 25.7617 48.2773 26.7187L34.6914 40.4102C33.7695 41.3672 33.7695 42.9336 34.6914 43.8906Z" fill="white"/>
</svg>