<svg width="276"  viewBox="0 0 276 139" fill="none" xmlns="http://www.w3.org/2000/svg">
<path d="M47.9481 53.1691C47.8489 53.1691 47.8489 53.0698 47.9481 52.9706L64.8622 36.0194V34.1837C64.8544 34.0503 64.7978 33.9244 64.7034 33.8299C64.6089 33.7354 64.483 33.6789 64.3497 33.671H33.1998V23.5334V20.4739L21.7253 22.9215V24.5752H22.3371C22.713 24.5662 23.0869 24.6336 23.436 24.7733C23.7851 24.913 24.1023 25.1222 24.3682 25.3882C24.6341 25.6542 24.8432 25.9714 24.9829 26.3206C25.1226 26.6698 25.19 27.0437 25.1809 27.4197V33.7206H16.2361C16.1584 33.7246 16.085 33.7573 16.0301 33.8123C15.9751 33.8672 15.9425 33.9407 15.9385 34.0183V37.8716H25.1809V59.6684C25.1809 66.482 29.5459 71.2448 37.2506 70.6329C38.8508 70.4523 40.383 69.8847 41.7148 68.9792C41.9937 68.8015 42.2243 68.5575 42.3859 68.2689C42.5475 67.9803 42.635 67.6561 42.6407 67.3254V65.1589C41.291 66.0939 39.7015 66.6219 38.0608 66.6804C33.1998 66.6804 33.299 60.4788 33.299 60.4788V37.9378H55.7355L39.5819 54.1944C39.5819 56.3278 39.4827 58.0477 39.4827 58.0477C39.4827 58.074 39.4932 58.0993 39.5118 58.1179C39.5304 58.1365 39.5556 58.1469 39.5819 58.1469C54.4624 60.6937 58.3644 70.236 58.3644 73.0309C58.3644 73.0309 60.0178 86.5423 46.3939 87.5511C46.3939 87.5511 37.5648 87.9645 35.9279 84.4089C35.9071 84.385 35.8928 84.3561 35.8866 84.325C35.8803 84.2939 35.8823 84.2618 35.8923 84.2317C35.9024 84.2016 35.9201 84.1746 35.9437 84.1535C35.9674 84.1324 35.9961 84.1178 36.0271 84.1112C36.7669 83.802 37.3963 83.2766 37.8328 82.6039C38.2694 81.9312 38.4929 81.1424 38.4742 80.3406C38.5106 79.6884 38.4056 79.036 38.1664 78.4282C37.9272 77.8204 37.5594 77.2715 37.0883 76.8191C36.6172 76.3667 36.0538 76.0216 35.4369 75.8073C34.82 75.5931 34.164 75.5147 33.514 75.5777C32.2321 75.5767 30.9997 76.0721 30.0749 76.96C29.1502 77.848 28.6051 79.0595 28.5538 80.3406C28.5538 80.3406 27.2311 91.7186 46.3277 91.4209C68.0037 90.9579 66.6975 72.7663 66.6975 72.7663C65.8708 59.6684 49.4361 53.781 47.9481 53.1691Z" fill="white"/>
<path d="M17.7574 99.574H0V101.294H7.82052V122.727H9.85419V101.294H17.7574V99.574Z" fill="white"/>
<path d="M24.6684 105.263C23.3397 105.282 22.0416 105.666 20.9152 106.371C19.7719 107.174 18.8596 108.263 18.2698 109.53C17.6457 110.934 17.3353 112.458 17.3605 113.995V114.706C17.3209 116.223 17.668 117.726 18.369 119.072C18.9712 120.33 19.9244 121.387 21.1136 122.115C22.3071 122.833 23.6723 123.216 25.0652 123.223C26.2572 123.278 27.4436 123.028 28.5115 122.495C29.5794 121.963 30.4933 121.166 31.1662 120.18L29.9427 119.27C29.4021 120.012 28.6626 120.585 27.8099 120.924C26.9895 121.31 26.0862 121.486 25.181 121.437C24.369 121.465 23.5615 121.305 22.8216 120.969C22.0817 120.633 21.4292 120.131 20.9152 119.502C19.7848 118.14 19.1961 116.409 19.2619 114.64V114.326H31.5465V113.317C31.6823 111.228 31.0337 109.164 29.7278 107.529C29.1241 106.777 28.3507 106.18 27.4711 105.786C26.5914 105.392 25.6309 105.213 24.6684 105.263V105.263ZM29.6286 112.573H19.3776C19.5151 110.993 20.1521 109.499 21.1963 108.306C21.643 107.796 22.1994 107.394 22.8237 107.131C23.448 106.867 24.124 106.749 24.8007 106.784C25.4546 106.757 26.1061 106.88 26.7052 107.144C27.3042 107.407 27.8348 107.805 28.2563 108.306C29.2406 109.463 29.7748 110.937 29.7609 112.457L29.6617 112.655L29.6286 112.573Z" fill="white"/>
<path d="M47.5019 106.983V105.561H35.0188V107.181H45.1706L34.7212 121.305V122.727H48.2128V121.09H37.0525L47.5019 106.983Z" fill="white"/>
<path d="M58.6787 105.263C57.2794 105.247 55.9046 105.631 54.7156 106.369C53.5266 107.107 52.5728 108.169 51.9659 109.43C51.3477 110.837 51.0377 112.359 51.0566 113.896V114.292C50.9375 116.628 51.6986 118.924 53.1894 120.726C53.8795 121.524 54.7399 122.156 55.7072 122.577C56.6744 122.998 57.7238 123.196 58.7779 123.157C60.1804 123.226 61.5676 122.837 62.7295 122.049C63.8864 121.311 64.8051 120.254 65.3749 119.006C65.9989 117.595 66.3092 116.066 66.2843 114.524V114.111C66.395 111.786 65.6344 109.504 64.1514 107.71C63.4799 106.919 62.6397 106.289 61.6927 105.865C60.7456 105.442 59.7157 105.236 58.6787 105.263V105.263ZM64.4655 114.193C64.5626 116.062 63.9747 117.903 62.8122 119.37C62.3183 119.993 61.69 120.496 60.9742 120.842C60.2585 121.188 59.4737 121.368 58.6787 121.368C57.8836 121.368 57.0989 121.188 56.3831 120.842C55.6673 120.496 55.039 119.993 54.5452 119.37C53.3962 117.934 52.8085 116.129 52.8918 114.292V113.995C52.7902 112.125 53.3785 110.283 54.5452 108.818C55.0215 108.166 55.6501 107.639 56.3762 107.284C57.1024 106.93 57.9041 106.758 58.7117 106.784C59.7946 106.772 60.8555 107.089 61.754 107.694C62.6637 108.328 63.3701 109.213 63.7876 110.241C64.266 111.364 64.5026 112.575 64.4821 113.796V114.193H64.4655Z" fill="white"/>
<path d="M81.8098 116.029C81.3301 115.353 80.7096 114.789 79.9911 114.375C78.8237 113.748 77.5518 113.339 76.2379 113.168C75.0117 112.953 73.8385 112.504 72.7823 111.845C72.4719 111.61 72.2258 111.3 72.0669 110.944C71.9079 110.589 71.8412 110.199 71.8729 109.811C71.8647 109.391 71.9618 108.976 72.1553 108.603C72.3488 108.23 72.6326 107.912 72.9807 107.677C73.9028 107.11 74.9745 106.833 76.056 106.884C77.1983 106.809 78.3265 107.169 79.214 107.892C79.5903 108.202 79.8936 108.591 80.1022 109.031C80.3109 109.471 80.4197 109.952 80.4209 110.439H82.3554C82.3634 109.732 82.2199 109.031 81.9348 108.383C81.6496 107.736 81.2293 107.157 80.702 106.685C79.373 105.671 77.7248 105.166 76.056 105.263C74.4914 105.182 72.9477 105.65 71.6911 106.586C71.1823 106.975 70.7691 107.476 70.4826 108.049C70.1961 108.622 70.0439 109.253 70.0377 109.893C69.9898 110.654 70.2059 111.407 70.6494 112.027C71.1336 112.664 71.7553 113.184 72.4681 113.548C73.6019 114.069 74.796 114.447 76.0229 114.673C77.2475 114.893 78.4198 115.342 79.4785 115.996C79.842 116.24 80.1364 116.574 80.3334 116.965C80.5303 117.356 80.6231 117.791 80.6028 118.229C80.6022 118.68 80.4884 119.124 80.2718 119.52C80.0551 119.915 79.7426 120.251 79.3628 120.494C78.3899 121.152 77.2281 121.471 76.056 121.404C74.8438 121.458 73.6438 121.141 72.6169 120.494C72.188 120.197 71.8355 119.802 71.5883 119.342C71.3412 118.882 71.2064 118.37 71.195 117.848H69.2275C69.2126 118.564 69.3755 119.273 69.7015 119.911C70.0276 120.549 70.5066 121.096 71.0958 121.503C72.5174 122.495 74.2247 122.995 75.9568 122.925C77.5906 123.029 79.2096 122.561 80.5367 121.602C81.0584 121.195 81.4791 120.672 81.7659 120.076C82.0526 119.479 82.1978 118.824 82.1901 118.162C82.2863 117.801 82.3021 117.422 82.2364 117.054C82.1707 116.685 82.0251 116.335 81.8098 116.029V116.029Z" fill="white"/>
<path d="M116.333 0V139" stroke="white" stroke-width="2" stroke-miterlimit="10"/>
<path d="M150.888 37.0941V46.3057H147.796V22.7559H156.477C158.68 22.6517 160.842 23.3841 162.528 24.8065C163.259 25.4601 163.835 26.2681 164.216 27.1719C164.596 28.0757 164.771 29.0528 164.727 30.0325C164.787 31.0192 164.625 32.0067 164.253 32.9225C163.881 33.8384 163.308 34.6591 162.578 35.3246C160.823 36.6605 158.645 37.3182 156.444 37.1768L150.888 37.0941ZM150.888 34.5473H156.477C157.878 34.6561 159.27 34.2374 160.379 33.3731C160.833 32.9384 161.186 32.4098 161.415 31.8242C161.643 31.2387 161.741 30.6102 161.701 29.9829C161.72 29.3703 161.612 28.7605 161.384 28.1914C161.157 27.6224 160.814 27.1063 160.379 26.6753C159.377 25.7922 158.076 25.325 156.741 25.3688H150.888V34.5473Z" fill="white"/>
<path d="M176.681 31.4219C176.207 31.3888 175.732 31.3888 175.259 31.4219C174.411 31.3565 173.564 31.5655 172.844 32.0181C172.123 32.4707 171.567 33.1429 171.258 33.9356V46.3059H168.265V28.8089H171.175V30.8265C171.598 30.0963 172.21 29.4932 172.946 29.0801C173.681 28.667 174.515 28.4591 175.358 28.4781C175.811 28.4564 176.263 28.5355 176.681 28.7097V31.4219Z" fill="white"/>
<path d="M178.318 37.3918C178.289 35.7961 178.635 34.2159 179.326 32.7778C179.94 31.4717 180.915 30.3695 182.137 29.6025C183.376 28.8466 184.803 28.4567 186.254 28.4779C187.342 28.4397 188.425 28.6423 189.425 29.0711C190.425 29.4999 191.319 30.1444 192.041 30.9586C193.585 32.8057 194.371 35.1698 194.24 37.5737V37.7887C194.271 39.3704 193.938 40.938 193.265 42.3697C192.663 43.6738 191.691 44.7722 190.47 45.5284C189.213 46.2997 187.762 46.6956 186.287 46.6695C185.202 46.7076 184.122 46.5049 183.124 46.076C182.126 45.6471 181.236 45.0026 180.517 44.1888C178.97 42.3434 178.184 39.9781 178.318 37.5737V37.3918ZM181.327 37.7556C181.245 39.4207 181.716 41.0662 182.666 42.4358C183.084 42.9981 183.632 43.4511 184.262 43.7563C184.892 44.0615 185.587 44.2099 186.287 44.1888C186.991 44.2119 187.69 44.0609 188.321 43.7494C188.953 43.4378 189.498 42.9753 189.908 42.4027C190.87 40.9332 191.339 39.1955 191.247 37.4414C191.327 35.7793 190.85 34.138 189.892 32.7778C189.474 32.2091 188.925 31.7498 188.292 31.4389C187.658 31.1279 186.959 30.9745 186.254 30.9917C185.561 30.9778 184.874 31.1313 184.252 31.4394C183.63 31.7474 183.092 32.2008 182.683 32.7612C181.695 34.232 181.219 35.9871 181.327 37.7556V37.7556Z" fill="white"/>
<path d="M208.806 44.652C208.161 45.3567 207.365 45.907 206.478 46.262C205.59 46.617 204.634 46.7676 203.681 46.7027C202.893 46.7512 202.103 46.6285 201.367 46.3431C200.631 46.0576 199.965 45.6161 199.415 45.0489C198.347 43.6808 197.818 41.9687 197.927 40.2364V28.8088H200.92V40.1207C200.92 42.7667 202.011 44.0897 204.227 44.0897C205.158 44.1961 206.099 44.0075 206.918 43.5506C207.736 43.0938 208.391 42.3916 208.79 41.5429V28.8088H211.783V46.3058H208.939L208.806 44.652Z" fill="white"/>
<path d="M215.536 37.4084C215.42 35.0948 216.09 32.8102 217.437 30.9256C218.011 30.1536 218.76 29.5292 219.622 29.1036C220.485 28.6781 221.436 28.4636 222.397 28.478C223.316 28.4402 224.231 28.6093 225.075 28.9728C225.919 29.3364 226.671 29.885 227.275 30.5783V21.499H230.267V46.3057H227.523L227.374 44.4369C226.773 45.1614 226.012 45.737 225.152 46.1186C224.291 46.5001 223.354 46.6774 222.414 46.6364C221.446 46.6562 220.488 46.4391 219.624 46.0038C218.759 45.5685 218.014 44.9284 217.454 44.1392C216.098 42.2522 215.421 39.961 215.536 37.6399V37.4084ZM218.528 37.7557C218.429 39.4009 218.858 41.0347 219.752 42.4193C220.137 42.9524 220.648 43.3822 221.24 43.6707C221.831 43.9591 222.484 44.0973 223.141 44.0731C224.01 44.1123 224.871 43.8907 225.614 43.4369C226.356 42.9831 226.946 42.3178 227.308 41.5263V33.5054C226.935 32.7344 226.345 32.0889 225.611 31.6482C224.877 31.2076 224.03 30.9909 223.174 31.0248C222.511 30.9935 221.851 31.1284 221.253 31.4172C220.656 31.706 220.139 32.1396 219.752 32.6786C218.82 34.2001 218.392 35.9767 218.528 37.7557V37.7557Z" fill="white"/>
<path d="M238.187 46.3057H235.194V21.499H238.187V46.3057Z" fill="white"/>
<path d="M248.703 41.9233L252.786 28.8088H255.978L248.951 49.018C247.859 51.9286 246.123 53.384 243.759 53.384H243.197L242.073 53.169V50.6883H242.883C243.716 50.7403 244.544 50.526 245.247 50.0764C245.937 49.4906 246.428 48.7046 246.652 47.8273L247.314 46.0577L241.064 28.8088H244.371L248.703 41.9233Z" fill="white"/>
<path d="M147.796 81.7628V58.213H155.419C157.465 58.0657 159.5 58.6198 161.189 59.7841C161.865 60.3603 162.398 61.0863 162.746 61.9044C163.093 62.7225 163.245 63.6103 163.189 64.4973C163.208 65.5505 162.876 66.5799 162.247 67.4245C161.598 68.3204 160.718 69.0234 159.701 69.4587C160.905 69.7663 161.968 70.4786 162.71 71.4763C163.461 72.5133 163.85 73.7684 163.818 75.0485C163.865 75.9757 163.705 76.9018 163.351 77.7598C162.996 78.6178 162.455 79.3863 161.768 80.0098C160.124 81.3115 158.057 81.9594 155.964 81.8289L147.796 81.7628ZM150.888 68.2514H155.584C156.775 68.3287 157.952 67.9636 158.891 67.2261C159.279 66.8887 159.586 66.4681 159.789 65.9957C159.992 65.5233 160.086 65.0112 160.065 64.4973C160.117 63.9704 160.043 63.4385 159.847 62.9463C159.651 62.4542 159.34 62.0163 158.94 61.6694C157.904 60.9725 156.663 60.6462 155.419 60.7433H150.888V68.2514ZM150.888 70.7486V79.216H156.03C157.268 79.2908 158.487 78.8883 159.436 78.0914C159.861 77.7009 160.194 77.221 160.412 76.6863C160.629 76.1515 160.725 75.5752 160.693 74.9988C160.693 72.1709 159.155 70.7486 156.063 70.7486H150.888Z" fill="white"/>
<path d="M178.748 80.0263C178.105 80.735 177.309 81.289 176.422 81.647C175.534 82.005 174.577 82.1576 173.622 82.0935C172.834 82.1454 172.044 82.0243 171.307 81.7386C170.57 81.4529 169.904 81.0096 169.357 80.4397C168.282 79.076 167.757 77.359 167.885 75.6273V64.2493H170.878V75.5611C170.878 78.2237 171.953 79.5467 174.185 79.5467C175.118 79.6542 176.062 79.4644 176.881 79.0041C177.701 78.5438 178.354 77.8367 178.748 76.9834V64.2493H181.741V81.7628H178.897L178.748 80.0263Z" fill="white"/>
<path d="M186.221 59.6186C186.21 59.1638 186.369 58.7213 186.668 58.3782C186.838 58.2029 187.045 58.0675 187.273 57.9818C187.502 57.896 187.747 57.8619 187.99 57.8821C188.234 57.8619 188.479 57.896 188.707 57.9818C188.936 58.0675 189.143 58.2029 189.313 58.3782C189.612 58.7213 189.771 59.1638 189.76 59.6186C189.76 59.8458 189.714 60.0708 189.624 60.2794C189.533 60.488 189.401 60.6757 189.235 60.8309C189.069 60.9861 188.873 61.1054 188.659 61.1813C188.445 61.2573 188.217 61.2883 187.99 61.2723C187.748 61.2946 187.504 61.2632 187.276 61.1803C187.047 61.0974 186.839 60.9651 186.668 60.7928C186.37 60.4753 186.21 60.0535 186.221 59.6186ZM189.528 81.7627H186.535V64.2491H189.528V81.7627Z" fill="white"/>
<path d="M197.497 81.7627H194.504V56.9561H197.497V81.7627Z" fill="white"/>
<path d="M201.548 72.8654C201.439 70.5501 202.115 68.2657 203.466 66.3826C204.05 65.6397 204.79 65.0332 205.632 64.6054C206.475 64.1777 207.401 63.9389 208.346 63.9059C209.29 63.8728 210.23 64.0462 211.101 64.414C211.972 64.7818 212.751 65.3351 213.386 66.0353V56.9065H216.379V81.7132H213.618L213.485 79.8279C212.884 80.5534 212.124 81.1307 211.264 81.5151C210.404 81.8994 209.467 82.0803 208.525 82.0439C207.559 82.0553 206.604 81.8344 205.741 81.3999C204.878 80.9653 204.132 80.3298 203.565 79.5467C202.221 77.654 201.546 75.3669 201.647 73.0474L201.548 72.8654ZM204.541 73.1962C204.447 74.8432 204.881 76.4772 205.781 77.8599C206.163 78.3962 206.674 78.8284 207.265 79.1173C207.857 79.4061 208.512 79.5423 209.17 79.5136C210.029 79.5421 210.877 79.3173 211.609 78.8675C212.341 78.4176 212.924 77.7624 213.287 76.9834V68.946C212.912 68.178 212.321 67.536 211.587 67.0983C210.853 66.6607 210.007 66.4465 209.154 66.4819C208.491 66.4521 207.831 66.5876 207.234 66.8763C206.636 67.165 206.12 67.5978 205.731 68.1356C204.816 69.6568 204.399 71.4264 204.541 73.1962Z" fill="white"/>
<path d="M220.975 59.6187C220.964 59.164 221.123 58.7214 221.422 58.3784C221.789 58.0596 222.258 57.884 222.744 57.884C223.23 57.884 223.7 58.0596 224.067 58.3784C224.378 58.7154 224.544 59.1606 224.53 59.6187C224.538 59.8407 224.501 60.062 224.421 60.2695C224.342 60.4769 224.221 60.6661 224.067 60.826C223.827 61.0965 223.51 61.2869 223.158 61.3715C222.807 61.4562 222.438 61.4311 222.101 61.2996C221.764 61.168 221.475 60.9364 221.274 60.6359C221.073 60.3353 220.969 59.9803 220.975 59.6187V59.6187ZM224.282 81.7628H221.223V64.2493H224.216L224.282 81.7628Z" fill="white"/>
<path d="M231.838 64.2493L231.937 66.4654C232.547 65.6572 233.34 65.0061 234.252 64.5661C235.163 64.126 236.167 63.9097 237.179 63.9351C240.871 63.9351 242.734 66.0244 242.767 70.2029V81.7794H239.741V70.2029C239.82 69.1908 239.513 68.1864 238.882 67.3915C238.525 67.0693 238.107 66.8238 237.652 66.6702C237.196 66.5165 236.715 66.4581 236.236 66.4985C235.323 66.4788 234.428 66.7448 233.673 67.2592C232.958 67.7924 232.389 68.4979 232.02 69.3099V81.7794H229.027V64.2493H231.838Z" fill="white"/>
<path d="M246.57 72.8655C246.445 70.5406 247.116 68.2427 248.471 66.3496C249.071 65.6076 249.827 65.0067 250.686 64.5892C251.544 64.1718 252.483 63.948 253.438 63.9338C254.392 63.9196 255.338 64.1153 256.208 64.5071C257.078 64.8988 257.852 65.477 258.474 66.2008L258.623 64.2493H261.351V81.3494C261.406 82.3313 261.255 83.3138 260.908 84.2338C260.56 85.1538 260.024 85.9908 259.334 86.6911C258.609 87.3624 257.757 87.8823 256.829 88.2203C255.9 88.5582 254.914 88.7074 253.927 88.6591C252.65 88.6498 251.388 88.3738 250.224 87.8487C249.111 87.3876 248.153 86.6189 247.462 85.6327L249.017 83.83C249.557 84.5682 250.264 85.1684 251.08 85.5822C251.896 85.996 252.797 86.2116 253.712 86.2115C254.333 86.2477 254.955 86.1579 255.54 85.9476C256.126 85.7373 256.662 85.4108 257.118 84.9877C257.546 84.5216 257.875 83.9736 258.086 83.3766C258.296 82.7797 258.383 82.1463 258.342 81.5148V80.0098C257.728 80.7123 256.963 81.2652 256.103 81.6263C255.243 81.9875 254.312 82.1473 253.382 82.0936C252.416 82.111 251.461 81.8945 250.597 81.4625C249.733 81.0306 248.987 80.396 248.421 79.6129C247.073 77.6317 246.421 75.2579 246.57 72.8655V72.8655ZM249.579 73.1963C249.483 74.8389 249.905 76.4702 250.786 77.8599C251.171 78.3976 251.684 78.8305 252.279 79.1193C252.874 79.4081 253.531 79.5437 254.192 79.5137C255.062 79.5467 255.922 79.3187 256.661 78.859C257.401 78.3993 257.986 77.7288 258.342 76.9338V68.9791C257.971 68.2089 257.384 67.563 256.654 67.1197C255.923 66.6764 255.079 66.4549 254.225 66.4819C253.562 66.4536 252.903 66.5898 252.306 66.8784C251.708 67.1669 251.192 67.5989 250.802 68.1357C249.912 69.6657 249.514 71.4323 249.661 73.1963H249.579Z" fill="white"/>
<path d="M146.523 108.306C146.503 106.706 146.848 105.122 147.532 103.675C148.146 102.362 149.131 101.258 150.365 100.497C151.598 99.7358 153.027 99.3519 154.476 99.392C155.56 99.3508 156.64 99.5504 157.638 99.9764C158.635 100.403 159.526 101.044 160.246 101.856C161.793 103.702 162.585 106.066 162.462 108.471V108.686C162.487 110.267 162.153 111.834 161.486 113.267C160.882 114.555 159.925 115.645 158.725 116.409C157.47 117.169 156.026 117.559 154.559 117.534C153.476 117.57 152.399 117.366 151.405 116.937C150.41 116.508 149.522 115.865 148.805 115.053C147.248 113.213 146.455 110.845 146.589 108.438L146.523 108.306ZM149.532 108.653C149.448 110.321 149.925 111.969 150.888 113.333C151.318 113.883 151.868 114.328 152.495 114.634C153.122 114.94 153.811 115.099 154.509 115.099C155.207 115.099 155.896 114.94 156.523 114.634C157.151 114.328 157.7 113.883 158.13 113.333C159.092 111.864 159.561 110.126 159.469 108.372C159.547 106.703 159.064 105.055 158.097 103.692C157.672 103.139 157.127 102.692 156.502 102.384C155.877 102.076 155.189 101.916 154.493 101.916C153.796 101.916 153.109 102.076 152.484 102.384C151.859 102.692 151.313 103.139 150.888 103.692C149.921 105.159 149.446 106.897 149.532 108.653V108.653Z" fill="white"/>
<path d="M169.042 99.7062L169.141 101.906C169.752 101.1 170.546 100.451 171.457 100.014C172.369 99.5764 173.372 99.3633 174.383 99.392C178.086 99.392 179.938 101.476 179.971 105.643V117.22H176.912V105.643C176.99 104.636 176.683 103.637 176.053 102.848C175.7 102.519 175.283 102.268 174.827 102.111C174.371 101.954 173.887 101.895 173.407 101.939C172.497 101.922 171.606 102.194 170.861 102.716C170.144 103.24 169.574 103.941 169.207 104.75V117.236H166.215V99.7062H169.042Z" fill="white"/>
<path d="M208.79 96.2001H201.217V117.22H198.125V96.2001H190.569V93.6533H208.757L208.79 96.2001Z" fill="white"/>
<path d="M217.47 117.534C216.396 117.573 215.326 117.386 214.328 116.984C213.331 116.583 212.43 115.975 211.683 115.202C210.919 114.358 210.328 113.371 209.945 112.299C209.562 111.226 209.394 110.088 209.451 108.951V108.389C209.424 106.784 209.763 105.195 210.443 103.741C211.075 102.429 212.06 101.318 213.287 100.533C214.443 99.7814 215.794 99.3847 217.173 99.392C218.166 99.3424 219.157 99.5174 220.073 99.904C220.989 100.291 221.806 100.879 222.463 101.625C223.845 103.479 224.519 105.767 224.365 108.074V109.315H212.51C212.474 110.848 213.011 112.34 214.015 113.499C214.472 114.026 215.039 114.447 215.675 114.733C216.312 115.019 217.004 115.162 217.702 115.153C218.636 115.184 219.562 114.961 220.38 114.508C221.124 114.084 221.781 113.523 222.315 112.854L224.133 114.276C223.412 115.362 222.414 116.236 221.243 116.809C220.072 117.381 218.77 117.631 217.47 117.534V117.534ZM217.106 101.84C216.534 101.83 215.967 101.943 215.442 102.171C214.917 102.399 214.447 102.737 214.064 103.163C213.17 104.194 212.636 105.489 212.543 106.851H221.306V106.636C221.305 105.352 220.875 104.106 220.083 103.096C219.708 102.682 219.248 102.355 218.734 102.138C218.22 101.921 217.664 101.819 217.106 101.84V101.84Z" fill="white"/>
<path d="M230.582 114.772H240.816V117.22H226.911V115.02L236.567 102.187H227.06V99.7063H240.287V101.823L230.582 114.772Z" fill="white"/>
<path d="M243.13 108.306C243.102 106.705 243.447 105.119 244.139 103.675C244.752 102.369 245.728 101.267 246.95 100.5C248.19 99.7491 249.617 99.3649 251.067 99.3921C252.153 99.3507 253.236 99.5501 254.236 99.9761C255.236 100.402 256.13 101.044 256.854 101.856C258.394 103.705 259.18 106.068 259.053 108.471V108.686C259.086 110.268 258.752 111.836 258.077 113.267C257.472 114.573 256.501 115.676 255.283 116.443C254.021 117.201 252.572 117.59 251.1 117.567C250.015 117.605 248.934 117.402 247.937 116.974C246.939 116.545 246.049 115.9 245.329 115.086C243.778 113.243 242.991 110.876 243.13 108.471V108.306ZM246.14 108.653C246.058 110.318 246.529 111.964 247.479 113.333C247.897 113.896 248.444 114.349 249.074 114.654C249.705 114.959 250.4 115.107 251.1 115.086C251.804 115.109 252.502 114.959 253.134 114.647C253.765 114.335 254.311 113.873 254.721 113.3C255.683 111.831 256.152 110.093 256.06 108.339C256.142 106.671 255.665 105.024 254.704 103.659C254.287 103.089 253.739 102.629 253.105 102.318C252.472 102.007 251.772 101.854 251.067 101.873C250.373 101.859 249.686 102.012 249.065 102.32C248.443 102.628 247.905 103.082 247.495 103.642C246.506 105.119 246.03 106.879 246.14 108.653V108.653Z" fill="white"/>
<path d="M273.007 112.573C273.023 112.206 272.946 111.842 272.784 111.512C272.622 111.183 272.381 110.899 272.082 110.687C271.11 110.097 270.031 109.703 268.907 109.53C267.655 109.294 266.438 108.899 265.286 108.355C264.504 107.974 263.829 107.406 263.319 106.702C262.879 106.042 262.654 105.262 262.674 104.469C262.687 103.767 262.863 103.078 263.187 102.456C263.511 101.833 263.975 101.294 264.542 100.88C265.873 99.8518 267.524 99.3249 269.205 99.392C270.943 99.3164 272.652 99.855 274.033 100.913C274.62 101.386 275.092 101.986 275.413 102.668C275.734 103.35 275.895 104.096 275.884 104.849H272.809C272.806 104.441 272.711 104.038 272.53 103.672C272.35 103.305 272.089 102.984 271.767 102.733C271.03 102.123 270.095 101.805 269.139 101.84C268.23 101.791 267.33 102.041 266.576 102.551C266.283 102.765 266.046 103.047 265.885 103.372C265.724 103.697 265.643 104.057 265.65 104.42C265.636 104.746 265.708 105.071 265.859 105.361C266.01 105.651 266.234 105.897 266.51 106.073C267.486 106.579 268.534 106.931 269.618 107.115C270.869 107.371 272.085 107.776 273.239 108.322C274.058 108.687 274.77 109.257 275.306 109.976C275.772 110.681 276.009 111.513 275.984 112.358C276.003 113.093 275.841 113.821 275.512 114.478C275.183 115.136 274.698 115.703 274.099 116.128C272.677 117.118 270.968 117.612 269.238 117.534C267.958 117.56 266.689 117.306 265.518 116.79C264.492 116.345 263.61 115.624 262.971 114.706C262.384 113.861 262.067 112.858 262.062 111.828H265.055C265.065 112.29 265.179 112.744 265.388 113.156C265.597 113.568 265.895 113.928 266.262 114.21C267.123 114.836 268.174 115.145 269.238 115.086C270.189 115.138 271.134 114.902 271.949 114.408C272.271 114.222 272.539 113.955 272.725 113.632C272.91 113.31 273.008 112.945 273.007 112.573Z" fill="white"/>
</svg>
