<svg width="27" height="21" viewBox="0 0 27 21" fill="none" xmlns="http://www.w3.org/2000/svg">
    <path d="M22.2824 2.44058C20.6753 1.69141 18.9353 1.14766 17.1228 0.833496C17.0865 0.833496 17.0624 0.84558 17.0382 0.869746C16.8207 1.2685 16.5669 1.78808 16.3978 2.18683C14.4524 1.89683 12.5069 1.89683 10.5978 2.18683C10.4286 1.776 10.1749 1.2685 9.94528 0.869746C9.9332 0.84558 9.89695 0.833496 9.8607 0.833496C8.0482 1.14766 6.32028 1.69141 4.70111 2.44058C4.68903 2.44058 4.67695 2.45266 4.66487 2.46475C1.3782 7.38266 0.471948 12.1677 0.919032 16.9043C0.919032 16.9285 0.931115 16.9527 0.955282 16.9647C3.13028 18.5597 5.2207 19.5264 7.28695 20.1668C7.3232 20.1789 7.35945 20.1668 7.37153 20.1427C7.85487 19.4781 8.28987 18.7772 8.66445 18.0402C8.68862 17.9918 8.66445 17.9435 8.61612 17.9314C7.92737 17.6656 7.27487 17.3514 6.63445 16.9889C6.58612 16.9647 6.58612 16.8922 6.62236 16.856C6.75528 16.7593 6.8882 16.6506 7.02112 16.5539C7.04528 16.5297 7.08153 16.5297 7.1057 16.5418C11.2624 18.4389 15.7453 18.4389 19.8536 16.5418C19.8778 16.5297 19.914 16.5297 19.9382 16.5539C20.0711 16.6627 20.204 16.7593 20.3369 16.8681C20.3853 16.9043 20.3853 16.9768 20.3249 17.001C19.6965 17.3756 19.0319 17.6777 18.3432 17.9435C18.2949 17.9556 18.2828 18.016 18.2949 18.0522C18.6815 18.7893 19.1165 19.4902 19.5878 20.1547C19.624 20.1668 19.6603 20.1789 19.6965 20.1668C21.7749 19.5264 23.8653 18.5597 26.0403 16.9647C26.0644 16.9527 26.0765 16.9285 26.0765 16.9043C26.6082 11.4306 25.1944 6.68183 22.3307 2.46475C22.3186 2.45266 22.3065 2.44058 22.2824 2.44058ZM9.29278 14.0164C8.0482 14.0164 7.00903 12.8685 7.00903 11.4547C7.00903 10.041 8.02403 8.89308 9.29278 8.89308C10.5736 8.89308 11.5886 10.0531 11.5765 11.4547C11.5765 12.8685 10.5615 14.0164 9.29278 14.0164ZM17.7149 14.0164C16.4703 14.0164 15.4311 12.8685 15.4311 11.4547C15.4311 10.041 16.4461 8.89308 17.7149 8.89308C18.9957 8.89308 20.0107 10.0531 19.9986 11.4547C19.9986 12.8685 18.9957 14.0164 17.7149 14.0164Z"
          fill="#FFFFFF"/>
</svg>
