<svg width="21" height="18" viewBox="0 0 21 18" fill="none" xmlns="http://www.w3.org/2000/svg">
    <path d="M20.4199 2.8605C19.6709 3.20688 18.8765 3.43437 18.0632 3.53543C18.9205 2.99942 19.5621 2.15584 19.8685 1.16189C19.064 1.66245 18.1819 2.01325 17.2625 2.20301C15.9928 0.782701 13.9681 0.432692 12.3285 1.35007C10.689 2.26744 9.8446 4.22281 10.2708 6.11513C6.97116 5.94224 3.89691 4.31292 1.81317 1.6327C1.44846 2.28758 1.25681 3.03203 1.25783 3.78981C1.25783 5.27711 1.98193 6.59107 3.08279 7.36037C2.43131 7.33892 1.79417 7.155 1.22447 6.82391L1.22447 6.87725C1.22447 8.91862 2.60079 10.6781 4.51543 11.0836C3.91094 11.2548 3.27711 11.2802 2.66187 11.1576C3.19869 12.9056 4.73944 14.1033 6.49527 14.1374C4.77622 15.5488 2.59097 16.1879 0.420898 15.9139C2.29658 17.175 4.48006 17.8445 6.71014 17.8423C14.2582 17.8423 18.386 11.3053 18.386 5.63612C18.386 5.45149 18.3811 5.2648 18.3732 5.08222C19.1767 4.47516 19.8701 3.72315 20.4209 2.86152L20.4199 2.8605Z"
          fill="#FFFFFF"/>
</svg>
