<svg width="10" height="10" viewBox="0 0 10 10" fill="none" xmlns="http://www.w3.org/2000/svg">
<path d="M9.44 4.71514C9.4043 4.62308 9.35078 4.53897 9.2825 4.46764L5.5325 0.717639C5.46257 0.64771 5.37955 0.59224 5.28819 0.554394C5.19682 0.516549 5.09889 0.49707 5 0.49707C4.80027 0.49707 4.60873 0.576411 4.4675 0.717639C4.39757 0.787568 4.3421 0.870586 4.30426 0.961952C4.26641 1.05332 4.24693 1.15124 4.24693 1.25014C4.24693 1.44987 4.32627 1.64141 4.4675 1.78264L6.9425 4.25014H1.25C1.05109 4.25014 0.860322 4.32916 0.71967 4.46981C0.579018 4.61046 0.5 4.80123 0.5 5.00014C0.5 5.19905 0.579018 5.38982 0.71967 5.53047C0.860322 5.67112 1.05109 5.75014 1.25 5.75014H6.9425L4.4675 8.21764C4.3972 8.28736 4.34141 8.37031 4.30333 8.46171C4.26526 8.5531 4.24565 8.65113 4.24565 8.75014C4.24565 8.84915 4.26526 8.94718 4.30333 9.03857C4.34141 9.12997 4.3972 9.21292 4.4675 9.28264C4.53722 9.35293 4.62017 9.40873 4.71157 9.44681C4.80296 9.48489 4.90099 9.50449 5 9.50449C5.09901 9.50449 5.19704 9.48489 5.28843 9.44681C5.37983 9.40873 5.46278 9.35293 5.5325 9.28264L9.2825 5.53264C9.35078 5.46131 9.4043 5.3772 9.44 5.28514C9.51501 5.10254 9.51501 4.89774 9.44 4.71514Z" fill="#F16500"/>
</svg>
