<svg width="16" height="31" viewBox="0 0 16 31" fill="none" xmlns="http://www.w3.org/2000/svg">
<path d="M8.26185 2.47949L7.15507 1.37272L8.26185 0.26594L9.36862 1.37272L8.26185 2.47949ZM8.26185 25.9578L6.69663 25.9578L8.26185 25.9578ZM5.13141 30.6534C4.26697 30.6534 3.5662 29.9526 3.5662 29.0882C3.5662 28.2237 4.26697 27.523 5.13141 27.523L5.13141 30.6534ZM0.894201 7.63359L7.15507 1.37272L9.36862 3.58627L3.10775 9.84714L0.894201 7.63359ZM9.36862 1.37272L15.6295 7.63358L13.4159 9.84714L7.15507 3.58627L9.36862 1.37272ZM9.82706 2.47949L9.82706 25.9578L6.69663 25.9578L6.69663 2.47949L9.82706 2.47949ZM9.82706 25.9578C9.82707 28.5511 7.72475 30.6534 5.13141 30.6534L5.13141 27.523C5.99586 27.523 6.69663 26.8222 6.69663 25.9578L9.82706 25.9578Z" fill="white"/>
</svg>
