<svg width="16" height="30" viewBox="0 0 16 30" fill="none" xmlns="http://www.w3.org/2000/svg">
<path d="M7.73939 27.5234L6.63261 28.6302L7.73939 29.737L8.84616 28.6302L7.73939 27.5234ZM10.8698 4.04518C11.7343 4.04518 12.435 3.34441 12.435 2.47996C12.435 1.61551 11.7343 0.914741 10.8698 0.914741L10.8698 4.04518ZM0.37174 22.3693L6.63261 28.6302L8.84616 26.4167L2.58529 20.1558L0.37174 22.3693ZM8.84616 28.6302L15.107 22.3693L12.8935 20.1558L6.63261 26.4167L8.84616 28.6302ZM9.3046 27.5234L9.3046 5.6104L6.17417 5.6104L6.17417 27.5234L9.3046 27.5234ZM9.3046 5.6104C9.3046 4.74595 10.0054 4.04518 10.8698 4.04518L10.8698 0.914741C8.27648 0.914741 6.17417 3.01706 6.17417 5.6104L9.3046 5.6104Z" fill="white"/>
</svg>
