<svg width="15" height="14" viewBox="0 0 15 14" fill="none" xmlns="http://www.w3.org/2000/svg">
<path fill-rule="evenodd" clip-rule="evenodd" d="M7.98687 14C11.8478 14 14.9777 10.866 14.9777 7C14.9777 3.13401 11.8478 0 7.98687 0C4.12597 0 0.996094 3.13401 0.996094 7C0.996094 10.866 4.12597 14 7.98687 14ZM5.87457 10.1713H4.2346C3.84578 10.1713 3.65135 10.1713 3.53492 10.0959C3.40908 10.0144 3.32969 9.8777 3.32128 9.72799C3.31348 9.58944 3.40978 9.42051 3.60236 9.08269L3.60245 9.08256L7.19308 2.78388C7.38849 2.44104 7.48621 2.26962 7.61056 2.20581C7.74486 2.13688 7.90415 2.13676 8.03856 2.20551C8.16299 2.26913 8.26095 2.44041 8.45686 2.78295L9.285 4.23073L9.28502 4.23077C9.42749 4.47983 9.49872 4.60438 9.53005 4.73576C9.56415 4.87882 9.56422 5.02784 9.53025 5.17089C9.49904 5.30232 9.4279 5.42696 9.28562 5.67617L7.13847 9.43732C6.99414 9.69019 6.92196 9.81662 6.82307 9.91111C6.71543 10.014 6.58491 10.0898 6.44224 10.1323C6.31116 10.1713 6.16564 10.1713 5.87457 10.1713ZM11.7255 10.1713H9.82414C9.43179 10.1713 9.2356 10.1713 9.1188 10.0953C8.99259 10.0131 8.91344 9.87532 8.90598 9.72489C8.89907 9.58567 8.9978 9.41603 9.19527 9.07683L10.1444 7.44633C10.3394 7.11142 10.4369 6.94396 10.5603 6.88123C10.6937 6.81343 10.8514 6.81333 10.9849 6.8809C11.1085 6.94344 11.2062 7.11077 11.4016 7.44536L11.4016 7.44547L12.3539 9.07592C12.5521 9.41534 12.6512 9.58507 12.6444 9.7244C12.6371 9.87496 12.558 10.0129 12.4317 10.0952C12.3149 10.1713 12.1185 10.1713 11.7255 10.1713Z" fill="#E84141"/>
</svg>
