<svg width="22" height="22" viewBox="0 0 22 22" fill="none" xmlns="http://www.w3.org/2000/svg">
<path fill-rule="evenodd" clip-rule="evenodd" d="M10.9999 21.7689C5.05226 21.7689 0.230705 16.9474 0.230705 10.9997C0.230705 5.05202 5.05226 0.230469 10.9999 0.230469C16.9476 0.230469 21.7692 5.05202 21.7692 10.9997C21.7692 16.9474 16.9476 21.7689 10.9999 21.7689ZM14.2539 15.8786H16.7803C17.3793 15.8786 17.6788 15.8786 17.8581 15.7626C18.052 15.6373 18.1743 15.4269 18.1872 15.1966C18.1992 14.9834 18.0509 14.7236 17.7542 14.2038L17.7541 14.2036L12.2228 4.51336C11.9217 3.98592 11.7712 3.7222 11.5796 3.62402C11.3728 3.51797 11.1274 3.51779 10.9203 3.62356C10.7286 3.72143 10.5777 3.98495 10.2759 4.51193L9.00019 6.73928L9.00016 6.73935C8.78068 7.12251 8.67096 7.31413 8.62269 7.51626C8.57015 7.73634 8.57006 7.96561 8.62239 8.18568C8.67046 8.38789 8.78005 8.57964 8.99923 8.96303L12.3069 14.7494C12.5292 15.1384 12.6404 15.333 12.7928 15.4783C12.9586 15.6366 13.1596 15.7532 13.3794 15.8186C13.5814 15.8786 13.8055 15.8786 14.2539 15.8786ZM5.24061 15.8786H8.16965C8.77405 15.8786 9.07629 15.8786 9.25622 15.7616C9.45063 15.6352 9.57258 15.4233 9.58406 15.1918C9.59471 14.9777 9.44261 14.7167 9.13841 14.1948L7.67632 11.6864C7.37595 11.1711 7.22575 10.9135 7.03563 10.817C6.83013 10.7127 6.58715 10.7125 6.38149 10.8165C6.19117 10.9127 6.04067 11.1701 5.73963 11.6849L5.73956 11.685L4.27261 14.1934C3.96725 14.7156 3.81458 14.9767 3.825 15.1911C3.83628 15.4227 3.95816 15.6349 4.15267 15.7615C4.3326 15.8786 4.63527 15.8786 5.24061 15.8786Z" fill="white"/>
</svg>
