<svg width="25" height="24" viewBox="0 0 25 24" fill="none" xmlns="http://www.w3.org/2000/svg">
<path fill-rule="evenodd" clip-rule="evenodd" d="M12.5 24C19.1274 24 24.5 18.6274 24.5 12C24.5 5.37259 19.1274 0 12.5 0C5.87258 0 0.5 5.37259 0.5 12C0.5 18.6274 5.87258 24 12.5 24ZM8.87414 17.4365H6.05905C5.39161 17.4365 5.05788 17.4365 4.85801 17.3073C4.64201 17.1676 4.50573 16.9332 4.4913 16.6765C4.47791 16.439 4.6432 16.1494 4.97378 15.5703L4.97393 15.5701L11.1374 4.77236C11.4729 4.18464 11.6406 3.89078 11.854 3.78139C12.0846 3.66322 12.358 3.66301 12.5887 3.78087C12.8023 3.88993 12.9705 4.18357 13.3068 4.77077L14.7283 7.25267L14.7283 7.25275C14.9729 7.6797 15.0951 7.89322 15.1489 8.11845C15.2075 8.36368 15.2076 8.61915 15.1493 8.86438C15.0957 9.08969 14.9736 9.30336 14.7294 9.73057L11.0437 16.1783C10.7959 16.6117 10.672 16.8285 10.5023 16.9905C10.3175 17.1668 10.0935 17.2968 9.84857 17.3697C9.62355 17.4365 9.37376 17.4365 8.87414 17.4365ZM18.9175 17.4365H15.6538C14.9803 17.4365 14.6435 17.4365 14.443 17.3062C14.2264 17.1653 14.0905 16.9291 14.0777 16.6712C14.0658 16.4326 14.2353 16.1418 14.5743 15.5603L16.2035 12.7651C16.5382 12.191 16.7055 11.9039 16.9174 11.7964C17.1464 11.6802 17.4171 11.68 17.6463 11.7958C17.8583 11.903 18.026 12.1899 18.3615 12.7635L18.3616 12.7637L19.9962 15.5587C20.3364 16.1406 20.5065 16.4315 20.4949 16.6704C20.4824 16.9285 20.3466 17.1649 20.1298 17.306C19.9293 17.4365 19.5921 17.4365 18.9175 17.4365Z" fill="#E84141"/>
</svg>
