<svg width="25" height="24" viewBox="0 0 25 24" fill="none" xmlns="http://www.w3.org/2000/svg">
<path fill-rule="evenodd" clip-rule="evenodd" d="M12.3779 24C19.0053 24 24.3779 18.6274 24.3779 12C24.3779 5.37259 19.0053 0 12.3779 0C5.75051 0 0.37793 5.37259 0.37793 12C0.37793 18.6274 5.75051 24 12.3779 24ZM8.75207 17.4365H5.93698C5.26954 17.4365 4.93581 17.4365 4.73594 17.3073C4.51994 17.1676 4.38366 16.9332 4.36923 16.6765C4.35584 16.439 4.52113 16.1494 4.85171 15.5703L4.85186 15.5701L11.0153 4.77236C11.3508 4.18464 11.5185 3.89078 11.732 3.78139C11.9625 3.66322 12.2359 3.66301 12.4667 3.78087C12.6802 3.88993 12.8484 4.18357 13.1847 4.77077L14.6062 7.25267L14.6063 7.25275C14.8508 7.6797 14.9731 7.89322 15.0269 8.11845C15.0854 8.36368 15.0855 8.61915 15.0272 8.86438C14.9736 9.08969 14.8515 9.30336 14.6073 9.73057L10.9216 16.1783C10.6738 16.6117 10.55 16.8285 10.3802 16.9905C10.1954 17.1668 9.97139 17.2968 9.7265 17.3697C9.50148 17.4365 9.25169 17.4365 8.75207 17.4365ZM18.7955 17.4365H15.5317C14.8582 17.4365 14.5214 17.4365 14.3209 17.3062C14.1043 17.1653 13.9684 16.9291 13.9556 16.6712C13.9437 16.4326 14.1132 16.1418 14.4522 15.5603L16.0814 12.7651C16.4161 12.191 16.5835 11.9039 16.7953 11.7964C17.0243 11.6802 17.295 11.68 17.5242 11.7958C17.7363 11.903 17.904 12.1899 18.2394 12.7635L18.2395 12.7637L19.8741 15.5587C20.2144 16.1406 20.3845 16.4315 20.3729 16.6704C20.3603 16.9285 20.2245 17.1649 20.0077 17.306C19.8072 17.4365 19.47 17.4365 18.7955 17.4365Z" fill="white"/>
</svg>
