<svg width="18" height="18" viewBox="0 0 18 18" fill="none" xmlns="http://www.w3.org/2000/svg">
<circle cx="9" cy="9" r="7" fill="#6202EF"/>
<path d="M7.85794 9.81809L11.0754 6.59309C11.216 6.45341 11.406 6.375 11.6042 6.375C11.8023 6.375 11.9924 6.45341 12.1329 6.59309C12.2032 6.66282 12.259 6.74577 12.2971 6.83716C12.3352 6.92856 12.3548 7.02659 12.3548 7.12559C12.3548 7.2246 12.3352 7.32263 12.2971 7.41403C12.259 7.50542 12.2032 7.58837 12.1329 7.65809L8.38294 11.4081C8.24324 11.5467 8.05469 11.6248 7.85794 11.6256C7.75923 11.6262 7.66139 11.6072 7.57001 11.5699C7.47863 11.5326 7.39552 11.4776 7.32544 11.4081L5.56294 9.63809C5.48443 9.57086 5.42066 9.48812 5.37564 9.39507C5.33063 9.30202 5.30533 9.20067 5.30134 9.09738C5.29735 8.99409 5.31475 8.8911 5.35246 8.79485C5.39017 8.69861 5.44736 8.6112 5.52045 8.53811C5.59354 8.46501 5.68095 8.40782 5.7772 8.37012C5.87344 8.33241 5.97644 8.31501 6.07973 8.319C6.18302 8.32299 6.28437 8.34828 6.37742 8.3933C6.47046 8.43832 6.5532 8.50208 6.62044 8.58059L7.85794 9.81809Z" fill="white"/>
</svg>
