<svg width="18" height="18" viewBox="0 0 18 18" fill="none" xmlns="http://www.w3.org/2000/svg">
<path d="M11.04 6.59152L7.8225 9.81652L6.585 8.57902C6.51777 8.50051 6.43503 8.43675 6.34198 8.39173C6.24893 8.34671 6.14758 8.32141 6.04429 8.31742C5.941 8.31344 5.838 8.33084 5.74176 8.36855C5.64552 8.40625 5.55811 8.46344 5.48502 8.53654C5.41192 8.60963 5.35473 8.69704 5.31703 8.79328C5.27932 8.88953 5.26191 8.99252 5.2659 9.09581C5.26989 9.1991 5.29519 9.30045 5.34021 9.3935C5.38523 9.48655 5.44899 9.56929 5.5275 9.63652L7.29 11.4065C7.36008 11.476 7.4432 11.531 7.53457 11.5684C7.62595 11.6057 7.7238 11.6246 7.8225 11.624C8.01926 11.6232 8.20781 11.5451 8.3475 11.4065L12.0975 7.65652C12.1678 7.5868 12.2236 7.50385 12.2617 7.41246C12.2997 7.32106 12.3194 7.22303 12.3194 7.12402C12.3194 7.02501 12.2997 6.92699 12.2617 6.83559C12.2236 6.7442 12.1678 6.66125 12.0975 6.59152C11.957 6.45184 11.7669 6.37343 11.5688 6.37343C11.3706 6.37343 11.1805 6.45184 11.04 6.59152ZM9 1.49902C7.51664 1.49902 6.0666 1.93889 4.83323 2.763C3.59986 3.58711 2.63856 4.75845 2.07091 6.1289C1.50325 7.49934 1.35472 9.00734 1.64411 10.4622C1.9335 11.9171 2.64781 13.2534 3.6967 14.3023C4.7456 15.3512 6.08197 16.0655 7.53683 16.3549C8.99168 16.6443 10.4997 16.4958 11.8701 15.9281C13.2406 15.3605 14.4119 14.3992 15.236 13.1658C16.0601 11.9324 16.5 10.4824 16.5 8.99902C16.5 8.01411 16.306 7.03884 15.9291 6.1289C15.5522 5.21896 14.9997 4.39216 14.3033 3.69572C13.6069 2.99928 12.7801 2.44684 11.8701 2.06993C10.9602 1.69302 9.98492 1.49902 9 1.49902V1.49902ZM9 14.999C7.81332 14.999 6.65328 14.6471 5.66658 13.9878C4.67989 13.3286 3.91085 12.3915 3.45673 11.2951C3.0026 10.1988 2.88378 8.99237 3.11529 7.82848C3.3468 6.6646 3.91825 5.5955 4.75736 4.75638C5.59648 3.91727 6.66558 3.34582 7.82946 3.11431C8.99335 2.8828 10.1997 3.00162 11.2961 3.45575C12.3925 3.90987 13.3295 4.67891 13.9888 5.6656C14.6481 6.6523 15 7.81234 15 8.99902C15 10.5903 14.3679 12.1164 13.2426 13.2417C12.1174 14.3669 10.5913 14.999 9 14.999V14.999Z" fill="#B0B7C3"/>
</svg>
