<svg width="22" height="22" viewBox="0 0 22 22" fill="none" xmlns="http://www.w3.org/2000/svg">
<path d="M4.01562 17.9844L4.01562 19.0756C3.41293 19.0756 2.92436 18.5871 2.92436 17.9844L4.01562 17.9844ZM17.2122 3.24448C17.6384 2.81831 18.3294 2.81831 18.7555 3.24448C19.1817 3.67065 19.1817 4.3616 18.7555 4.78777L17.2122 3.24448ZM5.1069 6.80977L5.10689 17.9844L2.92436 17.9844L2.92436 6.80977L5.1069 6.80977ZM4.01563 16.8931L15.1902 16.8931L15.1902 19.0756L4.01562 19.0756L4.01563 16.8931ZM3.24398 17.2127L17.2122 3.24448L18.7555 4.78777L4.78727 18.756L3.24398 17.2127Z" fill="#CEAEFE"/>
</svg>
