<svg width="22" height="22" viewBox="0 0 22 22" fill="none" xmlns="http://www.w3.org/2000/svg">
<path d="M4.01562 17.9834L4.01562 19.0747C3.41293 19.0747 2.92436 18.5861 2.92436 17.9834L4.01562 17.9834ZM17.2122 3.2435C17.6384 2.81733 18.3294 2.81733 18.7555 3.2435C19.1817 3.66967 19.1817 4.36062 18.7555 4.78679L17.2122 3.2435ZM5.1069 6.8088L5.10689 17.9834L2.92436 17.9834L2.92436 6.80879L5.1069 6.8088ZM4.01563 16.8921L15.1902 16.8921L15.1902 19.0747L4.01562 19.0747L4.01563 16.8921ZM3.24398 17.2118L17.2122 3.2435L18.7555 4.78679L4.78727 18.755L3.24398 17.2118Z" fill="#6202EF"/>
</svg>
