<svg width="24" height="24" viewBox="0 0 24 24" fill="none" xmlns="http://www.w3.org/2000/svg">
<path d="M11.9619 23.9687C18.5682 23.9687 23.9238 18.6132 23.9238 12.0068C23.9238 5.40044 18.5682 0.0449219 11.9619 0.0449219C5.35552 0.0449219 0 5.40044 0 12.0068C0 18.6132 5.35552 23.9687 11.9619 23.9687Z" fill="#F0F0F0"/>
<path d="M12.0365 2.34726V2.35689C12.0461 2.40506 12.0461 2.46286 12.0461 2.52066V9.46625C12.0365 9.50478 12.0076 9.51441 11.9787 9.53368C11.7764 9.63001 11.5837 9.71671 11.3814 9.80341C11.1021 9.92864 10.8131 10.0635 10.5337 10.1887L9.52222 10.6511C9.24285 10.7764 8.96349 10.9016 8.69376 11.0268C8.36623 11.181 8.02906 11.3255 7.70153 11.4796C7.42216 11.6048 7.1428 11.7397 6.8538 11.8649C6.6226 11.9709 6.3914 12.0672 6.16984 12.1732C6.15057 12.1828 6.13131 12.1925 6.11204 12.1925C6.10241 12.1925 6.10241 12.1925 6.09277 12.1828L6.35287 11.7493C6.8538 10.9209 7.3451 10.102 7.84603 9.27358C8.37586 8.38732 8.91532 7.50106 9.44515 6.6148C9.93645 5.79597 10.4374 4.97714 10.9287 4.15831C11.2851 3.56105 11.6512 2.96379 12.0076 2.36653C12.0172 2.34726 12.0269 2.33763 12.0269 2.31836H12.0365C12.0269 2.32799 12.0365 2.33763 12.0365 2.34726Z" fill="#8A92B2"/>
<path d="M17.9898 12.4443L17.9994 12.454L16.5833 13.2921L12.1327 15.922C12.1135 15.9316 12.0942 15.9412 12.0846 15.9509C12.0557 15.9509 12.0557 15.922 12.0557 15.9123V15.8256V9.87226C12.0557 9.84336 12.0557 9.80483 12.0653 9.77593C12.0749 9.7374 12.1038 9.74703 12.1327 9.75666C12.258 9.81446 12.3928 9.87226 12.5181 9.93006C12.8938 10.1035 13.2695 10.2769 13.6452 10.4406C13.9727 10.5851 14.2906 10.7393 14.6181 10.8838C14.9456 11.0283 15.2732 11.1824 15.6007 11.3269C15.8801 11.4521 16.1691 11.587 16.4484 11.7122C16.7278 11.8374 17.0168 11.9723 17.2962 12.0975C17.5177 12.1939 17.7393 12.2998 17.9609 12.3962C17.9609 12.4251 17.9705 12.4347 17.9898 12.4443Z" fill="#454A75"/>
<path d="M12.0365 21.8621C12.0365 21.8717 12.0269 21.8813 12.0269 21.891H12.0172C12.0172 21.8717 11.998 21.8621 11.9883 21.8428C11.3911 21.0047 10.7938 20.157 10.1965 19.3189C9.58965 18.4615 8.97312 17.5945 8.36623 16.7372C7.7786 15.9087 7.18133 15.0706 6.5937 14.2422C6.43957 14.0206 6.28544 13.8087 6.13131 13.5871C6.12167 13.5678 6.11204 13.5582 6.09277 13.5293C6.12167 13.5293 6.14094 13.5486 6.15057 13.5582C6.98867 14.0495 7.81713 14.5408 8.65522 15.0321C9.61855 15.6004 10.5722 16.1688 11.5356 16.7372L12.0269 17.0262C12.0461 17.0454 12.0461 17.0647 12.0461 17.084V21.7272C12.0461 21.7754 12.0461 21.8235 12.0365 21.8621Z" fill="#8A92B2"/>
<path d="M6.08301 12.4646V12.455C6.39127 12.3201 6.6899 12.1756 6.99817 12.0408C7.39313 11.8577 7.7881 11.6843 8.18306 11.5013C8.48169 11.3664 8.78996 11.2219 9.08859 11.0871C9.53172 10.8848 9.96522 10.6921 10.4083 10.4898C10.707 10.3549 11.0056 10.2201 11.3139 10.0756C11.5258 9.97925 11.7474 9.88291 11.9593 9.78658C11.9786 9.77695 12.0075 9.76731 12.0171 9.74805C12.0267 9.74805 12.0267 9.75768 12.0171 9.76731V15.8844C12.0171 15.9133 12.0075 15.9422 12.0267 15.9615C12.0075 15.9904 11.9882 15.9615 11.9786 15.9519C11.8919 15.9037 11.8052 15.8555 11.7185 15.7977C9.85925 14.6995 7.9904 13.5917 6.13117 12.4935C6.12154 12.4839 6.10227 12.4743 6.08301 12.4646Z" fill="#62688F"/>
<path d="M17.9706 13.5068H17.9803C17.9803 13.5261 17.961 13.5454 17.9514 13.5646C16.1788 16.0597 14.4063 18.5643 12.6338 21.0593C12.4508 21.3194 12.2581 21.5795 12.0751 21.8396C12.0654 21.83 12.0654 21.8203 12.0654 21.8107V21.7529V17.0808V16.9941C12.47 16.7532 12.865 16.522 13.2696 16.2812C14.8302 15.3564 16.3908 14.4413 17.9417 13.5165C17.9514 13.5261 17.961 13.5165 17.9706 13.5068Z" fill="#62688F"/>
<path d="M12.0661 9.50433V9.48506V9.42727V2.43351C12.0661 2.40461 12.0565 2.38535 12.0758 2.35645C14.0313 5.60286 15.9869 8.83964 17.9328 12.086C17.9521 12.1149 17.981 12.1535 17.9906 12.192C17.8557 12.1438 17.7305 12.0764 17.6053 12.0186C17.4511 11.9512 17.2874 11.8741 17.1332 11.8067C17.0369 11.7585 16.9309 11.72 16.8346 11.6718C16.6708 11.5948 16.5071 11.5273 16.3433 11.4503C16.247 11.4117 16.1506 11.3636 16.0543 11.3154L15.4185 11.0264C15.3126 10.9782 15.2066 10.9301 15.091 10.8819L14.6286 10.6796C14.5323 10.6411 14.4359 10.5929 14.3396 10.5447L13.7038 10.2557C13.5978 10.2076 13.4919 10.1594 13.3763 10.1112L12.9139 9.90893C12.8079 9.86076 12.7116 9.8126 12.6056 9.76443C12.4226 9.67773 12.2395 9.59103 12.0469 9.51397C12.0758 9.50433 12.0661 9.50433 12.0661 9.50433Z" fill="#62688F"/>
</svg>
