<svg width="25" height="24" viewBox="0 0 25 24" fill="none" xmlns="http://www.w3.org/2000/svg">
<path d="M12.878 16.384C12.786 16.384 12.693 16.359 12.612 16.307L5.98697 12.139C5.75797 11.994 5.68496 11.695 5.82196 11.461L12.447 0.245C12.538 0.093 12.701 0 12.878 0C13.055 0 13.219 0.094 13.309 0.246L19.929 11.462C20.066 11.695 19.994 11.995 19.765 12.14L13.145 16.308C13.063 16.358 12.97 16.384 12.878 16.384ZM6.93096 11.552L12.878 15.293L18.82 11.551L12.878 1.483L6.93096 11.552Z" fill="var(--theme-header-selectedBg)"/>
<path d="M12.8784 24.0002C12.7174 24.0002 12.5664 23.9232 12.4724 23.7922L5.84737 14.5972C5.70737 14.4032 5.72437 14.1372 5.88937 13.9622C6.05337 13.7882 6.31837 13.7542 6.51937 13.8812L12.8784 17.8822L19.2374 13.8812C19.4404 13.7542 19.7044 13.7882 19.8674 13.9622C20.0314 14.1362 20.0484 14.4022 19.9094 14.5972L13.2844 23.7922C13.1904 23.9232 13.0394 24.0002 12.8784 24.0002Z" fill="var(--theme-header-selectedBg)"/>
</svg>
