<svg width="18" height="18" viewBox="0 0 18 18" fill="none" xmlns="http://www.w3.org/2000/svg">
<path d="M8.16602 6.50033H11.4993C11.7204 6.50033 11.9323 6.41253 12.0886 6.25625C12.2449 6.09997 12.3327 5.88801 12.3327 5.66699C12.3327 5.44598 12.2449 5.23402 12.0886 5.07774C11.9323 4.92146 11.7204 4.83366 11.4993 4.83366H9.83268V4.00033C9.83268 3.77931 9.74488 3.56735 9.5886 3.41107C9.43232 3.25479 9.22036 3.16699 8.99935 3.16699C8.77833 3.16699 8.56637 3.25479 8.41009 3.41107C8.25381 3.56735 8.16602 3.77931 8.16602 4.00033V4.83366C7.50297 4.83366 6.86709 5.09705 6.39825 5.56589C5.92941 6.03473 5.66602 6.67062 5.66602 7.33366C5.66602 7.9967 5.92941 8.63259 6.39825 9.10143C6.86709 9.57027 7.50297 9.83366 8.16602 9.83366H9.83268C10.0537 9.83366 10.2657 9.92146 10.4219 10.0777C10.5782 10.234 10.666 10.446 10.666 10.667C10.666 10.888 10.5782 11.1 10.4219 11.2562C10.2657 11.4125 10.0537 11.5003 9.83268 11.5003H6.49935C6.27834 11.5003 6.06637 11.5881 5.91009 11.7444C5.75381 11.9007 5.66602 12.1126 5.66602 12.3337C5.66602 12.5547 5.75381 12.7666 5.91009 12.9229C6.06637 13.0792 6.27834 13.167 6.49935 13.167H8.16602V14.0003C8.16602 14.2213 8.25381 14.4333 8.41009 14.5896C8.56637 14.7459 8.77833 14.8337 8.99935 14.8337C9.22036 14.8337 9.43232 14.7459 9.5886 14.5896C9.74488 14.4333 9.83268 14.2213 9.83268 14.0003V13.167C10.4957 13.167 11.1316 12.9036 11.6004 12.4348C12.0693 11.9659 12.3327 11.33 12.3327 10.667C12.3327 10.004 12.0693 9.36807 11.6004 8.89922C11.1316 8.43038 10.4957 8.16699 9.83268 8.16699H8.16602C7.945 8.16699 7.73304 8.07919 7.57676 7.92291C7.42048 7.76663 7.33268 7.55467 7.33268 7.33366C7.33268 7.11265 7.42048 6.90068 7.57676 6.7444C7.73304 6.58812 7.945 6.50033 8.16602 6.50033ZM14.8327 0.666992H3.16602C2.50297 0.666992 1.86709 0.930384 1.39825 1.39923C0.929408 1.86807 0.666016 2.50395 0.666016 3.16699V14.8337C0.666016 15.4967 0.929408 16.1326 1.39825 16.6014C1.86709 17.0703 2.50297 17.3337 3.16602 17.3337H14.8327C15.4957 17.3337 16.1316 17.0703 16.6004 16.6014C17.0693 16.1326 17.3327 15.4967 17.3327 14.8337V3.16699C17.3327 2.50395 17.0693 1.86807 16.6004 1.39923C16.1316 0.930384 15.4957 0.666992 14.8327 0.666992ZM15.666 14.8337C15.666 15.0547 15.5782 15.2666 15.4219 15.4229C15.2657 15.5792 15.0537 15.667 14.8327 15.667H3.16602C2.945 15.667 2.73304 15.5792 2.57676 15.4229C2.42048 15.2666 2.33268 15.0547 2.33268 14.8337V3.16699C2.33268 2.94598 2.42048 2.73402 2.57676 2.57774C2.73304 2.42146 2.945 2.33366 3.16602 2.33366H14.8327C15.0537 2.33366 15.2657 2.42146 15.4219 2.57774C15.5782 2.73402 15.666 2.94598 15.666 3.16699V14.8337Z" fill="#B0B7C3"/>
</svg>
