<svg width="34" height="34" viewBox="0 0 34 34" fill="none" xmlns="http://www.w3.org/2000/svg">
<rect width="34" height="34" rx="17" fill="#6202EF"/>
<path d="M25.985 13.0045C26.1015 12.9347 26.1892 12.8253 26.2318 12.6963C26.2744 12.5674 26.2693 12.4274 26.2174 12.3018C26.0796 11.9592 25.8754 11.6472 25.6167 11.3838C25.3617 11.1474 25.0686 10.9558 24.7497 10.8172C24.4484 10.6859 24.1327 10.5907 23.809 10.5338C23.4918 10.472 23.1689 10.4435 22.8457 10.4488C22.661 10.4488 22.5114 10.5985 22.5114 10.7831C22.5114 10.9678 22.661 11.1174 22.8457 11.1174C23.3352 11.1803 23.7908 11.4011 24.1433 11.7465C24.88 12.4831 25.4126 14.8972 25.611 18.3823C25.6251 18.8762 25.3747 19.3403 24.954 19.5995C24.5333 19.8588 24.0062 19.874 23.5714 19.6392C23.1365 19.4044 22.8598 18.9555 22.8457 18.4616V16.4499C22.8457 14.9483 22.279 14.1833 21.1457 14.1833H20.579V9.08327C20.579 8.933 20.5193 8.7888 20.4131 8.68255C20.3068 8.57631 20.1626 8.5166 20.0124 8.5166H11.5124C11.3621 8.5166 11.2179 8.57631 11.1116 8.68255C11.0054 8.7888 10.9457 8.933 10.9457 9.08327V24.3833H10.6624C10.4599 24.3833 10.2728 24.4913 10.1716 24.6666C10.0704 24.8419 10.0704 25.058 10.1716 25.2333C10.2728 25.4086 10.4599 25.5166 10.6624 25.5166H20.8624C21.0649 25.5166 21.2519 25.4086 21.3531 25.2333C21.4543 25.058 21.4543 24.8419 21.3531 24.6666C21.2519 24.4913 21.0649 24.3833 20.8624 24.3833H20.579V15.3166H21.1457C21.4121 15.3166 21.7124 15.3166 21.7124 16.4499V18.4673C21.7139 19.1342 21.9794 19.7732 22.4509 20.2447C22.9225 20.7163 23.5615 20.9818 24.2284 20.9833C24.922 20.9844 25.5853 20.6993 26.0617 20.195C26.5379 19.6908 26.7851 19.0124 26.7443 18.32C26.685 16.5259 26.4304 14.7435 25.985 13.0046L25.985 13.0045ZM12.079 9.64987H19.4457V14.1832H12.079V9.64987Z" fill="white"/>
</svg>
