<svg width="20" height="20" viewBox="0 0 20 20" fill="none" xmlns="http://www.w3.org/2000/svg">
<path d="M16.6762 6.47459C16.779 6.41298 16.8564 6.31644 16.894 6.2026C16.9316 6.08887 16.9271 5.96533 16.8812 5.85449C16.7597 5.55226 16.5796 5.27692 16.3512 5.04455C16.1262 4.83595 15.8676 4.66686 15.5863 4.54455C15.3204 4.4287 15.0418 4.34477 14.7562 4.29455C14.4763 4.23997 14.1914 4.21486 13.9062 4.21955C13.7433 4.21955 13.6113 4.35158 13.6113 4.51452C13.6113 4.67746 13.7433 4.80949 13.9062 4.80949C14.3382 4.86496 14.7402 5.05982 15.0512 5.36452C15.7012 6.01452 16.1712 8.14455 16.3462 11.2197C16.3587 11.6555 16.1377 12.065 15.7665 12.2937C15.3953 12.5225 14.9302 12.5358 14.5465 12.3287C14.1628 12.1216 13.9187 11.7255 13.9062 11.2896V9.51465C13.9062 8.18965 13.4062 7.51465 12.4062 7.51465H11.9062V3.01465C11.9062 2.88206 11.8536 2.75483 11.7598 2.66108C11.6661 2.56733 11.5388 2.51465 11.4062 2.51465H3.90624C3.77365 2.51465 3.64642 2.56733 3.55267 2.66108C3.45892 2.75483 3.40624 2.88206 3.40624 3.01465V16.5147H3.15624C2.97756 16.5147 2.8125 16.61 2.72321 16.7646C2.63393 16.9193 2.63393 17.11 2.72321 17.2647C2.8125 17.4193 2.97757 17.5147 3.15624 17.5147H12.1562C12.3349 17.5147 12.5 17.4193 12.5893 17.2647C12.6786 17.11 12.6786 16.9193 12.5893 16.7646C12.5 16.61 12.3349 16.5147 12.1562 16.5147H11.9062V8.51465H12.4062C12.6413 8.51465 12.9062 8.51465 12.9062 9.51465V11.2947C12.9076 11.8831 13.1418 12.4469 13.5579 12.863C13.974 13.2791 14.5378 13.5133 15.1262 13.5147C15.7383 13.5157 16.3236 13.2641 16.7439 12.8191C17.1641 12.3743 17.3822 11.7756 17.3462 11.1647C17.2939 9.58165 17.0692 8.00896 16.6762 6.47468L16.6762 6.47459ZM4.40622 3.51459H10.9062V7.51459H4.40622V3.51459Z" fill="#B0B7C3"/>
</svg>
