<svg width="34" height="34" viewBox="0 0 34 34" fill="none" xmlns="http://www.w3.org/2000/svg">
<rect width="34" height="34" rx="17" fill="#2C7DF7"/>
<path d="M18.2591 28.8756C16.546 28.8756 15.2984 28.4857 14.5149 27.7057C13.7322 26.9262 13.3407 26.0854 13.3411 25.1844C13.3413 24.855 13.4096 24.5778 13.5464 24.3526C13.6799 24.1303 13.8736 23.9462 14.1073 23.8194C14.3442 23.6894 14.6357 23.6246 14.9821 23.6246C15.3285 23.6246 15.6195 23.6894 15.8566 23.8194C16.0934 23.9494 16.28 24.1273 16.4166 24.3526C16.5531 24.5778 16.6211 24.855 16.621 25.1844C16.6207 25.583 16.5204 25.9078 16.32 26.1591C16.1192 26.4105 15.8823 26.5749 15.6089 26.6533C15.8459 26.9649 16.2193 27.1858 16.7294 27.3158C17.2395 27.4547 17.7496 27.5238 18.2598 27.5238C18.9703 27.5238 19.6127 27.3419 20.1871 26.9781C20.7611 26.6139 21.1854 26.0768 21.4591 25.3663C21.7328 24.6559 21.8699 23.8498 21.8704 22.9485C21.8709 21.9695 21.7208 21.133 21.4207 20.4401C21.1292 19.7382 20.6969 19.2183 20.1229 18.8802C19.5666 18.5472 18.9222 18.3715 18.2647 18.3735C17.8272 18.3735 17.2808 18.5469 16.6243 18.8935L15.4214 19.4654L15.4217 18.8935L20.8374 12.0307H13.3481L13.3443 19.1531C13.344 19.7425 13.4804 20.2277 13.7536 20.6091C14.0267 20.9905 14.4457 21.181 15.0108 21.181C15.4476 21.181 15.8671 21.0424 16.2683 20.7649C16.672 20.485 17.0232 20.1424 17.3072 19.7515C17.3438 19.6731 17.3894 19.6168 17.444 19.5821C17.4931 19.5409 17.5562 19.5179 17.6217 19.5173C17.7219 19.5173 17.8401 19.5649 17.9771 19.6605C18.1047 19.7987 18.1682 19.9592 18.1681 20.1411C18.1524 20.2636 18.1294 20.3852 18.0994 20.5053C17.7895 21.1638 17.3608 21.6662 16.8139 22.0128C16.2815 22.3552 15.6527 22.5365 15.0101 22.5328C13.3881 22.5328 12.2674 22.2295 11.6483 21.6232C11.0293 21.0163 10.7198 20.193 10.7204 19.1535L10.7242 12.0307H6.89728L6.89799 10.7047H10.7249L10.7265 7.68956L9.85229 6.857L9.85265 6.18164H12.3945L13.3506 6.64931L13.3485 10.7047L23.2433 10.6789L24.227 11.6146L18.156 17.3856C18.5234 17.2463 18.9102 17.1587 19.3042 17.1256C19.96 17.1256 20.6979 17.3251 21.5177 17.7236C22.3466 18.1136 22.9842 18.6511 23.43 19.335C23.8762 20.0111 24.1627 20.661 24.29 21.2848C24.4264 21.909 24.4946 22.4633 24.4943 22.9485C24.4937 24.0579 24.247 25.0888 23.7547 26.0424C23.2621 26.9953 22.5147 27.7057 21.5122 28.1738C20.5097 28.6418 19.4252 28.8756 18.2591 28.8756Z" fill="#FFFBED"/>
</svg>
