<svg width="42" height="42" viewBox="0 0 42 42" fill="none" xmlns="http://www.w3.org/2000/svg">
<circle cx="21" cy="21" r="17" fill="#2C7DF7"/>
<path d="M23.0668 30.3732C21.6903 30.3732 20.6856 30.0416 20.0527 29.3785C19.4664 28.8172 19.1261 28.0466 19.1063 27.2352C19.0992 26.9887 19.1563 26.7445 19.2721 26.5268C19.3801 26.3386 19.5361 26.1825 19.7241 26.0744C20.1673 25.8533 20.6886 25.8533 21.1317 26.0744C21.3195 26.1821 21.4747 26.3384 21.5812 26.5268C21.7003 26.7435 21.7596 26.988 21.7529 27.2352C21.7652 27.5304 21.6806 27.8215 21.5118 28.0641C21.3712 28.262 21.1702 28.4091 20.9389 28.4833C21.1651 28.7712 21.4851 28.9707 21.8432 29.047C22.2438 29.1633 22.6587 29.2232 23.0759 29.2247C23.6282 29.2296 24.1692 29.0678 24.6282 28.7606C25.1044 28.4242 25.4595 27.9433 25.6409 27.3892C25.8708 26.7297 25.9831 26.035 25.9724 25.3367C25.991 24.6086 25.8681 23.8839 25.6107 23.2026C25.4171 22.6578 25.0496 22.1917 24.5648 21.8764C24.1143 21.5913 23.5913 21.4417 23.0581 21.4455C22.5935 21.4848 22.1455 21.6369 21.7529 21.8885L20.7852 22.3738V21.8885L25.1345 16.0539H19.1063V22.1086C19.0893 22.5455 19.2049 22.9773 19.4379 23.3473C19.6672 23.6753 20.0513 23.8593 20.4506 23.8326C20.8133 23.8252 21.164 23.7016 21.4512 23.4799C21.7767 23.2414 22.0599 22.95 22.2891 22.6179C22.3098 22.5596 22.3478 22.5092 22.3981 22.4733C22.4385 22.4384 22.4901 22.4191 22.5434 22.419C22.6482 22.4286 22.7473 22.4707 22.8268 22.5395C22.9275 22.6521 22.9824 22.7984 22.9805 22.9494C22.9688 23.051 22.9507 23.1516 22.9262 23.2508C22.7121 23.7691 22.3531 24.2148 21.8923 24.5344C21.4643 24.824 20.9589 24.9776 20.4421 24.975C19.137 24.975 18.2328 24.7178 17.7296 24.2034C17.2071 23.629 16.9377 22.8686 16.9821 22.0934V16.0539H13.916V14.9289H16.9964V12.3639L16.2911 11.6582V11.083H18.3376L19.1063 11.4809V14.9289L27.0694 14.9047L27.8622 15.7004L22.9794 20.607C23.2744 20.4884 23.585 20.4132 23.9016 20.3839C24.5282 20.4114 25.1396 20.5859 25.6863 20.8934C26.3193 21.1943 26.8529 21.6704 27.2236 22.2653C27.5557 22.7688 27.7909 23.33 27.9168 23.92C28.0204 24.3853 28.0759 24.8601 28.0826 25.3368C28.0858 26.2465 27.8796 27.1448 27.4798 27.962C27.1007 28.7533 26.4626 29.3914 25.6713 29.7705C24.8612 30.1697 23.9698 30.3759 23.0668 30.3732Z" fill="white"/>
</svg>
