<svg width="15" height="16" viewBox="0 0 15 16" fill="none" xmlns="http://www.w3.org/2000/svg">
<path d="M12.4584 0.916504H2.54175C1.97816 0.916504 1.43766 1.14039 1.03915 1.5389C0.640631 1.93742 0.416748 2.47792 0.416748 3.0415V12.9582C0.416748 13.5218 0.640631 14.0623 1.03915 14.4608C1.43766 14.8593 1.97816 15.0832 2.54175 15.0832H12.4584C13.022 15.0832 13.5625 14.8593 13.961 14.4608C14.3595 14.0623 14.5834 13.5218 14.5834 12.9582V3.0415C14.5834 2.47792 14.3595 1.93742 13.961 1.5389C13.5625 1.14039 13.022 0.916504 12.4584 0.916504Z" fill="#CEAEFE"/>
<path fill-rule="evenodd" clip-rule="evenodd" d="M2.48891 6.48877L1.91284 9.88216H2.93477L3.17049 8.30831L3.78335 9.88216H4.24276L4.89327 8.29609L5.13082 9.88216H7.21825L7.4095 9.32541H8.46467L8.65592 9.88216H10.696L11.3936 8.91259L11.9887 9.88216H13.2386L11.9785 8.07954L13.1038 6.48877H11.8414L11.3659 7.22464L10.981 6.48877H9.7187L10.7788 8.07665L9.64792 9.6177L8.45694 6.48877H7.41723L6.14437 9.8328L5.57668 6.48877H4.60686L4.03463 8.02234L3.45858 6.48877H2.48891ZM2.85342 9.78769H2.02536L2.56936 6.58321H2.56867L2.02467 9.78771H2.85342L2.85342 9.78769ZM3.13017 7.94449L3.84792 9.78771H4.17942L4.17943 9.78769H3.84861L3.13036 7.94319L3.13017 7.94449ZM4.9361 7.94444L5.21217 9.78771H6.04092L6.04092 9.78769H5.21286L4.93661 7.94319L4.9361 7.94444ZM4.67311 6.58321H4.67242L4.03527 8.29078L4.03561 8.29169L4.67311 6.58321ZM7.15084 9.78769H6.26328L7.48302 6.58321H7.48233L6.26258 9.78771H7.15084L7.15084 9.78769ZM7.34277 9.23096H8.53208L8.72333 9.78771H9.61159L9.61158 9.78769H8.72403L8.53278 9.23094H7.34278L7.34277 9.23096ZM10.6476 9.78769L10.6476 9.78771H9.64031L10.8941 8.07921L9.89531 6.58321H9.89601L10.8947 8.07919L9.641 9.78769H10.6476ZM11.4001 8.74272L12.0416 9.78771H13.0573L13.0573 9.78769H12.0422L11.4005 8.74219L11.4001 8.74272ZM11.8935 6.58321H11.8928L11.3577 7.41136L11.358 7.41194L11.8935 6.58321ZM8.31108 8.59769L7.93743 7.53194L7.93778 7.53094L8.31178 8.59769H8.31108ZM7.69628 8.50327L7.93708 7.81642L8.17789 8.50327H7.69628Z" fill="#252246"/>
</svg>
