<svg width="34" height="34" viewBox="0 0 34 34" fill="none" xmlns="http://www.w3.org/2000/svg">
<rect width="34" height="34" rx="17" fill="#6202EF"/>
<path d="M16.168 14.5003H19.5013C19.7223 14.5003 19.9343 14.4125 20.0906 14.2562C20.2468 14.1 20.3346 13.888 20.3346 13.667C20.3346 13.446 20.2468 13.234 20.0906 13.0777C19.9343 12.9215 19.7223 12.8337 19.5013 12.8337H17.8346V12.0003C17.8346 11.7793 17.7468 11.5674 17.5906 11.4111C17.4343 11.2548 17.2223 11.167 17.0013 11.167C16.7803 11.167 16.5683 11.2548 16.412 11.4111C16.2558 11.5674 16.168 11.7793 16.168 12.0003V12.8337C15.5049 12.8337 14.869 13.0971 14.4002 13.5659C13.9314 14.0347 13.668 14.6706 13.668 15.3337C13.668 15.9967 13.9314 16.6326 14.4002 17.1014C14.869 17.5703 15.5049 17.8337 16.168 17.8337H17.8346C18.0556 17.8337 18.2676 17.9215 18.4239 18.0777C18.5802 18.234 18.668 18.446 18.668 18.667C18.668 18.888 18.5802 19.1 18.4239 19.2562C18.2676 19.4125 18.0556 19.5003 17.8346 19.5003H14.5013C14.2803 19.5003 14.0683 19.5881 13.912 19.7444C13.7558 19.9007 13.668 20.1126 13.668 20.3337C13.668 20.5547 13.7558 20.7666 13.912 20.9229C14.0683 21.0792 14.2803 21.167 14.5013 21.167H16.168V22.0003C16.168 22.2213 16.2558 22.4333 16.412 22.5896C16.5683 22.7459 16.7803 22.8337 17.0013 22.8337C17.2223 22.8337 17.4343 22.7459 17.5906 22.5896C17.7468 22.4333 17.8346 22.2213 17.8346 22.0003V21.167C18.4977 21.167 19.1336 20.9036 19.6024 20.4348C20.0712 19.9659 20.3346 19.33 20.3346 18.667C20.3346 18.004 20.0712 17.3681 19.6024 16.8992C19.1336 16.4304 18.4977 16.167 17.8346 16.167H16.168C15.947 16.167 15.735 16.0792 15.5787 15.9229C15.4224 15.7666 15.3346 15.5547 15.3346 15.3337C15.3346 15.1126 15.4224 14.9007 15.5787 14.7444C15.735 14.5881 15.947 14.5003 16.168 14.5003ZM22.8346 8.66699H11.168C10.5049 8.66699 9.86904 8.93038 9.4002 9.39923C8.93136 9.86807 8.66797 10.504 8.66797 11.167V22.8337C8.66797 23.4967 8.93136 24.1326 9.4002 24.6014C9.86904 25.0703 10.5049 25.3337 11.168 25.3337H22.8346C23.4977 25.3337 24.1336 25.0703 24.6024 24.6014C25.0712 24.1326 25.3346 23.4967 25.3346 22.8337V11.167C25.3346 10.504 25.0712 9.86807 24.6024 9.39923C24.1336 8.93038 23.4977 8.66699 22.8346 8.66699ZM23.668 22.8337C23.668 23.0547 23.5802 23.2666 23.4239 23.4229C23.2676 23.5792 23.0556 23.667 22.8346 23.667H11.168C10.947 23.667 10.735 23.5792 10.5787 23.4229C10.4224 23.2666 10.3346 23.0547 10.3346 22.8337V11.167C10.3346 10.946 10.4224 10.734 10.5787 10.5777C10.735 10.4215 10.947 10.3337 11.168 10.3337H22.8346C23.0556 10.3337 23.2676 10.4215 23.4239 10.5777C23.5802 10.734 23.668 10.946 23.668 11.167V22.8337Z" fill="white"/>
</svg>
