<svg width="38" height="38" viewBox="0 0 38 38" fill="none" xmlns="http://www.w3.org/2000/svg">
<path d="M34 19C34 27.2843 27.2843 34 19 34C10.7157 34 4 27.2843 4 19C4 10.7157 10.7157 4 19 4C27.2843 4 34 10.7157 34 19ZM17.265 26.9424L28.394 15.8133C28.7719 15.4354 28.7719 14.8227 28.394 14.4448L27.0254 13.0762C26.6475 12.6982 26.0348 12.6982 25.6568 13.0762L16.5806 22.1523L12.3432 17.9149C11.9653 17.537 11.3525 17.537 10.9746 17.9149L9.60601 19.2834C9.2281 19.6613 9.2281 20.2741 9.60601 20.652L15.8963 26.9423C16.2743 27.3203 16.887 27.3203 17.265 26.9424Z" fill="#16A135"/>
</svg>
