<svg width="13" height="9" viewBox="0 0 13 9" fill="none" xmlns="http://www.w3.org/2000/svg">
<path d="M12.1165 6.03957H11.2949V2.37975C11.4688 2.68482 11.6797 2.96723 11.9229 3.22059C11.974 3.27304 12.044 3.30284 12.1173 3.3033C12.1904 3.30375 12.2608 3.27487 12.3127 3.22306C12.3644 3.17135 12.3933 3.10093 12.3928 3.02775C12.3923 2.95449 12.3626 2.88443 12.3102 2.83336C11.7731 2.2963 11.2949 1.26878 11.2949 0.836059C11.2949 0.763435 11.2661 0.693748 11.2148 0.642399C11.1634 0.59105 11.0938 0.562165 11.021 0.562257H10.4733C10.346 0.563265 10.2367 0.653126 10.2112 0.777923L10.206 0.776731C9.73575 2.89222 8.22847 4.25932 6.36539 4.25932C4.50232 4.25932 2.99501 2.89215 2.52483 0.776731L2.5207 0.783608V0.783517C2.49741 0.656152 2.38683 0.563265 2.25735 0.562256H1.70965C1.63694 0.562164 1.56725 0.591049 1.5159 0.642398C1.46455 0.693748 1.43576 0.763435 1.43576 0.836058C1.43576 1.26878 0.957572 2.2963 0.420512 2.83336C0.368062 2.88443 0.338354 2.95449 0.337896 3.02775C0.337438 3.10092 0.366321 3.17135 0.418038 3.22306C0.469845 3.27487 0.540267 3.30375 0.61344 3.3033C0.686704 3.30284 0.756668 3.27304 0.807832 3.22059C1.051 2.96723 1.26191 2.68482 1.43576 2.37975V6.03957H0.614172C0.541549 6.03957 0.471862 6.06836 0.420512 6.11971C0.369072 6.17106 0.340279 6.24075 0.340279 6.31346V6.86116C0.340279 6.93378 0.369072 7.00347 0.420512 7.05482C0.471862 7.10626 0.541549 7.13505 0.614172 7.13505H1.43576V7.95664C1.43576 8.02926 1.46455 8.09895 1.5159 8.1503C1.56725 8.20165 1.63694 8.23053 1.70965 8.23044H2.25735C2.32997 8.23053 2.39966 8.20165 2.45101 8.1503C2.50245 8.09895 2.53124 8.02926 2.53124 7.95664V7.13505H10.1992V7.95664C10.1992 8.02926 10.228 8.09895 10.2795 8.1503C10.3308 8.20165 10.4005 8.23053 10.4731 8.23044H11.0208C11.0935 8.23053 11.1632 8.20165 11.2146 8.1503C11.2659 8.09895 11.2947 8.02926 11.2947 7.95664V7.13505H12.1163C12.1889 7.13505 12.2586 7.10626 12.31 7.05482C12.3614 7.00347 12.3902 6.93378 12.3902 6.86116V6.31346C12.3902 6.24075 12.3614 6.17106 12.31 6.11971C12.2586 6.06836 12.1889 6.03957 12.1163 6.03957L12.1165 6.03957ZM6.36541 4.80719C8.00887 4.80719 9.40411 3.89051 10.1994 2.3814V6.03957H2.53141V2.3814C3.32669 3.8906 4.722 4.80719 6.36541 4.80719Z" fill="#6202EF"/>
</svg>
