<svg width="11" height="7" viewBox="0 0 11 7" fill="none" xmlns="http://www.w3.org/2000/svg">
<path d="M10.0042 4.66882H9.33204V1.67442C9.47428 1.92402 9.64684 2.15509 9.8458 2.36238C9.88766 2.40529 9.9449 2.42967 10.0048 2.43005C10.0647 2.43042 10.1223 2.40679 10.1647 2.3644C10.207 2.32209 10.2307 2.26447 10.2303 2.2046C10.2299 2.14466 10.2056 2.08734 10.1627 2.04555C9.72328 1.60614 9.33204 0.76544 9.33204 0.411398C9.33204 0.351979 9.30848 0.294962 9.26647 0.25295C9.22445 0.210937 9.16744 0.187304 9.10794 0.187379H8.65983C8.55562 0.188204 8.4662 0.261727 8.44534 0.363833L8.44106 0.362858C8.05635 2.09372 6.82312 3.21225 5.29878 3.21225C3.77444 3.21225 2.54119 2.09366 2.1565 0.362858L2.15312 0.368484V0.368409C2.13407 0.264202 2.04359 0.188204 1.93765 0.187378H1.48954C1.43004 0.187303 1.37303 0.210936 1.33101 0.252949C1.289 0.294962 1.26544 0.351979 1.26544 0.411398C1.26544 0.76544 0.8742 1.60614 0.434787 2.04555C0.391873 2.08734 0.367566 2.14466 0.367192 2.2046C0.366817 2.26447 0.390448 2.32209 0.432763 2.3644C0.47515 2.40679 0.532768 2.43042 0.592637 2.43005C0.652581 2.42967 0.709824 2.40529 0.751685 2.36238C0.950639 2.15509 1.1232 1.92402 1.26544 1.67442V4.66882H0.593236C0.533817 4.66882 0.4768 4.69238 0.434787 4.73439C0.392699 4.7764 0.369141 4.83342 0.369141 4.89291V5.34102C0.369141 5.40044 0.392699 5.45746 0.434787 5.49947C0.4768 5.54156 0.533817 5.56512 0.593236 5.56512H1.26544V6.23733C1.26544 6.29675 1.289 6.35376 1.33101 6.39578C1.37303 6.43779 1.43004 6.46142 1.48954 6.46135H1.93765C1.99707 6.46142 2.05409 6.43779 2.0961 6.39578C2.13819 6.35376 2.16175 6.29675 2.16175 6.23733V5.56512H8.43556V6.23733C8.43556 6.29675 8.45911 6.35376 8.5012 6.39578C8.54321 6.43779 8.60023 6.46142 8.65965 6.46135H9.10776C9.16726 6.46142 9.22427 6.43779 9.26629 6.39578C9.3083 6.35376 9.33186 6.29675 9.33186 6.23733V5.56512H10.0041C10.0635 5.56512 10.1205 5.54156 10.1625 5.49947C10.2046 5.45746 10.2282 5.40044 10.2282 5.34102V4.89291C10.2282 4.83342 10.2046 4.7764 10.1625 4.73439C10.1205 4.69238 10.0635 4.66882 10.0041 4.66882L10.0042 4.66882ZM5.29879 3.66051C6.64344 3.66051 7.785 2.9105 8.4357 1.67577V4.66882H2.16189V1.67577C2.81257 2.91057 3.95419 3.66051 5.29879 3.66051Z" fill="#CEAEFE"/>
</svg>
