<svg width="14" height="14" viewBox="0 0 14 14" fill="none" xmlns="http://www.w3.org/2000/svg">
<rect width="14" height="14" rx="7" fill="#2C7DF7"/>
<path d="M7.51846 11.8905C6.81305 11.8905 6.29932 11.7299 5.97668 11.4088C5.65434 11.0878 5.49309 10.7416 5.49325 10.3706C5.49331 10.2349 5.52142 10.1208 5.57773 10.0281C5.63268 9.93654 5.71243 9.86072 5.80867 9.8085C5.90621 9.75498 6.02622 9.72829 6.16886 9.72829C6.31149 9.72829 6.43132 9.75498 6.52897 9.8085C6.62647 9.86202 6.70333 9.93531 6.75957 10.0281C6.81581 10.1208 6.84382 10.2349 6.84377 10.3706C6.8437 10.5347 6.8024 10.6684 6.71988 10.7719C6.6372 10.8754 6.53965 10.9431 6.42708 10.9754C6.5247 11.1037 6.67846 11.1947 6.88851 11.2482C7.09856 11.3054 7.30862 11.3339 7.51869 11.3339C7.81125 11.3339 8.07577 11.259 8.31226 11.1091C8.5486 10.9592 8.72326 10.738 8.83594 10.4455C8.94862 10.1529 9.00504 9.82103 9.0052 9.4499C9.00537 9.04678 8.9435 8.70234 8.8199 8.41702C8.69987 8.12802 8.52183 7.91393 8.28546 7.77474C8.05638 7.6376 7.79101 7.56524 7.52029 7.5661C7.34014 7.5661 7.11515 7.63746 6.84486 7.78019L6.34958 8.01567L6.34968 7.78019L8.57936 4.95433H5.49554L5.4943 7.88709C5.4942 8.12979 5.55039 8.32959 5.66288 8.48662C5.77537 8.64365 5.94789 8.7221 6.1806 8.7221C6.36044 8.7221 6.53318 8.66503 6.69834 8.55076C6.86456 8.43551 7.00917 8.29444 7.1261 8.13348C7.14115 8.10119 7.15992 8.07804 7.18241 8.06374C7.20264 8.04676 7.22862 8.03728 7.2556 8.03705C7.29684 8.03705 7.34551 8.05666 7.40193 8.09603C7.45446 8.15294 7.48063 8.219 7.4806 8.2939C7.47412 8.34435 7.46468 8.39441 7.45232 8.44386C7.32477 8.71502 7.14825 8.92189 6.92308 9.06462C6.70386 9.20562 6.44495 9.28025 6.18036 9.27872C5.51247 9.27872 5.05098 9.15383 4.79605 8.9042C4.54113 8.65427 4.41367 8.31528 4.41386 7.88724L4.4151 4.95433H2.83931L2.83954 4.40833H4.41533L4.41585 3.16681L4.05585 2.82399L4.05597 2.5459H5.10261L5.49632 2.73847L5.49562 4.40833L9.56996 4.39771L9.97506 4.783L7.4755 7.15928C7.62679 7.10194 7.78604 7.06588 7.94825 7.05224C8.21832 7.05224 8.52216 7.13437 8.85976 7.29848C9.20108 7.45905 9.46361 7.68037 9.64721 7.962C9.83097 8.24038 9.94899 8.508 10.0014 8.76486C10.0576 9.02186 10.0857 9.25011 10.0856 9.4499C10.0855 9.9067 9.98388 10.3312 9.78123 10.7239C9.57844 11.1162 9.27072 11.4088 8.85793 11.6015C8.44515 11.7942 7.9986 11.8905 7.51846 11.8905Z" fill="#FFFBED"/>
</svg>
